<svg id="Layer_1" data-name="Layer 1" xmlns="http://www.w3.org/2000/svg" viewBox="0 0 5442.52 3061.42"><defs><style>.cls-1{fill:#fcd039;}</style></defs><title>Artboard 1</title><path class="cls-1" d="M349.22,2717.66H315.77l26.9,20.06-9.6,33.84,28-19.39,27,19.39L378.18,2738l28.6-20.58H372.56l-11.5-30Zm865.54,0H1181.3l26.87,20.06-9.58,33.84,28-19.39,27,19.39-9.88-33.57,28.64-20.58h-34.23l-11.53-30Zm2990.73,0H4172l26.9,20.06-9.6,33.84,28-19.39,27,19.39-9.88-33.57,28.6-20.58h-34.23l-11.49-30Zm865.54,0h-33.46l26.87,20.06-9.58,33.84,28-19.39,27,19.39L5100,2738l28.64-20.58h-34.23l-11.53-30Zm-3966.2,21.82c6.53,3.41,12.81,6.65,19.3,10,17.21-33.6,34.32-66.94,51.53-100.57-6.5-3.29-12.86-6.46-19.36-9.76-17.26,33.46-34.32,66.95-51.47,100.32m3856.26,0c6.53,3.41,12.81,6.65,19.3,10,17.21-33.6,34.32-66.94,51.53-100.57-6.5-3.29-12.87-6.46-19.36-9.76-17.27,33.46-34.32,66.95-51.47,100.32M419.33,2652.09c15.38,34.44,30.62,68.65,45.85,103.09l20.2-8.92-.93-2.19c-5.75-12.77-11.34-25.55-17-38.36l1.56-3.83c6.34-2.84,12.75-5.65,19.15-8.46,4.13-1.8,8.33-3.78,12.6-5.69-3-6.88-6-13.56-9-20.41l-3,1.26c-9.58,4.21-19.18,8.47-28.67,12.77l-3.86-1.25c-2.07-4.94-4.31-9.73-6.5-14.6l1.56-4.1c8.53-3.71,17-7.48,25.43-11.25,5.45-2.34,10.92-4.82,16.46-7.27-2.91-6.65-5.75-13-8.74-19.61-21.73,9.58-43.3,19.18-65,28.82m3856.26,0c15.39,34.44,30.62,68.65,45.85,103.09l20.2-8.92-.93-2.19c-5.75-12.77-11.34-25.55-17-38.36l1.56-3.83c6.34-2.84,12.75-5.65,19.15-8.46,4.13-1.8,8.32-3.78,12.6-5.69-3-6.88-6-13.56-9-20.41l-3,1.26c-9.58,4.21-19.18,8.47-28.68,12.77l-3.85-1.25c-2.07-4.94-4.31-9.73-6.5-14.6l1.56-4.1c8.52-3.71,17-7.48,25.43-11.25,5.45-2.34,10.92-4.82,16.46-7.27-2.9-6.65-5.75-13-8.74-19.61-21.73,9.58-43.3,19.18-65,28.82m-3250.19-6.67c-9.06,19.3-7.9,38.3,3.48,56.47,9.78,15.45,23.43,25.73,41.74,29.24a31.47,31.47,0,0,0,13.26-.21c-.37-7.33-.84-14.51-1.32-21.6-4.13-1.06-8.11-1.89-12.06-3-24.36-7.09-29.54-28.37-26.31-43.48,4.28-19.75,28.14-35.07,48.72-24.84a93.76,93.76,0,0,1,17.59,11.61l2.43.59c5.74-4,11.49-7.6,17.41-11.55l-1-1.61c-10.59-14.76-25.26-22.44-43-24.81a59.88,59.88,0,0,0-8-.55c-24.34,0-44.11,15.15-52.89,33.7m3856.26,0c-9.06,19.3-7.9,38.3,3.47,56.47,9.78,15.45,23.43,25.73,41.74,29.24a31.49,31.49,0,0,0,13.26-.21c-.36-7.33-.84-14.51-1.32-21.6-4.13-1.06-8.11-1.89-12.06-3-24.35-7.09-29.53-28.37-26.31-43.48,4.28-19.75,28.14-35.07,48.72-24.84a93.77,93.77,0,0,1,17.59,11.61l2.43.59c5.74-4,11.49-7.6,17.41-11.55l-1-1.61c-10.59-14.76-25.25-22.44-43-24.81a59.79,59.79,0,0,0-8-.55c-24.35,0-44.11,15.15-52.89,33.7M509.89,2612.09c12.18,35.73,24.39,71.25,36.53,106.8,7-2.48,13.77-4.79,20.68-7.16-12.24-35.72-24.36-71.16-36.57-106.79-7,2.39-13.73,4.78-20.64,7.15m3856.26,0c12.18,35.73,24.39,71.25,36.53,106.8,7-2.48,13.77-4.79,20.68-7.16-12.24-35.72-24.36-71.16-36.57-106.79-7,2.39-13.74,4.78-20.64,7.15M941.1,2596c-24.21,18.52-30.31,53.57-13.19,79.18s49.73,33.19,68.1,24.93c-2-6.89-4.1-13.92-6.07-20.59-5.3-.24-10.42-.24-15.5-.77-27.65-2.85-35.88-28.67-31.42-45.25,4.34-16.13,22.3-30.91,42-26.09a79.93,79.93,0,0,1,19.92,8.4q7.63-8,15.15-16c-9.45-10.48-24.86-16.22-40.87-16.22-13.3,0-27,4-38.08,12.44m3856.26,0c-24.2,18.52-30.31,53.57-13.19,79.18s49.73,33.19,68.1,24.93c-2-6.89-4.1-13.92-6.07-20.59-5.3-.24-10.42-.24-15.51-.77-27.65-2.85-35.88-28.67-31.42-45.25,4.34-16.13,22.3-30.91,42-26.09a79.84,79.84,0,0,1,19.92,8.4q7.64-8,15.15-16c-9.45-10.48-24.86-16.22-40.87-16.22-13.3,0-27,4-38.08,12.44M593.43,2644.13c-4.28-19,8.68-38.64,28.49-42.88,2.78-.66,5.63-.84,8.5-1.31,20,.29,36.48,15.62,37.38,35.54.81,17.3-10.95,32.53-28.49,36.87a38.89,38.89,0,0,1-9.21,1.11h0a37.4,37.4,0,0,1-36.65-29.33m37.2-66.85a61.79,61.79,0,0,0-23.29,4.33c-21.15,8.65-34.32,24-37.61,46.72-3.21,22.48,4.33,41.62,22.47,55.3,21.34,16.07,44.62,17.53,68.26,5.27,23.43-12.18,35.37-39.2,29.54-64.76-6.25-27.7-30.44-46.86-59.17-46.86h-.2m3819.06,66.85c-4.28-19,8.68-38.64,28.49-42.88,2.78-.66,5.62-.84,8.5-1.31,20,.29,36.48,15.62,37.38,35.54.81,17.3-11,32.53-28.49,36.87a38.86,38.86,0,0,1-9.21,1.11h0a37.4,37.4,0,0,1-36.65-29.33m37.2-66.85a61.73,61.73,0,0,0-23.28,4.33c-21.16,8.65-34.32,24-37.62,46.72-3.2,22.48,4.34,41.62,22.48,55.3,21.33,16.07,44.62,17.53,68.26,5.27,23.43-12.18,35.37-39.2,29.53-64.76-6.24-27.7-30.44-46.86-59.17-46.86h-.2M820,2591.29c-1.26,14.22-2.63,28.31-3.81,42.41-.51,7.15-1.17,14.27-1,21.36.18,8.18,4,15.14,10.15,20.5,13.32,11.46,28.52,13.62,45.09,9.22,13.14-3.59,21.16-12.06,23.94-25.07,1.5-7,2-14.27,2.72-21.4,1.32-14.58,2.57-29.14,3.86-43.66.57-6.73,1.08-13.4,1.68-20.26l-22.35-2-.48,2.75c-1,12.09-2.07,24.12-3.2,36.27-1.17,12.5-2.25,25.1-3.63,37.61-1,8.74-5.5,13.52-13.49,14.84l-5.54.06c-9.31-.78-14.31-5.08-15.53-13.88l-.24-5.74c.24-4,.63-8.08,1-12,1.34-15.89,2.87-31.72,4.28-47.67.47-5.18.93-10.3,1.4-15.59-7.63-.72-15-1.44-22.56-2.09-.75,8.29-1.5,16.37-2.27,24.36m3856.26,0c-1.26,14.22-2.63,28.31-3.81,42.41-.51,7.15-1.16,14.27-1,21.36.19,8.18,4,15.14,10.15,20.5,13.31,11.46,28.52,13.62,45.09,9.22,13.14-3.59,21.16-12.06,23.94-25.07,1.5-7,2-14.27,2.72-21.4,1.32-14.58,2.57-29.14,3.85-43.66.57-6.73,1.09-13.4,1.68-20.26l-22.35-2-.48,2.75c-1,12.09-2.06,24.12-3.2,36.27-1.16,12.5-2.25,25.1-3.62,37.61-1,8.74-5.51,13.52-13.5,14.84l-5.53.06c-9.31-.78-14.31-5.08-15.53-13.88l-.25-5.74c.25-4,.63-8.08,1-12,1.35-15.89,2.87-31.72,4.28-47.67.47-5.18.93-10.3,1.4-15.59-7.63-.72-15-1.44-22.56-2.09-.75,8.29-1.5,16.37-2.28,24.36m-3942.39,24c-.26-7.81-.75-15.56-1.11-23.34l2.51-2.9c3.6-.09,7.16-.42,10.69-.66v-.26a80.37,80.37,0,0,1,9.72.66c6.31,1.29,11.11,8.08,10.83,14.54-.39,6.88-4.9,12.15-11.67,13.17-3,.39-5.93.57-8.88.78-3.15.11-6.34.11-9.55.26Zm20.51-48.44c-12.1.48-24.15,1-36.3,1.46-2.82.15-5.63.42-8.56.71q2.68,56.26,5.48,112.46c7.42-.39,14.66-.78,21.89-1.14-.29-6.67-.65-13.16-1-19.69-.18-5.41-.51-10.86-.75-16.21l2.7-1.89,4.63,3.2c2.61,2.9,4.92,6,7.34,9,5.75,7.15,11.59,14.33,17.32,21.55l5.27,2.42c4.8-.3,9.51-.3,14.27-.54,3.68-.21,7.43-.48,11.67-.63l-2.54-3c-9.69-11.07-19.41-22.26-29.05-33.42-2.7-3-2.63-3.31.81-5.18,18.61-9.9,25.7-31.2,16.57-49.82-5.9-12-15-19.35-28.8-19.35h-1m3835.76,48.44c-.27-7.81-.75-15.56-1.11-23.34l2.51-2.9c3.59-.09,7.16-.42,10.69-.66v-.26a80.51,80.51,0,0,1,9.73.66c6.31,1.29,11.1,8.08,10.82,14.54-.38,6.88-4.9,12.15-11.67,13.17-3,.39-5.93.57-8.88.78-3.15.11-6.34.11-9.55.26Zm20.5-48.44c-12.1.48-24.15,1-36.3,1.46-2.82.15-5.62.42-8.56.71q2.69,56.26,5.48,112.46c7.42-.39,14.66-.78,21.9-1.14-.29-6.67-.65-13.16-1-19.69-.18-5.41-.51-10.86-.75-16.21l2.7-1.89,4.63,3.2c2.61,2.9,4.92,6,7.34,9,5.75,7.15,11.59,14.33,17.32,21.55l5.27,2.42c4.8-.3,9.51-.3,14.28-.54,3.68-.21,7.42-.48,11.67-.63l-2.54-3c-9.7-11.07-19.42-22.26-29.06-33.42-2.7-3-2.63-3.31.81-5.18,18.61-9.9,25.7-31.2,16.57-49.82-5.9-12-15-19.35-28.8-19.35h-1M549.83,2080.26H516.38l26.87,20.05-9.57,33.84,28-19.39,27,19.39-9.88-33.57L607.43,2080H573.2l-11.53-30Zm4353.64,0H4870l26.9,20.05-9.6,33.84,28-19.39,27,19.39-9.88-33.57L4961,2080h-34.23l-11.5-30ZM439.88,2102.08c6.53,3.41,12.82,6.65,19.31,10,17.21-33.6,34.32-66.94,51.53-100.57-6.5-3.29-12.87-6.47-19.36-9.76-17.27,33.46-34.32,66.95-51.47,100.31m4533.69-87.39c15.39,34.45,30.62,68.65,45.85,103.1l20.2-8.92-.93-2.18c-5.75-12.78-11.34-25.56-17-38.36l1.56-3.83c6.34-2.84,12.75-5.65,19.15-8.46,4.13-1.8,8.32-3.77,12.6-5.69-3-6.88-6-13.56-9-20.4l-3,1.26c-9.58,4.21-19.18,8.47-28.67,12.77l-3.86-1.26c-2.07-4.94-4.31-9.73-6.5-14.6l1.56-4.1c8.53-3.71,17-7.48,25.43-11.25,5.45-2.34,10.93-4.82,16.46-7.27-2.9-6.65-5.75-13-8.74-19.61-21.72,9.58-43.3,19.18-65,28.82M360.47,2008c-9.07,19.31-7.9,38.3,3.47,56.47,9.78,15.44,23.43,25.73,41.74,29.23a31.49,31.49,0,0,0,13.26-.21c-.37-7.33-.84-14.51-1.32-21.61-4.13-1.05-8.11-1.88-12.06-3-24.36-7.09-29.54-28.37-26.31-43.48,4.28-19.75,28.13-35.07,48.71-24.84a94.15,94.15,0,0,1,17.6,11.62l2.42.59c5.74-4,11.49-7.6,17.41-11.55l-1-1.62c-10.59-14.75-25.25-22.44-43-24.81a59.79,59.79,0,0,0-8-.55c-24.34,0-44.11,15.15-52.89,33.7m4703.66-33.34c12.18,35.74,24.39,71.25,36.53,106.81,7-2.49,13.77-4.8,20.68-7.16-12.24-35.72-24.36-71.16-36.57-106.79-7,2.39-13.74,4.79-20.64,7.15M8.63,2042.11a58.94,58.94,0,0,0,16.45-55.37,59.74,59.74,0,0,0-16.45-29.66Zm267.54-83.52c-24.21,18.52-30.31,53.57-13.19,79.18s49.73,33.19,68.11,24.93c-2-6.89-4.1-13.92-6.08-20.59-5.3-.23-10.42-.23-15.51-.77-27.64-2.85-35.88-28.67-31.42-45.25,4.34-16.13,22.3-30.91,42-26.09a80.23,80.23,0,0,1,19.92,8.4q7.63-8,15.15-16c-9.45-10.48-24.86-16.22-40.86-16.22-13.3,0-27,4-38.08,12.44m4871.51,48.14c-4.28-19,8.68-38.63,28.49-42.88,2.78-.66,5.63-.84,8.5-1.32,20,.29,36.48,15.62,37.38,35.55.81,17.3-10.95,32.53-28.49,36.87a38.82,38.82,0,0,1-9.21,1.12,37.42,37.42,0,0,1-36.66-29.34m37.2-66.84a61.59,61.59,0,0,0-23.28,4.33c-21.15,8.65-34.32,24-37.62,46.71-3.2,22.48,4.34,41.63,22.48,55.31,21.33,16.07,44.62,17.53,68.26,5.27,23.43-12.18,35.37-39.2,29.54-64.76-6.25-27.7-30.44-46.86-59.17-46.86h-.2m-5029.78,14c-1.26,14.22-2.63,28.32-3.8,42.41-.51,7.15-1.17,14.27-1,21.36.19,8.18,4,15.15,10.15,20.51,13.31,11.46,28.52,13.61,45.09,9.22,13.14-3.6,21.16-12.06,23.94-25.07,1.5-7,2-14.28,2.72-21.4,1.32-14.58,2.57-29.15,3.86-43.67.57-6.73,1.08-13.4,1.68-20.26l-22.36-2-.48,2.75c-1,12.09-2.06,24.11-3.19,36.27-1.16,12.5-2.25,25.1-3.63,37.61-1,8.74-5.51,13.52-13.49,14.84l-5.53.06c-9.31-.78-14.31-5.09-15.53-13.88l-.24-5.75c.24-4,.63-8.08,1-12,1.35-15.89,2.87-31.72,4.28-47.67.47-5.18.93-10.3,1.4-15.6-7.63-.72-15.05-1.43-22.56-2.09-.75,8.29-1.5,16.37-2.28,24.36m5219.18,0c-1.27,14.22-2.64,28.32-3.81,42.41-.51,7.15-1.17,14.27-1,21.36.19,8.18,4,15.15,10.15,20.51,13.31,11.46,28.52,13.61,45.09,9.22,13.14-3.6,21.16-12.06,23.95-25.07,1.5-7,2-14.28,2.72-21.4,1.32-14.58,2.57-29.15,3.86-43.67.57-6.73,1.08-13.4,1.68-20.26l-22.36-2-.48,2.75c-1,12.09-2.06,24.11-3.19,36.27-1.17,12.5-2.26,25.1-3.63,37.61-1,8.74-5.51,13.52-13.49,14.84l-5.53.06c-9.31-.78-14.31-5.09-15.53-13.88l-.24-5.75c.24-4,.63-8.08,1-12,1.35-15.89,2.87-31.72,4.28-47.67.47-5.18.93-10.3,1.4-15.6-7.63-.72-15.05-1.43-22.56-2.09-.75,8.29-1.5,16.37-2.27,24.36M69,1977.89c-.27-7.81-.75-15.57-1.11-23.34l2.51-2.91c3.6-.08,7.16-.41,10.69-.66v-.27a80.45,80.45,0,0,1,9.73.66c6.31,1.29,11.1,8.08,10.83,14.54-.39,6.88-4.9,12.15-11.67,13.16-3,.39-5.93.57-8.89.79-3.15.11-6.34.11-9.55.26Zm20.5-48.45c-12.1.48-24.15,1-36.31,1.46-2.82.15-5.62.43-8.56.72q2.7,56.25,5.48,112.46c7.42-.39,14.66-.79,21.89-1.14-.29-6.67-.65-13.17-1-19.69-.18-5.41-.51-10.86-.75-16.22l2.7-1.89,4.63,3.2c2.61,2.91,4.92,6,7.34,9,5.75,7.15,11.59,14.33,17.32,21.54l5.27,2.42c4.8-.3,9.52-.3,14.28-.54,3.68-.21,7.42-.48,11.67-.63l-2.54-3c-9.7-11.07-19.42-22.25-29.06-33.42-2.7-3-2.63-3.32.81-5.18,18.61-9.91,25.7-31.21,16.57-49.82-5.9-12-15-19.35-28.81-19.35h-1m5198.67,48.45c-.27-7.81-.75-15.57-1.11-23.34l2.51-2.91c3.6-.08,7.16-.41,10.69-.66v-.27a80.46,80.46,0,0,1,9.73.66c6.31,1.29,11.1,8.08,10.83,14.54-.38,6.88-4.9,12.15-11.67,13.16-3,.39-5.93.57-8.89.79-3.15.11-6.34.11-9.55.26Zm20.5-48.45c-12.1.48-24.15,1-36.31,1.46-2.82.15-5.62.43-8.56.72q2.7,56.25,5.48,112.46c7.42-.39,14.66-.79,21.89-1.14-.29-6.67-.65-13.17-1-19.69-.18-5.41-.51-10.86-.75-16.22l2.7-1.89,4.63,3.2c2.6,2.91,4.91,6,7.33,9,5.75,7.15,11.59,14.33,17.33,21.54l5.27,2.42c4.79-.3,9.51-.3,14.27-.54,3.68-.21,7.42-.48,11.67-.63l-2.54-3c-9.7-11.07-19.42-22.25-29.05-33.42-2.7-3-2.64-3.32.81-5.18,18.61-9.91,25.7-31.21,16.57-49.82-5.9-12-15-19.35-28.81-19.35h-1m-3674-463.36h-33.46l26.9,20.05-9.6,33.84,28-19.38,27,19.38-9.88-33.57,28.6-20.58H1658l-11.5-30Zm865.54,0h-33.46l26.87,20.05L2484,1520l28-19.38,27,19.38-9.88-33.57,28.64-20.58h-34.23l-11.53-30Zm-109.95,21.82c6.53,3.41,12.82,6.64,19.31,10,17.21-33.6,34.32-66.94,51.53-100.58-6.5-3.29-12.87-6.46-19.36-9.76-17.27,33.46-34.32,66.94-51.47,100.31m-685.48-87.38c15.39,34.44,30.62,68.65,45.85,103.09l20.2-8.92-.93-2.18c-5.75-12.78-11.34-25.56-17-38.36l1.56-3.83c6.34-2.84,12.75-5.65,19.15-8.46,4.13-1.8,8.32-3.77,12.6-5.69-3-6.88-6-13.56-9-20.41l-3,1.26c-9.58,4.21-19.18,8.47-28.67,12.77l-3.86-1.26c-2.07-4.94-4.31-9.72-6.5-14.6l1.56-4.1c8.53-3.71,17-7.48,25.43-11.25,5.45-2.34,10.92-4.82,16.46-7.27-2.9-6.64-5.75-13-8.74-19.6-21.73,9.57-43.3,19.18-65,28.82m606.07-6.67c-9.07,19.31-7.9,38.3,3.47,56.47,9.78,15.44,23.43,25.73,41.74,29.23a31.36,31.36,0,0,0,13.26-.21c-.37-7.33-.84-14.51-1.32-21.61-4.13-1-8.11-1.88-12.06-3-24.36-7.09-29.54-28.37-26.31-43.48,4.28-19.75,28.13-35.07,48.71-24.84a94,94,0,0,1,17.59,11.61l2.43.6c5.74-4,11.49-7.6,17.41-11.55l-1-1.61c-10.59-14.76-25.25-22.44-43-24.81a60.51,60.51,0,0,0-8-.55c-24.34,0-44.11,15.14-52.89,33.7m-515.51-33.34c12.18,35.73,24.39,71.25,36.53,106.8,7-2.48,13.77-4.79,20.68-7.16-12.24-35.72-24.36-71.16-36.57-106.79-7,2.39-13.74,4.79-20.64,7.15m431.21-16.1c-24.21,18.52-30.31,53.57-13.19,79.18s49.73,33.19,68.11,24.93c-2-6.89-4.11-13.92-6.08-20.59-5.3-.24-10.42-.24-15.51-.77-27.65-2.85-35.88-28.67-31.42-45.25,4.34-16.12,22.3-30.92,42-26.09a79.94,79.94,0,0,1,19.92,8.41q7.63-8,15.14-16c-9.45-10.48-24.86-16.22-40.87-16.22-13.29,0-27,4-38.08,12.44m-347.67,48.15c-4.28-19,8.68-38.63,28.49-42.88,2.78-.66,5.62-.84,8.5-1.31,20,.29,36.48,15.61,37.38,35.54.81,17.3-11,32.53-28.49,36.87a39.09,39.09,0,0,1-9.21,1.12,37.41,37.41,0,0,1-36.66-29.34m37.2-66.85a61.58,61.58,0,0,0-23.28,4.34c-21.15,8.64-34.32,24-37.62,46.71-3.2,22.47,4.34,41.62,22.48,55.3,21.33,16.07,44.62,17.54,68.26,5.27,23.43-12.18,35.37-39.2,29.53-64.76-6.24-27.7-30.44-46.86-59.17-46.86h-.2m189.4,14c-1.26,14.22-2.63,28.31-3.8,42.41-.51,7.15-1.17,14.27-1,21.36.19,8.17,4,15.14,10.15,20.5,13.31,11.47,28.52,13.62,45.09,9.22,13.14-3.6,21.16-12.07,23.94-25.08,1.5-7,2-14.27,2.72-21.4,1.32-14.58,2.57-29.15,3.85-43.66.57-6.73,1.09-13.4,1.69-20.26l-22.36-2-.48,2.76c-1,12.09-2.06,24.11-3.19,36.27-1.16,12.5-2.25,25.1-3.63,37.61-1,8.74-5.51,13.53-13.49,14.84l-5.53.06c-9.31-.78-14.31-5.09-15.53-13.88l-.24-5.75c.24-4,.63-8.08,1-12,1.35-15.89,2.87-31.72,4.28-47.67.47-5.18.93-10.29,1.41-15.59-7.63-.71-15.05-1.44-22.56-2.09-.75,8.29-1.5,16.37-2.28,24.36m-86.12,24c-.27-7.81-.75-15.56-1.11-23.34l2.51-2.9c3.6-.09,7.16-.41,10.69-.66v-.27a81.22,81.22,0,0,1,9.73.66c6.31,1.29,11.1,8.08,10.83,14.54-.39,6.88-4.9,12.15-11.67,13.17-3,.39-5.93.57-8.89.78-3.15.12-6.34.12-9.55.26Zm20.5-48.45c-12.1.48-24.15,1-36.31,1.47-2.82.14-5.62.42-8.56.71q2.7,56.25,5.48,112.46c7.42-.39,14.66-.78,21.89-1.14-.29-6.67-.65-13.17-1-19.69-.18-5.41-.51-10.86-.75-16.22l2.7-1.89,4.63,3.2c2.61,2.9,4.91,6,7.34,9,5.75,7.15,11.59,14.33,17.32,21.55l5.27,2.42c4.79-.3,9.51-.3,14.27-.54,3.68-.21,7.42-.48,11.67-.63l-2.54-3c-9.7-11.08-19.42-22.26-29.06-33.43-2.7-3-2.63-3.32.81-5.18,18.61-9.9,25.7-31.2,16.57-49.82-5.9-12-15-19.35-28.81-19.35h-1M3598.67,851.9h-33.46l26.9,20.05-9.6,33.84,28-19.38,27,19.38-9.88-33.57,28.6-20.58H3622l-11.49-30Zm865.54,0h-33.46L4457.63,872,4448,905.8l28-19.38,27,19.38-9.88-33.57,28.64-20.58h-34.23l-11.53-30Zm-109.94,21.82c6.53,3.41,12.81,6.65,19.31,10,17.2-33.6,34.32-66.94,51.53-100.57-6.5-3.29-12.86-6.46-19.36-9.76-17.26,33.46-34.32,66.94-51.47,100.31m-685.48-87.38c15.38,34.44,30.62,68.65,45.84,103.09l20.2-8.92-.93-2.18c-5.75-12.77-11.34-25.55-17-38.36l1.56-3.83c6.34-2.84,12.75-5.65,19.15-8.46,4.13-1.81,8.32-3.78,12.6-5.69-3-6.88-6-13.56-9-20.41l-3,1.25c-9.58,4.22-19.18,8.47-28.67,12.78l-3.86-1.26c-2.07-4.94-4.31-9.72-6.5-14.6l1.56-4.1c8.53-3.71,17-7.48,25.43-11.25,5.45-2.34,10.93-4.82,16.46-7.28-2.9-6.64-5.75-13-8.74-19.6-21.72,9.58-43.3,19.18-65,28.82m606.07-6.67c-9.07,19.3-7.9,38.3,3.48,56.47,9.78,15.45,23.43,25.73,41.74,29.24a31.51,31.51,0,0,0,13.27-.21c-.37-7.33-.84-14.51-1.32-21.6-4.13-1.06-8.11-1.89-12.05-3-24.36-7.09-29.54-28.37-26.31-43.48,4.28-19.75,28.13-35.07,48.72-24.84A94.24,94.24,0,0,1,4360,783.89l2.42.59c5.74-4,11.49-7.6,17.42-11.55l-1-1.62c-10.59-14.76-25.26-22.44-43-24.8a59.82,59.82,0,0,0-8-.55c-24.34,0-44.11,15.14-52.89,33.7m-515.51-33.34q18.27,53.59,36.53,106.8c7-2.48,13.77-4.79,20.68-7.16-12.24-35.72-24.35-71.16-36.57-106.79-7,2.39-13.74,4.78-20.64,7.15m431.21-16.1c-24.21,18.52-30.31,53.57-13.19,79.18s49.73,33.19,68.1,24.93c-2-6.89-4.1-13.92-6.07-20.59-5.3-.24-10.42-.24-15.51-.78-27.64-2.84-35.87-28.67-31.42-45.25,4.34-16.12,22.3-30.91,42-26.08a79.81,79.81,0,0,1,19.92,8.4q7.63-8,15.15-16c-9.45-10.48-24.86-16.22-40.86-16.22-13.3,0-27,4-38.08,12.44m-347.67,48.15c-4.28-19,8.68-38.63,28.49-42.88,2.78-.66,5.63-.84,8.5-1.31,20,.29,36.48,15.62,37.38,35.54.81,17.3-10.95,32.53-28.49,36.87a38.86,38.86,0,0,1-9.21,1.12,37.41,37.41,0,0,1-36.66-29.34m37.2-66.85a61.77,61.77,0,0,0-23.28,4.34c-21.15,8.65-34.32,24-37.61,46.71-3.21,22.48,4.33,41.63,22.48,55.3,21.33,16.07,44.62,17.54,68.26,5.27,23.43-12.18,35.37-39.2,29.54-64.76-6.25-27.7-30.44-46.86-59.17-46.86h-.2m189.4,14c-1.26,14.22-2.64,28.32-3.81,42.41-.5,7.15-1.16,14.27-1,21.36.19,8.18,4,15.15,10.15,20.5,13.31,11.47,28.52,13.62,45.09,9.22,13.15-3.6,21.16-12.06,23.95-25.08,1.5-7,2-14.27,2.72-21.4,1.32-14.58,2.57-29.14,3.86-43.66.57-6.74,1.08-13.4,1.68-20.26l-22.35-2-.49,2.76c-1,12.09-2.06,24.11-3.19,36.27-1.17,12.51-2.25,25.1-3.63,37.61-1,8.74-5.5,13.53-13.49,14.84l-5.54.06c-9.31-.78-14.31-5.09-15.53-13.89l-.24-5.75c.24-4,.63-8.08,1-12,1.34-15.89,2.87-31.71,4.28-47.66.47-5.18.93-10.3,1.4-15.59-7.63-.72-15.05-1.44-22.56-2.1-.75,8.29-1.5,16.37-2.27,24.36m-86.13,24c-.27-7.81-.75-15.56-1.11-23.34l2.51-2.9c3.6-.09,7.16-.42,10.69-.66v-.27a80.36,80.36,0,0,1,9.72.66c6.31,1.29,11.1,8.08,10.83,14.54-.38,6.88-4.9,12.15-11.67,13.17-3,.39-5.93.57-8.88.78-3.15.12-6.34.12-9.55.26Zm20.5-48.45c-12.1.48-24.15,1-36.3,1.47-2.82.14-5.63.42-8.56.71q2.69,56.25,5.48,112.46c7.42-.39,14.66-.78,21.89-1.14-.29-6.67-.65-13.17-1-19.69-.18-5.41-.51-10.86-.75-16.21l2.7-1.89L3992,780c2.6,2.9,4.91,6,7.34,9,5.75,7.15,11.59,14.33,17.32,21.55l5.27,2.42c4.79-.3,9.51-.3,14.27-.54,3.68-.21,7.42-.48,11.67-.62l-2.54-3c-9.7-11.07-19.42-22.26-29.05-33.43-2.7-3-2.63-3.31.81-5.17,18.61-9.9,25.7-31.2,16.57-49.82-5.9-12-15-19.35-28.8-19.35h-1M349.22,237.72H315.77l26.9,20.06-9.6,33.84,28-19.39,27,19.39-9.88-33.57,28.6-20.59H372.56l-11.5-30Zm865.54,0H1181.3l26.87,20.06-9.58,33.84,28-19.39,27,19.39-9.88-33.57,28.64-20.59h-34.23l-11.53-30Zm-109.94,21.82c6.53,3.41,12.81,6.65,19.3,10,17.21-33.6,34.32-66.94,51.53-100.57-6.5-3.29-12.86-6.47-19.36-9.76-17.26,33.46-34.32,66.95-51.47,100.31M419.33,172.16c15.38,34.44,30.62,68.65,45.85,103.1l20.2-8.92-.93-2.19c-5.75-12.77-11.34-25.55-17-38.36L469,222c6.34-2.84,12.75-5.65,19.15-8.46,4.13-1.8,8.33-3.78,12.6-5.69-3-6.88-6-13.56-9-20.41l-3,1.26c-9.58,4.21-19.18,8.47-28.67,12.77l-3.86-1.25c-2.07-4.94-4.31-9.73-6.5-14.6l1.56-4.1c8.53-3.71,17-7.48,25.43-11.25,5.45-2.34,10.92-4.82,16.46-7.27-2.91-6.65-5.75-13-8.74-19.61-21.73,9.58-43.3,19.18-65,28.82m606.07-6.67c-9.06,19.3-7.9,38.3,3.48,56.47,9.78,15.44,23.43,25.73,41.74,29.23a31.47,31.47,0,0,0,13.26-.21c-.37-7.33-.84-14.51-1.32-21.6-4.13-1.06-8.11-1.89-12.06-3-24.36-7.09-29.54-28.37-26.31-43.48,4.28-19.76,28.14-35.07,48.72-24.84a94,94,0,0,1,17.59,11.61l2.43.6c5.74-4,11.49-7.6,17.41-11.55l-1-1.61c-10.59-14.76-25.26-22.44-43-24.81a59.9,59.9,0,0,0-8-.55c-24.34,0-44.11,15.15-52.89,33.7M509.89,132.16c12.18,35.73,24.39,71.25,36.53,106.8,7-2.48,13.77-4.8,20.68-7.16-12.24-35.72-24.36-71.16-36.57-106.79-7,2.39-13.73,4.78-20.64,7.15m431.21-16.1c-24.21,18.52-30.31,53.57-13.19,79.18s49.73,33.19,68.1,24.93c-2-6.89-4.1-13.92-6.07-20.59-5.3-.24-10.42-.24-15.5-.77C946.79,196,938.55,170.13,943,153.55c4.34-16.13,22.3-30.92,42-26.09a79.93,79.93,0,0,1,19.92,8.4q7.63-8,15.15-16c-9.45-10.48-24.86-16.22-40.87-16.22-13.3,0-27,4-38.08,12.44M593.43,164.2c-4.28-19,8.68-38.64,28.49-42.88,2.78-.66,5.63-.84,8.5-1.31,20,.29,36.48,15.62,37.38,35.54.81,17.3-10.95,32.54-28.49,36.87a38.9,38.9,0,0,1-9.21,1.12,37.41,37.41,0,0,1-36.66-29.33m37.2-66.85a61.79,61.79,0,0,0-23.29,4.33c-21.15,8.65-34.32,24-37.61,46.72-3.21,22.48,4.33,41.63,22.47,55.3,21.34,16.07,44.62,17.53,68.26,5.27,23.43-12.18,35.37-39.21,29.54-64.77-6.25-27.7-30.44-46.86-59.17-46.86h-.2m189.4,14c-1.26,14.22-2.63,28.31-3.81,42.41-.51,7.15-1.17,14.27-1,21.36.18,8.18,4,15.15,10.15,20.51,13.32,11.46,28.52,13.61,45.09,9.22,13.14-3.6,21.16-12.07,23.94-25.08,1.5-7,2-14.27,2.72-21.4,1.32-14.58,2.57-29.14,3.86-43.66.57-6.73,1.08-13.4,1.68-20.26l-22.35-2-.48,2.76c-1,12.09-2.07,24.11-3.2,36.27-1.17,12.5-2.25,25.1-3.63,37.61-1,8.74-5.5,13.52-13.49,14.84L854,184c-9.31-.78-14.31-5.08-15.53-13.89l-.24-5.75c.24-4,.63-8.08,1-12,1.34-15.89,2.87-31.72,4.28-47.67.47-5.18.93-10.29,1.4-15.59-7.63-.72-15-1.43-22.56-2.09-.75,8.29-1.5,16.37-2.27,24.36m-86.13,24c-.26-7.81-.75-15.56-1.11-23.34l2.51-2.9c3.6-.09,7.16-.42,10.69-.66v-.27a81.25,81.25,0,0,1,9.72.66c6.31,1.29,11.11,8.08,10.83,14.54-.39,6.88-4.9,12.15-11.67,13.17-3,.39-5.93.57-8.88.78-3.15.11-6.34.11-9.55.26Zm20.51-48.44c-12.1.48-24.15,1-36.3,1.46-2.82.15-5.63.42-8.56.72q2.68,56.25,5.48,112.46c7.42-.39,14.66-.78,21.89-1.14-.29-6.67-.65-13.16-1-19.69-.18-5.41-.51-10.85-.75-16.21l2.7-1.89,4.63,3.2c2.61,2.9,4.92,6,7.34,9,5.75,7.15,11.59,14.33,17.32,21.55l5.27,2.42c4.8-.3,9.51-.3,14.27-.53,3.68-.22,7.43-.49,11.67-.63l-2.54-3c-9.69-11.07-19.41-22.26-29.05-33.42-2.7-3-2.63-3.31.81-5.18,18.61-9.9,25.7-31.2,16.57-49.82-5.9-12-15-19.35-28.8-19.35h-1"/></svg>