<svg id="Layer_1" data-name="Layer 1" xmlns="http://www.w3.org/2000/svg" xmlns:xlink="http://www.w3.org/1999/xlink" viewBox="0 0 5442.52 6089.1"><defs><style>.cls-1,.cls-5,.cls-6{fill:none;}.cls-2{clip-path:url(#clip-path);}.cls-3{fill:#fff;}.cls-4{clip-path:url(#clip-path-2);}.cls-5{stroke:#fff;stroke-width:1.25px;}.cls-5,.cls-6{stroke-miterlimit:10;}.cls-6{stroke:#000;stroke-width:0.25px;}</style><clipPath id="clip-path"><rect class="cls-1" x="-222.72" y="2361.89" width="5887.96" height="3643.18"/></clipPath><clipPath id="clip-path-2"><rect class="cls-1" x="-146.79" y="-133.62" width="5901.71" height="3719.06"/></clipPath></defs><title>fg-scene-3</title><g class="cls-2"><path class="cls-3" d="M1374.49,2502.13c.31,0,.58-.1.86-.12,7.54-.47,13.36-.77,22.61-1.25,1.87-.1,2.42,1.34,3.3,2.7,1.13,1.74,2.24,3.49,3.28,5.28,2.66,4.56,5.21,9.17,7.71,13.82a36.26,36.26,0,0,0,5.2,7.72,8.61,8.61,0,0,0,7.18,2.86c.9-.06,1.81-.1,2.85-.15-.08-1.56-.16-3-.23-4.52-.2-4.22-.52-8.45-.55-12.68a8.65,8.65,0,0,0-3.16-6.44,9.34,9.34,0,0,0-6.69-2.74,1.49,1.49,0,0,1-1.69-1.46,31.68,31.68,0,0,1-.21-4.2c0-.75.58-1.1,1.38-1.15,8.47-.45,13.09-.67,19.63-1,3.28-.19,6.61-.38,9.9-.52,1.71-.09,3.35-.21,5.07-.29a1.29,1.29,0,0,1,1.26.69,3,3,0,0,1,.16,1.29s0,.06,0,.08c0,1-.1,2-.07,2.93a.87.87,0,0,1-.69,1,12,12,0,0,0-8,10.17,22.92,22.92,0,0,0,.08,3.22c.07,1.05.06,2.12.17,3.15.23,2.21.23,4.46.35,6.67q.34,6.67.7,13.33t.73,13.33q.19,3.39.4,6.79a11.78,11.78,0,0,0,5.11,9.47,13.12,13.12,0,0,0,3.69,1.44c.55.16.75.37.79.87.06,1,.15,2,.18,3s-.29,1.43-1.27,1.48c-11.12.58-22.24,1.19-33.37,1.7-7.5.35-15.3-.12-21.16-5.49a21.76,21.76,0,0,1-6.09-9,20.81,20.81,0,0,1-1-9.66,22.34,22.34,0,0,1,3.83-9.83,32.57,32.57,0,0,1,3.7-3.92c.06-.07.16-.1.24-.15,1.43-1.13,1.42-1.6-.16-2.42-2.89-1.51-4.57-4-6-6.85-1.77-3.51-3.7-6.95-5.37-10.5a27.07,27.07,0,0,0-7.69-9.57c-1.71-1.39-3.7-2.44-5.51-3.72a2.85,2.85,0,0,1-1.18-1.47,28,28,0,0,1-.3-3.85m50.4,40.81v-.08a24.21,24.21,0,0,0-3.65.56,14.47,14.47,0,0,0-4.32,1.87,11.88,11.88,0,0,0-3.77,4.82,12.92,12.92,0,0,0,.23,11,11.46,11.46,0,0,0,8.41,6.73,60.67,60.67,0,0,0,6.18.67c.77.08,1.2-.48,1.14-1.28-.34-4.44-.55-8.9-.69-13.35-.1-3.06-.15-6.1-.1-9.16a2.87,2.87,0,0,0-.16-1.2c-.55-1.22-2.24-.68-3.25-.62"/><path class="cls-3" d="M1492.46,2574.87c-17.73,1.31-34.82-12.56-39.56-29.23a40.53,40.53,0,1,1,69.86,14.86c-6.92,8.37-16.21,12.58-26.86,14l-2.26.28c-.37,0-.24,0-1.19.1m21.2-42.77a43.15,43.15,0,0,0-4.15-15.64c-2.54-5.18-6.67-9.9-12.26-11.81a18.69,18.69,0,0,0-15.28,1.46,21.92,21.92,0,0,0-8.27,9.25,39.76,39.76,0,0,0-3.48,12c-1.66,11.37.72,25.31,9.28,33.64a17.84,17.84,0,0,0,23.3,1.49c8.69-6.47,11.92-20.1,10.86-30.42"/><path class="cls-3" d="M1325.25,2547.29c.35,6.8.73,13.61,1.06,20.41a11.1,11.1,0,0,0,2.35,6,9.83,9.83,0,0,0,6.16,3.78c.84.18,1.26.51,1.14,1.49a12.56,12.56,0,0,0,.13,2.57c.06.75-.19,1.26-1,1.37-1,.14-2,.3-3,.35q-9.63.52-19.27,1c-1.4.07-2.79.15-4.19.21a1.21,1.21,0,0,1-1.36-1.27,28.15,28.15,0,0,1-.13-3,1.69,1.69,0,0,1,1.35-1.66,10.3,10.3,0,0,0,7.49-7,15.36,15.36,0,0,0,.68-6q-.9-18.89-2-37.77a20.92,20.92,0,0,1,2.87-11.74c6.62-11.7,20.56-13.35,32.65-13.92a34.59,34.59,0,0,1,11,.94,20.58,20.58,0,0,1,13.93,14.18c1.09,4,.94,8.11,1.05,12.19.1,3.91.41,7.83.59,11.74q.32,7,.67,14c.14,3,.19,6,.43,9a11,11,0,0,0,1,4.4c1,1.72,2.06,3.57,4,4.49a27.31,27.31,0,0,0,3.71,1.38,1.29,1.29,0,0,1,1.08,1.25c.06,1,.12,2.1.17,3.15a1.47,1.47,0,0,1-1.38,1.61c-.47.05-1,.06-1.43.09l-33.58,1.76c-1.38.07-1.73-.18-1.87-1.52a11,11,0,0,1-.05-2.85,2.36,2.36,0,0,1,1-1.4,4.09,4.09,0,0,1,1.9-.53c2.21-.12,3.77-1.35,5.22-2.84a10.57,10.57,0,0,0,2.92-6.71,47.71,47.71,0,0,0-.11-5.28c-.34-6.54-.64-13.09-1-19.63-.27-5.31-.65-10.63-.78-15.94-.16-6.13-3.09-12.64-9.93-13.16a44.92,44.92,0,0,0-7.32-.07c-2.64.23-5.24.86-7.85,1.33a11.31,11.31,0,0,0-8.11,6.21c-2.06,4-1.42,8.46-1.19,12.8.06,1.21.76,14.55.77,14.55Z"/><path class="cls-3" d="M1577.88,2570.4c-1.5,0-2.22-.17-2.34-1.67-.14-1.84-.19-3.69-.32-5.53-.19-2.65-.44-5.3-.62-7.95-.13-1.9-.28-3.81-.29-5.71s.11-3.8.19-5.7a1.17,1.17,0,0,1,1.15-1.18,19.6,19.6,0,0,1,2.54-.32,1.47,1.47,0,0,1,1.15.6c1.5,3,2.79,6,4.42,8.92,3.68,6.5,9.68,8.7,16.73,9.32,1.94.17,3.89.24,5.84.32a11.65,11.65,0,0,0,2.58-.08,1.57,1.57,0,0,0,1-1,6.36,6.36,0,0,0,0-1.88c-.13-4.29-.25-8.59-.42-12.87-.11-2.79-.3-5.58-.41-8.38,0-.87-.37-1.35-1.25-1.25a11.63,11.63,0,0,0-2.78.47c-1.85.68-3.83,1.15-5.11,2.9a15.54,15.54,0,0,0-3.08,8.72c0,.37-.73.92-1.2,1a10.82,10.82,0,0,1-2.54.12,1.9,1.9,0,0,1-1.63-1.83c-.07-1.65-.06-3.3-.15-5-.17-3-.4-6-.58-9-.26-4.42-.49-8.84-.75-13.25-.07-1.14-.25-2.27-.34-3.41a1.46,1.46,0,0,1,1.34-1.67c.77-.16,1.54-.36,2.33-.47.64-.1,1,.13,1.19.88a12.64,12.64,0,0,0,2,5,17,17,0,0,0,4.54,4.57,7.47,7.47,0,0,0,4.85,1.26c1.58-.15,2.22-1,2.12-2.57-.41-6.22-.64-12.46-1.3-18.66a10.57,10.57,0,0,0-5.65-8.14,11.42,11.42,0,0,0-6.14-1.28c-1.27,0-1.62-.19-1.76-1.44a22.41,22.41,0,0,1-.28-3,1,1,0,0,1,.64-.71,7.9,7.9,0,0,1,1.61-.13l16.89-.9,22.13-1.16c1.94-.1,1.35.91,1.7,2.54.45,2.1-2.33,2-3.8,2.31-3.57.71-5.57,3.15-7,6.25a13.6,13.6,0,0,0-1,6.63c.27,5.34,2.63,44.33,3.05,47.35.65,4.7,3.73,8.52,8.33,9.36,1.65.3,1.65.3,1.86,2,0,.22.07.44.1.66.13,1.21-.32,1.75-1.52,1.82-4.43.23-8.85.49-13.28.74q-9.89.55-19.78,1.06l-19.73,1h-.1l-5.1.26h-.06"/><path class="cls-3" d="M1231.77,2548.67a40.4,40.4,0,0,1-6.34,23.39,38.42,38.42,0,0,1-47.36,15.47c-2-.84-4.92-1.58-6,.35-.26.48-.33,1.05-.58,1.54-.86,1.67-3.23,1.61-5.09,1.3a2,2,0,0,1-2.1-2.21q-1.48-12.88-3-25.77c-.14-1.25-.24-2.67.6-3.61,1-1.15,3-.92,4.18.08a9.14,9.14,0,0,1,2.3,4c1.5,4,3.07,8.06,5.75,11.38,6.29,7.77,18.68,9.71,27,4.22,5-3.28,8.36-8.68,10-14.43a44.8,44.8,0,0,0,.78-17.78c-1.25-9.57-5-19.71-13.44-24.46a21,21,0,0,0-19.33-.36,22.79,22.79,0,0,0-11.82,15.46c-.24,1.13-.56,2.48-1.66,2.85a3.15,3.15,0,0,1-1.7-.06l-3.81-.85a2.57,2.57,0,0,1-1.77-1,2.45,2.45,0,0,1-.1-1.7c2.83-14.55,16.22-26.19,31-27.62,23.8-2.31,40.3,17.87,42.44,39.82"/><path class="cls-3" d="M1241.66,2572.3q-.69-8-1.37-16.08c-.1-1.27,0-1.34,1.27-1.42a8.14,8.14,0,0,0,.85-.11c2-.35,2-.38,2.86,1.47,2.72,6.17,5.11,13.32,11,17.4,7,4.83,16.38,5.78,23.65,1.09,8.79-5.67,11.3-15.82,11.43-25.64a46.09,46.09,0,0,0-6.36-24.29c-4.64-7.69-12.53-11.6-21.46-10a19.61,19.61,0,0,0-7.63,3.11c-2.48,1.72-4.16,4.2-6.13,6.46-2.49,2.85-3.88,6.3-5.28,9.73-.56,1.37-.72,1.42-2.1,1-1.66-.51-3.34-1-5-1.36-1-.25-1.48-.81-1.13-1.88.81-2.5,1.69-5,2.57-7.46a24.8,24.8,0,0,1,3.84-6.79c5.55-7.17,14.15-11.35,23.07-12.23a36,36,0,0,1,6.47-.17,58.69,58.69,0,0,1,9.17,1.33,35.16,35.16,0,0,1,10.58,4.66c12.67,8.11,18.69,23.1,17.37,37.85a45.46,45.46,0,0,1-6.49,19.81,38.25,38.25,0,0,1-16.2,13.9,36.69,36.69,0,0,1-16.56,3.57,36.17,36.17,0,0,1-8.66-1.25c-2.87-.77-5.39-2.23-8.19-3.18a3.05,3.05,0,0,0-3.81,2.73c-.07,1.35-.07,1.33-1.42,1.31-1.18,0-2.35,0-3.53,0a1.4,1.4,0,0,1-1.62-1.45c-.11-1.45-.35-2.9-.49-4.35-.26-2.59-.48-5.19-.72-7.79h0"/><path class="cls-3" d="M1146.57,2593c4.13-.23,8.27-.49,12.4-.66.77,0,1.09-.42,1-1.17-.14-1.29-.35-2.57-.42-3.86a1.83,1.83,0,0,0-1.39-1.82l-3.23-1.15a8.37,8.37,0,0,1-5.71-5.82,44.43,44.43,0,0,1-1.06-7.91c-.62-9.65-1.15-19.3-1.7-29-.2-3.43-.36-6.86-.55-10.29a12,12,0,0,1,2.06-7.88c1.76-2.49,3.8-4.6,7-5.23a.68.68,0,0,0,.39-.52,14.54,14.54,0,0,0-.16-3.91c-.17-.62-1.91-.18-2.34-.15-1.19.08-2.38.15-3.58.2-2.35.12-4.7.2-7.06.31-5.2.24-10.4.48-15.6.82-2.22.15-4.35.19-6.57.35-1,.06-1.62.4-1.58,1.35,0,.64.11,1.28.08,1.91a1.81,1.81,0,0,0,1.11,1.82c.63.3,1.35.4,2,.66a12.13,12.13,0,0,1,4.41,3.09,8.09,8.09,0,0,1,2.34,5c.29,3.16.48,6.34.7,9.51.31,4.6.59,9.21.9,13.82q.84,12.87,1.69,25.73a4.87,4.87,0,0,1-.09,1.22,10,10,0,0,1-4.08,6.11,35.46,35.46,0,0,1-3.47,2.25,2,2,0,0,0-1,2.19c.08.7.25,1.38.32,2.08.13,1.34.58,2,1.95,2,6.59-.35,13.18-.65,19.77-1l1.5-.08"/><path class="cls-3" d="M1564,2492.15c1.26-.06,1.37,0,1.42,1.28,0,.89.06,1.78.14,2.67a.81.81,0,0,1-.74,1c-.8.17-1.59.39-2.39.59a9.29,9.29,0,0,0-6.2,4.94,9.42,9.42,0,0,0-1,4.2c.06,4.82.32,9.65.56,14.47.54,10.8,1,21.62,1.63,32.41a12.51,12.51,0,0,0,6.77,10.84,10.26,10.26,0,0,0,3.95.82c.93.08,1.33.4,1.36,1.3s.1,1.65.13,2.48c0,1.1-.06,1.64-1.21,1.7q-5.63.33-11.25.63c-2.32.13-4.64.22-7,.37-5.74.37-11.62.52-17.36.89a6.82,6.82,0,0,1-1.33,0,1.39,1.39,0,0,1-1.38-1.59c0-.83-.09-1.65-.08-2.48a1.24,1.24,0,0,1,1-1.36,32.51,32.51,0,0,0,4.21-1.66c4-1.85,5.09-7.2,5.08-11.16,0-5.78-.27-11.57-.56-17.34-.45-9-.93-18-1.38-27-.18-3.67-2-8.44-6.1-9.41a24.62,24.62,0,0,0-3.29-.46c-1.33-.13-1.86-.5-2.18-1.82a20.63,20.63,0,0,1-.54-2.94,1.38,1.38,0,0,1,1.42-1.55l18.31-1s12-.56,17.93-.87"/><path class="cls-3" d="M842.48,2947.43c.23-.21.43-.41.65-.57,6.07-4.5,10.79-7.92,18.28-13.37,1.52-1.1,2.76-.19,4.24.47,1.89.84,3.78,1.71,5.63,2.64,4.7,2.38,9.36,4.86,14,7.39a36.1,36.1,0,0,0,8.57,3.64,8.61,8.61,0,0,0,7.58-1.51c.73-.55,1.47-1.07,2.31-1.68l-2.66-3.66c-2.47-3.44-5-6.81-7.37-10.34a8.66,8.66,0,0,0-6.16-3.68,9.38,9.38,0,0,0-7.1,1.35,1.49,1.49,0,0,1-2.21-.3,32.09,32.09,0,0,1-2.46-3.41c-.39-.65-.11-1.24.54-1.71,6.86-5,10.62-7.69,15.9-11.56,2.65-1.94,5.34-3.91,8-5.82,1.39-1,2.69-2,4.09-3a1.29,1.29,0,0,1,1.44-.1,3.15,3.15,0,0,1,.84,1l0,.07c.5.84,1,1.7,1.54,2.5a.87.87,0,0,1,0,1.19,12,12,0,0,0-1.18,12.9,22.83,22.83,0,0,0,1.82,2.67c.63.84,1.21,1.74,1.86,2.55,1.39,1.73,2.62,3.61,3.92,5.4l7.85,10.8q3.93,5.4,7.88,10.78l4,5.48a11.77,11.77,0,0,0,9.45,5.15,13.11,13.11,0,0,0,3.87-.8c.55-.16.84-.1,1.13.3.59.79,1.19,1.57,1.76,2.38s.54,1.35-.26,1.93c-9,6.54-18,13.11-27.05,19.6-6.11,4.38-12.9,8.24-20.74,6.92a21.77,21.77,0,0,1-10-4.2,20.87,20.87,0,0,1-6.1-7.56,22.43,22.43,0,0,1-2.13-10.33,32.93,32.93,0,0,1,1-5.31,1.71,1.71,0,0,1,.12-.26c.58-1.72.32-2.11-1.45-1.94-3.25.31-6-.9-8.74-2.48-3.4-2-6.89-3.81-10.23-5.89a27.12,27.12,0,0,0-11.67-3.83c-2.19-.23-4.43,0-6.65-.11a2.88,2.88,0,0,1-1.8-.59,28.36,28.36,0,0,1-2.34-3.06m64.5,6.78-.05-.06a23.41,23.41,0,0,0-2.76,2.46,14.37,14.37,0,0,0-2.61,3.92,11.87,11.87,0,0,0-.53,6.1,12.89,12.89,0,0,0,6.21,9.13,11.46,11.46,0,0,0,10.72,1.07c1.93-.76,3.71-1.86,5.55-2.8a1,1,0,0,0,.26-1.69c-2.7-3.54-5.31-7.17-7.86-10.82-1.75-2.51-3.44-5-5.08-7.63a2.82,2.82,0,0,0-.78-.92c-1.12-.73-2.24.65-3.06,1.25"/><path class="cls-3" d="M981,2944.19c-14.15,10.76-36,8.43-49.1-3a40.52,40.52,0,1,1,66.68-25.58c-1.24,10.79-6.74,19.37-14.9,26.36-.58.49-1.16,1-1.74,1.47-.29.24-.18.16-.94.73m-5.51-47.42a43.16,43.16,0,0,0-12-10.86c-5-3-11-4.67-16.71-3.23a18.7,18.7,0,0,0-12,9.55,21.91,21.91,0,0,0-1.9,12.26,39.71,39.71,0,0,0,3.63,12c4.8,10.44,14.39,20.83,26.1,23.16A17.84,17.84,0,0,0,983,2928.2c3.77-10.16-1-23.35-7.46-31.43"/><path class="cls-3" d="M825.77,3012.13q6,8.27,12,16.54a11.13,11.13,0,0,0,5.25,3.76,9.81,9.81,0,0,0,7.23-.19c.8-.3,1.33-.26,1.77.63a12.68,12.68,0,0,0,1.51,2.08,1.09,1.09,0,0,1-.06,1.68c-.76.67-1.52,1.35-2.34,1.94q-7.8,5.69-15.62,11.33c-1.13.82-2.26,1.65-3.4,2.45a1.21,1.21,0,0,1-1.83-.32,27.41,27.41,0,0,1-1.72-2.41,1.69,1.69,0,0,1,.23-2.12,10.31,10.31,0,0,0,2.45-10,15.46,15.46,0,0,0-2.69-5.4q-11.05-15.34-22.21-30.61a21,21,0,0,1-4-11.41c-.82-13.42,10-22.39,19.81-29.46a34.47,34.47,0,0,1,9.78-5.23,20.58,20.58,0,0,1,19.4,4.31c3.08,2.73,5.21,6.3,7.52,9.65s4.61,6.34,6.89,9.52l8.2,11.4c1.75,2.44,3.42,4.93,5.25,7.3a10.83,10.83,0,0,0,3.23,3.15c1.76.91,3.67,1.87,5.79,1.59a29,29,0,0,0,3.87-.86,1.29,1.29,0,0,1,1.59.46c.62.85,1.25,1.69,1.86,2.55a1.46,1.46,0,0,1-.29,2.1c-.37.3-.76.58-1.15.86l-27.2,19.76c-1.12.81-1.55.79-2.39-.26a11.13,11.13,0,0,1-1.6-2.36,2.36,2.36,0,0,1,.12-1.74,4,4,0,0,1,1.3-1.48c1.79-1.3,2.43-3.19,2.83-5.23a10.6,10.6,0,0,0-1.21-7.21,47.77,47.77,0,0,0-3-4.37c-3.85-5.3-7.67-10.63-11.52-15.93-3.12-4.3-6.34-8.56-9.34-12.94-3.47-5.06-9.46-8.92-15.49-5.63a44.87,44.87,0,0,0-6.17,3.93c-2.09,1.63-3.93,3.57-5.87,5.39a11.31,11.31,0,0,0-3.41,9.62c.48,4.5,3.42,7.87,6,11.39.71,1,8.57,11.79,8.57,11.79Z"/><path class="cls-3" d="M1050.23,2893.91c-1.26.82-2,1.07-2.88-.13-1.12-1.47-2.16-3-3.28-4.46-1.6-2.12-3.25-4.21-4.85-6.33-1.15-1.52-2.31-3-3.35-4.63s-2-3.25-2.95-4.89a1.17,1.17,0,0,1,.32-1.61,19.66,19.66,0,0,1,2-1.66,1.47,1.47,0,0,1,1.28-.12c2.87,1.67,5.63,3.54,8.57,5.08,6.63,3.44,12.86,2,19.11-1.29,1.72-.92,3.39-1.91,5.07-2.91a11.45,11.45,0,0,0,2.12-1.48,1.57,1.57,0,0,0,.3-1.34,6.41,6.41,0,0,0-1-1.6c-2.45-3.53-4.89-7.06-7.36-10.57-1.61-2.28-3.29-4.52-4.9-6.8-.51-.72-1.05-.93-1.74-.37a11.8,11.8,0,0,0-2.08,1.91c-1.19,1.58-2.58,3.06-2.7,5.22a15.48,15.48,0,0,0,2.16,9c.19.32-.11,1.17-.45,1.52a10.34,10.34,0,0,1-2.07,1.48,1.89,1.89,0,0,1-2.37-.64c-1-1.34-1.85-2.74-2.83-4.07-1.76-2.41-3.58-4.79-5.35-7.19-2.63-3.57-5.22-7.15-7.85-10.71-.68-.92-1.45-1.77-2.14-2.67a1.45,1.45,0,0,1,.21-2.13c.56-.56,1.1-1.15,1.7-1.67a.94.94,0,0,1,1.48.08,12.67,12.67,0,0,0,4.41,3,17.15,17.15,0,0,0,6.29,1.36,7.48,7.48,0,0,0,4.75-1.58c1.25-1,1.34-2,.39-3.31-3.73-5-7.33-10.1-11.26-14.93a10.57,10.57,0,0,0-9.17-3.76,11.42,11.42,0,0,0-5.85,2.28c-1,.71-1.46.72-2.25-.25a21.66,21.66,0,0,1-1.88-2.39,1,1,0,0,1,.16-.94,7.85,7.85,0,0,1,1.28-1l13.67-9.95,17.92-13c1.58-1.14,1.63,0,2.82,1.2,1.52,1.51-.86,3-1.93,4-2.61,2.54-3,5.67-2.48,9.07a13.6,13.6,0,0,0,2.77,6.1c3.13,4.33,26.35,35.74,28.34,38.05,3.11,3.59,7.78,5.11,12.09,3.31,1.55-.64,1.55-.65,2.64.65.14.17.3.33.44.5a1.4,1.4,0,0,1-.28,2.35c-3.58,2.61-7.15,5.24-10.73,7.85q-8,5.85-16,11.66l-16,11.61-.08.06-4.14,3,0,0"/><path class="cls-3" d="M748.13,3064.2a40.39,40.39,0,0,1,7.42,23.07A38.42,38.42,0,0,1,724.26,3126c-2.16.4-5,1.35-4.81,3.54,0,.55.3,1.06.35,1.61.19,1.87-1.83,3.11-3.56,3.86a2.67,2.67,0,0,1-1.64.33,2.71,2.71,0,0,1-1.33-1l-16.53-20c-.8-1-1.66-2.11-1.47-3.36.23-1.52,2-2.4,3.55-2.21a9.11,9.11,0,0,1,4.08,2.06c3.43,2.54,7,5.09,11,6.41,9.51,3.09,21-2,25-11.18,2.41-5.47,2.28-11.83.49-17.53a44.84,44.84,0,0,0-9-15.34c-6.26-7.35-15-13.79-24.59-13.19a21,21,0,0,0-16.41,10.23,22.8,22.8,0,0,0-1.49,19.4c.41,1.08.88,2.38.16,3.29a3.18,3.18,0,0,1-1.46.87l-3.66,1.36a2.57,2.57,0,0,1-2,.16,2.46,2.46,0,0,1-1-1.38c-5.55-13.75-.66-30.8,10.94-40,18.7-14.89,43.52-7,57.28,10.28"/><path class="cls-3" d="M769.29,3078.63q-5-6.37-9.91-12.74c-.78-1-.74-1.11.29-1.88a8,8,0,0,0,.65-.56c1.48-1.38,1.51-1.43,3.2-.32,5.64,3.69,11.54,8.39,18.69,8.6,8.48.25,16.88-4.07,20.43-12,4.28-9.54.86-19.42-4.38-27.73a46.08,46.08,0,0,0-18.56-16.9c-8.08-3.93-16.83-2.9-23.43,3.32a19.54,19.54,0,0,0-4.71,6.77c-1.15,2.8-1.2,5.79-1.63,8.75-.54,3.75.18,7.39.88,11,.28,1.45.17,1.59-1.22,2-1.67.47-3.32,1-5,1.6-1,.35-1.68.13-2-1-.68-2.54-1.3-5.09-1.9-7.65a24.93,24.93,0,0,1-.48-7.78c.75-9,5.69-17.22,12.69-22.82a35.68,35.68,0,0,1,5.34-3.67,58.26,58.26,0,0,1,8.42-3.88,35.06,35.06,0,0,1,11.41-1.86c15-.1,28.25,9.19,35.19,22.28a45.57,45.57,0,0,1,5.35,20.15c.15,7.26-2.27,14.31-6,20.48a36.69,36.69,0,0,1-12,12,36.16,36.16,0,0,1-7.94,3.68c-2.83.91-5.74,1.06-8.6,1.79a3,3,0,0,0-1.71,4.36c.68,1.17.67,1.15-.48,1.87-1,.63-2,1.31-2.94,2a1.4,1.4,0,0,1-2.15-.33c-.88-1.16-1.87-2.24-2.78-3.38-1.63-2-3.23-4.09-4.85-6.14l0,0"/><path class="cls-3" d="M700.8,3147.76c3.35-2.44,6.67-4.92,10-7.31a.92.92,0,0,0,.2-1.53c-.82-1-1.7-2-2.45-3a1.83,1.83,0,0,0-2.15-.77l-3.34.8a8.38,8.38,0,0,1-8-1.77,44.58,44.58,0,0,1-5.2-6.05c-5.78-7.75-11.48-15.57-17.2-23.36-2-2.77-4-5.57-6.07-8.33a11.94,11.94,0,0,1-2.57-7.72c.12-3,.68-5.92,3-8.18a.68.68,0,0,0,0-.65,14.55,14.55,0,0,0-2.26-3.19c-.48-.43-1.7.89-2,1.15q-1.43,1.07-2.89,2.12c-1.91,1.38-3.83,2.73-5.75,4.1-4.23,3-8.46,6.07-12.64,9.18-1.79,1.33-3.54,2.52-5.32,3.86-.77.58-1.14,1.22-.59,2,.37.52.79,1,1.11,1.56a1.8,1.8,0,0,0,1.91.92c.7-.09,1.36-.4,2-.55a12.24,12.24,0,0,1,5.38.2,8.07,8.07,0,0,1,4.71,3c2,2.5,3.86,5.05,5.76,7.6,2.77,3.7,5.51,7.4,8.28,11.1l15.44,20.66a5,5,0,0,1,.6,1.07,10,10,0,0,1-.1,7.35,35.91,35.91,0,0,1-1.69,3.78,2,2,0,0,0,.36,2.37c.44.54,1,1,1.39,1.57.84,1.05,1.59,1.38,2.7.58,5.34-3.88,10.7-7.72,16-11.61l1.21-.88"/><path class="cls-3" d="M995.94,2835.87c1-.74,1.17-.71,1.89.3.52.72,1,1.46,1.58,2.16a.81.81,0,0,1-.07,1.25c-.58.58-1.13,1.19-1.68,1.8a9.3,9.3,0,0,0-2.5,7.53,9.4,9.4,0,0,0,1.45,4.07c2.68,4,5.53,7.91,8.35,11.83,6.33,8.76,12.62,17.57,19,26.29a12.51,12.51,0,0,0,11.58,5.41,10.28,10.28,0,0,0,3.76-1.46c.83-.44,1.33-.39,1.85.35s1,1.33,1.46,2c.64.9.84,1.41-.09,2.09l-9.1,6.66c-1.87,1.37-3.77,2.71-5.63,4.1-4.61,3.44-9.46,6.76-14.07,10.2a6.73,6.73,0,0,1-1.13.69,1.4,1.4,0,0,1-2-.58c-.43-.71-1-1.34-1.42-2a1.24,1.24,0,0,1,.12-1.7,32.55,32.55,0,0,0,2.63-3.69c2.37-3.74.35-8.81-1.82-12.12-3.17-4.84-6.53-9.56-9.92-14.24q-7.92-10.94-15.84-21.87c-2.15-3-6.32-6-10.25-4.57a25.33,25.33,0,0,0-3,1.4,2,2,0,0,1-2.82-.33,20.31,20.31,0,0,1-2.06-2.17,1.38,1.38,0,0,1,.34-2.07l14.84-10.78s9.72-7,14.56-10.49"/><path class="cls-3" d="M624,905.77c-.31,0-.58.1-.86.12-7.54.47-13.36.77-22.61,1.25-1.87.1-2.42-1.34-3.3-2.7-1.13-1.74-2.24-3.49-3.28-5.28-2.66-4.56-5.21-9.17-7.71-13.82a36.26,36.26,0,0,0-5.2-7.72,8.61,8.61,0,0,0-7.18-2.86l-2.85.15c.08,1.56.16,3,.23,4.52.2,4.22.52,8.45.55,12.68a8.65,8.65,0,0,0,3.16,6.43,9.34,9.34,0,0,0,6.69,2.74,1.49,1.49,0,0,1,1.69,1.46,31.68,31.68,0,0,1,.21,4.2c0,.75-.58,1.1-1.38,1.15-8.47.45-13.09.67-19.63,1-3.28.19-6.61.38-9.9.52-1.71.09-3.35.21-5.07.29a1.29,1.29,0,0,1-1.26-.69,3,3,0,0,1-.16-1.29s0-.06,0-.08c0-1,.1-2,.07-2.93a.87.87,0,0,1,.69-1,12,12,0,0,0,8-10.17,22.92,22.92,0,0,0-.08-3.22c-.07-1.05-.06-2.12-.17-3.15-.23-2.21-.23-4.46-.35-6.67q-.34-6.67-.7-13.33t-.73-13.33q-.19-3.39-.4-6.79a11.78,11.78,0,0,0-5.11-9.47,13.13,13.13,0,0,0-3.69-1.44c-.55-.16-.75-.37-.78-.87-.06-1-.15-2-.18-3s.29-1.43,1.26-1.48c11.12-.58,22.24-1.19,33.37-1.7,7.5-.35,15.3.12,21.16,5.49a21.76,21.76,0,0,1,6.09,9,20.81,20.81,0,0,1,1,9.66,22.34,22.34,0,0,1-3.83,9.83,32.58,32.58,0,0,1-3.7,3.92c-.06.07-.16.1-.24.15-1.43,1.13-1.42,1.6.16,2.42,2.89,1.51,4.57,4,6,6.85,1.77,3.51,3.7,6.95,5.37,10.5a27.07,27.07,0,0,0,7.69,9.57c1.71,1.39,3.7,2.44,5.51,3.72a2.85,2.85,0,0,1,1.18,1.47,27.36,27.36,0,0,1,.29,3.85M573.55,865V865a24.19,24.19,0,0,0,3.65-.56,14.47,14.47,0,0,0,4.32-1.86,11.92,11.92,0,0,0,3.77-4.82,12.92,12.92,0,0,0-.23-11,11.46,11.46,0,0,0-8.41-6.73,60.66,60.66,0,0,0-6.18-.67c-.77-.08-1.2.48-1.14,1.28.34,4.44.55,8.9.69,13.35.1,3.06.15,6.1.1,9.16a2.87,2.87,0,0,0,.16,1.2c.55,1.22,2.24.68,3.25.62"/><path class="cls-3" d="M506,833c17.73-1.31,34.82,12.56,39.56,29.23a40.53,40.53,0,1,1-69.86-14.86c6.92-8.37,16.21-12.58,26.86-14l2.26-.28c.37,0,.23,0,1.19-.1m-21.2,42.77a43.15,43.15,0,0,0,4.15,15.64c2.54,5.18,6.67,9.9,12.26,11.81a18.69,18.69,0,0,0,15.28-1.46,21.92,21.92,0,0,0,8.27-9.25,39.79,39.79,0,0,0,3.48-12c1.66-11.37-.72-25.31-9.28-33.64a17.84,17.84,0,0,0-23.3-1.49c-8.69,6.47-11.92,20.1-10.86,30.42"/><path class="cls-3" d="M673.2,860.61c-.35-6.8-.73-13.61-1.06-20.41a11.1,11.1,0,0,0-2.35-6,9.83,9.83,0,0,0-6.16-3.78c-.84-.18-1.26-.51-1.14-1.49a12.56,12.56,0,0,0-.13-2.57c-.06-.75.19-1.26,1-1.37,1-.14,2-.3,3-.35q9.63-.52,19.27-1c1.4-.07,2.79-.15,4.19-.21a1.21,1.21,0,0,1,1.36,1.27,28.13,28.13,0,0,1,.13,3,1.69,1.69,0,0,1-1.35,1.66,10.3,10.3,0,0,0-7.49,7,15.36,15.36,0,0,0-.68,6q.91,18.89,2,37.77a20.92,20.92,0,0,1-2.87,11.74c-6.62,11.7-20.56,13.35-32.65,13.92a34.59,34.59,0,0,1-11-.94,20.58,20.58,0,0,1-13.93-14.18c-1.09-4-.94-8.11-1.05-12.19-.1-3.91-.41-7.83-.59-11.74q-.32-7-.67-14c-.14-3-.19-6-.43-9a10.89,10.89,0,0,0-1-4.4c-1-1.72-2.06-3.57-4-4.49a27.33,27.33,0,0,0-3.71-1.38,1.29,1.29,0,0,1-1.08-1.25c-.06-1-.12-2.1-.17-3.15a1.47,1.47,0,0,1,1.38-1.61c.47-.05,1-.06,1.43-.09l33.58-1.76c1.38-.07,1.73.18,1.87,1.52a11,11,0,0,1,.05,2.85,2.36,2.36,0,0,1-1,1.4,4.09,4.09,0,0,1-1.9.53c-2.21.12-3.77,1.35-5.22,2.84a10.57,10.57,0,0,0-2.92,6.71,48.81,48.81,0,0,0,.1,5.28c.35,6.54.64,13.09,1,19.63.27,5.31.65,10.63.78,15.94.16,6.13,3.09,12.64,9.93,13.16a44.91,44.91,0,0,0,7.32.07c2.64-.23,5.24-.86,7.85-1.33a11.31,11.31,0,0,0,8.11-6.21c2.06-4,1.42-8.46,1.19-12.8-.06-1.21-.76-14.55-.77-14.55Z"/><path class="cls-3" d="M420.57,837.5c1.5,0,2.22.17,2.34,1.67.14,1.84.19,3.69.32,5.53.19,2.65.44,5.3.62,7.95.13,1.9.28,3.81.29,5.71s-.11,3.8-.19,5.7a1.17,1.17,0,0,1-1.15,1.18,19.59,19.59,0,0,1-2.54.32,1.48,1.48,0,0,1-1.15-.6c-1.5-3-2.79-6-4.42-8.92-3.68-6.5-9.68-8.71-16.73-9.32-1.94-.17-3.89-.24-5.84-.32a11.38,11.38,0,0,0-2.58.08,1.55,1.55,0,0,0-1,1,6.51,6.51,0,0,0,0,1.88c.13,4.29.25,8.59.42,12.87.11,2.79.3,5.58.41,8.38,0,.87.37,1.35,1.25,1.26a11.64,11.64,0,0,0,2.78-.47c1.85-.68,3.83-1.15,5.11-2.9a15.54,15.54,0,0,0,3.08-8.72c0-.37.73-.92,1.2-1a10.83,10.83,0,0,1,2.54-.12,1.9,1.9,0,0,1,1.63,1.83c.08,1.65.06,3.3.15,5,.17,3,.4,6,.58,9,.26,4.42.49,8.84.75,13.25.07,1.14.25,2.27.34,3.41a1.46,1.46,0,0,1-1.34,1.67c-.77.16-1.54.36-2.33.47s-1-.13-1.2-.88a12.68,12.68,0,0,0-2-5,17.09,17.09,0,0,0-4.54-4.56,7.47,7.47,0,0,0-4.85-1.26c-1.58.15-2.22,1-2.12,2.57.41,6.22.64,12.46,1.3,18.66a10.57,10.57,0,0,0,5.65,8.14,11.42,11.42,0,0,0,6.14,1.28c1.27,0,1.62.19,1.76,1.44a22.4,22.4,0,0,1,.28,3,1,1,0,0,1-.64.71,7.9,7.9,0,0,1-1.61.13l-16.89.9-22.12,1.16c-1.95.1-1.35-.91-1.71-2.54-.45-2.1,2.33-2,3.8-2.31,3.57-.71,5.57-3.15,7-6.25a13.6,13.6,0,0,0,1-6.63c-.27-5.34-2.63-44.33-3.05-47.35-.65-4.7-3.73-8.52-8.33-9.36-1.65-.3-1.65-.3-1.86-2,0-.22-.07-.44-.1-.66-.13-1.21.32-1.75,1.52-1.82,4.43-.23,8.85-.49,13.28-.74q9.89-.55,19.78-1.06l19.73-1h.1l5.1-.26h.06"/><path class="cls-3" d="M766.67,859.23A40.4,40.4,0,0,1,773,835.84a38.42,38.42,0,0,1,47.35-15.47c2,.84,4.92,1.58,6-.35.26-.48.33-1.05.58-1.54.86-1.67,3.23-1.61,5.09-1.3a2,2,0,0,1,2.1,2.21q1.48,12.88,3,25.77c.14,1.25.24,2.67-.6,3.61-1,1.15-3,.92-4.18-.08a9.14,9.14,0,0,1-2.3-4c-1.5-4-3.07-8.06-5.75-11.38-6.29-7.77-18.68-9.71-27-4.22-5,3.28-8.36,8.68-10,14.43a44.8,44.8,0,0,0-.78,17.78c1.25,9.57,5,19.71,13.44,24.46a21,21,0,0,0,19.33.36,22.79,22.79,0,0,0,11.82-15.46c.24-1.13.56-2.48,1.66-2.85a3.15,3.15,0,0,1,1.7.06l3.81.85a2.57,2.57,0,0,1,1.77,1,2.45,2.45,0,0,1,.1,1.7c-2.83,14.55-16.22,26.19-31,27.62-23.8,2.31-40.29-17.87-42.44-39.82"/><path class="cls-3" d="M756.79,835.6q.69,8,1.37,16.08c.1,1.27,0,1.34-1.27,1.42a8.11,8.11,0,0,0-.85.11c-2,.35-2,.38-2.86-1.47-2.72-6.17-5.11-13.32-11-17.4-7-4.83-16.38-5.78-23.65-1.09-8.79,5.67-11.3,15.82-11.43,25.64a46.09,46.09,0,0,0,6.36,24.29c4.64,7.69,12.53,11.6,21.46,10a19.55,19.55,0,0,0,7.63-3.12c2.48-1.72,4.16-4.2,6.13-6.45,2.49-2.85,3.88-6.3,5.28-9.73.56-1.37.72-1.42,2.1-1,1.66.51,3.34,1,5,1.36,1,.25,1.48.81,1.13,1.88-.81,2.5-1.69,5-2.57,7.46a24.8,24.8,0,0,1-3.84,6.79c-5.55,7.17-14.15,11.35-23.07,12.23a36,36,0,0,1-6.47.17,58.7,58.7,0,0,1-9.17-1.33,35.09,35.09,0,0,1-10.58-4.66c-12.67-8.11-18.69-23.1-17.38-37.85a45.46,45.46,0,0,1,6.49-19.81,38.26,38.26,0,0,1,16.2-13.9,36.69,36.69,0,0,1,16.56-3.57A36.17,36.17,0,0,1,737,822.9c2.87.77,5.39,2.23,8.19,3.18a3.05,3.05,0,0,0,3.81-2.73c.07-1.35.07-1.33,1.42-1.31,1.18,0,2.35,0,3.53,0a1.4,1.4,0,0,1,1.62,1.45c.11,1.45.34,2.9.48,4.35.26,2.59.48,5.19.72,7.79h0"/><path class="cls-3" d="M851.88,814.92c-4.13.23-8.27.49-12.4.66-.77,0-1.09.42-1,1.17.15,1.29.35,2.57.42,3.86a1.83,1.83,0,0,0,1.39,1.82l3.23,1.15a8.37,8.37,0,0,1,5.71,5.82,44.43,44.43,0,0,1,1.06,7.91c.62,9.65,1.15,19.3,1.7,29,.2,3.43.36,6.86.55,10.29a12,12,0,0,1-2.06,7.88c-1.76,2.49-3.8,4.6-7,5.23a.68.68,0,0,0-.39.52,14.54,14.54,0,0,0,.16,3.91c.17.62,1.91.18,2.34.15,1.19-.08,2.38-.15,3.58-.2,2.35-.12,4.7-.2,7.06-.31,5.2-.24,10.4-.48,15.6-.82,2.22-.15,4.35-.19,6.57-.35,1-.06,1.62-.4,1.58-1.35,0-.64-.11-1.28-.08-1.91a1.81,1.81,0,0,0-1.11-1.82c-.63-.3-1.35-.4-2-.66a12.13,12.13,0,0,1-4.41-3.09,8.09,8.09,0,0,1-2.34-5c-.29-3.16-.48-6.34-.7-9.51-.31-4.6-.59-9.21-.9-13.82q-.84-12.87-1.69-25.74a4.87,4.87,0,0,1,.09-1.22,10,10,0,0,1,4.08-6.11,35.43,35.43,0,0,1,3.47-2.25,2,2,0,0,0,1-2.19c-.08-.7-.25-1.38-.32-2.08-.13-1.34-.58-2-1.95-2-6.59.35-13.18.65-19.77,1l-1.5.08"/><path class="cls-3" d="M434.49,915.75c-1.26.06-1.37,0-1.42-1.28,0-.89-.06-1.78-.14-2.67a.81.81,0,0,1,.74-1c.8-.17,1.59-.39,2.39-.59a9.29,9.29,0,0,0,6.2-4.94,9.42,9.42,0,0,0,1-4.2c-.06-4.82-.32-9.65-.56-14.47-.54-10.8-1-21.62-1.63-32.41a12.51,12.51,0,0,0-6.77-10.84,10.34,10.34,0,0,0-3.95-.82c-.93-.08-1.33-.4-1.36-1.3s-.1-1.65-.13-2.48c0-1.1.06-1.64,1.21-1.7l11.25-.63c2.32-.13,4.64-.22,7-.37,5.74-.37,11.62-.52,17.36-.89a6.83,6.83,0,0,1,1.33,0,1.39,1.39,0,0,1,1.38,1.59c0,.83.09,1.65.08,2.48a1.25,1.25,0,0,1-1,1.36,32.53,32.53,0,0,0-4.21,1.66c-4,1.85-5.09,7.2-5.08,11.16,0,5.78.27,11.57.56,17.34.45,9,.93,18,1.38,27,.18,3.67,2,8.44,6.1,9.41a25.33,25.33,0,0,0,3.29.47c1.33.13,1.86.49,2.18,1.81a20.63,20.63,0,0,1,.54,2.94,1.38,1.38,0,0,1-1.42,1.55l-18.31,1s-12,.56-17.93.87"/><path class="cls-3" d="M149.7,1513.3c-.05.31-.08.59-.15.85-1.89,7.31-3.4,12.95-5.8,21.9-.48,1.81-2,1.88-3.58,2.3-2,.54-4,1.05-6,1.49-5.15,1.12-10.33,2.12-15.52,3.06a36.43,36.43,0,0,0-8.94,2.56,8.62,8.62,0,0,0-4.94,6c-.22.88-.47,1.75-.74,2.76l4.37,1.17c4.08,1.12,8.2,2.12,12.23,3.4a8.65,8.65,0,0,0,7.1-1,9.34,9.34,0,0,0,4.67-5.52,1.49,1.49,0,0,1,1.91-1.16,32.64,32.64,0,0,1,4.06,1.1c.71.26.87.89.66,1.67-2.19,8.2-3.41,12.66-5.09,19-.84,3.18-1.68,6.4-2.56,9.57-.45,1.66-.84,3.25-1.3,4.91a1.3,1.3,0,0,1-1,1,3.09,3.09,0,0,1-1.28-.24l-.08,0c-.92-.34-1.83-.71-2.77-1a.87.87,0,0,1-.71-1,12,12,0,0,0-7.2-10.76,22,22,0,0,0-3.09-.93c-1-.25-2-.59-3.05-.81-2.17-.47-4.31-1.16-6.45-1.73l-12.9-3.46q-6.45-1.73-12.9-3.42L72,1563.25a11.78,11.78,0,0,0-10.58,1.94,13.22,13.22,0,0,0-2.51,3.06c-.32.47-.58.6-1.07.48-1-.24-1.91-.47-2.86-.74s-1.27-.72-1-1.67c2.89-10.75,5.75-21.52,8.69-32.26,2-7.24,4.84-14.52,11.76-18.43a21.79,21.79,0,0,1,10.4-3,20.92,20.92,0,0,1,9.49,2,22.4,22.4,0,0,1,8.16,6.69,33,33,0,0,1,2.59,4.73,2,2,0,0,1,.07.28c.63,1.71,1.08,1.84,2.35.6,2.33-2.28,5.25-3.09,8.36-3.57,3.89-.6,7.75-1.38,11.65-1.86a27,27,0,0,0,11.48-4.37c1.85-1.2,3.47-2.76,5.24-4.09a2.86,2.86,0,0,1,1.77-.67,27.71,27.71,0,0,1,3.75.91m-54.39,35.32h.08A23.65,23.65,0,0,0,96,1545a14.35,14.35,0,0,0-.44-4.69,11.9,11.9,0,0,0-3.42-5.07A12.92,12.92,0,0,0,81.56,1532a11.47,11.47,0,0,0-9,5.92c-1,1.81-1.71,3.78-2.54,5.67-.32.71.08,1.29.86,1.48,4.33,1.05,8.63,2.23,12.91,3.47,2.94.85,5.85,1.75,8.75,2.73a2.82,2.82,0,0,0,1.19.22c1.33-.14,1.33-1.91,1.6-2.9"/><path class="cls-3" d="M44.06,1603c4.23-17.27,22.7-29.24,40-28.59a40.49,40.49,0,1,1-13.65,79.09,41.21,41.21,0,0,1-22.07-17.24c-5.82-9.17-7-19.3-5-29.86.14-.75.28-1.5.43-2.24.08-.36,0-.23.28-1.16m34.13,33.38a43.15,43.15,0,0,0,16.16.89c5.72-.81,11.48-3.29,15-8a18.68,18.68,0,0,0,3.34-15,21.91,21.91,0,0,0-6.24-10.72,39.72,39.72,0,0,0-10.37-7c-10.3-5.09-24.29-7.13-34.86-1.57a17.83,17.83,0,0,0-8.62,21.69c3.47,10.27,15.44,17.55,25.57,19.73"/><path class="cls-3" d="M122,1452.5c-6.58-1.77-13.17-3.51-19.74-5.3a11.12,11.12,0,0,0-6.45.37,9.85,9.85,0,0,0-5.5,4.7c-.43.74-.87,1-1.77.62a12.44,12.44,0,0,0-2.48-.67c-.74-.17-1.14-.57-1-1.35.17-1,.34-2,.6-3q2.49-9.33,5-18.63c.36-1.35.72-2.7,1.1-4.05a1.21,1.21,0,0,1,1.63-.9,29.23,29.23,0,0,1,2.85.79,1.69,1.69,0,0,1,1.16,1.79,10.3,10.3,0,0,0,4.38,9.3,15.34,15.34,0,0,0,5.49,2.5q18.25,5,36.53,9.81a20.93,20.93,0,0,1,10.28,6.37c9.08,9.91,6.34,23.68,3.15,35.35a34.65,34.65,0,0,1-4.3,10.22,20.59,20.59,0,0,1-17.79,8.86c-4.11-.19-8-1.61-11.92-2.77-3.76-1.11-7.58-2-11.35-3.07l-13.54-3.7c-2.89-.8-5.76-1.67-8.67-2.36a10.82,10.82,0,0,0-4.49-.42c-1.94.4-4,.86-5.5,2.41a27.61,27.61,0,0,0-2.46,3.1,1.3,1.3,0,0,1-1.52.64l-3-.82a1.46,1.46,0,0,1-1.1-1.81c.09-.47.22-.93.35-1.39l8.7-32.48c.35-1.33.71-1.59,2-1.3a11.1,11.1,0,0,1,2.72.83,2.36,2.36,0,0,1,1,1.43,4.11,4.11,0,0,1-.08,2c-.57,2.14.12,4,1.09,5.85a10.58,10.58,0,0,0,5.47,4.85,47.74,47.74,0,0,0,5.05,1.53c6.33,1.7,12.65,3.44,19,5.13,5.13,1.38,10.31,2.67,15.4,4.18,5.88,1.75,13,1,15.58-5.37a45.08,45.08,0,0,0,2.32-6.94c.59-2.58.81-5.24,1.17-7.88a11.32,11.32,0,0,0-3.41-9.63c-3.2-3.2-7.6-4-11.8-5.09L122,1452.44Z"/><path class="cls-3" d="M21.93,1685.63c.46-1.43.84-2.06,2.32-1.71,1.79.43,3.56,1,5.35,1.41,2.58.64,5.17,1.22,7.75,1.87,1.85.46,3.7.91,5.52,1.48s3.58,1.28,5.37,1.95a1.16,1.16,0,0,1,.76,1.45,19.45,19.45,0,0,1-.48,2.52,1.49,1.49,0,0,1-.92.9c-3.28.51-6.61.78-9.85,1.45-7.32,1.5-11.27,6.51-14,13-.76,1.79-1.43,3.62-2.11,5.45a11.58,11.58,0,0,0-.72,2.48,1.56,1.56,0,0,0,.61,1.23,6.47,6.47,0,0,0,1.78.61c4.12,1.2,8.24,2.41,12.37,3.58,2.69.77,5.4,1.44,8.09,2.2.84.24,1.4.06,1.58-.81a11.87,11.87,0,0,0,.42-2.79c-.07-2,.09-4-1.19-5.75a15.48,15.48,0,0,0-7.33-5.62c-.35-.13-.65-1-.61-1.46a10.47,10.47,0,0,1,.68-2.45,1.88,1.88,0,0,1,2.25-1c1.59.44,3.16,1,4.76,1.38,2.89.77,5.8,1.47,8.69,2.22,4.28,1.12,8.56,2.27,12.84,3.38,1.11.29,2.24.47,3.35.73a1.47,1.47,0,0,1,1.18,1.79c-.09.79-.14,1.58-.27,2.36s-.44,1-1.21.87a12.57,12.57,0,0,0-5.34.42,17.06,17.06,0,0,0-5.74,2.9,7.49,7.49,0,0,0-2.7,4.22c-.35,1.55.23,2.42,1.79,2.81,6,1.54,12,3.24,18.14,4.52a10.56,10.56,0,0,0,9.49-2.85,11.44,11.44,0,0,0,3.11-5.45c.37-1.21.68-1.48,1.91-1.22a21.39,21.39,0,0,1,3,.67,1,1,0,0,1,.47.83,7.62,7.62,0,0,1-.37,1.58q-2.18,8.17-4.36,16.34l-5.73,21.4c-.5,1.88-1.28,1-2.95.84-2.13-.22-1.19-2.84-1-4.33.43-3.61-1.27-6.27-3.77-8.61a13.61,13.61,0,0,0-6-3c-5.16-1.39-43-11.19-46-11.73-4.67-.84-9.26.92-11.48,5-.8,1.48-.8,1.48-2.46,1.16l-.66-.11c-1.19-.25-1.57-.85-1.26-2,1.15-4.28,2.27-8.57,3.4-12.86q2.53-9.57,5.11-19.14t5.11-19.09l0-.1,1.33-4.93a.28.28,0,0,0,0-.06"/><path class="cls-3" d="M149.55,1363.18a40.42,40.42,0,0,1-20.29-13.25,38.42,38.42,0,0,1-.08-49.82c1.42-1.67,3-4.19,1.51-5.78-.38-.4-.9-.64-1.29-1-1.32-1.33-.53-3.57.33-5.24a2,2,0,0,1,2.75-1.32l25.43,5.14c1.24.25,2.62.6,3.25,1.69.78,1.33-.06,3.14-1.37,3.95a9.08,9.08,0,0,1-4.47,1c-4.27.19-8.61.43-12.6,2-9.33,3.58-15,14.76-12.37,24.41,1.57,5.76,5.67,10.63,10.65,13.93a44.81,44.81,0,0,0,16.66,6.24c9.49,1.77,20.31,1.3,27.42-5.22a21,21,0,0,0,6.32-18.27,22.81,22.81,0,0,0-11-16c-1-.58-2.19-1.3-2.2-2.46a3.18,3.18,0,0,1,.58-1.6l2-3.36c.35-.59.77-1.25,1.45-1.39a2.46,2.46,0,0,1,1.65.43c13,7.2,19.9,23.52,16.7,38-5.16,23.35-29.45,32.8-51,28.06"/><path class="cls-3" d="M124,1365.28q7.86,1.83,15.72,3.67c1.24.29,1.28.4,1,1.65a8,8,0,0,0-.16.84c-.28,2-.27,2.06-2.28,2.27-6.71.68-14.25.74-19.94,5.08-6.75,5.14-10.55,13.79-8.34,22.16,2.67,10.11,11.55,15.63,20.85,18.79a46.06,46.06,0,0,0,25.07,1.45c8.75-2,14.9-8.33,16.12-17.33a19.62,19.62,0,0,0-.6-8.22c-.87-2.9-2.71-5.26-4.25-7.82-1.94-3.25-4.79-5.63-7.63-8-1.13-1-1.13-1.13-.29-2.31,1-1.42,1.94-2.88,2.85-4.36.55-.9,1.22-1.15,2.14-.49,2.12,1.55,4.21,3.15,6.29,4.75a24.77,24.77,0,0,1,5.27,5.75c5.11,7.49,6.42,17,4.5,25.72a35.32,35.32,0,0,1-1.84,6.21,58.81,58.81,0,0,1-4.1,8.31,35.23,35.23,0,0,1-7.7,8.62c-11.63,9.54-27.74,10.63-41.37,4.83a45.49,45.49,0,0,1-16.83-12.29c-4.69-5.55-7.25-12.55-8.22-19.7A36.57,36.57,0,0,1,102,1388a36.06,36.06,0,0,1,3.86-7.85c1.63-2.49,3.79-4.44,5.56-6.81a3,3,0,0,0-1.42-4.46c-1.26-.48-1.24-.48-.8-1.76.38-1.11.69-2.25,1.06-3.37a1.4,1.4,0,0,1,1.88-1.09c1.42.35,2.86.57,4.29.88,2.54.56,5.09,1.15,7.63,1.73v0"/><path class="cls-3" d="M133.74,1268.45c-1.06,4-2.09,8-3.2,12a.92.92,0,0,0,.8,1.32c1.27.26,2.55.45,3.8.8a1.83,1.83,0,0,0,2.16-.76c.69-.91,1.39-1.82,2.09-2.72a8.38,8.38,0,0,1,7.3-3.63,44,44,0,0,1,7.85,1.44c9.37,2.39,18.71,4.87,28.06,7.33,3.33.87,6.64,1.78,10,2.65a11.93,11.93,0,0,1,6.85,4.39c1.82,2.44,3.2,5,2.83,8.23a.68.68,0,0,0,.37.53,14.52,14.52,0,0,0,3.76,1.06c.65,0,.76-1.76.87-2.18.29-1.16.6-2.31.91-3.46.62-2.28,1.26-4.54,1.89-6.81,1.38-5,2.76-10,4-15.09.55-2.16,1.17-4.19,1.7-6.36.23-.93.12-1.67-.8-1.92-.61-.17-1.25-.29-1.84-.51a1.8,1.8,0,0,0-2.07.49c-.48.51-.8,1.16-1.25,1.71a12.23,12.23,0,0,1-4.31,3.23,8.07,8.07,0,0,1-5.52.67c-3.1-.7-6.18-1.5-9.26-2.28-4.47-1.13-8.95-2.28-13.42-3.42l-25-6.34a4.8,4.8,0,0,1-1.14-.46,10,10,0,0,1-4.55-5.77,35.69,35.69,0,0,1-1.06-4,2,2,0,0,0-1.77-1.61c-.68-.14-1.39-.19-2.07-.34-1.32-.28-2.11-.07-2.46,1.25-1.71,6.38-3.45,12.74-5.15,19.11l-.39,1.45"/><path class="cls-3" d="M100.65,1696.57c-.33,1.22-.46,1.29-1.66,1-.86-.24-1.71-.49-2.58-.69a.8.8,0,0,1-.73-1c.09-.81.13-1.64.18-2.45a9.44,9.44,0,0,0-6.48-9.67c-4.61-1.43-9.28-2.67-13.93-3.94-10.44-2.82-20.87-5.71-31.33-8.46a12.5,12.5,0,0,0-12.41,3.09,10.27,10.27,0,0,0-2,3.5c-.37.87-.79,1.14-1.66.89s-1.6-.42-2.4-.64c-1.06-.29-1.54-.57-1.25-1.68q1.43-5.45,2.88-10.9c.6-2.25,1.22-4.48,1.8-6.73,1.42-5.57,3.09-11.21,4.51-16.78a6.73,6.73,0,0,1,.45-1.25A1.4,1.4,0,0,1,36,1640c.78.28,1.6.43,2.38.69a1.25,1.25,0,0,1,1,1.4,32.32,32.32,0,0,0,.27,4.52c.52,4.4,5.27,7.07,9,8.27,5.5,1.77,11.09,3.32,16.67,4.82,8.69,2.35,17.39,4.66,26.08,7,3.55,1,8.66.66,10.84-2.9a23.82,23.82,0,0,0,1.46-3,2,2,0,0,1,2.4-1.51,20.05,20.05,0,0,1,3,.39,1.39,1.39,0,0,1,1,1.83q-2.38,8.86-4.75,17.72s-3.16,11.54-4.71,17.32"/><path class="cls-3" d="M1236.72,435.72c-.31.07-.58.15-.85.19-7.48,1.06-13.26,1.82-22.45,3-1.86.24-2.51-1.15-3.49-2.43-1.26-1.65-2.51-3.31-3.69-5-3-4.33-5.91-8.74-8.77-13.16a36.42,36.42,0,0,0-5.79-7.29,8.62,8.62,0,0,0-7.39-2.28c-.9.13-1.8.24-2.83.38.2,1.55.4,3,.59,4.48.53,4.2,1.18,8.39,1.54,12.6a8.66,8.66,0,0,0,3.65,6.17,9.39,9.39,0,0,0,6.88,2.21,1.49,1.49,0,0,1,1.8,1.32,32.29,32.29,0,0,1,.54,4.17c0,.75-.49,1.15-1.29,1.25-8.41,1.11-13,1.69-19.49,2.57-3.26.44-6.56.89-9.83,1.29-1.7.23-3.32.48-5,.68a1.29,1.29,0,0,1-1.31-.59,3.05,3.05,0,0,1-.27-1.27v-.08c0-1,0-2-.16-2.93a.87.87,0,0,1,.61-1,11.86,11.86,0,0,0,6.2-6.22,12,12,0,0,0,1-4.55,22.26,22.26,0,0,0-.33-3.21c-.16-1-.23-2.1-.42-3.13-.39-2.18-.58-4.42-.87-6.62q-.87-6.62-1.74-13.24t-1.78-13.23q-.46-3.38-.93-6.75a11.78,11.78,0,0,0-5.85-9,13.13,13.13,0,0,0-3.79-1.14c-.56-.12-.78-.31-.85-.81-.14-1-.3-1.95-.41-2.93s.17-1.45,1.15-1.58c11-1.45,22.08-2.93,33.13-4.31,7.45-.93,15.26-1.08,21.53,3.81a21.77,21.77,0,0,1,6.77,8.46,20.85,20.85,0,0,1,1.75,9.55,22.41,22.41,0,0,1-3.06,10.1,32.66,32.66,0,0,1-3.38,4.2c-.06.07-.16.11-.23.17-1.33,1.24-1.29,1.7.35,2.4,3,1.27,4.87,3.67,6.49,6.35,2,3.37,4.24,6.63,6.18,10.05a27.08,27.08,0,0,0,8.43,8.94c1.82,1.26,3.88,2.14,5.79,3.28a2.87,2.87,0,0,1,1.29,1.37,27.87,27.87,0,0,1,.6,3.81M1183.27,399a.52.52,0,0,1,0,.08,24,24,0,0,0,3.6-.85,14.47,14.47,0,0,0,4.17-2.2,11.84,11.84,0,0,0,3.38-5.1,12.89,12.89,0,0,0-1.09-11,11.46,11.46,0,0,0-8.91-6,60.77,60.77,0,0,0-6.21-.18c-.77,0-1.16.57-1,1.36.68,4.41,1.24,8.83,1.74,13.26.34,3,.62,6.07.82,9.13a2.86,2.86,0,0,0,.25,1.18c.64,1.18,2.28.5,3.29.37"/><path class="cls-3" d="M1113.4,372.45c17.57-2.7,35.7,9.78,41.73,26a40.52,40.52,0,1,1-70.81-9.33c6.24-8.89,15.17-13.81,25.67-16.05.74-.16,1.48-.32,2.23-.46.36-.07.23-.05,1.17-.19m-17.78,44.3A43.1,43.1,0,0,0,1101,432c2.94,5,7.43,9.35,13.15,10.81a18.68,18.68,0,0,0,15.12-2.65,21.91,21.91,0,0,0,7.51-9.87,39.77,39.77,0,0,0,2.53-12.26c.76-11.46-2.71-25.17-11.89-32.81a17.84,17.84,0,0,0-23.34.34c-8.16,7.13-10.3,21-8.44,31.17"/><path class="cls-3" d="M1282.27,386.83c-.89-6.75-1.79-13.51-2.66-20.27a11.08,11.08,0,0,0-2.81-5.82,9.84,9.84,0,0,0-6.44-3.28c-.84-.12-1.3-.41-1.25-1.39a12.62,12.62,0,0,0-.33-2.55c-.13-.74.09-1.27.86-1.45,1-.22,2-.45,3-.59q9.56-1.27,19.13-2.5c1.39-.18,2.77-.37,4.16-.54a1.21,1.21,0,0,1,1.46,1.16,27,27,0,0,1,.36,2.94,1.68,1.68,0,0,1-1.21,1.76,10.3,10.3,0,0,0-6.92,7.61,15.38,15.38,0,0,0-.21,6q2.39,18.76,4.91,37.51a20.92,20.92,0,0,1-1.94,11.93c-5.68,12.19-19.45,14.92-31.46,16.44a34.53,34.53,0,0,1-11.09-.07,20.57,20.57,0,0,1-15-13c-1.4-3.87-1.58-8-2-12.07-.41-3.89-1-7.78-1.51-11.66q-.88-7-1.76-13.93c-.38-3-.66-6-1.14-8.92a10.82,10.82,0,0,0-1.33-4.31c-1.12-1.64-2.34-3.39-4.34-4.16a28,28,0,0,0-3.81-1.09,1.29,1.29,0,0,1-1.18-1.16c-.14-1-.29-2.09-.41-3.13a1.46,1.46,0,0,1,1.25-1.71c.47-.09.94-.14,1.42-.2l33.34-4.39c1.36-.18,1.74,0,2,1.37a11.05,11.05,0,0,1,.28,2.83,2.38,2.38,0,0,1-.93,1.48,4.1,4.1,0,0,1-1.85.68c-2.19.29-3.66,1.65-5,3.24a10.59,10.59,0,0,0-2.38,6.92,48.54,48.54,0,0,0,.52,5.25c.86,6.5,1.67,13,2.53,19.5.69,5.27,1.48,10.55,2,15.83.63,6.1,4.06,12.36,10.93,12.34a45.14,45.14,0,0,0,7.3-.51c2.61-.44,5.16-1.26,7.72-1.94a11.31,11.31,0,0,0,7.59-6.83c1.73-4.18.75-8.54.19-12.85-.16-1.2-1.9-14.45-1.91-14.45Z"/><path class="cls-3" d="M1028.6,383.62c1.5-.12,2.23,0,2.47,1.49.29,1.82.48,3.66.75,5.48.4,2.63.85,5.25,1.25,7.88.28,1.88.57,3.77.74,5.67s.19,3.8.26,5.7a1.16,1.16,0,0,1-1.05,1.26,19.6,19.6,0,0,1-2.51.52,1.48,1.48,0,0,1-1.19-.51c-1.73-2.83-3.26-5.8-5.11-8.55-4.18-6.19-10.33-7.92-17.41-8-1.95,0-3.89.06-5.84.14a11.48,11.48,0,0,0-2.57.28,1.56,1.56,0,0,0-.9,1,6.31,6.31,0,0,0,.12,1.88c.47,4.27.93,8.54,1.43,12.8.32,2.77.74,5.54,1.06,8.32.1.87.48,1.32,1.35,1.16a12.24,12.24,0,0,0,2.73-.69c1.79-.82,3.73-1.45,4.86-3.3a15.51,15.51,0,0,0,2.38-8.93c0-.37.65-1,1.12-1.12a10.22,10.22,0,0,1,2.53-.32,1.89,1.89,0,0,1,1.77,1.7c.2,1.64.32,3.29.54,4.92.4,3,.86,5.92,1.27,8.88.61,4.38,1.18,8.77,1.79,13.16.16,1.13.42,2.25.6,3.38a1.46,1.46,0,0,1-1.2,1.77c-.76.22-1.51.48-2.28.65a.94.94,0,0,1-1.26-.78,12.61,12.61,0,0,0-2.43-4.78,17,17,0,0,0-4.88-4.19,7.46,7.46,0,0,0-4.93-.88c-1.57.27-2.15,1.14-1.91,2.72.89,6.17,1.61,12.37,2.76,18.5a10.56,10.56,0,0,0,6.27,7.68,11.4,11.4,0,0,0,6.22.79c1.26-.13,1.63.06,1.87,1.29a22.24,22.24,0,0,1,.52,3,1,1,0,0,1-.59.75,7.73,7.73,0,0,1-1.6.26l-16.76,2.22-22,2.9c-1.93.26-1.42-.8-1.9-2.4-.62-2.06,2.17-2.19,3.61-2.6,3.51-1,5.31-3.57,6.51-6.78a13.54,13.54,0,0,0,.47-6.68c-.69-5.3-6.1-44-6.76-47-1-4.63-4.39-8.2-9-8.68-1.67-.17-1.67-.17-2-1.83,0-.22-.1-.44-.15-.65-.22-1.2.19-1.77,1.37-1.93,4.4-.58,8.79-1.19,13.18-1.78q9.81-1.32,19.64-2.61l19.59-2.58h.1l5.06-.65h.06"/><path class="cls-3" d="M1375.35,378.12a40.41,40.41,0,0,1,4.48-23.81,38.41,38.41,0,0,1,46-19.14c2.09.68,5,1.19,5.92-.82.23-.51.25-1.08.46-1.58.73-1.73,3.1-1.86,5-1.7a2,2,0,0,1,2.27,2l5,25.46c.24,1.24.45,2.65-.32,3.65-.93,1.23-2.92,1.15-4.17.25a9.14,9.14,0,0,1-2.6-3.76c-1.8-3.87-3.69-7.79-6.63-10.89-6.88-7.26-19.38-8.21-27.28-2.09-4.73,3.66-7.66,9.3-8.8,15.16a44.82,44.82,0,0,0,.61,17.79c2,9.45,6.56,19.26,15.32,23.33a21,21,0,0,0,19.3-1.16,22.8,22.8,0,0,0,10.57-16.34c.15-1.15.37-2.52,1.43-3a3.23,3.23,0,0,1,1.7-.07l3.86.55a2.56,2.56,0,0,1,1.84.81,2.46,2.46,0,0,1,.23,1.69c-1.68,14.73-14.12,27.38-28.72,30-23.55,4.17-41.57-14.65-45.44-36.36"/><path class="cls-3" d="M1363.64,355.34q1.32,8,2.63,15.92c.2,1.26.12,1.33-1.16,1.52a7.86,7.86,0,0,0-.84.18c-2,.51-2,.54-3-1.24-3.2-5.94-6.14-12.88-12.33-16.48-7.33-4.27-16.78-4.48-23.67.77-8.31,6.34-10,16.66-9.38,26.46a46,46,0,0,0,8.25,23.71c5.22,7.31,13.4,10.58,22.18,8.27a19.64,19.64,0,0,0,7.37-3.7c2.34-1.91,3.82-4.52,5.6-6.91,2.25-3,3.37-6.58,4.49-10.12.45-1.41.61-1.48,2-1.16,1.69.39,3.41.69,5.12,1,1,.17,1.53.69,1.27,1.79-.61,2.55-1.29,5.09-2,7.63A25,25,0,0,1,1367,410c-5,7.59-13.22,12.42-22,14a35.5,35.5,0,0,1-6.44.68,58.34,58.34,0,0,1-9.25-.61,35.12,35.12,0,0,1-10.91-3.81c-13.27-7.09-20.44-21.56-20.3-36.37a45.51,45.51,0,0,1,4.91-20.26c3.33-6.45,8.82-11.5,15.06-15.13a36.69,36.69,0,0,1,16.23-4.85,36.28,36.28,0,0,1,8.74.56c2.92.55,5.55,1.8,8.41,2.53a3,3,0,0,0,3.58-3c0-1.35,0-1.33,1.32-1.42,1.17-.07,2.34-.22,3.51-.32a1.4,1.4,0,0,1,1.73,1.32c.23,1.44.57,2.86.83,4.3.46,2.57.89,5.14,1.33,7.71h0"/><path class="cls-3" d="M1456.81,327.27c-4.1.55-8.2,1.14-12.31,1.64a.92.92,0,0,0-.91,1.25c.25,1.27.55,2.54.71,3.82a1.84,1.84,0,0,0,1.53,1.7l3.31.89a8.38,8.38,0,0,1,6.15,5.35,44.4,44.4,0,0,1,1.67,7.8c1.38,9.57,2.66,19.15,4,28.73.47,3.41.9,6.82,1.36,10.22a12,12,0,0,1-1.43,8c-1.56,2.62-3.43,4.88-6.53,5.76a.69.69,0,0,0-.35.55,14.68,14.68,0,0,0,.46,3.88c.22.61,1.92,0,2.35,0,1.18-.17,2.36-.33,3.55-.48,2.34-.3,4.68-.57,7-.86,5.16-.64,10.33-1.29,15.48-2,2.21-.32,4.32-.53,6.53-.86.95-.15,1.58-.53,1.47-1.48-.08-.63-.21-1.26-.23-1.9a1.81,1.81,0,0,0-1.25-1.72c-.65-.26-1.38-.3-2.06-.5a12.22,12.22,0,0,1-4.63-2.74,8.07,8.07,0,0,1-2.73-4.84c-.54-3.13-1-6.28-1.44-9.43-.67-4.57-1.32-9.14-2-13.71q-1.86-12.76-3.71-25.52a4.86,4.86,0,0,1,0-1.23,10,10,0,0,1,3.59-6.42,35.64,35.64,0,0,1,3.28-2.51,2,2,0,0,0,.81-2.26c-.13-.69-.35-1.35-.48-2-.24-1.32-.74-2-2.1-1.8-6.54.86-13.09,1.68-19.63,2.55l-1.49.2"/><path class="cls-3" d="M1048.62,460.53c-1.25.16-1.37.07-1.52-1.16-.11-.88-.2-1.77-.35-2.65a.8.8,0,0,1,.65-1.06c.79-.23,1.56-.51,2.34-.78a9.43,9.43,0,0,0,6.45-9.68c-.44-4.8-1.08-9.59-1.7-14.38-1.38-10.72-2.71-21.47-4.17-32.18a12.51,12.51,0,0,0-7.6-10.28,10.28,10.28,0,0,0-4-.51c-.94,0-1.36-.29-1.45-1.19s-.23-1.64-.33-2.46c-.13-1.09-.06-1.64,1.07-1.8l11.17-1.51c2.3-.31,4.61-.58,6.91-.92,5.69-.81,11.54-1.43,17.23-2.25a6.5,6.5,0,0,1,1.33-.06,1.39,1.39,0,0,1,1.51,1.48c0,.82.21,1.64.27,2.47a1.25,1.25,0,0,1-.92,1.43,32.7,32.7,0,0,0-4.07,2c-3.86,2.16-4.51,7.57-4.18,11.52.48,5.76,1.18,11.52,1.92,17.24,1.16,8.93,2.35,17.85,3.49,26.78.47,3.65,2.7,8.25,6.82,8.91a24.84,24.84,0,0,0,3.31.2c1.34,0,1.89.35,2.32,1.64a20.51,20.51,0,0,1,.77,2.89,1.39,1.39,0,0,1-1.29,1.66l-18.18,2.39s-11.87,1.5-17.8,2.28"/><path class="cls-3" d="M5207.91,3408.79c.32,0,.59,0,.87.07,7.45,1.24,13.19,2.25,22.32,3.86,1.84.33,2.05,1.85,2.6,3.37.71,2,1.4,3.91,2,5.89,1.56,5,3,10.11,4.41,15.19a36.35,36.35,0,0,0,3.33,8.69,8.64,8.64,0,0,0,6.36,4.4c.9.14,1.79.31,2.81.49.27-1.54.52-3,.79-4.46.75-4.16,1.4-8.35,2.31-12.48a8.64,8.64,0,0,0-1.63-7,9.37,9.37,0,0,0-5.9-4.18,1.49,1.49,0,0,1-1.32-1.8,32,32,0,0,1,.74-4.14c.2-.73.81-.94,1.6-.8,8.36,1.47,12.9,2.29,19.36,3.41,3.24.56,6.53,1.12,9.76,1.72,1.69.3,3.31.55,5,.86a1.3,1.3,0,0,1,1.08,1,3.13,3.13,0,0,1-.13,1.29l0,.08c-.26.94-.55,1.89-.73,2.84a.87.87,0,0,1-.89.8,12,12,0,0,0-10.09,8.11,22.34,22.34,0,0,0-.65,3.16c-.16,1-.41,2.08-.55,3.11-.28,2.2-.77,4.39-1.16,6.57q-1.16,6.58-2.32,13.15t-2.28,13.15q-.57,3.36-1.14,6.72a11.77,11.77,0,0,0,2.86,10.37,13.06,13.06,0,0,0,3.27,2.23c.5.28.65.53.57,1-.16,1-.3,1.95-.49,2.92s-.6,1.33-1.57,1.16c-11-1.94-21.94-3.85-32.89-5.85-7.39-1.35-14.88-3.56-19.39-10.11a21.8,21.8,0,0,1-3.92-10.1,20.86,20.86,0,0,1,1.21-9.63,22.32,22.32,0,0,1,6-8.72,33,33,0,0,1,4.48-3,1.81,1.81,0,0,1,.27-.09c1.64-.78,1.74-1.24.39-2.39-2.48-2.12-3.54-5-4.28-8-.93-3.82-2.05-7.6-2.87-11.44a27,27,0,0,0-5.35-11.06c-1.35-1.74-3.05-3.21-4.53-4.86a2.87,2.87,0,0,1-.82-1.7,28.79,28.79,0,0,1,.58-3.81m39.93,51.1s0-.05,0-.08a24.07,24.07,0,0,0-3.68-.28,14.49,14.49,0,0,0-4.63.85,11.88,11.88,0,0,0-4.76,3.85,12.91,12.91,0,0,0-2.26,10.81,11.46,11.46,0,0,0,6.68,8.45,61.23,61.23,0,0,0,5.88,2c.73.25,1.27-.19,1.39-1,.67-4.41,1.47-8.79,2.33-13.16.59-3,1.23-6,2-9a2.84,2.84,0,0,0,.12-1.2c-.26-1.32-2-1.16-3-1.34"/><path class="cls-3" d="M5306.5,3506.21c-17.57-2.71-31.1-20.07-32-37.38a40.53,40.53,0,1,1,64.73,30.2c-8.62,6.6-18.62,8.61-29.31,7.59-.76-.07-1.51-.15-2.27-.24-.37,0-.24,0-1.18-.17m30.28-36.9a43.2,43.2,0,0,0-.52-16.18c-1.31-5.63-4.28-11.15-9.29-14.26a18.68,18.68,0,0,0-15.22-2,21.9,21.9,0,0,0-10.13,7.15,39.89,39.89,0,0,0-6.1,10.94c-4.17,10.71-5,24.82,1.48,34.87a17.84,17.84,0,0,0,22.36,6.69c9.93-4.34,16.13-16.91,17.43-27.19"/><path class="cls-3" d="M5149.77,3441.72q-1.77,10.07-3.56,20.13a11.15,11.15,0,0,0,.93,6.39,9.83,9.83,0,0,0,5.15,5.07c.77.36,1.12.78.78,1.7a12.65,12.65,0,0,0-.45,2.54c-.1.74-.47,1.19-1.25,1.12-1-.09-2-.16-3-.34q-9.5-1.66-19-3.37c-1.38-.24-2.76-.48-4.13-.74a1.21,1.21,0,0,1-1-1.54,26.31,26.31,0,0,1,.54-2.91,1.68,1.68,0,0,1,1.68-1.31,10.29,10.29,0,0,0,8.89-5.18,15.34,15.34,0,0,0,2-5.68q3.36-18.61,6.59-37.25a21,21,0,0,1,5.44-10.79c9.08-9.91,23-8.38,34.95-6.21a34.5,34.5,0,0,1,10.55,3.4,20.59,20.59,0,0,1,10.38,17c.17,4.11-.91,8.12-1.72,12.11-.78,3.83-1.36,7.72-2.06,11.58q-1.26,6.91-2.51,13.81c-.54,2.95-1.16,5.88-1.6,8.85a10.92,10.92,0,0,0,0,4.51c.57,1.9,1.21,3.94,2.88,5.27a27.63,27.63,0,0,0,3.31,2.18,1.3,1.3,0,0,1,.77,1.46c-.18,1-.35,2.07-.55,3.11a1.46,1.46,0,0,1-1.71,1.25c-.48-.05-.94-.15-1.42-.23l-33.11-5.84c-1.35-.24-1.64-.57-1.48-1.9a11.26,11.26,0,0,1,.59-2.78,2.37,2.37,0,0,1,1.33-1.13,4.16,4.16,0,0,1,2-.09c2.18.39,4-.47,5.73-1.59a10.58,10.58,0,0,0,4.35-5.88,48.29,48.29,0,0,0,1.08-5.16c1.14-6.45,2.32-12.9,3.46-19.35.93-5.23,1.76-10.5,2.82-15.71,1.23-6-.16-13-6.71-15.05a45,45,0,0,0-7.11-1.71c-2.62-.37-5.3-.35-8-.48a11.3,11.3,0,0,0-9.29,4.23c-2.91,3.47-3.29,7.92-4,12.2l-2.53,14.35Z"/><path class="cls-3" d="M5390.73,1287.38c-1.46-.34-2.13-.66-1.9-2.16.27-1.83.65-3.64.93-5.46.41-2.63.77-5.26,1.18-7.88.29-1.88.58-3.77,1-5.63s1-3.68,1.48-5.51a1.16,1.16,0,0,1,1.38-.89,19.16,19.16,0,0,1,2.55.26,1.48,1.48,0,0,1,1,.84c.8,3.22,1.36,6.51,2.3,9.69,2.12,7.17,7.47,10.66,14.2,12.84,1.85.6,3.73,1.11,5.61,1.63a11.21,11.21,0,0,0,2.54.5,1.56,1.56,0,0,0,1.17-.72,6.44,6.44,0,0,0,.45-1.83c.84-4.21,1.68-8.42,2.49-12.64.52-2.74,1-5.5,1.48-8.25.16-.86-.06-1.4-.94-1.51a11.9,11.9,0,0,0-2.82-.17c-2,.24-4,.26-5.63,1.69a15.51,15.51,0,0,0-5,7.8c-.1.36-.92.73-1.4.73a10.54,10.54,0,0,1-2.51-.46,1.9,1.9,0,0,1-1.18-2.15c.3-1.62.68-3.23,1-4.86.51-2.94,1-5.9,1.45-8.85.74-4.36,1.51-8.72,2.25-13.09.19-1.13.27-2.27.44-3.4a1.46,1.46,0,0,1,1.68-1.33c.79,0,1.59,0,2.38.06s1,.36,1,1.13a12.61,12.61,0,0,0,.88,5.29,17.1,17.1,0,0,0,3.39,5.47,7.5,7.5,0,0,0,4.44,2.32c1.58.21,2.39-.44,2.64-2,1-6.15,2.18-12.29,2.93-18.47a10.58,10.58,0,0,0-3.67-9.21,11.45,11.45,0,0,0-5.7-2.63c-1.24-.26-1.53-.55-1.38-1.8a21.83,21.83,0,0,1,.41-3,1,1,0,0,1,.79-.55,7.56,7.56,0,0,1,1.6.23l16.66,2.92,21.81,3.85c1.92.34,1.12,1.19,1.09,2.86,0,2.15-2.73,1.44-4.23,1.39-3.64-.11-6.13,1.81-8.24,4.51a13.58,13.58,0,0,0-2.46,6.23c-.94,5.26-7.41,43.78-7.69,46.82-.42,4.73,1.73,9.14,6,11,1.54.67,1.54.67,1.37,2.35,0,.22,0,.45-.06.67-.15,1.21-.71,1.64-1.89,1.43-4.37-.77-8.74-1.51-13.11-2.27-6.51-1.12-13-2.28-19.52-3.42l-19.46-3.43-.1,0-5-.9h-.06"/><path class="cls-3" d="M5058.38,3422a40.37,40.37,0,0,1-11.44,21.36,38.42,38.42,0,0,1-49.63,4.42c-1.79-1.27-4.44-2.65-5.89-1-.36.41-.55,1-.91,1.37-1.22,1.43-3.51.84-5.25.13a2,2,0,0,1-1.55-2.63q1.45-12.89,2.9-25.78c.14-1.25.37-2.66,1.4-3.39,1.26-.89,3.13-.22,4.05,1a9.15,9.15,0,0,1,1.35,4.37c.56,4.23,1.17,8.54,3,12.37,4.38,9,16,13.66,25.4,10.2,5.6-2.07,10.09-6.57,12.95-11.82a44.88,44.88,0,0,0,4.76-17.14c.93-9.61-.48-20.34-7.59-26.86a21,21,0,0,0-18.76-4.7,22.78,22.78,0,0,0-15,12.4c-.49,1-1.11,2.29-2.26,2.41a3.19,3.19,0,0,1-1.64-.45l-3.52-1.69a2.56,2.56,0,0,1-1.51-1.32,2.45,2.45,0,0,1,.29-1.68c6-13.54,21.69-21.87,36.4-19.94,23.71,3.11,35.24,26.48,32.4,48.35"/><path class="cls-3" d="M5062.7,3447.28c.76-5.33,1.51-10.65,2.28-16,.19-1.26.29-1.31,1.56-1.1a8.07,8.07,0,0,0,.85.08c2,.11,2.08.1,2.46,2.08,1.26,6.62,2,14.12,6.8,19.42,5.71,6.27,14.66,9.31,22.8,6.38,9.84-3.54,14.57-12.87,16.9-22.41a46.07,46.07,0,0,0-.74-25.1c-2.79-8.54-9.6-14.12-18.66-14.55a19.56,19.56,0,0,0-8.14,1.32c-2.81,1.12-5,3.15-7.43,4.91-3.06,2.22-5.19,5.26-7.33,8.3-.85,1.22-1,1.22-2.27.5-1.5-.88-3-1.68-4.6-2.46-.95-.47-1.26-1.12-.67-2.09,1.35-2.25,2.77-4.47,4.18-6.69a24.78,24.78,0,0,1,5.27-5.75c7-5.74,16.34-7.87,25.23-6.72a35.45,35.45,0,0,1,6.35,1.29,58.74,58.74,0,0,1,8.64,3.36,35.23,35.23,0,0,1,9.26,6.92c10.52,10.76,13,26.71,8.42,40.79a45.45,45.45,0,0,1-10.78,17.84c-5.11,5.15-11.87,8.31-18.91,9.91a36.52,36.52,0,0,1-25.1-3.41c-2.62-1.41-4.75-3.39-7.27-4.94a3,3,0,0,0-4.32,1.8c-.38,1.3-.37,1.28-1.69,1-1.14-.28-2.3-.49-3.44-.76a1.4,1.4,0,0,1-1.26-1.78c.22-1.44.32-2.9.51-4.34.33-2.59.7-5.17,1.05-7.75h0"/><path class="cls-3" d="M4965.39,3446c4.08.71,8.17,1.38,12.23,2.14a.92.92,0,0,0,1.24-.92c.15-1.29.23-2.58.46-3.85a1.83,1.83,0,0,0-.94-2.08l-2.89-1.85a8.38,8.38,0,0,1-4.26-7,44.26,44.26,0,0,1,.74-7.95c1.57-9.54,3.22-19.07,4.86-28.6.58-3.39,1.19-6.77,1.77-10.16a12,12,0,0,1,3.77-7.21c2.28-2,4.73-3.63,8-3.53a.68.68,0,0,0,.5-.42,14.6,14.6,0,0,0,.72-3.84c0-.65-1.82-.61-2.25-.68q-1.77-.29-3.53-.61c-2.32-.42-4.63-.87-7-1.29-5.12-.94-10.24-1.87-15.38-2.71-2.2-.36-4.28-.8-6.48-1.14-1-.15-1.67,0-1.85,1-.11.63-.18,1.27-.35,1.88a1.81,1.81,0,0,0,.67,2c.55.44,1.23.7,1.82,1.09a12.17,12.17,0,0,1,3.59,4,8.06,8.06,0,0,1,1.15,5.44c-.43,3.15-1,6.29-1.46,9.42-.74,4.56-1.5,9.11-2.24,13.67q-2.07,12.73-4.14,25.46a4.68,4.68,0,0,1-.36,1.17,10,10,0,0,1-5.35,5,36.28,36.28,0,0,1-3.89,1.41,2,2,0,0,0-1.45,1.91c-.08.7-.07,1.4-.16,2.09-.17,1.34.12,2.1,1.46,2.34,6.5,1.15,13,2.33,19.49,3.47l1.48.26"/><path class="cls-3" d="M5394.76,3441.68c1.25.22,1.32.35,1.1,1.57-.16.87-.34,1.75-.46,2.63a.81.81,0,0,1-.94.81c-.82,0-1.64,0-2.46,0a9.44,9.44,0,0,0-9.07,7.29c-1,4.72-1.86,9.48-2.7,14.22-1.9,10.65-3.87,21.29-5.7,31.94a12.5,12.5,0,0,0,4.15,12.09,10.3,10.3,0,0,0,3.66,1.69c.9.29,1.21.69,1,1.57s-.28,1.63-.43,2.44c-.2,1.08-.43,1.58-1.56,1.39l-11.1-1.92c-2.29-.4-4.57-.83-6.86-1.2-5.67-.93-11.44-2.11-17.11-3a7,7,0,0,1-1.29-.33,1.4,1.4,0,0,1-1-1.86c.21-.8.29-1.63.48-2.44a1.25,1.25,0,0,1,1.31-1.09,32.82,32.82,0,0,0,4.48-.67c4.33-.9,6.58-5.86,7.46-9.73,1.28-5.64,2.34-11.33,3.35-17q2.36-13.29,4.73-26.59c.65-3.62-.1-8.69-3.83-10.55a24.14,24.14,0,0,0-3.1-1.19c-1.27-.43-1.7-.9-1.72-2.26a20.79,20.79,0,0,1,.13-3,1.38,1.38,0,0,1,1.73-1.19l18.06,3.19s11.77,2.14,17.66,3.18"/><path class="cls-3" d="M4115.4,2712.37c-.24.21-.43.41-.65.57-6.07,4.5-10.79,7.92-18.29,13.37-1.51,1.1-2.76.19-4.23-.47-1.89-.84-3.78-1.71-5.63-2.64-4.7-2.38-9.36-4.86-14-7.39a36.28,36.28,0,0,0-8.57-3.64,8.61,8.61,0,0,0-7.58,1.51c-.73.55-1.47,1.07-2.31,1.68l2.66,3.66c2.47,3.44,5,6.81,7.37,10.34a8.66,8.66,0,0,0,6.15,3.68,9.39,9.39,0,0,0,7.11-1.35,1.49,1.49,0,0,1,2.21.3,32.09,32.09,0,0,1,2.46,3.41c.39.65.11,1.24-.54,1.71-6.86,5-10.62,7.69-15.9,11.56-2.65,1.94-5.34,3.91-8,5.82-1.39,1-2.69,2-4.09,3a1.29,1.29,0,0,1-1.44.1,3.15,3.15,0,0,1-.84-1l0-.07c-.5-.84-1-1.7-1.54-2.5a.87.87,0,0,1,0-1.19,12,12,0,0,0,1.18-12.9,22.84,22.84,0,0,0-1.82-2.67c-.64-.84-1.21-1.74-1.86-2.55-1.39-1.73-2.62-3.61-3.92-5.4l-7.85-10.81q-3.93-5.4-7.88-10.78l-4-5.48a11.77,11.77,0,0,0-9.45-5.15,13.11,13.11,0,0,0-3.87.8c-.55.16-.84.1-1.13-.3-.59-.79-1.19-1.57-1.76-2.38s-.54-1.35.26-1.93c9-6.54,18-13.11,27.05-19.6,6.1-4.38,12.9-8.24,20.74-6.92a21.73,21.73,0,0,1,10,4.2,20.82,20.82,0,0,1,6.1,7.56,22.43,22.43,0,0,1,2.13,10.33,32.91,32.91,0,0,1-1,5.31,1.7,1.7,0,0,1-.12.26c-.58,1.72-.32,2.11,1.45,1.94,3.25-.31,6,.9,8.74,2.48,3.4,2,6.89,3.81,10.23,5.89a27.12,27.12,0,0,0,11.67,3.83c2.19.23,4.43,0,6.65.11a2.88,2.88,0,0,1,1.8.59,29,29,0,0,1,2.34,3.06m-64.5-6.78.05.06a23.83,23.83,0,0,0,2.76-2.46,14.37,14.37,0,0,0,2.61-3.92,11.87,11.87,0,0,0,.53-6.1,12.89,12.89,0,0,0-6.21-9.13,11.46,11.46,0,0,0-10.72-1.07,60.67,60.67,0,0,0-5.55,2.81,1,1,0,0,0-.26,1.69c2.7,3.54,5.31,7.17,7.86,10.82,1.75,2.51,3.44,5,5.08,7.63a2.81,2.81,0,0,0,.78.92c1.12.73,2.24-.65,3.06-1.25"/><path class="cls-3" d="M3976.84,2715.62c14.16-10.76,36-8.43,49.1,3a40.52,40.52,0,1,1-66.68,25.58c1.24-10.79,6.74-19.37,14.9-26.36l1.74-1.47c.29-.24.18-.16.94-.73m5.51,47.42a43.16,43.16,0,0,0,12,10.86c5,3,11,4.67,16.71,3.23a18.68,18.68,0,0,0,12-9.55,21.89,21.89,0,0,0,1.9-12.26,39.71,39.71,0,0,0-3.64-12c-4.8-10.44-14.39-20.83-26.1-23.16a17.84,17.84,0,0,0-20.35,11.44c-3.77,10.16,1,23.35,7.46,31.43"/><path class="cls-3" d="M4132.1,2647.67q-6-8.27-12-16.54a11.13,11.13,0,0,0-5.25-3.76,9.81,9.81,0,0,0-7.23.19c-.8.3-1.33.26-1.77-.63a12.66,12.66,0,0,0-1.51-2.08,1.09,1.09,0,0,1,.06-1.68c.76-.67,1.52-1.35,2.34-1.94q7.8-5.69,15.62-11.32c1.13-.82,2.26-1.65,3.4-2.46a1.21,1.21,0,0,1,1.84.32,27.48,27.48,0,0,1,1.72,2.41,1.68,1.68,0,0,1-.23,2.12,10.32,10.32,0,0,0-2.45,10,15.47,15.47,0,0,0,2.69,5.4q11.05,15.34,22.21,30.61a21,21,0,0,1,4,11.41c.82,13.42-10,22.39-19.81,29.46a34.46,34.46,0,0,1-9.78,5.23,20.58,20.58,0,0,1-19.4-4.31c-3.08-2.73-5.21-6.3-7.52-9.65s-4.61-6.34-6.89-9.52l-8.2-11.4c-1.75-2.44-3.42-4.93-5.25-7.3a10.84,10.84,0,0,0-3.23-3.15c-1.76-.91-3.67-1.87-5.79-1.59a29.09,29.09,0,0,0-3.86.86,1.29,1.29,0,0,1-1.59-.46c-.62-.85-1.25-1.69-1.86-2.55a1.46,1.46,0,0,1,.29-2.1c.37-.3.76-.58,1.15-.86l27.2-19.76c1.12-.81,1.55-.79,2.39.26a11.06,11.06,0,0,1,1.59,2.36,2.36,2.36,0,0,1-.11,1.74,4.19,4.19,0,0,1-1.31,1.48c-1.79,1.3-2.43,3.19-2.83,5.22a10.57,10.57,0,0,0,1.21,7.21,47.79,47.79,0,0,0,3,4.37c3.85,5.3,7.67,10.63,11.52,15.93,3.12,4.3,6.34,8.56,9.34,12.94,3.46,5.06,9.46,8.92,15.49,5.63a44.87,44.87,0,0,0,6.17-3.93c2.09-1.63,3.93-3.57,5.87-5.39a11.31,11.31,0,0,0,3.41-9.62c-.47-4.5-3.41-7.87-6-11.39-.71-1-8.57-11.79-8.57-11.79Z"/><path class="cls-3" d="M3907.64,2765.89c1.26-.82,2-1.07,2.88.13,1.12,1.47,2.16,3,3.28,4.46,1.6,2.12,3.25,4.21,4.85,6.33,1.15,1.52,2.31,3,3.35,4.63s2,3.25,2.95,4.89a1.17,1.17,0,0,1-.32,1.61,19.66,19.66,0,0,1-2,1.66,1.47,1.47,0,0,1-1.28.12c-2.87-1.67-5.63-3.54-8.57-5.08-6.63-3.44-12.86-2-19.11,1.29-1.72.92-3.39,1.91-5.07,2.91a11.45,11.45,0,0,0-2.12,1.48,1.57,1.57,0,0,0-.3,1.34,6.4,6.4,0,0,0,1,1.6c2.45,3.53,4.89,7.06,7.36,10.57,1.61,2.28,3.29,4.52,4.9,6.8.51.72,1.05.93,1.74.37a11.8,11.8,0,0,0,2.08-1.91c1.19-1.58,2.59-3.06,2.7-5.22a15.48,15.48,0,0,0-2.16-9c-.19-.32.11-1.17.45-1.52a10.34,10.34,0,0,1,2.07-1.48,1.89,1.89,0,0,1,2.37.64c1,1.34,1.85,2.74,2.83,4.07,1.76,2.41,3.58,4.79,5.35,7.19,2.63,3.57,5.22,7.15,7.85,10.71.68.92,1.45,1.77,2.14,2.68a1.45,1.45,0,0,1-.21,2.13c-.56.56-1.1,1.14-1.7,1.67a.94.94,0,0,1-1.48-.08,12.61,12.61,0,0,0-4.41-3,17.15,17.15,0,0,0-6.29-1.36,7.48,7.48,0,0,0-4.75,1.58c-1.25,1-1.34,2-.39,3.31,3.73,5,7.33,10.1,11.26,14.93a10.57,10.57,0,0,0,9.17,3.76,11.42,11.42,0,0,0,5.85-2.28c1-.71,1.46-.72,2.25.25a22.22,22.22,0,0,1,1.89,2.39,1,1,0,0,1-.16.94,7.61,7.61,0,0,1-1.28,1l-13.67,9.95-17.92,13c-1.57,1.14-1.63,0-2.82-1.2-1.52-1.51.86-3,1.93-4,2.61-2.54,3-5.67,2.48-9.07a13.6,13.6,0,0,0-2.77-6.1c-3.13-4.33-26.35-35.74-28.34-38.05-3.11-3.59-7.78-5.11-12.09-3.31-1.55.64-1.55.65-2.64-.65-.14-.17-.3-.33-.44-.5a1.4,1.4,0,0,1,.28-2.35q5.37-3.91,10.73-7.85,8-5.86,16-11.66l16-11.61.08-.06,4.14-3,0,0"/><path class="cls-3" d="M4209.75,2595.61a40.39,40.39,0,0,1-7.42-23.07,38.42,38.42,0,0,1,31.29-38.77c2.16-.4,5-1.35,4.81-3.54,0-.55-.29-1.06-.35-1.61-.19-1.87,1.84-3.11,3.56-3.86a2.67,2.67,0,0,1,1.64-.33,2.71,2.71,0,0,1,1.33,1l16.53,20c.81,1,1.66,2.11,1.47,3.36-.23,1.52-2,2.4-3.55,2.21A9.11,9.11,0,0,1,4255,2549c-3.43-2.54-7-5.09-11-6.41-9.51-3.09-20.95,2-25,11.18-2.41,5.47-2.29,11.83-.49,17.53a44.86,44.86,0,0,0,9,15.34c6.26,7.35,15,13.79,24.59,13.19a21,21,0,0,0,16.41-10.23,22.8,22.8,0,0,0,1.49-19.4c-.41-1.08-.88-2.38-.16-3.29a3.18,3.18,0,0,1,1.46-.87l3.66-1.36a2.57,2.57,0,0,1,2-.16,2.44,2.44,0,0,1,1,1.38c5.55,13.75.66,30.8-10.94,40-18.71,14.89-43.53,7-57.29-10.28"/><path class="cls-3" d="M4188.59,2581.17q5,6.37,9.91,12.74c.78,1,.74,1.11-.29,1.88a8.15,8.15,0,0,0-.65.56c-1.48,1.38-1.51,1.43-3.2.32-5.65-3.69-11.54-8.39-18.7-8.6-8.48-.25-16.88,4.07-20.43,12-4.28,9.54-.86,19.42,4.38,27.73a46.08,46.08,0,0,0,18.56,16.9c8.08,3.93,16.83,2.9,23.43-3.32a19.55,19.55,0,0,0,4.71-6.77c1.15-2.8,1.2-5.79,1.62-8.75.53-3.75-.18-7.39-.88-11-.28-1.45-.17-1.59,1.22-2,1.67-.47,3.32-1,5-1.6,1-.35,1.68-.13,2,1,.68,2.54,1.3,5.09,1.9,7.65a24.92,24.92,0,0,1,.48,7.79c-.75,9-5.69,17.22-12.69,22.82a35.68,35.68,0,0,1-5.34,3.67,58.28,58.28,0,0,1-8.42,3.88,35.06,35.06,0,0,1-11.41,1.86c-15,.1-28.25-9.19-35.19-22.28a45.57,45.57,0,0,1-5.35-20.15c-.15-7.26,2.27-14.31,6-20.48a36.59,36.59,0,0,1,11.95-12,36.16,36.16,0,0,1,7.94-3.68c2.83-.91,5.74-1.06,8.6-1.79a3,3,0,0,0,1.71-4.36c-.68-1.17-.67-1.15.48-1.87,1-.63,2-1.31,2.94-2a1.4,1.4,0,0,1,2.15.33c.88,1.16,1.87,2.24,2.78,3.38,1.63,2,3.23,4.09,4.85,6.14l0,0"/><path class="cls-3" d="M4257.07,2512c-3.34,2.44-6.66,4.92-10,7.31a.92.92,0,0,0-.2,1.53c.82,1,1.7,2,2.45,3a1.83,1.83,0,0,0,2.15.77l3.34-.8a8.38,8.38,0,0,1,8,1.77,44.25,44.25,0,0,1,5.2,6.05c5.78,7.75,11.48,15.57,17.2,23.36,2,2.77,4,5.57,6.07,8.33a11.94,11.94,0,0,1,2.57,7.72c-.12,3-.68,5.92-3,8.18a.68.68,0,0,0,0,.65,14.56,14.56,0,0,0,2.26,3.19c.48.43,1.7-.89,2-1.15q1.43-1.07,2.89-2.12c1.91-1.38,3.84-2.73,5.75-4.1,4.23-3,8.46-6.07,12.64-9.18,1.79-1.33,3.54-2.52,5.32-3.86.77-.58,1.14-1.22.59-2-.37-.52-.79-1-1.11-1.55a1.81,1.81,0,0,0-1.92-.92c-.69.09-1.36.4-2,.55a12.24,12.24,0,0,1-5.38-.2,8.07,8.07,0,0,1-4.71-3c-2-2.5-3.86-5.05-5.76-7.6-2.77-3.7-5.51-7.4-8.28-11.1l-15.44-20.66a4.75,4.75,0,0,1-.59-1.08,10,10,0,0,1,.09-7.35,35.84,35.84,0,0,1,1.69-3.78,2,2,0,0,0-.36-2.37c-.45-.54-1-1-1.4-1.57-.84-1.05-1.59-1.38-2.7-.58-5.34,3.88-10.7,7.72-16,11.61l-1.21.88"/><path class="cls-3" d="M3961.94,2823.93c-1,.74-1.17.71-1.89-.3-.52-.72-1-1.46-1.57-2.16a.81.81,0,0,1,.07-1.25c.58-.58,1.13-1.19,1.68-1.8a9.43,9.43,0,0,0,1-11.59c-2.68-4-5.52-7.92-8.35-11.83-6.33-8.77-12.62-17.58-19-26.29a12.51,12.51,0,0,0-11.58-5.41,10.28,10.28,0,0,0-3.76,1.46c-.83.44-1.33.39-1.85-.35s-1-1.33-1.46-2c-.64-.9-.84-1.41.09-2.09l9.1-6.66c1.88-1.37,3.77-2.71,5.63-4.1,4.61-3.44,9.46-6.76,14.07-10.2a7,7,0,0,1,1.13-.69,1.4,1.4,0,0,1,2,.58c.43.71,1,1.34,1.42,2a1.24,1.24,0,0,1-.12,1.7,32.56,32.56,0,0,0-2.63,3.69c-2.37,3.74-.35,8.81,1.82,12.12,3.17,4.84,6.53,9.56,9.92,14.24q7.92,10.94,15.84,21.87c2.15,3,6.32,6,10.25,4.57a24.68,24.68,0,0,0,3-1.4,2,2,0,0,1,2.82.33,20.3,20.3,0,0,1,2.06,2.17,1.38,1.38,0,0,1-.34,2.07l-14.84,10.78s-9.72,7-14.56,10.49"/><path class="cls-3" d="M3828.19,4656.16c.31,0,.58-.1.86-.12,7.54-.47,13.36-.77,22.61-1.25,1.87-.1,2.42,1.34,3.3,2.7,1.13,1.74,2.24,3.49,3.28,5.28,2.66,4.56,5.21,9.17,7.71,13.82a36.26,36.26,0,0,0,5.2,7.72,8.61,8.61,0,0,0,7.18,2.86c.9-.06,1.81-.1,2.85-.15-.08-1.56-.16-3-.23-4.52-.2-4.22-.52-8.45-.55-12.68a8.65,8.65,0,0,0-3.16-6.44,9.34,9.34,0,0,0-6.69-2.74,1.49,1.49,0,0,1-1.69-1.46,32.44,32.44,0,0,1-.21-4.2c0-.75.58-1.1,1.38-1.15,8.47-.45,13.09-.67,19.63-1,3.28-.19,6.61-.38,9.9-.52,1.71-.09,3.35-.21,5.07-.29a1.29,1.29,0,0,1,1.26.69,3,3,0,0,1,.16,1.29s0,.06,0,.08c0,1-.1,2-.07,2.93a.87.87,0,0,1-.69,1,12,12,0,0,0-8,10.17,22.9,22.9,0,0,0,.08,3.22c.07,1.05.06,2.12.17,3.15.23,2.21.23,4.46.35,6.67q.34,6.67.7,13.33t.73,13.33q.19,3.39.4,6.79a11.78,11.78,0,0,0,5.11,9.47,13.12,13.12,0,0,0,3.69,1.44c.55.16.75.37.78.87.06,1,.15,2,.18,3s-.29,1.43-1.26,1.48c-11.12.58-22.24,1.19-33.37,1.7-7.5.35-15.3-.12-21.16-5.49a21.76,21.76,0,0,1-6.09-9,20.82,20.82,0,0,1-1-9.66,22.34,22.34,0,0,1,3.83-9.83,32.57,32.57,0,0,1,3.7-3.92c.06-.07.16-.1.24-.15,1.43-1.13,1.42-1.6-.16-2.42-2.89-1.51-4.57-4-6-6.85-1.77-3.51-3.7-6.95-5.37-10.5a27.07,27.07,0,0,0-7.69-9.57c-1.71-1.39-3.7-2.44-5.51-3.72a2.85,2.85,0,0,1-1.18-1.47,27.37,27.37,0,0,1-.29-3.85m50.4,40.81v-.08a24.21,24.21,0,0,0-3.65.56,14.47,14.47,0,0,0-4.32,1.87,11.88,11.88,0,0,0-3.77,4.82,12.92,12.92,0,0,0,.23,11,11.46,11.46,0,0,0,8.41,6.73,60.67,60.67,0,0,0,6.18.67c.77.08,1.2-.48,1.14-1.28-.34-4.44-.55-8.9-.69-13.35-.1-3.06-.15-6.1-.1-9.16a2.87,2.87,0,0,0-.16-1.2c-.55-1.22-2.24-.68-3.25-.62"/><path class="cls-3" d="M3946.16,4728.9c-17.73,1.31-34.82-12.56-39.56-29.23a40.53,40.53,0,1,1,69.86,14.86c-6.92,8.37-16.21,12.58-26.86,14l-2.26.28c-.37,0-.24,0-1.19.1m21.2-42.77a43.16,43.16,0,0,0-4.15-15.64c-2.54-5.18-6.67-9.9-12.26-11.81a18.69,18.69,0,0,0-15.28,1.46,21.92,21.92,0,0,0-8.27,9.25,39.76,39.76,0,0,0-3.48,12c-1.66,11.37.72,25.31,9.28,33.64a17.84,17.84,0,0,0,23.3,1.49c8.69-6.47,11.92-20.1,10.86-30.42"/><path class="cls-3" d="M3778.94,4701.32c.35,6.8.73,13.61,1.06,20.41a11.11,11.11,0,0,0,2.35,6,9.83,9.83,0,0,0,6.16,3.78c.84.18,1.26.51,1.14,1.49a12.56,12.56,0,0,0,.13,2.57c.06.75-.19,1.26-1,1.37-1,.14-2,.3-3,.35q-9.63.52-19.27,1c-1.4.07-2.79.15-4.19.21a1.21,1.21,0,0,1-1.36-1.27,28.15,28.15,0,0,1-.13-3,1.69,1.69,0,0,1,1.35-1.66,10.31,10.31,0,0,0,7.49-7,15.36,15.36,0,0,0,.68-6q-.91-18.89-2-37.77a20.92,20.92,0,0,1,2.87-11.74c6.62-11.7,20.56-13.35,32.65-13.92a34.59,34.59,0,0,1,11,.94,20.58,20.58,0,0,1,13.93,14.18c1.09,4,.94,8.11,1.05,12.19.1,3.91.41,7.83.59,11.74q.32,7,.67,14c.14,3,.19,6,.43,9a10.89,10.89,0,0,0,1,4.4c1,1.72,2.06,3.57,4,4.49a27.31,27.31,0,0,0,3.71,1.38,1.29,1.29,0,0,1,1.08,1.25c.06,1,.12,2.1.17,3.15a1.47,1.47,0,0,1-1.38,1.61c-.47.05-1,.06-1.43.09l-33.58,1.76c-1.38.07-1.73-.18-1.86-1.52a11,11,0,0,1-.05-2.85,2.36,2.36,0,0,1,1-1.4,4.09,4.09,0,0,1,1.9-.53c2.21-.12,3.77-1.35,5.22-2.84a10.57,10.57,0,0,0,2.92-6.71,47.74,47.74,0,0,0-.11-5.28c-.34-6.54-.64-13.09-1-19.63-.27-5.31-.65-10.63-.78-15.94-.16-6.13-3.09-12.64-9.93-13.16a44.92,44.92,0,0,0-7.32-.07c-2.64.23-5.24.86-7.85,1.33a11.31,11.31,0,0,0-8.11,6.21c-2.06,4-1.42,8.46-1.19,12.8.06,1.21.76,14.55.77,14.55Z"/><path class="cls-3" d="M4031.58,4724.42c-1.5,0-2.22-.17-2.34-1.67-.14-1.84-.19-3.69-.32-5.53-.19-2.65-.44-5.3-.62-7.95-.13-1.9-.28-3.81-.29-5.71s.11-3.8.19-5.7a1.17,1.17,0,0,1,1.15-1.18,19.6,19.6,0,0,1,2.54-.32,1.47,1.47,0,0,1,1.15.6c1.5,3,2.79,6,4.42,8.92,3.68,6.5,9.68,8.71,16.73,9.32,1.94.17,3.89.24,5.84.32a11.65,11.65,0,0,0,2.58-.08,1.57,1.57,0,0,0,1-1,6.51,6.51,0,0,0,0-1.88c-.13-4.29-.25-8.59-.42-12.87-.11-2.79-.3-5.58-.41-8.38,0-.87-.37-1.35-1.25-1.25a11.63,11.63,0,0,0-2.78.47c-1.85.68-3.83,1.15-5.11,2.9a15.54,15.54,0,0,0-3.08,8.72c0,.37-.73.92-1.2,1a10.82,10.82,0,0,1-2.54.12,1.9,1.9,0,0,1-1.63-1.83c-.08-1.65-.06-3.3-.15-5-.17-3-.4-6-.58-9-.26-4.42-.49-8.84-.75-13.25-.07-1.14-.25-2.27-.34-3.41a1.46,1.46,0,0,1,1.34-1.67c.77-.16,1.54-.36,2.33-.47.64-.1,1,.13,1.19.88a12.64,12.64,0,0,0,2,5,17,17,0,0,0,4.54,4.57,7.47,7.47,0,0,0,4.85,1.26c1.58-.15,2.22-1,2.12-2.57-.41-6.22-.64-12.46-1.3-18.66a10.57,10.57,0,0,0-5.65-8.14,11.42,11.42,0,0,0-6.14-1.28c-1.27,0-1.62-.19-1.76-1.44a21.75,21.75,0,0,1-.28-3,1,1,0,0,1,.64-.71,7.9,7.9,0,0,1,1.61-.13l16.89-.9,22.12-1.16c1.95-.1,1.35.91,1.71,2.54.45,2.1-2.33,2-3.8,2.31-3.57.71-5.57,3.15-7,6.25a13.6,13.6,0,0,0-1,6.63c.27,5.34,2.63,44.33,3.05,47.35.65,4.7,3.73,8.52,8.33,9.36,1.65.3,1.65.3,1.86,2,0,.22.07.44.1.66.13,1.21-.32,1.75-1.52,1.82-4.43.23-8.85.49-13.28.74q-9.89.55-19.78,1.06l-19.73,1h-.1l-5.1.26h-.06"/><path class="cls-3" d="M3685.47,4702.69a40.41,40.41,0,0,1-6.34,23.39,38.42,38.42,0,0,1-47.35,15.47c-2-.84-4.92-1.58-6,.35-.26.48-.33,1.05-.58,1.54-.86,1.67-3.23,1.61-5.09,1.3a2,2,0,0,1-2.1-2.21q-1.48-12.88-3-25.77c-.14-1.25-.24-2.67.6-3.61,1-1.15,3-.92,4.18.08a9.14,9.14,0,0,1,2.3,4c1.5,4,3.07,8.06,5.75,11.38,6.29,7.77,18.68,9.71,27,4.22,5-3.28,8.36-8.68,10-14.43a44.88,44.88,0,0,0,.79-17.78c-1.25-9.57-5-19.71-13.45-24.46a21,21,0,0,0-19.33-.36,22.8,22.8,0,0,0-11.82,15.46c-.24,1.13-.56,2.48-1.66,2.85a3.15,3.15,0,0,1-1.7-.06l-3.81-.85a2.56,2.56,0,0,1-1.77-1,2.45,2.45,0,0,1-.1-1.7c2.83-14.55,16.22-26.19,31-27.62,23.8-2.31,40.3,17.87,42.44,39.82"/><path class="cls-3" d="M3695.36,4726.33q-.69-8-1.37-16.08c-.1-1.27,0-1.34,1.27-1.42a8.14,8.14,0,0,0,.85-.11c2-.35,2-.38,2.86,1.47,2.72,6.17,5.11,13.32,11,17.4,7,4.83,16.38,5.78,23.65,1.09,8.79-5.67,11.3-15.82,11.43-25.64a46.09,46.09,0,0,0-6.36-24.29c-4.64-7.69-12.53-11.6-21.46-10a19.61,19.61,0,0,0-7.63,3.11c-2.48,1.72-4.16,4.2-6.13,6.46-2.49,2.85-3.88,6.3-5.28,9.73-.56,1.37-.72,1.42-2.1,1-1.66-.51-3.34-1-5-1.36-1-.25-1.48-.81-1.12-1.88.81-2.5,1.69-5,2.57-7.46a24.8,24.8,0,0,1,3.84-6.79c5.55-7.17,14.15-11.35,23.07-12.23a35.59,35.59,0,0,1,6.47-.17,58.76,58.76,0,0,1,9.17,1.33,35.09,35.09,0,0,1,10.58,4.66c12.67,8.11,18.69,23.1,17.38,37.85a45.46,45.46,0,0,1-6.49,19.81,38.25,38.25,0,0,1-16.2,13.9,36.7,36.7,0,0,1-16.56,3.57,36.17,36.17,0,0,1-8.66-1.25c-2.87-.77-5.39-2.23-8.19-3.18a3.05,3.05,0,0,0-3.81,2.73c-.07,1.35-.07,1.33-1.42,1.31-1.18,0-2.35,0-3.53,0a1.4,1.4,0,0,1-1.62-1.45c-.11-1.45-.34-2.9-.48-4.35-.26-2.59-.48-5.19-.72-7.79h0"/><path class="cls-3" d="M3600.27,4747c4.13-.22,8.27-.49,12.4-.66.77,0,1.09-.42,1-1.17-.15-1.29-.35-2.57-.42-3.86a1.84,1.84,0,0,0-1.39-1.82l-3.23-1.15a8.37,8.37,0,0,1-5.71-5.82,44.44,44.44,0,0,1-1.06-7.91c-.62-9.65-1.15-19.3-1.7-29-.2-3.43-.36-6.86-.55-10.29a11.93,11.93,0,0,1,2.06-7.88c1.76-2.49,3.79-4.6,7-5.23a.68.68,0,0,0,.39-.52,14.54,14.54,0,0,0-.16-3.91c-.17-.62-1.91-.18-2.34-.15-1.19.08-2.38.15-3.58.2-2.35.12-4.7.2-7.06.31-5.2.24-10.4.48-15.6.82-2.22.15-4.35.19-6.57.35-1,.06-1.62.4-1.58,1.35,0,.64.11,1.28.08,1.91a1.81,1.81,0,0,0,1.1,1.82c.63.3,1.36.4,2,.66a12.13,12.13,0,0,1,4.41,3.09,8.09,8.09,0,0,1,2.34,5c.29,3.16.48,6.34.7,9.51.31,4.6.59,9.21.9,13.82q.84,12.87,1.69,25.73a4.87,4.87,0,0,1-.09,1.22,10,10,0,0,1-4.08,6.11,36,36,0,0,1-3.47,2.25,2,2,0,0,0-1,2.19c.08.7.25,1.38.32,2.08.13,1.34.58,2,1.95,2,6.59-.35,13.18-.65,19.77-1l1.5-.08"/><path class="cls-3" d="M4017.65,4646.17c1.26-.06,1.37,0,1.42,1.28,0,.89.06,1.78.14,2.67a.81.81,0,0,1-.74,1c-.8.17-1.6.39-2.39.59a9.29,9.29,0,0,0-6.2,4.94,9.42,9.42,0,0,0-1,4.2c.06,4.82.32,9.65.56,14.47.54,10.8,1,21.62,1.63,32.41a12.51,12.51,0,0,0,6.77,10.84,10.26,10.26,0,0,0,3.95.82c.93.08,1.33.4,1.36,1.3s.1,1.65.13,2.48c0,1.1-.06,1.64-1.21,1.7l-11.25.63c-2.32.13-4.64.22-7,.37-5.74.37-11.62.52-17.36.89a6.82,6.82,0,0,1-1.33,0,1.39,1.39,0,0,1-1.38-1.59c0-.83-.09-1.65-.08-2.48a1.25,1.25,0,0,1,1-1.36,32.5,32.5,0,0,0,4.21-1.66c4-1.85,5.09-7.2,5.08-11.16,0-5.78-.27-11.57-.56-17.34-.45-9-.93-18-1.38-27-.18-3.67-2-8.44-6.1-9.41a25.35,25.35,0,0,0-3.29-.47c-1.33-.13-1.86-.49-2.18-1.81a20.59,20.59,0,0,1-.54-2.94,1.38,1.38,0,0,1,1.42-1.55l18.31-1s12-.56,17.93-.87"/><path class="cls-3" d="M4923.84,4813.75c.26-.17.49-.34.73-.46,6.69-3.49,11.89-6.14,20.15-10.34,1.67-.85,2.75.24,4.11,1.13,1.74,1.13,3.47,2.28,5.15,3.49,4.28,3.08,8.49,6.27,12.66,9.49a36.46,36.46,0,0,0,7.89,4.93,8.62,8.62,0,0,0,7.72-.31c.81-.42,1.62-.83,2.54-1.3-.71-1.39-1.38-2.71-2.05-4-1.9-3.78-3.91-7.51-5.66-11.36a8.66,8.66,0,0,0-5.5-4.6,9.39,9.39,0,0,0-7.23.22,1.49,1.49,0,0,1-2.13-.64,32.38,32.38,0,0,1-1.9-3.75c-.28-.7.08-1.24.8-1.61,7.56-3.86,11.68-5.93,17.51-8.93,2.93-1.51,5.89-3,8.83-4.5,1.53-.78,3-1.56,4.51-2.32a1.29,1.29,0,0,1,1.43.12,3,3,0,0,1,.68,1.11l0,.08c.37.91.7,1.83,1.13,2.71a.86.86,0,0,1-.23,1.17,12,12,0,0,0-3.18,12.55,22.25,22.25,0,0,0,1.38,2.92c.49.93.92,1.91,1.44,2.81,1.1,1.93,2,4,3,6q3,6,6.06,11.9t6.09,11.88q1.56,3,3.13,6a11.79,11.79,0,0,0,8.52,6.57,13.09,13.09,0,0,0,4-.19c.57-.07.84,0,1.07.48.46.87.93,1.74,1.36,2.62s.32,1.42-.55,1.87c-9.92,5.05-19.84,10.13-29.79,15.12-6.71,3.37-14,6.11-21.57,3.59a21.72,21.72,0,0,1-9.2-5.71,20.83,20.83,0,0,1-4.84-8.42,22.35,22.35,0,0,1-.49-10.54,32.75,32.75,0,0,1,1.78-5.09c0-.09.12-.16.16-.24.85-1.61.64-2-1.13-2.15-3.25-.2-5.81-1.84-8.24-3.82-3-2.49-6.21-4.84-9.18-7.41a27.1,27.1,0,0,0-10.93-5.61c-2.13-.58-4.37-.72-6.55-1.16a2.86,2.86,0,0,1-1.68-.86,27.93,27.93,0,0,1-1.83-3.39m62.64,16.78,0-.06a24.16,24.16,0,0,0-3.11,2,14.58,14.58,0,0,0-3.19,3.47,11.89,11.89,0,0,0-1.48,5.94,12.91,12.91,0,0,0,4.7,10,11.46,11.46,0,0,0,10.42,2.73,60.86,60.86,0,0,0,5.92-1.9c.73-.24.9-.92.52-1.63-2.12-3.92-4.12-7.91-6.07-11.92-1.34-2.76-2.61-5.51-3.82-8.33a2.77,2.77,0,0,0-.63-1c-1-.9-2.31.29-3.22.75"/><path class="cls-3" d="M5061.2,4832.22c-15.67,8.41-36.92,2.69-48-10.62a40.52,40.52,0,1,1,69.87-14.84c-2.92,10.46-9.69,18.08-18.84,23.71-.65.4-1.3.8-2,1.18-.32.19-.2.13-1,.57m2-47.7a43.16,43.16,0,0,0-10.15-12.6c-4.43-3.7-10.13-6.33-16-5.8a18.7,18.7,0,0,0-13.37,7.55,21.86,21.86,0,0,0-3.79,11.81,39.58,39.58,0,0,0,1.71,12.4c3.11,11.06,11,22.83,22.16,27a17.84,17.84,0,0,0,21.89-8.11c5.31-9.45,2.71-23.22-2.45-32.21"/><path class="cls-3" d="M4897.22,4875q4.64,9.11,9.27,18.22a11.1,11.1,0,0,0,4.59,4.54,9.84,9.84,0,0,0,7.17.95c.83-.17,1.35,0,1.64.9a12.54,12.54,0,0,0,1.17,2.29,1.09,1.09,0,0,1-.32,1.65c-.86.54-1.71,1.09-2.61,1.55q-8.59,4.39-17.2,8.74c-1.25.64-2.49,1.28-3.74,1.9a1.21,1.21,0,0,1-1.76-.61,28,28,0,0,1-1.32-2.65,1.68,1.68,0,0,1,.55-2.06,10.3,10.3,0,0,0,4-9.48,15.39,15.39,0,0,0-1.81-5.75q-8.51-16.89-17.15-33.71a21,21,0,0,1-2.15-11.89c1.29-13.38,13.35-20.56,24.17-26a34.57,34.57,0,0,1,10.47-3.64,20.6,20.6,0,0,1,18.49,7.29c2.61,3.18,4.16,7,5.92,10.71s3.56,7,5.32,10.49q3.15,6.27,6.31,12.54c1.35,2.68,2.61,5.4,4.05,8a10.89,10.89,0,0,0,2.69,3.61c1.6,1.17,3.34,2.41,5.47,2.48a28.18,28.18,0,0,0,4-.25,1.29,1.29,0,0,1,1.5.7c.48.93,1,1.87,1.43,2.81a1.46,1.46,0,0,1-.61,2c-.41.24-.84.45-1.27.67l-30,15.26c-1.22.63-1.65.54-2.32-.63a11.2,11.2,0,0,1-1.2-2.58,2.35,2.35,0,0,1,.39-1.71,4.12,4.12,0,0,1,1.52-1.25c2-1,2.9-2.77,3.62-4.72a10.56,10.56,0,0,0-.06-7.32,48.33,48.33,0,0,0-2.24-4.77c-3-5.84-5.91-11.7-8.89-17.53-2.41-4.74-4.92-9.45-7.2-14.25-2.64-5.54-8-10.29-14.42-8a45.33,45.33,0,0,0-6.71,2.92c-2.32,1.29-4.44,2.91-6.64,4.41a11.31,11.31,0,0,0-4.88,9c-.23,4.52,2.15,8.3,4.12,12.18.55,1.08,6.62,13,6.62,13Z"/><path class="cls-3" d="M5137.41,4793.39c-1.37.61-2.1.75-2.82-.58-.88-1.62-1.67-3.29-2.54-4.92-1.25-2.35-2.55-4.66-3.8-7-.9-1.68-1.8-3.37-2.59-5.1s-1.45-3.52-2.15-5.29a1.16,1.16,0,0,1,.57-1.54,19.77,19.77,0,0,1,2.19-1.33,1.49,1.49,0,0,1,1.29.08c2.57,2.09,5,4.38,7.67,6.35,6,4.44,12.38,4,19.07,1.71,1.84-.64,3.65-1.36,5.46-2.08a11.32,11.32,0,0,0,2.32-1.13,1.55,1.55,0,0,0,.5-1.28,6.54,6.54,0,0,0-.74-1.73c-1.87-3.86-3.73-7.74-5.62-11.59-1.23-2.51-2.54-5-3.78-7.48-.39-.79-.89-1.09-1.66-.64a11.77,11.77,0,0,0-2.35,1.56c-1.42,1.37-3,2.61-3.48,4.73a15.51,15.51,0,0,0,.74,9.21c.14.35-.29,1.14-.68,1.43a10.47,10.47,0,0,1-2.28,1.14,1.9,1.9,0,0,1-2.24-1c-.74-1.48-1.4-3-2.15-4.47-1.37-2.66-2.79-5.29-4.17-7.94-2-3.93-4-7.88-6.08-11.81-.52-1-1.15-2-1.69-3a1.46,1.46,0,0,1,.54-2.07c.64-.46,1.27-1,1.94-1.38a.94.94,0,0,1,1.45.32,12.57,12.57,0,0,0,3.88,3.7,17.09,17.09,0,0,0,6,2.32,7.48,7.48,0,0,0,4.94-.82c1.39-.78,1.64-1.79.9-3.21-2.9-5.52-5.66-11.12-8.78-16.51a10.56,10.56,0,0,0-8.47-5.15,11.37,11.37,0,0,0-6.13,1.33c-1.15.54-1.56.48-2.19-.6A22.24,22.24,0,0,1,5119,4715a1,1,0,0,1,.3-.91,7.85,7.85,0,0,1,1.42-.78l15.05-7.69,19.74-10.06c1.74-.88,1.61.28,2.59,1.63,1.27,1.74-1.31,2.79-2.54,3.66-3,2.1-3.81,5.14-3.87,8.56a13.63,13.63,0,0,0,1.78,6.46c2.42,4.76,20.43,39.43,22,42,2.51,4,6.88,6.26,11.42,5.16,1.64-.39,1.63-.4,2.51,1.06.12.19.25.37.36.57.61,1.05.42,1.74-.64,2.28-4,2-7.89,4.05-11.83,6.08q-8.81,4.53-17.64,9l-17.61,9-.09,0-4.55,2.31-.05,0"/><path class="cls-3" d="M4812.39,4914.31a40.36,40.36,0,0,1,3.72,23.94,38.42,38.42,0,0,1-37,33.4c-2.2.06-5.14.56-5.31,2.75,0,.55.13,1.09.1,1.64-.1,1.87-2.3,2.78-4.12,3.26a2,2,0,0,1-2.82-1.16l-13.2-22.34c-.64-1.09-1.31-2.35-.92-3.54.47-1.47,2.37-2.06,3.85-1.63a9.17,9.17,0,0,1,3.71,2.68c3,3,6.08,6.11,9.88,8,8.91,4.54,21,1.28,26.42-7.14,3.23-5,4.11-11.32,3.23-17.23a44.92,44.92,0,0,0-6.52-16.56c-5-8.23-12.62-16-22.23-16.88a21,21,0,0,0-17.81,7.53,22.79,22.79,0,0,0-4.51,18.93c.24,1.13.49,2.5-.35,3.28a3.15,3.15,0,0,1-1.58.63l-3.83.77a2.56,2.56,0,0,1-2-.15,2.46,2.46,0,0,1-.78-1.52c-3.34-14.45,4.16-30.52,17.06-37.83,20.81-11.79,44.08-.06,55,19.11"/><path class="cls-3" d="M4831,4931.88c-2.6-4.71-5.21-9.42-7.79-14.13-.61-1.12-.56-1.22.58-1.82a7.89,7.89,0,0,0,.73-.45c1.67-1.13,1.71-1.18,3.21.18,5,4.53,10.08,10.09,17.12,11.42,8.33,1.58,17.31-1.38,22-8.63,5.73-8.75,3.89-19,0-28.07a46.07,46.07,0,0,0-15.69-19.6c-7.37-5.14-16.17-5.5-23.66-.39a19.66,19.66,0,0,0-5.71,6c-1.57,2.58-2.09,5.53-3,8.39-1.12,3.62-1,7.33-.86,11,0,1.48-.09,1.59-1.52,1.76-1.73.2-3.44.49-5.15.8-1,.19-1.68-.14-1.8-1.26-.27-2.61-.48-5.24-.68-7.86a24.68,24.68,0,0,1,.75-7.76c2.15-8.81,8.31-16.12,16.1-20.56a35.82,35.82,0,0,1,5.85-2.79,58.51,58.51,0,0,1,8.92-2.51,35.23,35.23,0,0,1,11.56-.05c14.87,2.26,26.47,13.5,31.27,27.51a45.49,45.49,0,0,1,2.13,20.74,38.3,38.3,0,0,1-9.14,19.29,36.68,36.68,0,0,1-13.68,10,36.28,36.28,0,0,1-8.42,2.39c-2.94.45-5.83.15-8.77.42a3,3,0,0,0-2.37,4c.49,1.26.48,1.24-.77,1.77-1.08.46-2.13,1-3.21,1.47a1.4,1.4,0,0,1-2.07-.67c-.69-1.28-1.49-2.51-2.21-3.77-1.29-2.27-2.55-4.55-3.83-6.82l0,0"/><path class="cls-3" d="M4752.57,4989.45c3.68-1.89,7.35-3.81,11.06-5.65a.92.92,0,0,0,.44-1.48c-.66-1.12-1.37-2.2-2-3.36a1.83,1.83,0,0,0-2-1.09l-3.42.26a8.37,8.37,0,0,1-7.59-3,43.78,43.78,0,0,1-4.18-6.79c-4.5-8.56-8.9-17.17-13.33-25.76-1.58-3.06-3.12-6.13-4.7-9.18a12,12,0,0,1-1.33-8c.6-3,1.6-5.75,4.23-7.61a.68.68,0,0,0,.14-.63,14.54,14.54,0,0,0-1.73-3.51c-.41-.5-1.82.61-2.2.81-1.06.56-2.12,1.1-3.18,1.64-2.1,1.06-4.22,2.1-6.32,3.15-4.66,2.33-9.31,4.66-13.92,7.09-2,1-3.9,1.94-5.86,3-.85.45-1.32,1-.89,1.89.29.57.62,1.12.85,1.71a1.8,1.8,0,0,0,1.75,1.21c.7,0,1.4-.18,2.11-.22a12.29,12.29,0,0,1,5.28,1,8.08,8.08,0,0,1,4.19,3.65c1.55,2.77,3,5.6,4.5,8.41,2.15,4.08,4.29,8.17,6.44,12.26q6,11.41,12,22.82a4.78,4.78,0,0,1,.42,1.15,10,10,0,0,1-1.24,7.25,35.5,35.5,0,0,1-2.26,3.47,2,2,0,0,0,0,2.4c.35.61.79,1.16,1.13,1.77.67,1.17,1.36,1.61,2.57,1,5.88-3,11.77-6,17.65-9l1.34-.68"/><path class="cls-3" d="M5092.86,4727.57c1.12-.58,1.26-.52,1.82.59.4.8.78,1.61,1.22,2.38a.81.81,0,0,1-.26,1.22c-.67.48-1.3,1-1.95,1.51a9.3,9.3,0,0,0-3.65,7,9.41,9.41,0,0,0,.8,4.25c2,4.38,4.22,8.68,6.4,13,4.89,9.65,9.72,19.33,14.67,28.94a12.5,12.5,0,0,0,10.6,7.15,10.18,10.18,0,0,0,3.94-.85c.89-.31,1.38-.18,1.77.64s.76,1.47,1.13,2.21c.49,1,.61,1.52-.41,2q-5,2.59-10,5.15c-2.07,1.06-4.15,2.09-6.21,3.17-5.09,2.67-10.4,5.2-15.49,7.87a6.61,6.61,0,0,1-1.23.51,1.39,1.39,0,0,1-1.91-.89c-.32-.76-.75-1.48-1.08-2.23a1.25,1.25,0,0,1,.39-1.66,32.84,32.84,0,0,0,3.17-3.23c2.92-3.33,1.73-8.65.1-12.26-2.37-5.27-5-10.46-7.57-15.61q-6.11-12-12.23-24.08c-1.66-3.28-5.31-6.88-9.4-6.12a24.48,24.48,0,0,0-3.2.92,2,2,0,0,1-2.73-.77,20.76,20.76,0,0,1-1.69-2.47,1.38,1.38,0,0,1,.67-2l16.34-8.33s10.69-5.37,16-8.09"/><path class="cls-3" d="M235.29,3224.9c-.25-.19-.49-.34-.7-.52-5.66-5-10-8.91-16.88-15.11-1.39-1.25-.76-2.66-.42-4.24.43-2,.88-4.05,1.41-6.06,1.35-5.1,2.81-10.17,4.32-15.22a36.45,36.45,0,0,0,1.78-9.14,8.61,8.61,0,0,0-3.06-7.1c-.68-.6-1.35-1.21-2.12-1.91l-3,3.36c-2.85,3.13-5.61,6.34-8.58,9.36a8.65,8.65,0,0,0-2.32,6.79,9.37,9.37,0,0,0,2.8,6.67,1.49,1.49,0,0,1,.16,2.23,32.57,32.57,0,0,1-2.82,3.12c-.55.51-1.19.37-1.79-.17-6.31-5.67-9.73-8.78-14.61-13.15-2.45-2.19-4.94-4.41-7.36-6.63-1.28-1.15-2.52-2.22-3.79-3.38a1.3,1.3,0,0,1-.4-1.38,3.06,3.06,0,0,1,.8-1l.06-.06c.71-.67,1.46-1.31,2.12-2a.86.86,0,0,1,1.17-.2,12,12,0,0,0,12.86-1.53,22.31,22.31,0,0,0,2.23-2.34c.68-.79,1.45-1.54,2.11-2.35,1.4-1.72,3-3.31,4.47-5q4.47-5,8.94-9.92t8.91-9.94l4.52-5.09a11.76,11.76,0,0,0,3.07-10.31,13,13,0,0,0-1.59-3.62.87.87,0,0,1,.06-1.17c.65-.74,1.29-1.49,2-2.21s1.22-.81,1.94-.15c8.27,7.45,16.57,14.89,24.8,22.39,5.55,5.06,10.74,10.91,11.08,18.85a21.78,21.78,0,0,1-2,10.64,20.89,20.89,0,0,1-6.13,7.53,22.4,22.4,0,0,1-9.66,4.24,33.27,33.27,0,0,1-5.39.16,2.19,2.19,0,0,1-.28-.06c-1.81-.21-2.13.13-1.6,1.82,1,3.11.37,6.08-.61,9.06-1.23,3.73-2.29,7.53-3.63,11.23a27.11,27.11,0,0,0-1.32,12.21c.23,2.19.89,4.34,1.27,6.53a2.85,2.85,0,0,1-.2,1.87,28.58,28.58,0,0,1-2.51,2.93m-6.78-64.5,0,.06a24,24,0,0,0,3,2.19,14.55,14.55,0,0,0,4.38,1.74,11.87,11.87,0,0,0,6.07-.75,12.9,12.9,0,0,0,7.64-8,11.47,11.47,0,0,0-1.18-10.71c-1.15-1.73-2.59-3.24-3.9-4.84a1,1,0,0,0-1.71.1c-2.9,3.38-5.91,6.68-9,9.93-2.09,2.24-4.21,4.42-6.4,6.55a2.87,2.87,0,0,0-.74,1c-.48,1.25,1.1,2.06,1.86,2.74"/><path class="cls-3" d="M203.31,3090c13.46,11.61,15.74,33.5,7.3,48.64a40.53,40.53,0,1,1-38.89-59.91c10.81-1,20.35,2.57,28.88,9.1.61.46,1.21.93,1.8,1.4.29.23.19.14.91.77m-45.24,15.25a43.18,43.18,0,0,0-8.13,14c-1.87,5.47-2.28,11.72.32,17a18.67,18.67,0,0,0,11.84,9.78,21.94,21.94,0,0,0,12.38-.69,39.57,39.57,0,0,0,11-6c9.21-6.86,17.38-18.4,17.23-30.35a17.83,17.83,0,0,0-15.42-17.53c-10.72-1.58-22.64,5.79-29.19,13.83"/><path class="cls-3" d="M302,3227.79q6.84-7.59,13.68-15.18a11.14,11.14,0,0,0,2.6-5.92,9.83,9.83,0,0,0-1.69-7c-.46-.72-.53-1.25.25-1.86a12.52,12.52,0,0,0,1.72-1.91,1.09,1.09,0,0,1,1.66-.29c.81.61,1.63,1.21,2.38,1.88q7.18,6.45,14.33,12.92c1,.94,2.08,1.87,3.11,2.82a1.22,1.22,0,0,1,.06,1.87,28,28,0,0,1-2,2.18,1.68,1.68,0,0,1-2.12.22,10.32,10.32,0,0,0-10.28-.32,15.26,15.26,0,0,0-4.72,3.76q-12.72,14-25.33,28.09a20.94,20.94,0,0,1-10.33,6.27c-13,3.6-24-5.1-32.93-13.25a34.58,34.58,0,0,1-7.15-8.47,20.59,20.59,0,0,1,.18-19.87c2-3.58,5.08-6.4,7.88-9.36s5.25-5.83,7.89-8.72l9.45-10.39c2-2.22,4.11-4.37,6-6.66a10.88,10.88,0,0,0,2.41-3.81c.52-1.91,1.06-4,.35-6a28.09,28.09,0,0,0-1.64-3.6,1.29,1.29,0,0,1,.12-1.65c.7-.78,1.4-1.57,2.11-2.35a1.46,1.46,0,0,1,2.11-.16c.38.3.72.63,1.08.95l25,22.5c1,.92,1.09,1.35.24,2.39a11.13,11.13,0,0,1-2,2.05,2.38,2.38,0,0,1-1.73.25,4.1,4.1,0,0,1-1.72-1c-1.64-1.48-3.63-1.71-5.7-1.69a10.57,10.57,0,0,0-6.81,2.68,49,49,0,0,0-3.66,3.8c-4.38,4.87-8.8,9.71-13.19,14.58-3.56,3.94-7.05,8-10.71,11.82-4.23,4.44-6.76,11.12-2.28,16.32a45,45,0,0,0,5.13,5.22c2,1.7,4.31,3.1,6.49,4.62a11.31,11.31,0,0,0,10.12,1.34c4.31-1.4,7-5,9.9-8.2l9.75-10.84Z"/><path class="cls-3" d="M139.75,3032.81c1.06,1.06,1.45,1.69.47,2.84-1.2,1.4-2.48,2.73-3.68,4.13-1.74,2-3.44,4.05-5.18,6.06-1.25,1.44-2.5,2.89-3.83,4.25s-2.77,2.61-4.17,3.9a1.17,1.17,0,0,1-1.64,0,19,19,0,0,1-2-1.57,1.47,1.47,0,0,1-.39-1.23c1-3.15,2.3-6.24,3.18-9.44,2-7.2-.69-13-5.24-18.42-1.25-1.49-2.58-2.93-3.9-4.36a11.7,11.7,0,0,0-1.88-1.77,1.57,1.57,0,0,0-1.38,0,6.35,6.35,0,0,0-1.35,1.31c-2.94,3.13-5.89,6.25-8.81,9.4-1.9,2-3.73,4.16-5.63,6.21-.6.64-.7,1.22,0,1.78a11.81,11.81,0,0,0,2.3,1.63c1.79.83,3.53,1.9,5.66,1.55a15.47,15.47,0,0,0,8.34-4c.27-.26,1.16-.13,1.58.12A10.69,10.69,0,0,1,114,3037a1.9,1.9,0,0,1-.14,2.45c-1.12,1.22-2.29,2.38-3.4,3.61-2,2.22-3.94,4.5-5.92,6.73-2.94,3.31-5.9,6.59-8.84,9.91-.76.86-1.43,1.78-2.17,2.65a1.46,1.46,0,0,1-2.13.23c-.66-.44-1.35-.84-2-1.32a.94.94,0,0,1-.23-1.47,12.59,12.59,0,0,0,2.06-5,17,17,0,0,0,0-6.43,7.48,7.48,0,0,0-2.54-4.32c-1.22-1-2.25-.89-3.31.32-4.11,4.68-8.36,9.26-12.27,14.11a10.57,10.57,0,0,0-1.77,9.76,11.43,11.43,0,0,0,3.44,5.24c.92.88,1,1.28.23,2.26a21.48,21.48,0,0,1-1.94,2.34,1,1,0,0,1-1,0,7.54,7.54,0,0,1-1.23-1l-12.58-11.3L41.92,3051c-1.45-1.3-.32-1.6.59-3,1.16-1.8,3.07.23,4.32,1.06,3,2,6.16,1.71,9.38.55a13.52,13.52,0,0,0,5.39-4c3.58-4,29.49-33.21,31.33-35.64,2.86-3.78,3.38-8.66.73-12.51-1-1.38-1-1.38.09-2.72.14-.17.26-.36.4-.54a1.4,1.4,0,0,1,2.36-.21q4.94,4.45,9.91,8.87,7.39,6.6,14.73,13.24l14.69,13.22.07.06,3.79,3.42,0,0"/><path class="cls-3" d="M369.12,3292.91a40.39,40.39,0,0,1,21-12.06,38.41,38.41,0,0,1,44.42,22.55c.85,2,2.36,4.6,4.47,4,.53-.16,1-.51,1.5-.68,1.79-.57,3.42,1.15,4.52,2.68a2,2,0,0,1-.07,3l-16.12,20.33c-.78,1-1.72,2.06-3,2.13-1.54.09-2.77-1.48-2.89-3a9.11,9.11,0,0,1,1.17-4.42c1.77-3.88,3.53-7.86,4-12.11,1-9.94-6.34-20.07-16.13-22.1-5.85-1.22-12,.22-17.24,3.16a44.92,44.92,0,0,0-13.12,12c-5.89,7.65-10.38,17.5-7.79,26.8a21,21,0,0,0,13.41,13.93,22.81,22.81,0,0,0,19.29-2.57c1-.63,2.16-1.35,3.19-.84a3.15,3.15,0,0,1,1.16,1.25l2.09,3.3a2.54,2.54,0,0,1,.58,1.92,2.45,2.45,0,0,1-1.14,1.28c-12.29,8.29-30,7-41.43-2.38-18.46-15.2-15.86-41.13-1.86-58.17"/><path class="cls-3" d="M378.84,3269.21q-5.2,6.17-10.4,12.34c-.83,1-.93,1-1.9.11-.22-.19-.45-.35-.68-.52-1.65-1.16-1.71-1.18-1-3.06,2.44-6.29,5.81-13,4.53-20.08-1.52-8.35-7.49-15.67-16-17.49-10.22-2.21-19.17,3.2-26.21,10a46.08,46.08,0,0,0-12.67,21.67c-2.16,8.72.66,17.06,8.12,22.23a19.65,19.65,0,0,0,7.6,3.2c3,.54,5.91,0,8.9-.23,3.77-.26,7.19-1.71,10.61-3.15,1.37-.58,1.52-.49,2.19.78.81,1.54,1.69,3,2.59,4.52.55.9.47,1.61-.54,2.13-2.34,1.19-4.71,2.33-7.09,3.45a24.89,24.89,0,0,1-7.52,2.08c-9,1.15-18-2-25-7.66a35.77,35.77,0,0,1-4.7-4.46,59.07,59.07,0,0,1-5.55-7.43,35.26,35.26,0,0,1-4.19-10.78c-3.22-14.7,3.12-29.55,14.48-39.05a45.47,45.47,0,0,1,18.59-9.42c7.07-1.66,14.47-.76,21.28,1.62a36.67,36.67,0,0,1,14.23,9.19,36.2,36.2,0,0,1,5.24,7c1.48,2.58,2.23,5.39,3.54,8a3.05,3.05,0,0,0,4.62.77c1-.91,1-.89,1.93.08s1.69,1.64,2.52,2.47a1.4,1.4,0,0,1,.12,2.17c-.95,1.1-1.8,2.29-2.73,3.42-1.65,2-3.33,4-5,6l0,0"/><path class="cls-3" d="M460.69,3321.83c-3.09-2.76-6.19-5.5-9.24-8.3a.92.92,0,0,0-1.54.12c-.8,1-1.57,2.07-2.44,3a1.83,1.83,0,0,0-.3,2.26c.49,1,1,2.07,1.47,3.1a8.38,8.38,0,0,1-.07,8.15,44.47,44.47,0,0,1-4.84,6.34c-6.38,7.26-12.84,14.46-19.27,21.68-2.29,2.57-4.6,5.11-6.89,7.68a12,12,0,0,1-7,4.12c-3,.51-5.94.56-8.62-1.22a.67.67,0,0,0-.64.1,14.36,14.36,0,0,0-2.65,2.87c-.32.56,1.22,1.48,1.55,1.76q1.35,1.18,2.67,2.38c1.74,1.58,3.47,3.19,5.21,4.78,3.84,3.51,7.69,7,11.61,10.45,1.67,1.47,3.21,2.94,4.89,4.4.72.63,1.43.87,2.08.16.43-.47.82-1,1.29-1.41a1.81,1.81,0,0,0,.5-2.06c-.23-.66-.67-1.24-1-1.89a12.24,12.24,0,0,1-.93-5.31,8.09,8.09,0,0,1,1.91-5.22c2-2.44,4.14-4.83,6.24-7.22,3-3.47,6.1-6.93,9.14-10.41l17-19.4a5,5,0,0,1,.93-.8,10,10,0,0,1,7.21-1.44,35.92,35.92,0,0,1,4,.87,2,2,0,0,0,2.25-.85c.44-.55.8-1.15,1.24-1.69.85-1,1-1.85,0-2.76-4.91-4.42-9.78-8.86-14.69-13.27l-1.12-1"/><path class="cls-3" d="M94.26,3098c-.94-.85-.94-1-.1-1.91.6-.66,1.22-1.3,1.79-2a.81.81,0,0,1,1.23-.19c.69.45,1.4.86,2.11,1.27a9.28,9.28,0,0,0,7.88.88,9.42,9.42,0,0,0,3.68-2.26c3.37-3.46,6.59-7.05,9.83-10.63,7.25-8,14.56-16,21.76-24.07a12.5,12.5,0,0,0,2.88-12.45,10.16,10.16,0,0,0-2.21-3.37c-.6-.72-.66-1.22,0-1.88s1.1-1.23,1.66-1.85c.74-.81,1.2-1.11,2.06-.35q4.21,3.75,8.4,7.51c1.73,1.55,3.44,3.12,5.18,4.66,4.31,3.8,8.58,7.85,12.9,11.64a7.15,7.15,0,0,1,.91,1,1.4,1.4,0,0,1-.14,2.1c-.6.57-1.11,1.23-1.7,1.81a1.24,1.24,0,0,1-1.69.23,33.06,33.06,0,0,0-4.15-1.81c-4.15-1.53-8.69,1.49-11.48,4.3-4.07,4.11-8,8.37-11.87,12.66q-9,10-18.1,20c-2.48,2.73-4.52,7.42-2.34,11a24.6,24.6,0,0,0,2,2.65,2,2,0,0,1,.26,2.83,20.54,20.54,0,0,1-1.7,2.46,1.39,1.39,0,0,1-2.1.1l-13.63-12.27S98.7,3102,94.26,3098"/><path class="cls-3" d="M4918.69,5652.39c.24-.21.43-.41.65-.57,6.07-4.5,10.79-7.92,18.29-13.37,1.52-1.1,2.76-.19,4.23.47,1.89.84,3.78,1.71,5.63,2.64,4.7,2.38,9.36,4.86,14,7.39a36.1,36.1,0,0,0,8.57,3.64,8.61,8.61,0,0,0,7.58-1.51c.73-.55,1.47-1.07,2.31-1.68l-2.66-3.66c-2.47-3.44-5-6.81-7.37-10.34a8.66,8.66,0,0,0-6.15-3.68,9.39,9.39,0,0,0-7.11,1.35,1.49,1.49,0,0,1-2.21-.3,32.08,32.08,0,0,1-2.46-3.41c-.39-.65-.11-1.24.54-1.71,6.86-5,10.62-7.69,15.9-11.56,2.65-1.94,5.34-3.91,8-5.82,1.39-1,2.69-2,4.09-3a1.29,1.29,0,0,1,1.44-.1,3.15,3.15,0,0,1,.84,1l0,.07c.5.84,1,1.7,1.54,2.5a.87.87,0,0,1,0,1.19,12,12,0,0,0-1.18,12.9,22.86,22.86,0,0,0,1.82,2.67c.64.84,1.21,1.74,1.86,2.55,1.39,1.73,2.62,3.61,3.92,5.4l7.85,10.8q3.93,5.4,7.88,10.78l4,5.48a11.77,11.77,0,0,0,9.45,5.15,13.11,13.11,0,0,0,3.87-.8c.55-.16.84-.1,1.13.3.59.79,1.19,1.57,1.76,2.38s.54,1.35-.26,1.93c-9,6.54-18,13.11-27.05,19.6-6.1,4.38-12.9,8.24-20.74,6.92a21.85,21.85,0,0,1-10-4.2,20.84,20.84,0,0,1-6.09-7.56,22.38,22.38,0,0,1-2.14-10.33,32.88,32.88,0,0,1,1-5.31,1.65,1.65,0,0,1,.12-.26c.58-1.72.32-2.11-1.45-1.94-3.25.31-6-.9-8.74-2.48-3.4-2-6.89-3.81-10.23-5.89a27.11,27.11,0,0,0-11.67-3.83c-2.19-.23-4.43,0-6.65-.11a2.88,2.88,0,0,1-1.8-.59,28.88,28.88,0,0,1-2.34-3.06m64.5,6.78-.05-.06a23.83,23.83,0,0,0-2.76,2.46,14.37,14.37,0,0,0-2.61,3.92,11.86,11.86,0,0,0-.53,6.09,12.89,12.89,0,0,0,6.21,9.14,11.46,11.46,0,0,0,10.72,1.07,60.68,60.68,0,0,0,5.55-2.81c.69-.35.74-1,.26-1.69-2.7-3.54-5.3-7.17-7.85-10.82-1.75-2.51-3.44-5-5.08-7.63a2.81,2.81,0,0,0-.78-.92c-1.12-.73-2.24.65-3.06,1.25"/><path class="cls-3" d="M5057.25,5649.15c-14.16,10.76-36,8.43-49.1-3a40.52,40.52,0,1,1,66.68-25.58c-1.24,10.79-6.74,19.37-14.9,26.36-.58.49-1.16,1-1.74,1.47-.29.24-.18.16-.94.73m-5.51-47.42a43.17,43.17,0,0,0-12-10.86c-5-3-11-4.67-16.71-3.23a18.69,18.69,0,0,0-12,9.55,21.91,21.91,0,0,0-1.9,12.26,39.7,39.7,0,0,0,3.63,12c4.8,10.44,14.39,20.83,26.1,23.16a17.84,17.84,0,0,0,20.35-11.44c3.77-10.16-1-23.35-7.46-31.43"/><path class="cls-3" d="M4902,5717.09q6,8.27,12,16.54a11.13,11.13,0,0,0,5.25,3.76,9.81,9.81,0,0,0,7.23-.19c.8-.3,1.33-.26,1.77.63a12.7,12.7,0,0,0,1.51,2.08,1.08,1.08,0,0,1-.06,1.68c-.76.67-1.52,1.35-2.34,1.94q-7.8,5.69-15.62,11.32c-1.13.82-2.26,1.65-3.4,2.46a1.21,1.21,0,0,1-1.84-.32,27.51,27.51,0,0,1-1.72-2.41,1.69,1.69,0,0,1,.23-2.12,10.32,10.32,0,0,0,2.45-10,15.47,15.47,0,0,0-2.69-5.4q-11.05-15.34-22.22-30.61a21,21,0,0,1-4-11.41c-.82-13.42,10-22.39,19.81-29.46a34.47,34.47,0,0,1,9.78-5.23,20.58,20.58,0,0,1,19.4,4.31c3.08,2.73,5.21,6.3,7.52,9.65s4.61,6.34,6.89,9.52l8.2,11.4c1.74,2.44,3.42,4.93,5.25,7.3a10.88,10.88,0,0,0,3.23,3.15c1.76.91,3.67,1.87,5.79,1.59a29.08,29.08,0,0,0,3.86-.86,1.29,1.29,0,0,1,1.59.46c.62.85,1.25,1.69,1.86,2.55a1.46,1.46,0,0,1-.29,2.1c-.37.3-.76.58-1.15.86l-27.2,19.76c-1.11.81-1.55.79-2.39-.26a11.23,11.23,0,0,1-1.6-2.36,2.36,2.36,0,0,1,.12-1.74,4,4,0,0,1,1.3-1.48c1.79-1.3,2.43-3.19,2.83-5.23a10.57,10.57,0,0,0-1.21-7.21,47.78,47.78,0,0,0-3-4.37c-3.85-5.3-7.67-10.63-11.52-15.93-3.12-4.3-6.34-8.56-9.34-12.94-3.47-5.06-9.46-8.92-15.49-5.63a44.87,44.87,0,0,0-6.17,3.93c-2.09,1.63-3.93,3.57-5.87,5.39a11.31,11.31,0,0,0-3.41,9.62c.47,4.5,3.41,7.87,6,11.39.71,1,8.57,11.79,8.57,11.79Z"/><path class="cls-3" d="M5126.45,5598.87c-1.26.82-2,1.07-2.88-.13-1.12-1.47-2.16-3-3.28-4.46-1.6-2.12-3.25-4.21-4.85-6.33-1.15-1.52-2.31-3-3.35-4.63s-2-3.25-2.95-4.89a1.17,1.17,0,0,1,.32-1.61,19.65,19.65,0,0,1,2-1.66,1.47,1.47,0,0,1,1.28-.12c2.87,1.67,5.63,3.54,8.57,5.08,6.63,3.44,12.86,2,19.11-1.29,1.72-.92,3.39-1.91,5.07-2.91a11.64,11.64,0,0,0,2.12-1.48,1.58,1.58,0,0,0,.29-1.34,6.41,6.41,0,0,0-1-1.6c-2.45-3.53-4.89-7.06-7.36-10.57-1.61-2.28-3.29-4.52-4.9-6.8-.51-.72-1.05-.93-1.74-.37a11.82,11.82,0,0,0-2.08,1.91c-1.19,1.58-2.58,3.06-2.7,5.22a15.46,15.46,0,0,0,2.17,9c.19.32-.11,1.17-.45,1.52a10.33,10.33,0,0,1-2.07,1.48,1.89,1.89,0,0,1-2.37-.64c-1-1.34-1.85-2.74-2.83-4.07-1.76-2.41-3.58-4.79-5.35-7.19-2.63-3.57-5.22-7.15-7.85-10.71-.68-.92-1.45-1.77-2.14-2.67a1.46,1.46,0,0,1,.21-2.13c.57-.56,1.1-1.14,1.7-1.67a.94.94,0,0,1,1.48.08,12.66,12.66,0,0,0,4.41,3,17.15,17.15,0,0,0,6.29,1.36,7.48,7.48,0,0,0,4.75-1.58c1.25-1,1.34-2,.39-3.31-3.73-5-7.33-10.1-11.26-14.93a10.57,10.57,0,0,0-9.17-3.76,11.42,11.42,0,0,0-5.85,2.28c-1,.71-1.46.72-2.25-.25a21.66,21.66,0,0,1-1.88-2.39,1,1,0,0,1,.16-.94,7.85,7.85,0,0,1,1.28-1l13.67-9.95,17.92-13c1.57-1.14,1.63,0,2.82,1.2,1.52,1.51-.86,3-1.93,4-2.61,2.54-3,5.67-2.48,9.07a13.6,13.6,0,0,0,2.77,6.1c3.13,4.33,26.35,35.74,28.35,38.05,3.1,3.59,7.77,5.11,12.09,3.31,1.55-.64,1.55-.65,2.64.65.14.17.3.33.44.5a1.4,1.4,0,0,1-.29,2.35c-3.58,2.61-7.15,5.24-10.73,7.85q-8,5.85-16,11.66l-16,11.61-.08.06-4.14,3,0,0"/><path class="cls-3" d="M4824.34,5769.15a40.4,40.4,0,0,1,7.42,23.07,38.42,38.42,0,0,1-31.29,38.77c-2.16.4-5,1.35-4.81,3.54,0,.55.3,1.06.35,1.61.19,1.87-1.84,3.11-3.56,3.86a2.67,2.67,0,0,1-1.64.33,2.71,2.71,0,0,1-1.33-1l-16.53-20c-.81-1-1.66-2.11-1.47-3.36.23-1.52,2-2.4,3.55-2.21a9.11,9.11,0,0,1,4.08,2.06c3.43,2.54,7,5.09,11,6.41,9.51,3.09,20.95-2,25-11.18,2.41-5.47,2.29-11.83.49-17.53a44.8,44.8,0,0,0-9-15.34c-6.26-7.35-15-13.79-24.59-13.19a21,21,0,0,0-16.41,10.23,22.79,22.79,0,0,0-1.49,19.4c.41,1.08.88,2.39.16,3.3a3.18,3.18,0,0,1-1.46.87l-3.66,1.36a2.57,2.57,0,0,1-2,.16,2.46,2.46,0,0,1-1-1.38c-5.55-13.75-.66-30.8,10.94-40,18.7-14.89,43.52-7,57.28,10.28"/><path class="cls-3" d="M4845.51,5783.59q-5-6.37-9.91-12.74c-.78-1-.74-1.11.29-1.88a8.1,8.1,0,0,0,.65-.56c1.48-1.38,1.51-1.43,3.2-.32,5.65,3.69,11.54,8.39,18.7,8.6,8.48.25,16.88-4.07,20.43-12,4.28-9.54.86-19.42-4.38-27.73a46.08,46.08,0,0,0-18.56-16.9c-8.08-3.93-16.83-2.9-23.43,3.32a19.55,19.55,0,0,0-4.71,6.77c-1.15,2.8-1.2,5.79-1.62,8.75-.54,3.75.18,7.39.88,11,.28,1.45.17,1.59-1.22,2-1.67.47-3.32,1-5,1.6-1,.35-1.68.13-2-1-.68-2.54-1.3-5.09-1.9-7.65a24.79,24.79,0,0,1-.48-7.78c.75-9,5.69-17.22,12.69-22.82a35.69,35.69,0,0,1,5.34-3.67,58.27,58.27,0,0,1,8.42-3.88,35.06,35.06,0,0,1,11.41-1.86c15-.1,28.25,9.19,35.19,22.28a45.57,45.57,0,0,1,5.35,20.15c.15,7.26-2.27,14.31-6,20.48a36.59,36.59,0,0,1-11.95,12,36.16,36.16,0,0,1-7.94,3.68c-2.83.91-5.74,1.06-8.6,1.79a3,3,0,0,0-1.71,4.36c.68,1.17.67,1.15-.48,1.87-1,.63-2,1.31-2.94,2a1.4,1.4,0,0,1-2.15-.33c-.88-1.16-1.87-2.24-2.78-3.38-1.63-2-3.23-4.09-4.85-6.14l0,0"/><path class="cls-3" d="M4777,5852.72c3.34-2.44,6.67-4.92,10-7.31a.92.92,0,0,0,.2-1.53c-.82-1-1.7-2-2.45-3a1.83,1.83,0,0,0-2.15-.77l-3.34.8a8.38,8.38,0,0,1-8-1.77,44.9,44.9,0,0,1-5.2-6.05c-5.78-7.75-11.48-15.57-17.2-23.36-2-2.77-4-5.56-6.07-8.33a11.94,11.94,0,0,1-2.57-7.72c.12-3,.68-5.92,3-8.18a.68.68,0,0,0,0-.65,14.57,14.57,0,0,0-2.26-3.19c-.48-.43-1.7.89-2,1.15q-1.43,1.07-2.89,2.12c-1.91,1.38-3.83,2.73-5.75,4.1-4.23,3-8.46,6.07-12.64,9.18-1.79,1.33-3.54,2.52-5.32,3.86-.77.58-1.14,1.22-.59,2,.37.52.79,1,1.11,1.56a1.8,1.8,0,0,0,1.91.92c.7-.09,1.36-.4,2-.55a12.24,12.24,0,0,1,5.38.2,8.07,8.07,0,0,1,4.71,3c2,2.5,3.86,5.05,5.76,7.6,2.77,3.7,5.51,7.4,8.28,11.1l15.44,20.66a4.93,4.93,0,0,1,.6,1.08,10,10,0,0,1-.1,7.35,36,36,0,0,1-1.69,3.78,2,2,0,0,0,.36,2.37c.44.54,1,1,1.39,1.57.84,1.05,1.59,1.38,2.7.58,5.34-3.88,10.7-7.72,16-11.61l1.21-.88"/><path class="cls-3" d="M5072.15,5540.83c1-.74,1.17-.71,1.89.3.52.72,1,1.46,1.58,2.16a.81.81,0,0,1-.07,1.25c-.58.58-1.13,1.19-1.68,1.8a9.3,9.3,0,0,0-2.5,7.53,9.4,9.4,0,0,0,1.45,4.07c2.68,4,5.52,7.91,8.35,11.83,6.33,8.76,12.62,17.57,19,26.29a12.51,12.51,0,0,0,11.58,5.41,10.28,10.28,0,0,0,3.76-1.46c.83-.44,1.33-.39,1.85.35s1,1.33,1.46,2c.64.9.84,1.41-.09,2.09l-9.1,6.66c-1.88,1.37-3.77,2.71-5.63,4.1-4.61,3.44-9.46,6.76-14.07,10.2a6.75,6.75,0,0,1-1.13.69,1.4,1.4,0,0,1-2-.58c-.43-.71-1-1.34-1.42-2a1.24,1.24,0,0,1,.12-1.7,32.6,32.6,0,0,0,2.63-3.69c2.37-3.74.35-8.81-1.82-12.12-3.17-4.84-6.53-9.56-9.92-14.24q-7.92-10.94-15.84-21.87c-2.15-3-6.32-6-10.25-4.57a25.36,25.36,0,0,0-3,1.4,2,2,0,0,1-2.82-.33,20.3,20.3,0,0,1-2.06-2.17,1.38,1.38,0,0,1,.34-2.07l14.84-10.78s9.72-7,14.56-10.49"/></g><g class="cls-4"><path class="cls-5" d="M5666.56,3522.32v63.11m0-3655.94v-63.11m-5725,3655.94v63.11m0-3655.94v-63.11m5750.24,3630.7h63.11m-5838.6,0h-63.11M5691.81-45.26h63.11m-5838.6,0h-63.11"/><path class="cls-6" d="M5666.56,3522.32v63.11m0-3655.94v-63.11m-5725,3655.94v63.11m0-3655.94v-63.11m5750.24,3630.7h63.11m-5838.6,0h-63.11M5691.81-45.26h63.11m-5838.6,0h-63.11"/></g></svg>