<svg id="Layer_1" data-name="Layer 1" xmlns="http://www.w3.org/2000/svg" viewBox="0 0 283.46 71"><defs><style>.cls-1{fill:#fff;}</style></defs><title>cta-womens</title><path class="cls-1" d="M99.88,25.38h-6v8.38h6a5.43,5.43,0,0,0,3.79-1.06,4,4,0,0,0,1.2-3.14,4,4,0,0,0-1.2-3.12A5.59,5.59,0,0,0,99.88,25.38Z"/><path class="cls-1" d="M82.28,27.81a7.19,7.19,0,0,0-2.46-2.16,8.27,8.27,0,0,0-7.17,0,7.18,7.18,0,0,0-2.46,2.16,9.25,9.25,0,0,0-1.41,3,13.18,13.18,0,0,0,0,6.82,9.26,9.26,0,0,0,1.41,3,7.19,7.19,0,0,0,2.46,2.16,8.27,8.27,0,0,0,7.17,0,7.2,7.2,0,0,0,2.46-2.16,9.27,9.27,0,0,0,1.41-3,13.2,13.2,0,0,0,0-6.82A9.26,9.26,0,0,0,82.28,27.81Z"/><path class="cls-1" d="M165.86,27.81a7.19,7.19,0,0,0-2.46-2.16,8.27,8.27,0,0,0-7.17,0,7.18,7.18,0,0,0-2.46,2.16,9.25,9.25,0,0,0-1.41,3,13.18,13.18,0,0,0,0,6.82,9.26,9.26,0,0,0,1.41,3,7.19,7.19,0,0,0,2.46,2.16,8.27,8.27,0,0,0,7.17,0,7.2,7.2,0,0,0,2.46-2.16,9.27,9.27,0,0,0,1.41-3,13.2,13.2,0,0,0,0-6.82A9.26,9.26,0,0,0,165.86,27.81Z"/><path class="cls-1" d="M0,0V70.87H283.46V0ZM39,42.51a6.72,6.72,0,0,1-2.1,2.11A9.1,9.1,0,0,1,34,45.81a13.9,13.9,0,0,1-3.15.37,13.42,13.42,0,0,1-3.63-.48,9,9,0,0,1-3-1.46,6.9,6.9,0,0,1-2-2.5,8,8,0,0,1-.75-3.6h2.88a5.16,5.16,0,0,0,.56,2.48,5.09,5.09,0,0,0,1.47,1.71,6.19,6.19,0,0,0,2.13,1,9.74,9.74,0,0,0,2.5.32A11.36,11.36,0,0,0,33,43.46a6.08,6.08,0,0,0,1.87-.66,3.51,3.51,0,0,0,1.86-3.31,2.87,2.87,0,0,0-.62-1.92,4.59,4.59,0,0,0-1.66-1.2,12.21,12.21,0,0,0-2.35-.75L29.43,35q-1.36-.3-2.67-.7a9.66,9.66,0,0,1-2.35-1.06,5,5,0,0,1-1.66-1.7A5,5,0,0,1,22.12,29a6.05,6.05,0,0,1,.7-3,6.13,6.13,0,0,1,1.87-2.08,8.4,8.4,0,0,1,2.66-1.22,11.76,11.76,0,0,1,3.06-.4,12.25,12.25,0,0,1,3.26.42A7.39,7.39,0,0,1,36.31,24a6.34,6.34,0,0,1,1.79,2.26,8.07,8.07,0,0,1,.72,3.25H35.94a4.76,4.76,0,0,0-1.78-3.57,6.46,6.46,0,0,0-3.89-1.1,9.36,9.36,0,0,0-1.89.19,5,5,0,0,0-1.65.64,3.37,3.37,0,0,0-1.15,1.2,3.71,3.71,0,0,0-.43,1.87,2.38,2.38,0,0,0,.62,1.71,4.61,4.61,0,0,0,1.66,1.07,13.92,13.92,0,0,0,2.35.69q1.31.27,2.67.59t2.67.75a8.78,8.78,0,0,1,2.35,1.17,5.56,5.56,0,0,1,1.66,1.86A6.51,6.51,0,0,1,39,42.51Zm22.61,3.15h-3V35.2h-12V45.67h-3V22.82h3v9.82h12V22.82h3Zm24.91-6.93a11.35,11.35,0,0,1-2.06,3.82A9.9,9.9,0,0,1,81,45.2a12.14,12.14,0,0,1-9.54,0A9.89,9.89,0,0,1,68,42.56,11.33,11.33,0,0,1,66,38.74a15,15,0,0,1,0-9A11.33,11.33,0,0,1,68,25.92a10.08,10.08,0,0,1,3.42-2.66,12,12,0,0,1,9.54,0,10.09,10.09,0,0,1,3.42,2.66,11.35,11.35,0,0,1,2.06,3.82,15,15,0,0,1,0,9Zm19.65-4.18a7,7,0,0,1-5.23,1.76h-7v9.34h-3V22.82h10a7.1,7.1,0,0,1,5.23,1.78,6.73,6.73,0,0,1,1.78,5A6.78,6.78,0,0,1,106.13,34.56Zm35,11.1H138l-5.22-19.2h-.06l-5.28,19.2h-3.17L118.4,22.82h3.1l4.48,19h.06l5.12-19h3.3l5.06,19h.06l4.64-19h3Zm28.91-6.93A11.35,11.35,0,0,1,168,42.56a9.9,9.9,0,0,1-3.42,2.64,12.14,12.14,0,0,1-9.54,0,9.89,9.89,0,0,1-3.42-2.64,11.33,11.33,0,0,1-2.06-3.82,15,15,0,0,1,0-9,11.33,11.33,0,0,1,2.06-3.82A10.08,10.08,0,0,1,155,23.26a12,12,0,0,1,9.54,0A10.09,10.09,0,0,1,168,25.92a11.35,11.35,0,0,1,2.06,3.82,15,15,0,0,1,0,9Zm27.22,6.93H194.4v-19h-.06l-7.14,19h-2.59l-7.14-19h-.06v19h-2.88V22.82h4.16l7.2,19.2,7.23-19.2h4.16Zm20.93,0H202.34V22.82h15.78v2.56H205.38v7.26h11.87V35.2H205.38v7.9h12.83Zm21.86,0h-3.33L224.8,27.33h-.06V45.67h-2.88V22.82h3.23l12,18.53h.06V22.82h2.88Zm21.17-3.15a6.72,6.72,0,0,1-2.1,2.11,9.1,9.1,0,0,1-2.86,1.18,13.9,13.9,0,0,1-3.15.37,13.42,13.42,0,0,1-3.63-.48,9,9,0,0,1-3-1.46,6.9,6.9,0,0,1-2-2.5,8,8,0,0,1-.75-3.6h2.88a5.16,5.16,0,0,0,.56,2.48,5.09,5.09,0,0,0,1.47,1.71,6.19,6.19,0,0,0,2.13,1,9.74,9.74,0,0,0,2.5.32,11.36,11.36,0,0,0,2.06-.19,6.08,6.08,0,0,0,1.87-.66A3.51,3.51,0,0,0,259,39.49a2.87,2.87,0,0,0-.62-1.92,4.59,4.59,0,0,0-1.66-1.2,12.21,12.21,0,0,0-2.35-.75L251.7,35q-1.36-.3-2.67-.7a9.66,9.66,0,0,1-2.35-1.06,5,5,0,0,1-1.66-1.7,5,5,0,0,1-.62-2.61,6.05,6.05,0,0,1,.7-3A6.13,6.13,0,0,1,247,23.89a8.4,8.4,0,0,1,2.66-1.22,11.76,11.76,0,0,1,3.06-.4,12.25,12.25,0,0,1,3.26.42A7.39,7.39,0,0,1,258.58,24a6.34,6.34,0,0,1,1.79,2.26,8.07,8.07,0,0,1,.72,3.25h-2.88a4.76,4.76,0,0,0-1.78-3.57,6.46,6.46,0,0,0-3.89-1.1,9.36,9.36,0,0,0-1.89.19,5,5,0,0,0-1.65.64,3.37,3.37,0,0,0-1.15,1.2,3.71,3.71,0,0,0-.43,1.87,2.38,2.38,0,0,0,.62,1.71,4.61,4.61,0,0,0,1.66,1.07,13.92,13.92,0,0,0,2.35.69q1.31.27,2.67.59t2.67.75a8.78,8.78,0,0,1,2.35,1.17,5.56,5.56,0,0,1,1.66,1.86,6.51,6.51,0,0,1-.19,5.94Z"/></svg>