<?xml version="1.0" encoding="UTF-8"?>
<svg width="46px" height="23px" viewBox="0 0 46 23" version="1.1" xmlns="http://www.w3.org/2000/svg" xmlns:xlink="http://www.w3.org/1999/xlink">
    <!-- Generator: Sketch 44.1 (41455) - http://www.bohemiancoding.com/sketch -->
    <title>Group 6</title>
    <desc>Created with Sketch.</desc>
    <defs>
        <rect id="path-1" x="0" y="23" width="46" height="23"></rect>
    </defs>
    <g id="Page-1" stroke="none" stroke-width="1" fill="none" fill-rule="evenodd">
        <g id="1-copy-21" transform="translate(-695.000000, -286.000000)">
            <g id="Group-6" transform="translate(695.000000, 263.000000)">
                <mask id="mask-2" fill="white">
                    <use xlink:href="#path-1"></use>
                </mask>
                <g id="Rectangle-3"></g>
                <path d="M43.4612071,0 L2.53875883,0 C1.13649529,0 0,1.13649529 0,2.53875883 L0,43.4612071 C0,44.8632983 1.13649529,46.0001383 2.53875883,46.0001383 L24.5701183,46.0001383 L24.5701183,28.1864277 L18.5753382,28.1864277 L18.5753382,21.2440512 L24.5701183,21.2440512 L24.5701183,16.1243071 C24.5701183,10.1829565 28.1988371,6.94771942 33.4990347,6.94771942 C36.0379659,6.94771942 38.2199541,7.13661824 38.8557641,7.22107118 L38.8557641,13.4302582 L35.1798206,13.4319818 C32.29739,13.4319818 31.7391388,14.8016706 31.7391388,16.8116506 L31.7391388,21.2440512 L38.6137806,21.2440512 L37.7187518,28.1864277 L31.7391388,28.1864277 L31.7391388,46.0001383 L43.4612071,46.0001383 C44.8632983,46.0001383 45.9999659,44.8632983 45.9999659,43.4612071 L45.9999659,2.53875883 C45.9999659,1.13649529 44.8632983,0 43.4612071,0" id="Fill-1-Copy-10" fill="#FF4337" mask="url(#mask-2)"></path>
            </g>
        </g>
    </g>
</svg>