<?xml version="1.0" encoding="UTF-8"?>
<svg width="46px" height="46px" viewBox="0 0 46 46" version="1.1" xmlns="http://www.w3.org/2000/svg" xmlns:xlink="http://www.w3.org/1999/xlink">
    <!-- Generator: Sketch 44.1 (41455) - http://www.bohemiancoding.com/sketch -->
    <title>Fill 1 Copy 10</title>
    <desc>Created with Sketch.</desc>
    <defs></defs>
    <g id="Page-1" stroke="none" stroke-width="1" fill="none" fill-rule="evenodd">
        <g id="1-copy-21" transform="translate(-695.000000, -263.000000)" fill="#FFC000">
            <path d="M738.461207,263 L697.538759,263 C696.136495,263 695,264.136495 695,265.538759 L695,306.461207 C695,307.863298 696.136495,309.000138 697.538759,309.000138 L719.570118,309.000138 L719.570118,291.186428 L713.575338,291.186428 L713.575338,284.244051 L719.570118,284.244051 L719.570118,279.124307 C719.570118,273.182956 723.198837,269.947719 728.499035,269.947719 C731.037966,269.947719 733.219954,270.136618 733.855764,270.221071 L733.855764,276.430258 L730.179821,276.431982 C727.29739,276.431982 726.739139,277.801671 726.739139,279.811651 L726.739139,284.244051 L733.613781,284.244051 L732.718752,291.186428 L726.739139,291.186428 L726.739139,309.000138 L738.461207,309.000138 C739.863298,309.000138 740.999966,307.863298 740.999966,306.461207 L740.999966,265.538759 C740.999966,264.136495 739.863298,263 738.461207,263" id="Fill-1-Copy-10"></path>
        </g>
    </g>
</svg>