<?xml version="1.0" encoding="UTF-8"?>
<svg width="40px" height="40px" viewBox="0 0 40 40" version="1.1" xmlns="http://www.w3.org/2000/svg" xmlns:xlink="http://www.w3.org/1999/xlink">
    <!-- Generator: Sketch 44.1 (41455) - http://www.bohemiancoding.com/sketch -->
    <title>Fill 1</title>
    <desc>Created with Sketch.</desc>
    <defs></defs>
    <g id="Page-1" stroke="none" stroke-width="1" fill="none" fill-rule="evenodd">
        <g id="1-copy-18" transform="translate(-801.000000, -409.000000)" fill="#FFC000">
            <path d="M838.79224,409 L803.20761,409 C801.988254,409 801,409.988254 801,411.20761 L801,446.79224 C801,448.011446 801.988254,449 803.20761,449 L822.365256,449 L822.365256,433.509863 L817.152419,433.509863 L817.152419,427.473032 L822.365256,427.473032 L822.365256,423.021094 C822.365256,417.854718 825.520654,415.041477 830.129508,415.041477 C832.337267,415.041477 834.234643,415.205736 834.787519,415.279173 L834.787519,420.67845 L831.591056,420.679949 C829.084603,420.679949 828.599168,421.870979 828.599168,423.618783 L828.599168,427.473032 L834.5771,427.473032 L833.798816,433.509863 L828.599168,433.509863 L828.599168,449 L838.79224,449 C840.011446,449 840.99985,448.011446 840.99985,446.79224 L840.99985,411.20761 C840.99985,409.988254 840.011446,409 838.79224,409" id="Fill-1"></path>
        </g>
    </g>
</svg>