<?xml version="1.0" encoding="UTF-8"?>
<svg width="526px" height="99px" viewBox="0 0 526 99" version="1.1" xmlns="http://www.w3.org/2000/svg" xmlns:xlink="http://www.w3.org/1999/xlink">
    <!-- Generator: Sketch 44.1 (41455) - http://www.bohemiancoding.com/sketch -->
    <title>Group 17 Copy</title>
    <desc>Created with Sketch.</desc>
    <defs></defs>
    <g id="Page-1" stroke="none" stroke-width="1" fill="none" fill-rule="evenodd">
        <g id="1-copy-10" transform="translate(-378.000000, -346.000000)" fill="#FF4337">
            <g id="Group-17-Copy" transform="translate(378.000000, 346.000000)">
                <polygon id="Fill-1" points="0 2.10044266 0 95.6919201 19.3210285 95.7243705 19.3210285 57.0389798 50.2863049 57.055205 50.2863049 37.277584 19.8708174 37.277584 19.8708174 21.9411616 58.9886533 21.9411616 58.9886533 2.10044266"></polygon>
                <polygon id="Fill-2" points="69.2434506 95.5718536 89.1001709 95.5718536 89.1001709 2.09936098 69.2434506 2.09936098"></polygon>
                <path d="M145.562703,78.0266403 C161.481912,78.0266403 174.381687,65.0879424 174.381687,49.1268497 C174.381687,33.1630528 161.481912,20.2297633 145.562703,20.2297633 C129.647017,20.2297633 116.74548,33.1630528 116.74548,49.1268497 C116.74548,65.0879424 129.647017,78.0266403 145.562703,78.0266403 Z M145.638475,0.148370467 C172.653905,0.148370467 194.548545,22.1073798 194.548545,49.2007645 C194.548545,76.2977548 172.653905,98.2522571 145.638475,98.2522571 C118.61952,98.2522571 96.7284044,76.2977548 96.7284044,49.2007645 C96.7284044,22.1082812 118.61952,0.148370467 145.638475,0.148370467 Z" id="Fill-3"></path>
                <path d="M274.428121,2.10305672 L294.362376,2.10305672 C294.362376,2.10305672 294.331538,63.9391079 294.331538,66.6469139 C294.331538,82.1329687 319.932848,82.4475574 319.932848,67.1255574 L319.932848,2.10305672 L339.790449,2.10305672 L339.790449,68.1892096 C339.790449,106.900741 274.475699,109.582406 274.475699,68.239688 C274.474818,65.2912081 274.428121,2.10305672 274.428121,2.10305672" id="Fill-5"></path>
                <path d="M232.486009,44.1972725 L221.167757,44.2450467 L221.167757,21.9209703 L234.158283,21.9209703 C247.538243,21.9209703 248.670421,44.1972725 232.486009,44.1972725 M243.750515,61.9999257 C273.603878,52.3630566 270.224086,2.1027863 231.816394,2.1027863 C214.575577,2.1271241 201.312799,2.1027863 201.312799,2.1027863 L201.312799,95.7167988 L221.167757,95.7167988 L221.167757,64.0704419 L222.537824,64.0704419 L245.385784,95.7158974 L269.844344,95.7158974 C269.845225,95.7167988 247.206079,66.5691231 243.750515,61.9999257" id="Fill-7"></path>
                <path d="M413.274411,73.8471182 C408.956277,76.4332352 403.897162,77.9295595 398.511169,77.9295595 C382.596364,77.9295595 369.695708,64.9908616 369.695708,49.0360787 C369.695708,33.0713804 382.596364,20.1272741 398.511169,20.1272741 C403.962361,20.1272741 409.066411,21.6524432 413.417145,24.2998554 L423.291319,6.77032648 C416.031286,2.50309811 407.588854,0.0413742675 398.583416,0.0413742675 C371.567986,0.0413742675 349.670703,22.005792 349.670703,49.0991767 C349.670703,76.1934628 371.567986,98.1650917 398.583416,98.1650917 C407.538632,98.1650917 415.929081,95.7331141 423.156515,91.5127585 L413.274411,73.8471182 Z" id="Fill-9"></path>
                <polygon id="Fill-15" points="505.377628 95.5880788 525.234348 95.5880788 525.234348 2.13090998 505.377628 2.13090998"></polygon>
                <path d="M485.41562,73.8471182 C481.095724,76.4332352 476.047181,77.9295595 470.643566,77.9295595 C454.728762,77.9295595 441.820176,64.9908616 441.820176,49.0360787 C441.820176,33.0713804 454.727881,20.1272741 470.643566,20.1272741 C476.104451,20.1272741 481.198809,21.6524432 485.549543,24.2998554 L495.430765,6.77032648 C488.174256,2.50309811 479.735348,0.0413742675 470.715814,0.0413742675 C443.700384,0.0413742675 421.806625,22.005792 421.806625,49.0991767 C421.806625,76.1934628 443.700384,98.1650917 470.715814,98.1650917 C479.681603,98.1650917 488.071171,95.7331141 495.298605,91.5127585 L485.41562,73.8471182 Z" id="Fill-12"></path>
            </g>
        </g>
    </g>
</svg>