<?xml version="1.0" encoding="UTF-8"?>
<svg width="992px" height="256px" viewBox="0 0 992 256" version="1.1" xmlns="http://www.w3.org/2000/svg" xmlns:xlink="http://www.w3.org/1999/xlink">
    <!-- Generator: Sketch 44.1 (41455) - http://www.bohemiancoding.com/sketch -->
    <title>noun_1049529_cc copy 2</title>
    <desc>Created with Sketch.</desc>
    <defs></defs>
    <g id="Docs" stroke="none" stroke-width="1" fill="none" fill-rule="evenodd">
        <g id="Home-—-Scene-1" transform="translate(-142.000000, -261.000000)" fill-rule="nonzero" fill="#6EFF00">
            <g id="noun_1049529_cc-copy-2" transform="translate(142.000000, 261.000000)">
                <path d="M290,0 L289,11 C197,79 148,163 113,235 C92,249 77,268 68,246 C57,217 33,162 0,151 C14,135 27,131 43,133 C64,136 83,176 91,194 C134,122 213,40 290,0 Z" id="Shape"></path>
                <path d="M638,0 L637,11 C545,79 496,163 461,235 C440,249 425,268 416,246 C405,217 381,162 348,151 C362,135 375,131 391,133 C412,136 431,176 439,194 C482,122 561,40 638,0 Z" id="Shape"></path>
                <path d="M992,0 L991,11 C899,79 850,163 815,235 C794,249 779,268 770,246 C759,217 735,162 702,151 C716,135 729,131 745,133 C766,136 785,176 793,194 C836,122 915,40 992,0 Z" id="Shape"></path>
            </g>
        </g>
    </g>
</svg>