<?xml version="1.0" encoding="UTF-8"?>
<svg width="887px" height="88px" viewBox="0 0 887 88" version="1.1" xmlns="http://www.w3.org/2000/svg" xmlns:xlink="http://www.w3.org/1999/xlink">
    <!-- Generator: Sketch 45.1 (43504) - http://www.bohemiancoding.com/sketch -->
    <title>CTA</title>
    <desc>Created with Sketch.</desc>
    <defs></defs>
    <g id="Page-1" stroke="none" stroke-width="1" fill="none" fill-rule="evenodd">
        <g id="Desktop-HD-Copy-24" transform="translate(-275.000000, -5123.000000)">
            <g id="CTA" transform="translate(184.000000, 5125.000000)">
                <path d="M147.699031,19.315 C147.231531,3.42 133.487031,-1.442 119.836031,-1.442 C106.933031,-1.442 93.4690313,3.3265 93.4690313,17.9125 C93.4690313,28.665 101.977531,33.153 117.872531,35.6775 C130.027531,37.641 142.182531,38.8565 142.182531,49.048 C142.182531,59.6135 131.804031,62.325 121.799531,62.325 C108.990031,62.325 99.6400313,58.959 98.4245313,44.934 L91.5055313,44.934 C92.5340313,62.886 104.876031,68.683 121.799531,68.683 C134.796031,68.683 149.662531,64.195 149.662531,47.8325 C149.662531,35.023 137.507531,32.218 125.352531,30.161 C109.083531,27.4495 100.949031,25.3925 100.949031,16.697 C100.949031,9.1235 109.083531,4.916 119.836031,4.916 C130.588531,4.916 139.845031,7.908 140.780031,19.315 L147.699031,19.315 Z M157.142531,67 L164.061531,67 L164.061531,40.633 C164.061531,29.6 170.232531,22.681 183.790031,22.681 C192.579031,22.681 198.469531,26.047 198.469531,35.6775 L198.469531,67 L205.388531,67 L205.388531,36.893 C205.388531,25.299 200.526531,16.884 184.351031,16.884 C173.598531,16.884 166.305531,22.7745 164.248531,27.917 L164.061531,27.917 L164.061531,-0.32 L157.142531,-0.32 L157.142531,67 Z M221.283531,42.69 C221.283531,54.3775 228.857031,62.699 241.947031,62.699 C255.037031,62.699 262.610531,54.3775 262.610531,42.69 C262.610531,31.0025 255.037031,22.681 241.947031,22.681 C228.857031,22.681 221.283531,31.0025 221.283531,42.69 Z M214.364531,42.69 C214.364531,29.1325 223.247031,16.884 241.947031,16.884 C260.647031,16.884 269.529531,29.1325 269.529531,42.69 C269.529531,56.2475 260.647031,68.496 241.947031,68.496 C223.247031,68.496 214.364531,56.2475 214.364531,42.69 Z M278.505531,85.887 L278.505531,18.38 L285.424531,18.38 L285.424531,28.104 L285.611531,28.104 C287.481531,23.99 291.969531,16.884 305.433531,16.884 C325.349031,16.884 331.894031,30.8155 331.894031,42.69 C331.894031,56.2475 323.572531,68.496 305.433531,68.496 C296.270531,68.496 288.790531,63.447 285.611531,57.276 L285.424531,57.276 L285.424531,85.887 L278.505531,85.887 Z M285.050531,42.69 C285.050531,52.6945 291.315031,62.699 305.433531,62.699 C316.373031,62.699 324.975031,55.032 324.975031,42.69 C324.975031,32.966 319.552031,22.681 305.433531,22.681 C293.933031,22.681 285.050531,29.974 285.050531,42.69 Z M371.538031,18.38 L360.972531,18.38 L360.972531,23.616 L371.538031,23.616 L371.538031,55.6865 C371.538031,63.5405 373.875531,67.748 384.628031,67.748 C386.872031,67.748 389.583531,67.561 392.201531,67.187 L392.201531,61.39 C390.892531,61.6705 388.742031,61.951 385.376031,61.951 C379.766031,61.951 378.457031,59.9875 378.457031,55.78 L378.457031,23.616 L392.201531,23.616 L392.201531,18.38 L378.457031,18.38 L378.457031,3.046 L371.538031,3.046 L371.538031,18.38 Z M399.775031,67 L406.694031,67 L406.694031,40.633 C406.694031,29.6 412.865031,22.681 426.422531,22.681 C435.211531,22.681 441.102031,26.047 441.102031,35.6775 L441.102031,67 L448.021031,67 L448.021031,36.893 C448.021031,25.299 443.159031,16.884 426.983531,16.884 C416.231031,16.884 408.938031,22.7745 406.881031,27.917 L406.694031,27.917 L406.694031,-0.32 L399.775031,-0.32 L399.775031,67 Z M463.916031,39.137 L503.934031,39.137 C501.970531,27.169 493.181531,22.681 483.925031,22.681 C475.042531,22.681 465.505531,27.2625 463.916031,39.137 Z M502.718531,51.479 L509.637531,51.479 C506.832531,60.081 499.539531,68.496 483.457531,68.496 C463.542031,68.496 456.997031,54.5645 456.997031,42.69 C456.997031,29.1325 465.318531,16.884 483.457531,16.884 C495.986531,16.884 510.853031,22.307 510.853031,44.373 L463.916031,44.373 C463.916031,54.471 471.115531,62.699 483.457531,62.699 C495.051531,62.699 500.287531,58.8655 502.718531,51.479 Z M587.803531,49.609 C586.027031,57.1825 580.323531,62.699 570.132031,62.699 C556.948531,62.699 549.655531,54.7515 549.655531,42.69 C549.655531,31.47 556.200531,22.681 570.132031,22.681 C578.734031,22.681 585.279031,25.9535 587.429531,34.275 L594.348531,34.275 C593.226531,27.2625 586.775031,16.884 570.132031,16.884 C551.712531,16.884 542.736531,28.104 542.736531,42.69 C542.736531,57.9305 552.554031,68.496 570.132031,68.496 C587.803531,68.496 593.413531,55.967 594.722531,49.609 L587.803531,49.609 Z M607.625531,42.69 C607.625531,54.3775 615.199031,62.699 628.289031,62.699 C641.379031,62.699 648.952531,54.3775 648.952531,42.69 C648.952531,31.0025 641.379031,22.681 628.289031,22.681 C615.199031,22.681 607.625531,31.0025 607.625531,42.69 Z M600.706531,42.69 C600.706531,29.1325 609.589031,16.884 628.289031,16.884 C646.989031,16.884 655.871531,29.1325 655.871531,42.69 C655.871531,56.2475 646.989031,68.496 628.289031,68.496 C609.589031,68.496 600.706531,56.2475 600.706531,42.69 Z M664.660531,67 L671.579531,67 L671.579531,-0.32 L664.660531,-0.32 L664.660531,67 Z M681.864531,67 L688.783531,67 L688.783531,-0.32 L681.864531,-0.32 L681.864531,67 Z M704.491531,39.137 L744.509531,39.137 C742.546031,27.169 733.757031,22.681 724.500531,22.681 C715.618031,22.681 706.081031,27.2625 704.491531,39.137 Z M743.294031,51.479 L750.213031,51.479 C747.408031,60.081 740.115031,68.496 724.033031,68.496 C704.117531,68.496 697.572531,54.5645 697.572531,42.69 C697.572531,29.1325 705.894031,16.884 724.033031,16.884 C736.562031,16.884 751.428531,22.307 751.428531,44.373 L704.491531,44.373 C704.491531,54.471 711.691031,62.699 724.033031,62.699 C735.627031,62.699 740.863031,58.8655 743.294031,51.479 Z M802.386031,49.609 C800.609531,57.1825 794.906031,62.699 784.714531,62.699 C771.531031,62.699 764.238031,54.7515 764.238031,42.69 C764.238031,31.47 770.783031,22.681 784.714531,22.681 C793.316531,22.681 799.861531,25.9535 802.012031,34.275 L808.931031,34.275 C807.809031,27.2625 801.357531,16.884 784.714531,16.884 C766.295031,16.884 757.319031,28.104 757.319031,42.69 C757.319031,57.9305 767.136531,68.496 784.714531,68.496 C802.386031,68.496 807.996031,55.967 809.305031,49.609 L802.386031,49.609 Z M821.647031,18.38 L811.081531,18.38 L811.081531,23.616 L821.647031,23.616 L821.647031,55.6865 C821.647031,63.5405 823.984531,67.748 834.737031,67.748 C836.981031,67.748 839.692531,67.561 842.310531,67.187 L842.310531,61.39 C841.001531,61.6705 838.851031,61.951 835.485031,61.951 C829.875031,61.951 828.566031,59.9875 828.566031,55.78 L828.566031,23.616 L842.310531,23.616 L842.310531,18.38 L828.566031,18.38 L828.566031,3.046 L821.647031,3.046 L821.647031,18.38 Z M849.697031,67 L856.616031,67 L856.616031,18.38 L849.697031,18.38 L849.697031,67 Z M849.697031,9.965 L856.616031,9.965 L856.616031,-0.32 L849.697031,-0.32 L849.697031,9.965 Z M872.324031,42.69 C872.324031,54.3775 879.897531,62.699 892.987531,62.699 C906.077531,62.699 913.651031,54.3775 913.651031,42.69 C913.651031,31.0025 906.077531,22.681 892.987531,22.681 C879.897531,22.681 872.324031,31.0025 872.324031,42.69 Z M865.405031,42.69 C865.405031,29.1325 874.287531,16.884 892.987531,16.884 C911.687531,16.884 920.570031,29.1325 920.570031,42.69 C920.570031,56.2475 911.687531,68.496 892.987531,68.496 C874.287531,68.496 865.405031,56.2475 865.405031,42.69 Z M970.873031,67 L977.792031,67 L977.792031,36.893 C977.792031,25.299 972.930031,16.884 956.754531,16.884 C946.002031,16.884 938.709031,22.7745 936.652031,27.917 L936.465031,27.917 L936.465031,18.38 L929.546031,18.38 L929.546031,67 L936.465031,67 L936.465031,40.633 C936.465031,29.6 942.636031,22.681 956.193531,22.681 C964.982531,22.681 970.873031,26.047 970.873031,35.6775 L970.873031,67 Z" id="Shop-the-collection" fill="#FFFFFF"></path>
                <path d="M975.5,79 L294.5,79" id="Line-Copy" stroke="#FFFFFF" stroke-width="5" stroke-linecap="square"></path>
                <path d="M270.5,79 L94,79" id="Line-Copy-2" stroke="#FFFFFF" stroke-width="5" stroke-linecap="square"></path>
            </g>
        </g>
    </g>
</svg>