<svg xmlns="http://www.w3.org/2000/svg" viewBox="0 0 283.46 71"><defs><style>.cls-1{isolation:isolate;}.cls-2{mix-blend-mode:screen;}.cls-3{fill:#fff;}</style></defs><title>cta-mens</title><g class="cls-1"><g id="Layer_1" data-name="Layer 1"><g class="cls-2"><path class="cls-3" d="M108.66,27.88a7.19,7.19,0,0,0-2.46-2.16,8.27,8.27,0,0,0-7.17,0,7.18,7.18,0,0,0-2.46,2.16,9.24,9.24,0,0,0-1.41,3,13.18,13.18,0,0,0,0,6.82,9.25,9.25,0,0,0,1.41,3A7.19,7.19,0,0,0,99,42.9a8.27,8.27,0,0,0,7.17,0,7.2,7.2,0,0,0,2.46-2.16,9.27,9.27,0,0,0,1.41-3,13.18,13.18,0,0,0,0-6.82A9.26,9.26,0,0,0,108.66,27.88Z"/><path class="cls-3" d="M126.26,25.44h-6v8.38h6a5.43,5.43,0,0,0,3.79-1.06,4,4,0,0,0,1.2-3.14,4,4,0,0,0-1.2-3.12A5.59,5.59,0,0,0,126.26,25.44Z"/><path class="cls-3" d="M-.59.07V70.93H282.87V.07ZM65.35,42.58a6.71,6.71,0,0,1-2.1,2.11,9.1,9.1,0,0,1-2.86,1.18,13.91,13.91,0,0,1-3.15.37,13.42,13.42,0,0,1-3.63-.48,9,9,0,0,1-3-1.46,6.89,6.89,0,0,1-2-2.5,8,8,0,0,1-.75-3.6h2.88a5.16,5.16,0,0,0,.56,2.48,5.1,5.1,0,0,0,1.47,1.71,6.2,6.2,0,0,0,2.13,1,9.74,9.74,0,0,0,2.5.32,11.36,11.36,0,0,0,2.06-.19,6.09,6.09,0,0,0,1.87-.66,3.51,3.51,0,0,0,1.86-3.31,2.87,2.87,0,0,0-.62-1.92,4.58,4.58,0,0,0-1.66-1.2,12.2,12.2,0,0,0-2.35-.75l-2.67-.59q-1.36-.3-2.67-.7a9.66,9.66,0,0,1-2.35-1.06,5,5,0,0,1-1.66-1.7A5,5,0,0,1,48.5,29a6,6,0,0,1,.7-3A6.12,6.12,0,0,1,51.08,24a8.4,8.4,0,0,1,2.66-1.22,11.77,11.77,0,0,1,3.06-.4,12.26,12.26,0,0,1,3.26.42,7.4,7.4,0,0,1,2.64,1.31,6.34,6.34,0,0,1,1.79,2.26,8.08,8.08,0,0,1,.72,3.25H62.32A4.76,4.76,0,0,0,60.55,26a6.45,6.45,0,0,0-3.89-1.1,9.36,9.36,0,0,0-1.89.19,5,5,0,0,0-1.65.64A3.37,3.37,0,0,0,52,26.93a3.71,3.71,0,0,0-.43,1.87,2.38,2.38,0,0,0,.62,1.71,4.61,4.61,0,0,0,1.66,1.07,13.93,13.93,0,0,0,2.35.69q1.31.27,2.67.59t2.67.75a8.78,8.78,0,0,1,2.35,1.17,5.56,5.56,0,0,1,1.66,1.86,6.51,6.51,0,0,1-.19,5.94ZM88,45.73h-3V35.27h-12V45.73h-3V22.88h3v9.82h12V22.88h3Zm24.91-6.93a11.35,11.35,0,0,1-2.06,3.82,9.9,9.9,0,0,1-3.42,2.64,12.14,12.14,0,0,1-9.54,0,9.9,9.9,0,0,1-3.42-2.64,11.33,11.33,0,0,1-2.06-3.82,15,15,0,0,1,0-9A11.33,11.33,0,0,1,94.42,26a10.08,10.08,0,0,1,3.42-2.66,12,12,0,0,1,9.54,0A10.08,10.08,0,0,1,110.8,26a11.35,11.35,0,0,1,2.06,3.82,15,15,0,0,1,0,9Zm19.65-4.18a7,7,0,0,1-5.23,1.76h-7v9.34h-3V22.88h10a7.1,7.1,0,0,1,5.23,1.78,6.73,6.73,0,0,1,1.78,5A6.79,6.79,0,0,1,132.52,34.63Zm37.2,11.1h-2.88v-19h-.06l-7.14,19H157l-7.14-19h-.06v19H147V22.88h4.16l7.2,19.2,7.23-19.2h4.16Zm20.93,0H174.77V22.88h15.78v2.56H177.81v7.26h11.87v2.56H177.81v7.9h12.83Zm21.86,0h-3.33L197.24,27.4h-.06V45.73h-2.88V22.88h3.23l12,18.53h.06V22.88h2.88Zm21.17-3.15a6.71,6.71,0,0,1-2.1,2.11,9.1,9.1,0,0,1-2.86,1.18,13.91,13.91,0,0,1-3.15.37,13.42,13.42,0,0,1-3.63-.48,9,9,0,0,1-3-1.46,6.89,6.89,0,0,1-2-2.5,8,8,0,0,1-.75-3.6H219a5.16,5.16,0,0,0,.56,2.48A5.1,5.1,0,0,0,221,42.4a6.2,6.2,0,0,0,2.13,1,9.74,9.74,0,0,0,2.5.32,11.36,11.36,0,0,0,2.06-.19,6.09,6.09,0,0,0,1.87-.66,3.51,3.51,0,0,0,1.86-3.31,2.87,2.87,0,0,0-.62-1.92,4.58,4.58,0,0,0-1.66-1.2,12.2,12.2,0,0,0-2.35-.75l-2.67-.59q-1.36-.3-2.67-.7a9.66,9.66,0,0,1-2.35-1.06,5,5,0,0,1-1.66-1.7,5,5,0,0,1-.62-2.61,6,6,0,0,1,.7-3A6.12,6.12,0,0,1,219.39,24a8.4,8.4,0,0,1,2.66-1.22,11.77,11.77,0,0,1,3.06-.4,12.26,12.26,0,0,1,3.26.42A7.4,7.4,0,0,1,231,24.07a6.34,6.34,0,0,1,1.79,2.26,8.08,8.08,0,0,1,.72,3.25h-2.88A4.76,4.76,0,0,0,228.87,26,6.45,6.45,0,0,0,225,24.9a9.36,9.36,0,0,0-1.89.19,5,5,0,0,0-1.65.64,3.37,3.37,0,0,0-1.15,1.2,3.71,3.71,0,0,0-.43,1.87,2.38,2.38,0,0,0,.62,1.71,4.61,4.61,0,0,0,1.66,1.07,13.93,13.93,0,0,0,2.35.69q1.31.27,2.67.59t2.67.75a8.78,8.78,0,0,1,2.35,1.17,5.56,5.56,0,0,1,1.66,1.86,6.51,6.51,0,0,1-.19,5.94Z"/></g></g></g></svg>