<?xml version="1.0" encoding="UTF-8"?>
<svg width="195px" height="222px" viewBox="0 0 195 222" version="1.1" xmlns="http://www.w3.org/2000/svg" xmlns:xlink="http://www.w3.org/1999/xlink">
    <!-- Generator: Sketch 45.1 (43504) - http://www.bohemiancoding.com/sketch -->
    <title>Page 1</title>
    <desc>Created with Sketch.</desc>
    <defs>
        <polygon id="path-1" points="0.000106929864 0.0625539704 194.407582 0.0625539704 194.407582 196.115679 0.000106929864 196.115679"></polygon>
        <polygon id="path-3" points="0 221.816914 194.407582 221.816914 194.407582 0.53464932 0 0.53464932"></polygon>
    </defs>
    <g id="Page-1" stroke="none" stroke-width="1" fill="none" fill-rule="evenodd">
        <g id="PRODUCT_TOOLTIP-Copy-2" transform="translate(-1245.000000, -441.000000)">
            <g id="Page-1" transform="translate(1245.000000, 441.000000)">
                <g id="Group-3" transform="translate(0.000000, 0.472095)">
                    <mask id="mask-2" fill="white">
                        <use xlink:href="#path-1"></use>
                    </mask>
                    <g id="Clip-2"></g>
                    <path d="M174.195806,180.359564 C174.133252,179.825449 174.167469,179.554382 174.068559,179.346938 C167.212751,165.040257 166.980713,150.060452 170.321202,135.002054 C172.705738,124.25293 175.925931,113.675427 179.096401,103.118242 C181.762698,94.2393208 184.491013,85.4058447 185.164671,76.0986693 C186.325395,60.0533086 182.447583,45.7182911 170.633972,34.1896478 C162.878884,26.621152 153.400086,22.1172661 143.19363,18.8206184 C118.159745,10.7345821 95.635504,18.473631 80.9572416,40.2916005 C74.7761608,49.4784797 71.3308806,59.8848941 67.1873483,70.0127561 C63.2181118,79.7145027 59.0441046,89.3788238 54.2023203,98.6640785 C48.8045008,109.017028 41.3905187,117.87884 31.3027553,124.169524 C29.2384743,125.45696 27.1084314,126.637466 24.695559,128.050544 C74.7226959,145.554428 124.310886,162.905402 174.195806,180.359564 M193.444251,196.115679 C128.763445,173.484508 64.6119426,151.037791 0.000106929864,128.430679 C5.06216669,126.507011 9.66923988,124.691342 14.3222929,123.000246 C28.8717048,117.712564 38.9332704,107.469218 46.3354902,94.2296971 C51.9140212,84.2510022 56.3655115,73.7804299 60.1027102,62.9944145 C64.2622819,50.9899333 69.4291329,39.4944383 77.5670302,29.5954062 C92.9724157,10.8554129 112.875806,4.50752148 136.725977,8.52541112 C138.312817,4.70641103 140.882341,1.67013754 145.159001,0.512621768 C148.387748,-0.360995221 151.496734,0.0891795065 154.533008,1.40655543 C160.33128,3.92154583 162.746291,9.31294957 161.539052,16.4981018 C166.755626,20.5052984 172.170554,23.9815883 176.768004,28.3240101 C191.010527,41.7773909 195.696728,58.7936748 194.114701,77.8774476 C193.307915,87.606996 190.842647,96.975656 187.620316,106.157189 C183.812008,117.008966 180.785893,128.04787 178.659593,139.374416 C175.29451,157.296931 178.775077,173.639557 188.948919,188.675499 C190.474274,190.929581 191.774006,193.336038 193.444251,196.115679" id="Fill-1" fill="#231F20" mask="url(#mask-2)"></path>
                </g>
                <path d="M164.152097,206.896348 C164.152097,215.136898 157.471654,221.816807 149.231639,221.816807 C140.991089,221.816807 134.31118,215.136898 134.31118,206.896348 C134.31118,198.656333 140.991089,191.97589 149.231639,191.97589 C157.471654,191.97589 164.152097,198.656333 164.152097,206.896348" id="Fill-4" fill="#231F20"></path>
                <mask id="mask-4" fill="white">
                    <use xlink:href="#path-3"></use>
                </mask>
                <g id="Clip-7"></g>
                <polygon id="Fill-6" fill="#231F20" mask="url(#mask-4)" points="144.598047 198.548441 153.865124 198.548441 153.865124 175.574025 144.598047 175.574025"></polygon>
                <polygon id="Fill-8" fill="#231F20" mask="url(#mask-4)" points="87.7249396 66.5968816 82.6324048 52.2918044 85.8066178 53.3664496 90.053872 65.312654 100.908857 58.4798357 103.859052 59.4790952 91.102854 67.5977452 96.3958823 82.4706199 93.2537482 81.4066678 88.7626939 68.9140518 77.5420086 76.0869071 74.4961115 75.0561032"></polygon>
                <polygon id="Fill-9" fill="#231F20" mask="url(#mask-4)" points="128.579633 67.8486561 131.946319 68.9885284 124.194974 91.882747 121.8222 91.0797037 128.520821 71.2955403 128.456663 71.2736196 111.657447 87.638166 109.477147 86.8998153 106.117945 63.6746488 106.053788 63.6527282 99.3444733 83.4689706 96.9716996 82.6659273 104.723045 59.7717088 108.186504 60.9436601 111.641408 84.30837"></polygon>
                <path d="M143.517681,75.5509211 L134.565513,85.2077571 L144.698187,88.6386018 L143.517681,75.5509211 Z M144.92167,91.1445032 L132.865328,87.0624556 L127.399074,92.9676574 L124.834361,92.0993869 L142.974478,72.7220916 L145.732199,73.6561239 L148.369624,100.0678 L145.611903,99.1343026 L144.92167,91.1445032 Z" id="Fill-10" fill="#231F20" mask="url(#mask-4)"></path>
                <path d="M170.065105,89.1858154 C171.068642,85.1652525 168.241951,83.0646153 164.554475,81.8156745 C160.866998,80.5672684 157.589063,81.0660962 156.709565,83.6628879 C155.699613,86.6451618 158.250959,88.2950896 163.515116,91.1137608 C167.444789,93.2304375 171.287848,95.6037458 169.800454,99.9969593 C167.90031,105.608104 162.280611,105.420977 157.823774,103.912196 C152.020156,101.94736 148.460995,98.526139 150.19219,92.2498906 L152.564964,93.0534686 C151.353448,98.0043213 154.169446,100.244502 158.562125,101.731896 C161.99297,102.893155 165.867039,103.168499 167.094059,99.5451806 C168.277238,96.050178 164.250259,94.2216773 160.309359,92.1376143 C155.151597,89.4258729 152.754764,86.8991203 154.00317,83.2111092 C155.696939,78.2094649 160.867533,78.1372872 165.292825,79.6353746 C169.974749,81.2206098 174.123093,84.4835746 172.437879,89.9888587 L170.065105,89.1858154 Z" id="Fill-11" fill="#231F20" mask="url(#mask-4)"></path>
                <path d="M94.689442,114.057702 L77.3106659,108.173351 C78.47834,105.673866 80.1817327,103.177053 88.2276703,101.898172 C94.1943568,100.951843 96.4136861,100.309194 97.4343316,97.2953763 C98.5415904,94.0249264 96.9253455,91.7259343 93.3977293,90.5320624 C88.331927,88.8169074 86.2104385,91.4933619 85.125635,94.4863287 L82.7528613,93.6827508 C84.674391,88.0069136 88.8446557,86.774547 94.1029317,88.5549292 C100.163182,90.6063786 100.892978,94.8921276 99.7958777,98.1304985 C98.4827789,102.010449 95.4919507,102.820442 91.8060782,103.466833 C84.3600172,104.770308 82.2053804,105.327413 80.9986769,106.991776 L95.4277927,111.877402 L94.689442,114.057702 Z" id="Fill-12" fill="#231F20" mask="url(#mask-4)"></path>
                <path d="M103.243564,104.62328 C101.34342,110.234959 101.728902,114.797122 106.987713,116.577504 C112.245989,118.357886 115.323965,114.96821 117.223574,109.357065 C119.145639,103.681228 118.760156,99.1190651 113.50188,97.3386829 C108.24307,95.557766 105.165093,98.9479773 103.243564,104.62328 M119.596348,110.160108 C116.871775,118.208184 111.830032,120.43286 106.31459,118.56533 C100.799682,116.6978 98.1456826,111.868313 100.87079,103.820237 C103.617284,95.7074678 108.659561,93.4833266 114.174469,95.3503221 C119.689912,97.2178521 122.343376,102.047874 119.596348,110.160108" id="Fill-13" fill="#231F20" mask="url(#mask-4)"></path>
                <path d="M129.126846,107.132068 L122.200464,104.787096 L122.808895,102.991209 L124.379695,103.523185 C128.09925,104.782819 129.608565,104.757691 131.55255,101.234352 L133.540376,101.907475 L125.854258,124.60922 L123.481484,123.806177 L129.126846,107.132068 Z" id="Fill-14" fill="#231F20" mask="url(#mask-4)"></path>
                <path d="M153.341114,111.613392 C149.919358,113.063896 141.232376,118.664882 136.40182,128.18057 L133.837107,127.3123 C137.242823,120.208949 145.689748,113.204508 151.064577,110.842962 L136.507145,105.91403 L137.245496,103.73373 L154.079465,109.433092 L153.341114,111.613392 Z" id="Fill-15" fill="#231F20" mask="url(#mask-4)"></path>
            </g>
        </g>
    </g>
</svg>