<?xml version="1.0" encoding="utf-8"?>
<!-- Generator: Adobe Illustrator 21.1.0, SVG Export Plug-In . SVG Version: 6.00 Build 0)  -->
<!DOCTYPE svg PUBLIC "-//W3C//DTD SVG 1.1//EN" "http://www.w3.org/Graphics/SVG/1.1/DTD/svg11.dtd">
<svg version="1.1" id="Layer_1" xmlns="http://www.w3.org/2000/svg" xmlns:xlink="http://www.w3.org/1999/xlink" x="0px" y="0px"
	 viewBox="0 0 5442.5 6089.1" enable-background="new 0 0 5442.5 6089.1" xml:space="preserve">
<g>
	<defs>
		<rect id="SVGID_5_" x="-222.7" y="2361.9" width="5888" height="3643.2"/>
	</defs>
	<clipPath id="SVGID_2_">
		<use xlink:href="#SVGID_5_"  overflow="visible"/>
	</clipPath>
	<path clip-path="url(#SVGID_2_)" fill="#FFFFFF" d="M1374.5,2502.1c0.3,0,0.6-0.1,0.9-0.1c7.5-0.5,13.4-0.8,22.6-1.3
		c1.9-0.1,2.4,1.3,3.3,2.7c1.1,1.7,2.2,3.5,3.3,5.3c2.7,4.6,5.2,9.2,7.7,13.8c1.5,2.7,3.1,5.4,5.2,7.7c1.9,2.1,4.3,3,7.2,2.9
		c0.9-0.1,1.8-0.1,2.9-0.2c-0.1-1.6-0.2-3-0.2-4.5c-0.2-4.2-0.5-8.5-0.6-12.7c0-2.7-1.3-4.7-3.2-6.4c-1.9-1.8-4.1-2.8-6.7-2.7
		c-1,0-1.6-0.5-1.7-1.5c-0.1-1.3-0.3-2.9-0.2-4.2c0-0.8,0.6-1.1,1.4-1.1c8.5-0.4,13.1-0.7,19.6-1c3.3-0.2,6.6-0.4,9.9-0.5
		c1.7-0.1,3.4-0.2,5.1-0.3c0.5,0,1.1,0.2,1.3,0.7c0.2,0.4,0.2,0.9,0.2,1.3c0,0,0,0.1,0,0.1c0,1-0.1,2-0.1,2.9c0,0.6-0.2,0.8-0.7,1
		c-2.9,1-5.3,3-6.7,5.7c-0.7,1.4-1.2,2.9-1.3,4.5c-0.1,1.1,0,2.2,0.1,3.2c0.1,1.1,0.1,2.1,0.2,3.2c0.2,2.2,0.2,4.5,0.3,6.7
		c0.2,4.4,0.5,8.9,0.7,13.3c0.2,4.4,0.5,8.9,0.7,13.3c0.1,2.3,0.3,4.5,0.4,6.8c0.2,3.8,1.8,7.2,5.1,9.5c1.1,0.7,2.4,1.1,3.7,1.4
		c0.5,0.2,0.8,0.4,0.8,0.9c0.1,1,0.1,2,0.2,3c0,1.1-0.3,1.4-1.3,1.5c-11.1,0.6-22.2,1.2-33.4,1.7c-7.5,0.3-15.3-0.1-21.2-5.5
		c-2.7-2.5-4.9-5.4-6.1-9c-1.1-3.1-1.4-6.3-1-9.7c0.5-3.6,1.8-6.9,3.8-9.8c1-1.5,2.4-2.6,3.7-3.9c0.1-0.1,0.2-0.1,0.2-0.2
		c1.4-1.1,1.4-1.6-0.2-2.4c-2.9-1.5-4.6-4-6-6.8c-1.8-3.5-3.7-6.9-5.4-10.5c-1.8-3.8-4.5-6.9-7.7-9.6c-1.7-1.4-3.7-2.4-5.5-3.7
		c-0.5-0.4-1.1-0.9-1.2-1.5C1374.6,2504.9,1374.6,2503.3,1374.5,2502.1 M1424.9,2542.9C1424.9,2542.9,1424.9,2542.9,1424.9,2542.9
		c-1.2,0.1-2.5,0.1-3.7,0.5c-1.5,0.5-3.1,1-4.3,1.9c-1.6,1.2-2.9,2.9-3.8,4.8c-1.6,3.7-1.4,7.4,0.2,11c1.7,3.6,4.5,5.9,8.4,6.7
		c2,0.4,4.1,0.5,6.2,0.7c0.8,0.1,1.2-0.5,1.1-1.3c-0.3-4.4-0.5-8.9-0.7-13.4c-0.1-3.1-0.1-6.1-0.1-9.2c0-0.4,0-0.8-0.2-1.2
		C1427.6,2542.3,1425.9,2542.9,1424.9,2542.9"/>
	<path clip-path="url(#SVGID_2_)" fill="#FFFFFF" d="M1492.5,2574.9c-17.7,1.3-34.8-12.6-39.6-29.2c-4.2-14.8,0.9-31.7,12.5-41.7
		c11.6-10,29.1-12.5,43.1-6.2c14,6.3,23.6,21.2,23.8,36.5c0.1,9.6-3.5,19-9.6,26.3c-6.9,8.4-16.2,12.6-26.9,14
		c-0.8,0.1-1.5,0.2-2.3,0.3C1493.3,2574.8,1493.4,2574.8,1492.5,2574.9 M1513.7,2532.1c-0.4-5.3-1.8-10.9-4.2-15.6
		c-2.5-5.2-6.7-9.9-12.3-11.8c-5-1.7-10.7-1.2-15.3,1.5c-3.6,2.1-6.4,5.5-8.3,9.2c-1.9,3.8-2.9,7.9-3.5,12
		c-1.7,11.4,0.7,25.3,9.3,33.6c6.4,6.2,16.1,6.8,23.3,1.5C1511.5,2556.1,1514.7,2542.4,1513.7,2532.1"/>
	<path clip-path="url(#SVGID_2_)" fill="#FFFFFF" d="M1325.2,2547.3c0.4,6.8,0.7,13.6,1.1,20.4c0.1,2.3,1,4.2,2.3,6
		c1.5,2.1,3.7,3.2,6.2,3.8c0.8,0.2,1.3,0.5,1.1,1.5c-0.1,0.8,0.1,1.7,0.1,2.6c0.1,0.7-0.2,1.3-1,1.4c-1,0.1-2,0.3-3,0.4
		c-6.4,0.3-12.8,0.7-19.3,1c-1.4,0.1-2.8,0.2-4.2,0.2c-0.9,0-1.3-0.5-1.4-1.3c-0.1-1-0.2-2-0.1-3c0-0.8,0.5-1.4,1.3-1.7
		c3.8-1,6.2-3.4,7.5-7c0.7-2,0.8-4,0.7-6c-0.6-12.6-1.3-25.2-2-37.8c-0.2-4.2,0.8-8.1,2.9-11.7c6.6-11.7,20.6-13.3,32.7-13.9
		c3.7-0.2,7.5-0.1,11,0.9c6.7,1.9,12.1,7.5,13.9,14.2c1.1,4,0.9,8.1,1.1,12.2c0.1,3.9,0.4,7.8,0.6,11.7c0.2,4.7,0.4,9.4,0.7,14
		c0.1,3,0.2,6,0.4,9c0.1,1.5,0.3,3.1,1,4.4c1,1.7,2.1,3.6,4,4.5c1.2,0.6,2.5,1,3.7,1.4c0.7,0.2,1,0.6,1.1,1.3c0.1,1,0.1,2.1,0.2,3.1
		c0,0.9-0.5,1.5-1.4,1.6c-0.5,0.1-1,0.1-1.4,0.1c-11.2,0.6-22.4,1.2-33.6,1.8c-1.4,0.1-1.7-0.2-1.9-1.5c-0.1-0.9-0.2-1.9-0.1-2.8
		c0.1-0.5,0.6-1.1,1-1.4c0.5-0.3,1.3-0.5,1.9-0.5c2.2-0.1,3.8-1.4,5.2-2.8c1.8-1.8,2.7-4.2,2.9-6.7c0.1-1.7,0-3.5-0.1-5.3
		c-0.3-6.5-0.6-13.1-1-19.6c-0.3-5.3-0.6-10.6-0.8-15.9c-0.2-6.1-3.1-12.6-9.9-13.2c-2.4-0.2-4.9-0.3-7.3-0.1
		c-2.6,0.2-5.2,0.9-7.9,1.3c-3.6,0.6-6.4,2.9-8.1,6.2c-2.1,4-1.4,8.5-1.2,12.8C1324.5,2534,1325.2,2547.3,1325.2,2547.3
		L1325.2,2547.3z"/>
	<path clip-path="url(#SVGID_2_)" fill="#FFFFFF" d="M1577.9,2570.4c-1.5,0-2.2-0.2-2.3-1.7c-0.1-1.8-0.2-3.7-0.3-5.5
		c-0.2-2.7-0.4-5.3-0.6-7.9c-0.1-1.9-0.3-3.8-0.3-5.7c0-1.9,0.1-3.8,0.2-5.7c0-0.7,0.5-1.1,1.2-1.2c0.8-0.1,1.7-0.3,2.5-0.3
		c0.4,0,1,0.3,1.1,0.6c1.5,3,2.8,6,4.4,8.9c3.7,6.5,9.7,8.7,16.7,9.3c1.9,0.2,3.9,0.2,5.8,0.3c0.9,0,1.7,0.1,2.6-0.1
		c0.4-0.1,0.9-0.6,1-1c0.2-0.6,0-1.3,0-1.9c-0.1-4.3-0.3-8.6-0.4-12.9c-0.1-2.8-0.3-5.6-0.4-8.4c0-0.9-0.4-1.4-1.3-1.3
		c-0.9,0.1-1.9,0.2-2.8,0.5c-1.9,0.7-3.8,1.2-5.1,2.9c-1.9,2.6-3,5.5-3.1,8.7c0,0.4-0.7,0.9-1.2,1c-0.8,0.2-1.7,0.1-2.5,0.1
		c-0.8,0-1.6-0.9-1.6-1.8c-0.1-1.6-0.1-3.3-0.2-5c-0.2-3-0.4-6-0.6-9c-0.3-4.4-0.5-8.8-0.8-13.3c-0.1-1.1-0.2-2.3-0.3-3.4
		c-0.1-1,0.4-1.5,1.3-1.7c0.8-0.2,1.5-0.4,2.3-0.5c0.6-0.1,1,0.1,1.2,0.9c0.4,1.8,1,3.5,2,5c1.3,1.8,2.7,3.4,4.5,4.6
		c1.5,1,3.1,1.4,4.8,1.3c1.6-0.2,2.2-1,2.1-2.6c-0.4-6.2-0.6-12.5-1.3-18.7c-0.4-3.6-2.5-6.3-5.7-8.1c-1.9-1.1-4-1.3-6.1-1.3
		c-1.3,0-1.6-0.2-1.8-1.4c-0.1-1.1-0.3-2-0.3-3c0-0.2,0.4-0.6,0.6-0.7c0.5-0.1,1.1-0.1,1.6-0.1c5.6-0.3,11.3-0.6,16.9-0.9
		c7.4-0.4,14.7-0.8,22.1-1.2c1.9-0.1,1.4,0.9,1.7,2.5c0.5,2.1-2.3,2-3.8,2.3c-3.6,0.7-5.6,3.1-7,6.2c-1,2.1-1.1,4.4-1,6.6
		c0.3,5.3,2.6,44.3,3.1,47.4c0.6,4.7,3.7,8.5,8.3,9.4c1.7,0.3,1.7,0.3,1.9,2c0,0.2,0.1,0.4,0.1,0.7c0.1,1.2-0.3,1.8-1.5,1.8
		c-4.4,0.2-8.8,0.5-13.3,0.7c-6.6,0.4-13.2,0.7-19.8,1.1c-6.6,0.3-13.2,0.7-19.7,1l-0.1,0
		C1581.3,2570.2,1579.6,2570.3,1577.9,2570.4C1577.9,2570.4,1577.9,2570.4,1577.9,2570.4"/>
	<path clip-path="url(#SVGID_2_)" fill="#FFFFFF" d="M1231.8,2548.7c0.4,8.3-2,16.4-6.3,23.4c-5.1,8.2-13.2,14.4-22.6,17
		c-8.1,2.2-17,1.7-24.8-1.5c-2-0.8-4.9-1.6-6,0.4c-0.3,0.5-0.3,1.1-0.6,1.5c-0.9,1.7-3.2,1.6-5.1,1.3c-0.6-0.1-1.2-0.2-1.6-0.6
		c-0.4-0.4-0.5-1-0.5-1.6c-1-8.6-2-17.2-3-25.8c-0.1-1.3-0.2-2.7,0.6-3.6c1-1.2,3-0.9,4.2,0.1c1.2,1,1.8,2.5,2.3,4
		c1.5,4,3.1,8.1,5.8,11.4c6.3,7.8,18.7,9.7,27,4.2c5-3.3,8.4-8.7,10-14.4c1.6-5.8,1.6-11.9,0.8-17.8c-1.2-9.6-5-19.7-13.4-24.5
		c-5.8-3.3-13.3-3.4-19.3-0.4c-6,3-10.4,8.9-11.8,15.5c-0.2,1.1-0.6,2.5-1.7,2.9c-0.5,0.2-1.1,0.1-1.7-0.1c-1.3-0.3-2.5-0.6-3.8-0.9
		c-0.7-0.2-1.4-0.4-1.8-1c-0.3-0.5-0.2-1.1-0.1-1.7c2.8-14.6,16.2-26.2,31-27.6C1213.1,2506.5,1229.6,2526.7,1231.8,2548.7"/>
	<path clip-path="url(#SVGID_2_)" fill="#FFFFFF" d="M1241.7,2572.3c-0.5-5.4-0.9-10.7-1.4-16.1c-0.1-1.3,0-1.3,1.3-1.4
		c0.3,0,0.6-0.1,0.8-0.1c2-0.4,2-0.4,2.9,1.5c2.7,6.2,5.1,13.3,11,17.4c7,4.8,16.4,5.8,23.7,1.1c8.8-5.7,11.3-15.8,11.4-25.6
		c0.1-8.5-2-17-6.4-24.3c-4.6-7.7-12.5-11.6-21.5-10c-2.7,0.5-5.4,1.5-7.6,3.1c-2.5,1.7-4.2,4.2-6.1,6.5c-2.5,2.9-3.9,6.3-5.3,9.7
		c-0.6,1.4-0.7,1.4-2.1,1c-1.7-0.5-3.3-1-5-1.4c-1-0.2-1.5-0.8-1.1-1.9c0.8-2.5,1.7-5,2.6-7.5c0.9-2.5,2.2-4.7,3.8-6.8
		c5.5-7.2,14.2-11.3,23.1-12.2c2.1-0.2,4.3-0.4,6.5-0.2c3.1,0.3,6.2,0.6,9.2,1.3c3.8,0.9,7.3,2.5,10.6,4.7
		c12.7,8.1,18.7,23.1,17.4,37.9c-0.6,6.9-2.8,13.9-6.5,19.8c-3.8,6.2-9.7,10.8-16.2,13.9c-5.1,2.4-10.9,3.7-16.6,3.6
		c-2.9-0.1-5.8-0.5-8.7-1.2c-2.9-0.8-5.4-2.2-8.2-3.2c-1.7-0.6-3.7,0.9-3.8,2.7c-0.1,1.4-0.1,1.3-1.4,1.3c-1.2,0-2.4,0-3.5,0
		c-1,0-1.5-0.4-1.6-1.4c-0.1-1.5-0.3-2.9-0.5-4.3C1242.1,2577.5,1241.9,2574.9,1241.7,2572.3
		C1241.6,2572.3,1241.6,2572.3,1241.7,2572.3"/>
	<path clip-path="url(#SVGID_2_)" fill="#FFFFFF" d="M1146.6,2593c4.1-0.2,8.3-0.5,12.4-0.7c0.8,0,1.1-0.4,1-1.2
		c-0.1-1.3-0.4-2.6-0.4-3.9c0-1-0.5-1.5-1.4-1.8c-1.1-0.4-2.2-0.8-3.2-1.2c-2.8-1-5-2.9-5.7-5.8c-0.6-2.6-0.9-5.3-1.1-7.9
		c-0.6-9.6-1.1-19.3-1.7-29c-0.2-3.4-0.4-6.9-0.6-10.3c-0.2-2.9,0.4-5.5,2.1-7.9c1.8-2.5,3.8-4.6,7-5.2c0.2,0,0.4-0.3,0.4-0.5
		c0-1.5,0.2-2.5-0.2-3.9c-0.2-0.6-1.9-0.2-2.3-0.2c-1.2,0.1-2.4,0.1-3.6,0.2c-2.3,0.1-4.7,0.2-7.1,0.3c-5.2,0.2-10.4,0.5-15.6,0.8
		c-2.2,0.1-4.3,0.2-6.6,0.3c-1,0.1-1.6,0.4-1.6,1.4c0,0.6,0.1,1.3,0.1,1.9c0,0.9,0.4,1.5,1.1,1.8c0.6,0.3,1.4,0.4,2,0.7
		c1.7,0.7,3.1,1.8,4.4,3.1c1.4,1.4,2.2,3.1,2.3,5c0.3,3.2,0.5,6.3,0.7,9.5c0.3,4.6,0.6,9.2,0.9,13.8c0.6,8.6,1.1,17.2,1.7,25.7
		c0,0.4,0,0.8-0.1,1.2c-0.5,2.6-2,4.6-4.1,6.1c-1.1,0.8-2.3,1.5-3.5,2.2c-0.9,0.5-1.1,1.3-1,2.2c0.1,0.7,0.2,1.4,0.3,2.1
		c0.1,1.3,0.6,2,1.9,2c6.6-0.3,13.2-0.6,19.8-1C1145.6,2593,1146.1,2593,1146.6,2593"/>
	<path clip-path="url(#SVGID_2_)" fill="#FFFFFF" d="M1564,2492.1c1.3-0.1,1.4,0,1.4,1.3c0,0.9,0.1,1.8,0.1,2.7
		c0.1,0.6-0.2,0.9-0.7,1c-0.8,0.2-1.6,0.4-2.4,0.6c-2.8,0.7-4.9,2.4-6.2,4.9c-0.6,1.3-1,2.8-1,4.2c0.1,4.8,0.3,9.7,0.6,14.5
		c0.5,10.8,1,21.6,1.6,32.4c0.3,4.8,2.5,8.5,6.8,10.8c1.1,0.6,2.6,0.7,3.9,0.8c0.9,0.1,1.3,0.4,1.4,1.3c0,0.8,0.1,1.7,0.1,2.5
		c0,1.1-0.1,1.6-1.2,1.7c-3.8,0.2-7.5,0.4-11.3,0.6c-2.3,0.1-4.6,0.2-7,0.4c-5.7,0.4-11.6,0.5-17.4,0.9c-0.4,0-0.9,0-1.3,0
		c-0.9-0.1-1.4-0.6-1.4-1.6c0-0.8-0.1-1.7-0.1-2.5c0-0.7,0.2-1.1,1-1.4c1.4-0.4,2.8-1,4.2-1.7c4-1.9,5.1-7.2,5.1-11.2
		c0-5.8-0.3-11.6-0.6-17.3c-0.5-9-0.9-18-1.4-27c-0.2-3.7-2-8.4-6.1-9.4c-1.1-0.3-2.2-0.4-3.3-0.5c-1.3-0.1-1.9-0.5-2.2-1.8
		c-0.2-1-0.4-2-0.5-2.9c-0.1-0.9,0.5-1.5,1.4-1.6c6.1-0.3,12.2-0.6,18.3-1C1546,2493,1558,2492.5,1564,2492.1"/>
	<path clip-path="url(#SVGID_2_)" fill="#FFFFFF" d="M842.5,2947.4c0.2-0.2,0.4-0.4,0.7-0.6c6.1-4.5,10.8-7.9,18.3-13.4
		c1.5-1.1,2.8-0.2,4.2,0.5c1.9,0.8,3.8,1.7,5.6,2.6c4.7,2.4,9.4,4.9,14,7.4c2.7,1.5,5.5,2.9,8.6,3.6c2.7,0.7,5.3,0.2,7.6-1.5
		c0.7-0.5,1.5-1.1,2.3-1.7c-0.9-1.3-1.8-2.5-2.7-3.7c-2.5-3.4-5-6.8-7.4-10.3c-1.5-2.3-3.7-3.2-6.2-3.7c-2.5-0.5-4.9-0.1-7.1,1.3
		c-0.8,0.5-1.6,0.5-2.2-0.3c-0.8-1-1.8-2.3-2.5-3.4c-0.4-0.6-0.1-1.2,0.5-1.7c6.9-5,10.6-7.7,15.9-11.6c2.7-1.9,5.3-3.9,8-5.8
		c1.4-1,2.7-2,4.1-3c0.4-0.3,1-0.4,1.4-0.1c0.4,0.2,0.6,0.6,0.8,1c0,0,0,0,0,0.1c0.5,0.8,1,1.7,1.5,2.5c0.3,0.5,0.3,0.8,0,1.2
		c-1.8,2.4-2.8,5.4-2.5,8.4c0.2,1.5,0.6,3.1,1.3,4.5c0.5,0.9,1.2,1.8,1.8,2.7c0.6,0.8,1.2,1.7,1.9,2.6c1.4,1.7,2.6,3.6,3.9,5.4
		c2.6,3.6,5.2,7.2,7.8,10.8c2.6,3.6,5.2,7.2,7.9,10.8c1.3,1.8,2.7,3.7,4,5.5c2.3,3.1,5.4,5.1,9.4,5.2c1.3,0,2.6-0.4,3.9-0.8
		c0.5-0.2,0.8-0.1,1.1,0.3c0.6,0.8,1.2,1.6,1.8,2.4c0.6,0.9,0.5,1.4-0.3,1.9c-9,6.5-18,13.1-27.1,19.6c-6.1,4.4-12.9,8.2-20.7,6.9
		c-3.7-0.6-7-1.9-10-4.2c-2.6-2-4.7-4.5-6.1-7.6c-1.6-3.3-2.2-6.8-2.1-10.3c0-1.8,0.6-3.5,1-5.3c0-0.1,0.1-0.2,0.1-0.3
		c0.6-1.7,0.3-2.1-1.4-1.9c-3.2,0.3-6-0.9-8.7-2.5c-3.4-2-6.9-3.8-10.2-5.9c-3.6-2.2-7.5-3.4-11.7-3.8c-2.2-0.2-4.4,0-6.6-0.1
		c-0.6,0-1.4-0.2-1.8-0.6C844,2949.7,843.2,2948.4,842.5,2947.4 M907,2954.2C907,2954.2,906.9,2954.2,907,2954.2
		c-1,0.8-2,1.5-2.8,2.4c-1,1.2-2.1,2.5-2.6,3.9c-0.7,1.9-0.9,4-0.5,6.1c0.6,4,2.8,7,6.2,9.1c3.4,2.1,7,2.5,10.7,1.1
		c1.9-0.8,3.7-1.9,5.6-2.8c0.7-0.4,0.7-1.1,0.3-1.7c-2.7-3.5-5.3-7.2-7.9-10.8c-1.7-2.5-3.4-5-5.1-7.6c-0.2-0.3-0.4-0.7-0.8-0.9
		C908.9,2952.2,907.8,2953.6,907,2954.2"/>
	<path clip-path="url(#SVGID_2_)" fill="#FFFFFF" d="M981,2944.2c-14.2,10.8-36,8.4-49.1-3c-11.5-10.1-16.5-27.1-12.2-41.8
		c4.3-14.7,17.6-26.4,32.8-28.7c15.2-2.3,31.4,4.9,39.8,17.6c5.3,8,7.4,17.8,6.3,27.3c-1.2,10.8-6.7,19.4-14.9,26.4
		c-0.6,0.5-1.2,1-1.7,1.5C981.7,2943.7,981.8,2943.6,981,2944.2 M975.5,2896.8c-3.2-4.3-7.4-8.1-12-10.9c-5-3-11-4.7-16.7-3.2
		c-5.1,1.3-9.7,4.8-12,9.5c-1.9,3.8-2.4,8.1-1.9,12.3c0.5,4.2,1.9,8.2,3.6,12c4.8,10.4,14.4,20.8,26.1,23.2
		c8.8,1.7,17.2-3.1,20.4-11.4C986.7,2918,982,2904.8,975.5,2896.8"/>
	<path clip-path="url(#SVGID_2_)" fill="#FFFFFF" d="M825.8,3012.1c4,5.5,8,11,12,16.5c1.3,1.8,3.2,3,5.2,3.8
		c2.4,0.9,4.8,0.7,7.2-0.2c0.8-0.3,1.3-0.3,1.8,0.6c0.4,0.8,1,1.4,1.5,2.1c0.5,0.6,0.5,1.2-0.1,1.7c-0.8,0.7-1.5,1.3-2.3,1.9
		c-5.2,3.8-10.4,7.6-15.6,11.3c-1.1,0.8-2.3,1.6-3.4,2.5c-0.7,0.5-1.3,0.3-1.8-0.3c-0.6-0.8-1.2-1.6-1.7-2.4
		c-0.4-0.7-0.3-1.5,0.2-2.1c2.7-2.9,3.3-6.2,2.5-10c-0.5-2-1.5-3.8-2.7-5.4c-7.4-10.2-14.8-20.4-22.2-30.6c-2.5-3.4-3.7-7.2-4-11.4
		c-0.8-13.4,10-22.4,19.8-29.5c3-2.2,6.2-4.1,9.8-5.2c6.6-2.1,14.2-0.3,19.4,4.3c3.1,2.7,5.2,6.3,7.5,9.7c2.2,3.2,4.6,6.3,6.9,9.5
		c2.7,3.8,5.5,7.6,8.2,11.4c1.7,2.4,3.4,4.9,5.3,7.3c0.9,1.2,1.9,2.5,3.2,3.1c1.8,0.9,3.7,1.9,5.8,1.6c1.3-0.2,2.6-0.5,3.9-0.9
		c0.7-0.2,1.2-0.1,1.6,0.5c0.6,0.8,1.2,1.7,1.9,2.5c0.5,0.7,0.4,1.5-0.3,2.1c-0.4,0.3-0.8,0.6-1.1,0.9c-9.1,6.6-18.1,13.2-27.2,19.8
		c-1.1,0.8-1.5,0.8-2.4-0.3c-0.6-0.7-1.2-1.5-1.6-2.4c-0.2-0.5-0.1-1.2,0.1-1.7c0.3-0.6,0.8-1.1,1.3-1.5c1.8-1.3,2.4-3.2,2.8-5.2
		c0.5-2.5,0-5-1.2-7.2c-0.8-1.5-2-2.9-3-4.4c-3.9-5.3-7.7-10.6-11.5-15.9c-3.1-4.3-6.3-8.6-9.3-12.9c-3.5-5.1-9.5-8.9-15.5-5.6
		c-2.1,1.2-4.3,2.4-6.2,3.9c-2.1,1.6-3.9,3.6-5.9,5.4c-2.6,2.5-3.8,6-3.4,9.6c0.5,4.5,3.4,7.9,6,11.4
		C817.9,3001.4,825.7,3012.2,825.8,3012.1L825.8,3012.1z"/>
	<path clip-path="url(#SVGID_2_)" fill="#FFFFFF" d="M1050.2,2893.9c-1.3,0.8-2,1.1-2.9-0.1c-1.1-1.5-2.2-3-3.3-4.5
		c-1.6-2.1-3.2-4.2-4.9-6.3c-1.1-1.5-2.3-3-3.4-4.6c-1.1-1.6-2-3.2-2.9-4.9c-0.4-0.6-0.2-1.2,0.3-1.6c0.6-0.6,1.3-1.2,2-1.7
		c0.3-0.2,1-0.3,1.3-0.1c2.9,1.7,5.6,3.5,8.6,5.1c6.6,3.4,12.9,2,19.1-1.3c1.7-0.9,3.4-1.9,5.1-2.9c0.7-0.4,1.5-0.9,2.1-1.5
		c0.3-0.3,0.4-0.9,0.3-1.3c-0.2-0.6-0.6-1.1-1-1.6c-2.4-3.5-4.9-7.1-7.4-10.6c-1.6-2.3-3.3-4.5-4.9-6.8c-0.5-0.7-1.1-0.9-1.7-0.4
		c-0.7,0.6-1.5,1.2-2.1,1.9c-1.2,1.6-2.6,3.1-2.7,5.2c-0.2,3.2,0.5,6.2,2.2,9c0.2,0.3-0.1,1.2-0.4,1.5c-0.6,0.6-1.4,1-2.1,1.5
		c-0.7,0.4-1.8,0.1-2.4-0.6c-1-1.3-1.8-2.7-2.8-4.1c-1.8-2.4-3.6-4.8-5.4-7.2c-2.6-3.6-5.2-7.1-7.9-10.7c-0.7-0.9-1.4-1.8-2.1-2.7
		c-0.6-0.8-0.5-1.5,0.2-2.1c0.6-0.6,1.1-1.1,1.7-1.7c0.5-0.4,0.9-0.5,1.5,0.1c1.3,1.3,2.7,2.4,4.4,3c2,0.8,4.1,1.4,6.3,1.4
		c1.8,0,3.4-0.5,4.8-1.6c1.3-1,1.3-2,0.4-3.3c-3.7-5-7.3-10.1-11.3-14.9c-2.3-2.8-5.5-4-9.2-3.8c-2.2,0.1-4.1,1.1-5.8,2.3
		c-1,0.7-1.5,0.7-2.3-0.3c-0.7-0.8-1.3-1.5-1.9-2.4c-0.1-0.2,0-0.7,0.2-0.9c0.4-0.4,0.8-0.7,1.3-1c4.6-3.3,9.1-6.6,13.7-9.9
		c6-4.3,11.9-8.7,17.9-13c1.6-1.1,1.6,0,2.8,1.2c1.5,1.5-0.9,3-1.9,4c-2.6,2.5-3,5.7-2.5,9.1c0.3,2.3,1.4,4.3,2.8,6.1
		c3.1,4.3,26.3,35.7,28.3,38.1c3.1,3.6,7.8,5.1,12.1,3.3c1.6-0.6,1.5-0.6,2.6,0.6c0.1,0.2,0.3,0.3,0.4,0.5c0.8,0.9,0.7,1.6-0.3,2.4
		c-3.6,2.6-7.2,5.2-10.7,7.9c-5.3,3.9-10.7,7.8-16,11.7c-5.3,3.9-10.7,7.7-16,11.6c0,0-0.1,0-0.1,0.1
		C1053,2891.9,1051.7,2892.9,1050.2,2893.9C1050.3,2893.9,1050.2,2893.9,1050.2,2893.9"/>
	<path clip-path="url(#SVGID_2_)" fill="#FFFFFF" d="M748.1,3064.2c4.9,6.7,7.3,14.8,7.4,23.1c0.2,9.7-3.2,19.3-9.7,26.5
		c-5.6,6.3-13.3,10.7-21.6,12.2c-2.2,0.4-5,1.4-4.8,3.5c0,0.5,0.3,1.1,0.4,1.6c0.2,1.9-1.8,3.1-3.6,3.9c-0.5,0.2-1.1,0.5-1.6,0.3
		c-0.6-0.1-1-0.6-1.3-1c-5.5-6.7-11-13.3-16.5-20c-0.8-1-1.7-2.1-1.5-3.4c0.2-1.5,2-2.4,3.5-2.2c1.5,0.2,2.8,1.1,4.1,2.1
		c3.4,2.5,7,5.1,11,6.4c9.5,3.1,21-2,25-11.2c2.4-5.5,2.3-11.8,0.5-17.5c-1.8-5.7-5.2-10.8-9-15.3c-6.3-7.3-15-13.8-24.6-13.2
		c-6.7,0.4-13,4.4-16.4,10.2c-3.4,5.8-3.9,13.1-1.5,19.4c0.4,1.1,0.9,2.4,0.2,3.3c-0.4,0.5-0.9,0.7-1.5,0.9
		c-1.2,0.5-2.4,0.9-3.7,1.4c-0.6,0.2-1.4,0.5-2,0.2c-0.5-0.3-0.8-0.8-1-1.4c-5.6-13.8-0.7-30.8,10.9-40
		C709.5,3039,734.4,3047,748.1,3064.2"/>
	<path clip-path="url(#SVGID_2_)" fill="#FFFFFF" d="M769.3,3078.6c-3.3-4.2-6.6-8.5-9.9-12.7c-0.8-1-0.7-1.1,0.3-1.9
		c0.2-0.2,0.4-0.4,0.6-0.6c1.5-1.4,1.5-1.4,3.2-0.3c5.6,3.7,11.5,8.4,18.7,8.6c8.5,0.3,16.9-4.1,20.4-12c4.3-9.5,0.9-19.4-4.4-27.7
		c-4.5-7.2-10.9-13.2-18.6-16.9c-8.1-3.9-16.8-2.9-23.4,3.3c-2,1.9-3.7,4.2-4.7,6.8c-1.2,2.8-1.2,5.8-1.6,8.8
		c-0.5,3.7,0.2,7.4,0.9,11c0.3,1.5,0.2,1.6-1.2,2c-1.7,0.5-3.3,1-5,1.6c-1,0.4-1.7,0.1-2-1c-0.7-2.5-1.3-5.1-1.9-7.7
		c-0.6-2.6-0.7-5.2-0.5-7.8c0.7-9,5.7-17.2,12.7-22.8c1.7-1.3,3.4-2.7,5.3-3.7c2.7-1.5,5.5-2.9,8.4-3.9c3.7-1.3,7.5-1.8,11.4-1.9
		c15-0.1,28.3,9.2,35.2,22.3c3.3,6.2,5.2,13.2,5.3,20.1c0.2,7.3-2.3,14.3-6,20.5c-2.9,4.8-7.1,9-12,12c-2.5,1.5-5.2,2.8-7.9,3.7
		c-2.8,0.9-5.7,1.1-8.6,1.8c-1.8,0.5-2.6,2.8-1.7,4.4c0.7,1.2,0.7,1.2-0.5,1.9c-1,0.6-2,1.3-2.9,2c-0.8,0.5-1.5,0.5-2.2-0.3
		c-0.9-1.2-1.9-2.2-2.8-3.4C772.5,3082.8,770.9,3080.7,769.3,3078.6C769.3,3078.6,769.3,3078.6,769.3,3078.6"/>
	<path clip-path="url(#SVGID_2_)" fill="#FFFFFF" d="M700.8,3147.8c3.3-2.4,6.7-4.9,10-7.3c0.6-0.4,0.7-0.9,0.2-1.5
		c-0.8-1-1.7-2-2.4-3c-0.6-0.8-1.3-1-2.2-0.8c-1.1,0.3-2.2,0.5-3.3,0.8c-2.9,0.7-5.8,0.3-8-1.8c-1.9-1.8-3.6-3.9-5.2-6.1
		c-5.8-7.8-11.5-15.6-17.2-23.4c-2-2.8-4-5.6-6.1-8.3c-1.7-2.3-2.7-4.8-2.6-7.7c0.1-3,0.7-5.9,3-8.2c0.1-0.1,0.1-0.5,0-0.6
		c-0.8-1.2-1.2-2.2-2.3-3.2c-0.5-0.4-1.7,0.9-2,1.2c-1,0.7-1.9,1.4-2.9,2.1c-1.9,1.4-3.8,2.7-5.8,4.1c-4.2,3-8.5,6.1-12.6,9.2
		c-1.8,1.3-3.5,2.5-5.3,3.9c-0.8,0.6-1.1,1.2-0.6,2c0.4,0.5,0.8,1,1.1,1.6c0.4,0.8,1.1,1,1.9,0.9c0.7-0.1,1.4-0.4,2-0.5
		c1.8-0.4,3.6-0.2,5.4,0.2c2,0.4,3.5,1.4,4.7,3c2,2.5,3.9,5.1,5.8,7.6c2.8,3.7,5.5,7.4,8.3,11.1c5.1,6.9,10.3,13.8,15.4,20.7
		c0.2,0.3,0.4,0.7,0.6,1.1c1,2.5,0.8,4.9-0.1,7.4c-0.5,1.3-1.1,2.5-1.7,3.8c-0.4,0.9-0.2,1.7,0.4,2.4c0.4,0.5,1,1,1.4,1.6
		c0.8,1.1,1.6,1.4,2.7,0.6c5.3-3.9,10.7-7.7,16-11.6C700,3148.3,700.4,3148.1,700.8,3147.8"/>
	<path clip-path="url(#SVGID_2_)" fill="#FFFFFF" d="M995.9,2835.9c1-0.7,1.2-0.7,1.9,0.3c0.5,0.7,1,1.5,1.6,2.2
		c0.4,0.5,0.3,0.8-0.1,1.2c-0.6,0.6-1.1,1.2-1.7,1.8c-2,2.1-2.8,4.7-2.5,7.5c0.2,1.4,0.7,2.9,1.5,4.1c2.7,4,5.5,7.9,8.4,11.8
		c6.3,8.8,12.6,17.6,19,26.3c2.9,3.9,6.8,5.8,11.6,5.4c1.3-0.1,2.6-0.8,3.8-1.5c0.8-0.4,1.3-0.4,1.8,0.4c0.5,0.7,1,1.3,1.5,2
		c0.6,0.9,0.8,1.4-0.1,2.1c-3,2.2-6.1,4.4-9.1,6.7c-1.9,1.4-3.8,2.7-5.6,4.1c-4.6,3.4-9.5,6.8-14.1,10.2c-0.4,0.3-0.7,0.5-1.1,0.7
		c-0.8,0.4-1.5,0.3-2-0.6c-0.4-0.7-1-1.3-1.4-2c-0.4-0.6-0.4-1.1,0.1-1.7c1-1.2,1.8-2.4,2.6-3.7c2.4-3.7,0.4-8.8-1.8-12.1
		c-3.2-4.8-6.5-9.6-9.9-14.2c-5.3-7.3-10.6-14.6-15.8-21.9c-2.2-3-6.3-6-10.2-4.6c-1,0.4-2,0.9-3,1.4c-1.2,0.6-1.8,0.6-2.8-0.3
		c-0.7-0.7-1.4-1.4-2.1-2.2c-0.6-0.7-0.4-1.6,0.3-2.1c4.9-3.6,9.9-7.2,14.8-10.8C981.4,2846.4,991.1,2839.4,995.9,2835.9"/>
	<path clip-path="url(#SVGID_2_)" fill="#FFFFFF" d="M624,905.8c-0.3,0-0.6,0.1-0.9,0.1c-7.5,0.5-13.4,0.8-22.6,1.3
		c-1.9,0.1-2.4-1.3-3.3-2.7c-1.1-1.7-2.2-3.5-3.3-5.3c-2.7-4.6-5.2-9.2-7.7-13.8c-1.5-2.7-3.1-5.4-5.2-7.7c-1.9-2.1-4.3-3-7.2-2.9
		c-0.9,0.1-1.8,0.1-2.9,0.2c0.1,1.6,0.2,3,0.2,4.5c0.2,4.2,0.5,8.5,0.6,12.7c0,2.7,1.3,4.7,3.2,6.4c1.9,1.8,4.1,2.8,6.7,2.7
		c1,0,1.6,0.5,1.7,1.5c0.1,1.3,0.3,2.9,0.2,4.2c0,0.8-0.6,1.1-1.4,1.1c-8.5,0.5-13.1,0.7-19.6,1c-3.3,0.2-6.6,0.4-9.9,0.5
		c-1.7,0.1-3.4,0.2-5.1,0.3c-0.5,0-1.1-0.2-1.3-0.7c-0.2-0.4-0.2-0.9-0.2-1.3c0,0,0-0.1,0-0.1c0-1,0.1-2,0.1-2.9
		c0-0.6,0.2-0.8,0.7-1c2.9-1,5.3-3,6.7-5.7c0.7-1.4,1.2-2.9,1.4-4.5c0.1-1.1,0-2.2-0.1-3.2c-0.1-1.1-0.1-2.1-0.2-3.2
		c-0.2-2.2-0.2-4.5-0.3-6.7c-0.2-4.4-0.5-8.9-0.7-13.3c-0.2-4.4-0.5-8.9-0.7-13.3c-0.1-2.3-0.3-4.5-0.4-6.8
		c-0.2-3.8-1.8-7.2-5.1-9.5c-1.1-0.7-2.4-1.1-3.7-1.4c-0.5-0.2-0.8-0.4-0.8-0.9c-0.1-1-0.2-2-0.2-3c0-1.1,0.3-1.4,1.3-1.5
		c11.1-0.6,22.2-1.2,33.4-1.7c7.5-0.3,15.3,0.1,21.2,5.5c2.7,2.5,4.9,5.4,6.1,9c1.1,3.1,1.4,6.3,1,9.7c-0.5,3.6-1.8,6.9-3.8,9.8
		c-1,1.5-2.4,2.6-3.7,3.9c-0.1,0.1-0.2,0.1-0.2,0.2c-1.4,1.1-1.4,1.6,0.2,2.4c2.9,1.5,4.6,4,6,6.8c1.8,3.5,3.7,6.9,5.4,10.5
		c1.8,3.8,4.5,6.9,7.7,9.6c1.7,1.4,3.7,2.4,5.5,3.7c0.5,0.4,1.1,0.9,1.2,1.5C623.9,903,623.9,904.6,624,905.8 M573.6,865
		C573.6,865,573.6,865,573.6,865c1.2-0.1,2.5-0.1,3.7-0.5c1.5-0.5,3.1-1,4.3-1.9c1.6-1.2,2.9-2.9,3.8-4.8c1.6-3.7,1.4-7.4-0.2-11
		c-1.7-3.6-4.5-5.9-8.4-6.7c-2-0.4-4.1-0.5-6.2-0.7c-0.8-0.1-1.2,0.5-1.1,1.3c0.3,4.4,0.5,8.9,0.7,13.4c0.1,3.1,0.1,6.1,0.1,9.2
		c0,0.4,0,0.8,0.2,1.2C570.8,865.6,572.5,865,573.6,865"/>
	<path clip-path="url(#SVGID_2_)" fill="#FFFFFF" d="M506,833c17.7-1.3,34.8,12.6,39.6,29.2c4.2,14.8-0.9,31.7-12.5,41.7
		c-11.6,10-29.1,12.5-43.1,6.2c-14-6.3-23.6-21.2-23.8-36.5c-0.1-9.6,3.5-19,9.6-26.3c6.9-8.4,16.2-12.6,26.9-14
		c0.8-0.1,1.5-0.2,2.3-0.3C505.2,833.1,505,833.1,506,833 M484.8,875.8c0.4,5.3,1.8,10.9,4.1,15.6c2.5,5.2,6.7,9.9,12.3,11.8
		c5,1.7,10.7,1.2,15.3-1.5c3.6-2.1,6.4-5.5,8.3-9.2c1.9-3.8,2.9-7.9,3.5-12c1.7-11.4-0.7-25.3-9.3-33.6c-6.4-6.2-16.1-6.8-23.3-1.5
		C486.9,851.8,483.7,865.5,484.8,875.8"/>
	<path clip-path="url(#SVGID_2_)" fill="#FFFFFF" d="M673.2,860.6c-0.4-6.8-0.7-13.6-1.1-20.4c-0.1-2.3-1-4.2-2.3-6
		c-1.5-2.1-3.7-3.2-6.2-3.8c-0.8-0.2-1.3-0.5-1.1-1.5c0.1-0.8-0.1-1.7-0.1-2.6c-0.1-0.7,0.2-1.3,1-1.4c1-0.1,2-0.3,3-0.4
		c6.4-0.3,12.8-0.7,19.3-1c1.4-0.1,2.8-0.2,4.2-0.2c0.9,0,1.3,0.5,1.4,1.3c0.1,1,0.2,2,0.1,3c0,0.8-0.5,1.4-1.3,1.7
		c-3.8,1-6.2,3.4-7.5,7c-0.7,2-0.8,4-0.7,6c0.6,12.6,1.3,25.2,2,37.8c0.2,4.2-0.8,8.1-2.9,11.7c-6.6,11.7-20.6,13.3-32.7,13.9
		c-3.7,0.2-7.5,0.1-11-0.9c-6.7-1.9-12.1-7.5-13.9-14.2c-1.1-4-0.9-8.1-1.1-12.2c-0.1-3.9-0.4-7.8-0.6-11.7c-0.2-4.7-0.4-9.4-0.7-14
		c-0.1-3-0.2-6-0.4-9c-0.1-1.5-0.3-3.1-1-4.4c-1-1.7-2.1-3.6-4-4.5c-1.2-0.6-2.5-1-3.7-1.4c-0.7-0.2-1-0.6-1.1-1.3
		c-0.1-1-0.1-2.1-0.2-3.1c0-0.9,0.5-1.5,1.4-1.6c0.5-0.1,1-0.1,1.4-0.1c11.2-0.6,22.4-1.2,33.6-1.8c1.4-0.1,1.7,0.2,1.9,1.5
		c0.1,0.9,0.2,1.9,0.1,2.8c-0.1,0.5-0.6,1.1-1,1.4c-0.5,0.3-1.3,0.5-1.9,0.5c-2.2,0.1-3.8,1.4-5.2,2.8c-1.8,1.8-2.7,4.2-2.9,6.7
		c-0.1,1.7,0,3.5,0.1,5.3c0.3,6.5,0.6,13.1,1,19.6c0.3,5.3,0.6,10.6,0.8,15.9c0.2,6.1,3.1,12.6,9.9,13.2c2.4,0.2,4.9,0.3,7.3,0.1
		c2.6-0.2,5.2-0.9,7.9-1.3c3.6-0.6,6.4-2.9,8.1-6.2c2.1-4,1.4-8.5,1.2-12.8C674,873.9,673.3,860.6,673.2,860.6L673.2,860.6z"/>
	<path clip-path="url(#SVGID_2_)" fill="#FFFFFF" d="M420.6,837.5c1.5,0,2.2,0.2,2.3,1.7c0.1,1.8,0.2,3.7,0.3,5.5
		c0.2,2.7,0.4,5.3,0.6,7.9c0.1,1.9,0.3,3.8,0.3,5.7c0,1.9-0.1,3.8-0.2,5.7c0,0.7-0.5,1.1-1.2,1.2c-0.8,0.1-1.7,0.3-2.5,0.3
		c-0.4,0-1-0.3-1.1-0.6c-1.5-3-2.8-6-4.4-8.9c-3.7-6.5-9.7-8.7-16.7-9.3c-1.9-0.2-3.9-0.2-5.8-0.3c-0.9,0-1.7-0.1-2.6,0.1
		c-0.4,0.1-0.9,0.6-1,1c-0.2,0.6,0,1.3,0,1.9c0.1,4.3,0.3,8.6,0.4,12.9c0.1,2.8,0.3,5.6,0.4,8.4c0,0.9,0.4,1.4,1.3,1.3
		c0.9-0.1,1.9-0.2,2.8-0.5c1.9-0.7,3.8-1.2,5.1-2.9c1.9-2.6,3-5.5,3.1-8.7c0-0.4,0.7-0.9,1.2-1c0.8-0.2,1.7-0.1,2.5-0.1
		c0.8,0,1.6,0.9,1.6,1.8c0.1,1.6,0.1,3.3,0.2,5c0.2,3,0.4,6,0.6,9c0.3,4.4,0.5,8.8,0.8,13.3c0.1,1.1,0.2,2.3,0.3,3.4
		c0.1,1-0.4,1.5-1.3,1.7c-0.8,0.2-1.5,0.4-2.3,0.5c-0.6,0.1-1-0.1-1.2-0.9c-0.4-1.8-1-3.5-2-5c-1.3-1.8-2.7-3.4-4.5-4.6
		c-1.5-1-3.1-1.4-4.8-1.3c-1.6,0.2-2.2,1-2.1,2.6c0.4,6.2,0.6,12.5,1.3,18.7c0.4,3.6,2.5,6.3,5.7,8.1c1.9,1.1,4,1.3,6.1,1.3
		c1.3,0,1.6,0.2,1.8,1.4c0.1,1.1,0.3,2,0.3,3c0,0.2-0.4,0.6-0.6,0.7c-0.5,0.1-1.1,0.1-1.6,0.1c-5.6,0.3-11.3,0.6-16.9,0.9
		c-7.4,0.4-14.7,0.8-22.1,1.2c-1.9,0.1-1.4-0.9-1.7-2.5c-0.5-2.1,2.3-2,3.8-2.3c3.6-0.7,5.6-3.1,7-6.2c1-2.1,1.1-4.4,1-6.6
		c-0.3-5.3-2.6-44.3-3.1-47.4c-0.6-4.7-3.7-8.5-8.3-9.4c-1.7-0.3-1.7-0.3-1.9-2c0-0.2-0.1-0.4-0.1-0.7c-0.1-1.2,0.3-1.8,1.5-1.8
		c4.4-0.2,8.8-0.5,13.3-0.7c6.6-0.4,13.2-0.7,19.8-1.1c6.6-0.3,13.2-0.7,19.7-1c0,0,0.1,0,0.1,0
		C417.1,837.7,418.8,837.6,420.6,837.5C420.5,837.5,420.5,837.5,420.6,837.5"/>
	<path clip-path="url(#SVGID_2_)" fill="#FFFFFF" d="M766.7,859.2c-0.4-8.3,2-16.4,6.3-23.4c5.1-8.2,13.2-14.4,22.6-17
		c8.1-2.2,17-1.7,24.8,1.5c2,0.8,4.9,1.6,6-0.4c0.3-0.5,0.3-1.1,0.6-1.5c0.9-1.7,3.2-1.6,5.1-1.3c0.6,0.1,1.2,0.2,1.6,0.6
		c0.4,0.4,0.5,1,0.5,1.6c1,8.6,2,17.2,3,25.8c0.1,1.3,0.2,2.7-0.6,3.6c-1,1.2-3,0.9-4.2-0.1c-1.2-1-1.8-2.5-2.3-4
		c-1.5-4-3.1-8.1-5.8-11.4c-6.3-7.8-18.7-9.7-27-4.2c-5,3.3-8.4,8.7-10,14.4c-1.6,5.8-1.6,11.9-0.8,17.8c1.2,9.6,5,19.7,13.4,24.5
		c5.8,3.3,13.3,3.4,19.3,0.4c6-3,10.4-8.9,11.8-15.5c0.2-1.1,0.6-2.5,1.7-2.9c0.5-0.2,1.1-0.1,1.7,0.1c1.3,0.3,2.5,0.6,3.8,0.9
		c0.7,0.2,1.4,0.4,1.8,1c0.3,0.5,0.2,1.1,0.1,1.7c-2.8,14.6-16.2,26.2-31,27.6C785.3,901.4,768.8,881.2,766.7,859.2"/>
	<path clip-path="url(#SVGID_2_)" fill="#FFFFFF" d="M756.8,835.6c0.5,5.4,0.9,10.7,1.4,16.1c0.1,1.3,0,1.3-1.3,1.4
		c-0.3,0-0.6,0.1-0.8,0.1c-2,0.4-2,0.4-2.9-1.5c-2.7-6.2-5.1-13.3-11-17.4c-7-4.8-16.4-5.8-23.7-1.1c-8.8,5.7-11.3,15.8-11.4,25.6
		c-0.1,8.5,2,17,6.4,24.3c4.6,7.7,12.5,11.6,21.5,10c2.7-0.5,5.4-1.5,7.6-3.1c2.5-1.7,4.2-4.2,6.1-6.5c2.5-2.9,3.9-6.3,5.3-9.7
		c0.6-1.4,0.7-1.4,2.1-1c1.7,0.5,3.3,1,5,1.4c1,0.2,1.5,0.8,1.1,1.9c-0.8,2.5-1.7,5-2.6,7.5c-0.9,2.5-2.2,4.7-3.8,6.8
		c-5.5,7.2-14.2,11.3-23.1,12.2c-2.1,0.2-4.3,0.4-6.5,0.2c-3.1-0.3-6.2-0.6-9.2-1.3c-3.8-0.9-7.3-2.5-10.6-4.7
		c-12.7-8.1-18.7-23.1-17.4-37.9c0.6-6.9,2.8-13.9,6.5-19.8c3.8-6.2,9.7-10.8,16.2-13.9c5.1-2.4,10.9-3.7,16.6-3.6
		c2.9,0.1,5.8,0.5,8.7,1.2c2.9,0.8,5.4,2.2,8.2,3.2c1.7,0.6,3.7-0.9,3.8-2.7c0.1-1.4,0.1-1.3,1.4-1.3c1.2,0,2.4,0,3.5,0
		c1,0,1.5,0.4,1.6,1.4c0.1,1.4,0.3,2.9,0.5,4.3C756.4,830.4,756.6,833,756.8,835.6C756.8,835.6,756.8,835.6,756.8,835.6"/>
	<path clip-path="url(#SVGID_2_)" fill="#FFFFFF" d="M851.9,814.9c-4.1,0.2-8.3,0.5-12.4,0.7c-0.8,0-1.1,0.4-1,1.2
		c0.1,1.3,0.4,2.6,0.4,3.9c0,1,0.5,1.5,1.4,1.8c1.1,0.4,2.2,0.8,3.2,1.2c2.8,1,5,2.9,5.7,5.8c0.6,2.6,0.9,5.3,1.1,7.9
		c0.6,9.7,1.1,19.3,1.7,29c0.2,3.4,0.4,6.9,0.6,10.3c0.2,2.9-0.4,5.5-2.1,7.9c-1.8,2.5-3.8,4.6-7,5.2c-0.2,0-0.4,0.3-0.4,0.5
		c0,1.5-0.2,2.5,0.2,3.9c0.2,0.6,1.9,0.2,2.3,0.2c1.2-0.1,2.4-0.1,3.6-0.2c2.3-0.1,4.7-0.2,7.1-0.3c5.2-0.2,10.4-0.5,15.6-0.8
		c2.2-0.1,4.3-0.2,6.6-0.3c1-0.1,1.6-0.4,1.6-1.4c0-0.6-0.1-1.3-0.1-1.9c0-0.9-0.4-1.5-1.1-1.8c-0.6-0.3-1.4-0.4-2-0.7
		c-1.7-0.7-3.1-1.8-4.4-3.1c-1.4-1.4-2.2-3.1-2.3-5c-0.3-3.2-0.5-6.3-0.7-9.5c-0.3-4.6-0.6-9.2-0.9-13.8c-0.6-8.6-1.1-17.2-1.7-25.7
		c0-0.4,0-0.8,0.1-1.2c0.5-2.6,2-4.6,4.1-6.1c1.1-0.8,2.3-1.5,3.5-2.2c0.9-0.5,1.1-1.3,1-2.2c-0.1-0.7-0.2-1.4-0.3-2.1
		c-0.1-1.3-0.6-2-1.9-2c-6.6,0.3-13.2,0.6-19.8,1C852.9,814.9,852.4,814.9,851.9,814.9"/>
	<path clip-path="url(#SVGID_2_)" fill="#FFFFFF" d="M434.5,915.8c-1.3,0.1-1.4,0-1.4-1.3c0-0.9-0.1-1.8-0.1-2.7
		c-0.1-0.6,0.2-0.9,0.7-1c0.8-0.2,1.6-0.4,2.4-0.6c2.8-0.7,4.9-2.4,6.2-4.9c0.6-1.3,1-2.8,1-4.2c-0.1-4.8-0.3-9.7-0.6-14.5
		c-0.5-10.8-1-21.6-1.6-32.4c-0.3-4.8-2.5-8.5-6.8-10.8c-1.1-0.6-2.6-0.7-3.9-0.8c-0.9-0.1-1.3-0.4-1.4-1.3c0-0.8-0.1-1.7-0.1-2.5
		c0-1.1,0.1-1.6,1.2-1.7c3.8-0.2,7.5-0.4,11.3-0.6c2.3-0.1,4.6-0.2,7-0.4c5.7-0.4,11.6-0.5,17.4-0.9c0.4,0,0.9,0,1.3,0
		c0.9,0.1,1.4,0.6,1.4,1.6c0,0.8,0.1,1.7,0.1,2.5c0,0.7-0.2,1.1-1,1.4c-1.4,0.4-2.8,1-4.2,1.7c-4,1.9-5.1,7.2-5.1,11.2
		c0,5.8,0.3,11.6,0.6,17.3c0.5,9,0.9,18,1.4,27c0.2,3.7,2,8.4,6.1,9.4c1.1,0.3,2.2,0.4,3.3,0.5c1.3,0.1,1.9,0.5,2.2,1.8
		c0.2,1,0.4,2,0.5,2.9c0.1,0.9-0.5,1.5-1.4,1.6c-6.1,0.3-12.2,0.6-18.3,1C452.4,914.9,440.5,915.4,434.5,915.8"/>
	<path clip-path="url(#SVGID_2_)" fill="#FFFFFF" d="M149.7,1513.3c-0.1,0.3-0.1,0.6-0.1,0.9c-1.9,7.3-3.4,12.9-5.8,21.9
		c-0.5,1.8-2,1.9-3.6,2.3c-2,0.5-4,1.1-6,1.5c-5.2,1.1-10.3,2.1-15.5,3.1c-3.1,0.6-6.1,1.2-8.9,2.6c-2.6,1.2-4.2,3.2-4.9,6
		c-0.2,0.9-0.5,1.8-0.7,2.8c1.5,0.4,2.9,0.8,4.4,1.2c4.1,1.1,8.2,2.1,12.2,3.4c2.6,0.8,4.9,0.2,7.1-1c2.2-1.2,3.9-3,4.7-5.5
		c0.3-0.9,0.9-1.4,1.9-1.2c1.3,0.3,2.8,0.7,4.1,1.1c0.7,0.3,0.9,0.9,0.7,1.7c-2.2,8.2-3.4,12.7-5.1,19c-0.8,3.2-1.7,6.4-2.6,9.6
		c-0.4,1.7-0.8,3.3-1.3,4.9c-0.1,0.5-0.5,0.9-1,1c-0.4,0-0.9-0.1-1.3-0.2c0,0-0.1,0-0.1,0c-0.9-0.3-1.8-0.7-2.8-1
		c-0.5-0.2-0.7-0.5-0.7-1c-0.1-3.1-1.2-5.9-3.4-8.1c-1.1-1.1-2.4-2.1-3.8-2.7c-1-0.4-2-0.7-3.1-0.9c-1-0.3-2-0.6-3.1-0.8
		c-2.2-0.5-4.3-1.2-6.4-1.7c-4.3-1.2-8.6-2.3-12.9-3.5c-4.3-1.2-8.6-2.3-12.9-3.4c-2.2-0.6-4.4-1.2-6.6-1.7c-3.7-1-7.4-0.5-10.6,1.9
		c-1,0.8-1.8,2-2.5,3.1c-0.3,0.5-0.6,0.6-1.1,0.5c-1-0.2-1.9-0.5-2.9-0.7c-1-0.3-1.3-0.7-1-1.7c2.9-10.8,5.7-21.5,8.7-32.3
		c2-7.2,4.8-14.5,11.8-18.4c3.2-1.8,6.7-3,10.4-3c3.3-0.1,6.5,0.6,9.5,2c3.3,1.6,6,3.9,8.2,6.7c1.1,1.4,1.7,3.1,2.6,4.7
		c0,0.1,0,0.2,0.1,0.3c0.6,1.7,1.1,1.8,2.3,0.6c2.3-2.3,5.3-3.1,8.4-3.6c3.9-0.6,7.8-1.4,11.6-1.9c4.2-0.5,8-2.1,11.5-4.4
		c1.9-1.2,3.5-2.8,5.2-4.1c0.5-0.4,1.2-0.7,1.8-0.7C147,1512.5,148.6,1513,149.7,1513.3 M95.3,1548.6
		C95.3,1548.6,95.4,1548.6,95.3,1548.6c0.3-1.2,0.7-2.4,0.7-3.6c0-1.6,0-3.2-0.4-4.7c-0.6-1.9-1.9-3.7-3.4-5.1
		c-3-2.7-6.6-3.7-10.6-3.2c-4,0.5-7,2.4-9,5.9c-1,1.8-1.7,3.8-2.5,5.7c-0.3,0.7,0.1,1.3,0.9,1.5c4.3,1.1,8.6,2.2,12.9,3.5
		c2.9,0.8,5.9,1.7,8.7,2.7c0.4,0.1,0.8,0.3,1.2,0.2C95,1551.4,95.1,1549.6,95.3,1548.6"/>
	<path clip-path="url(#SVGID_2_)" fill="#FFFFFF" d="M44.1,1603c4.2-17.3,22.7-29.2,40-28.6c15.3,0.6,29.9,10.7,35.8,24.8
		c5.9,14.1,2.9,31.6-7.4,42.9c-10.3,11.3-27.4,16-42.1,11.4c-9.1-2.9-17-9.2-22.1-17.2c-5.8-9.2-7-19.3-5-29.9
		c0.1-0.7,0.3-1.5,0.4-2.2C43.9,1603.8,43.8,1603.9,44.1,1603 M78.2,1636.4c5.2,1.3,10.9,1.6,16.2,0.9c5.7-0.8,11.5-3.3,15-8
		c3.2-4.2,4.5-9.8,3.3-15c-0.9-4.1-3.2-7.8-6.2-10.7c-3-2.9-6.6-5.2-10.4-7c-10.3-5.1-24.3-7.1-34.9-1.6
		c-7.9,4.2-11.5,13.2-8.6,21.7C56.1,1626.9,68.1,1634.2,78.2,1636.4"/>
	<path clip-path="url(#SVGID_2_)" fill="#FFFFFF" d="M122,1452.5c-6.6-1.8-13.2-3.5-19.7-5.3c-2.2-0.6-4.3-0.3-6.5,0.4
		c-2.5,0.8-4.2,2.5-5.5,4.7c-0.4,0.7-0.9,1-1.8,0.6c-0.8-0.4-1.6-0.5-2.5-0.7c-0.7-0.2-1.1-0.6-1-1.3c0.2-1,0.3-2,0.6-3
		c1.7-6.2,3.3-12.4,5-18.6c0.4-1.4,0.7-2.7,1.1-4.1c0.2-0.8,0.8-1.1,1.6-0.9c1,0.2,1.9,0.5,2.9,0.8c0.8,0.3,1.2,1,1.2,1.8
		c-0.3,3.9,1.3,6.9,4.4,9.3c1.6,1.3,3.6,2,5.5,2.5c12.2,3.3,24.3,6.6,36.5,9.8c4.1,1.1,7.4,3.2,10.3,6.4c9.1,9.9,6.3,23.7,3.1,35.4
		c-1,3.6-2.2,7.1-4.3,10.2c-3.9,5.8-10.9,9.2-17.8,8.9c-4.1-0.2-8-1.6-11.9-2.8c-3.8-1.1-7.6-2-11.4-3.1c-4.5-1.2-9-2.5-13.5-3.7
		c-2.9-0.8-5.8-1.7-8.7-2.4c-1.5-0.3-3.1-0.7-4.5-0.4c-1.9,0.4-4,0.9-5.5,2.4c-0.9,1-1.7,2-2.5,3.1c-0.4,0.6-0.9,0.8-1.5,0.6
		c-1-0.3-2-0.5-3-0.8c-0.9-0.2-1.3-0.9-1.1-1.8c0.1-0.5,0.2-0.9,0.4-1.4c2.9-10.8,5.8-21.6,8.7-32.5c0.4-1.3,0.7-1.6,2-1.3
		c0.9,0.2,1.9,0.4,2.7,0.8c0.5,0.2,0.9,0.9,1,1.4c0.2,0.6,0.1,1.3-0.1,2c-0.6,2.1,0.1,4,1.1,5.8c1.2,2.3,3.1,3.9,5.5,4.8
		c1.6,0.7,3.4,1,5.1,1.5c6.3,1.7,12.6,3.4,19,5.1c5.1,1.4,10.3,2.7,15.4,4.2c5.9,1.7,13,1,15.6-5.4c0.9-2.3,1.8-4.6,2.3-6.9
		c0.6-2.6,0.8-5.2,1.2-7.9c0.5-3.6-0.8-7-3.4-9.6c-3.2-3.2-7.6-4-11.8-5.1C134.9,1455.9,122,1452.4,122,1452.5L122,1452.5z"/>
	<path clip-path="url(#SVGID_2_)" fill="#FFFFFF" d="M21.9,1685.6c0.5-1.4,0.8-2.1,2.3-1.7c1.8,0.4,3.6,1,5.4,1.4
		c2.6,0.6,5.2,1.2,7.8,1.9c1.9,0.5,3.7,0.9,5.5,1.5c1.8,0.6,3.6,1.3,5.4,1.9c0.7,0.2,0.9,0.8,0.8,1.5c-0.1,0.8-0.2,1.7-0.5,2.5
		c-0.1,0.4-0.6,0.8-0.9,0.9c-3.3,0.5-6.6,0.8-9.9,1.4c-7.3,1.5-11.3,6.5-14,13c-0.8,1.8-1.4,3.6-2.1,5.5c-0.3,0.8-0.6,1.6-0.7,2.5
		c-0.1,0.4,0.3,1,0.6,1.2c0.5,0.3,1.2,0.4,1.8,0.6c4.1,1.2,8.2,2.4,12.4,3.6c2.7,0.8,5.4,1.4,8.1,2.2c0.8,0.2,1.4,0.1,1.6-0.8
		c0.2-0.9,0.4-1.9,0.4-2.8c-0.1-2,0.1-4-1.2-5.8c-1.9-2.6-4.3-4.5-7.3-5.6c-0.4-0.1-0.6-1-0.6-1.5c0.1-0.8,0.4-1.6,0.7-2.5
		c0.3-0.8,1.3-1.2,2.2-1c1.6,0.4,3.2,1,4.8,1.4c2.9,0.8,5.8,1.5,8.7,2.2c4.3,1.1,8.6,2.3,12.8,3.4c1.1,0.3,2.2,0.5,3.3,0.7
		c0.9,0.2,1.3,0.9,1.2,1.8c-0.1,0.8-0.1,1.6-0.3,2.4c-0.1,0.6-0.4,1-1.2,0.9c-1.8-0.2-3.6-0.1-5.3,0.4c-2.1,0.7-4,1.5-5.7,2.9
		c-1.4,1.1-2.3,2.5-2.7,4.2c-0.3,1.6,0.2,2.4,1.8,2.8c6,1.5,12,3.2,18.1,4.5c3.5,0.7,6.8-0.4,9.5-2.9c1.6-1.5,2.5-3.4,3.1-5.4
		c0.4-1.2,0.7-1.5,1.9-1.2c1.1,0.2,2,0.3,3,0.7c0.2,0.1,0.5,0.5,0.5,0.8c0,0.5-0.2,1.1-0.4,1.6c-1.5,5.4-2.9,10.9-4.4,16.3
		c-1.9,7.1-3.8,14.3-5.7,21.4c-0.5,1.9-1.3,1-2.9,0.8c-2.1-0.2-1.2-2.8-1-4.3c0.4-3.6-1.3-6.3-3.8-8.6c-1.7-1.6-3.8-2.4-6-3
		c-5.2-1.4-43-11.2-46-11.7c-4.7-0.8-9.3,0.9-11.5,5c-0.8,1.5-0.8,1.5-2.5,1.2c-0.2,0-0.4-0.1-0.7-0.1c-1.2-0.3-1.6-0.9-1.3-2
		c1.1-4.3,2.3-8.6,3.4-12.9c1.7-6.4,3.4-12.8,5.1-19.1c1.7-6.4,3.4-12.7,5.1-19.1c0,0,0-0.1,0-0.1C21,1689,21.5,1687.3,21.9,1685.6
		C21.9,1685.7,21.9,1685.7,21.9,1685.6"/>
	<path clip-path="url(#SVGID_2_)" fill="#FFFFFF" d="M149.5,1363.2c-8-2.1-14.9-6.9-20.3-13.3c-6.2-7.4-9.6-17-9.2-26.7
		c0.4-8.4,3.6-16.7,9.1-23.1c1.4-1.7,3-4.2,1.5-5.8c-0.4-0.4-0.9-0.6-1.3-1c-1.3-1.3-0.5-3.6,0.3-5.2c0.3-0.5,0.6-1,1.1-1.3
		c0.5-0.3,1.1-0.1,1.7,0c8.5,1.7,17,3.4,25.4,5.1c1.2,0.3,2.6,0.6,3.3,1.7c0.8,1.3-0.1,3.1-1.4,3.9c-1.3,0.8-2.9,0.9-4.5,1
		c-4.3,0.2-8.6,0.4-12.6,2c-9.3,3.6-15,14.8-12.4,24.4c1.6,5.8,5.7,10.6,10.6,13.9c5,3.3,10.8,5.1,16.7,6.2
		c9.5,1.8,20.3,1.3,27.4-5.2c4.9-4.5,7.3-11.6,6.3-18.3c-1-6.6-5.2-12.7-11-16c-1-0.6-2.2-1.3-2.2-2.5c0-0.6,0.3-1.1,0.6-1.6
		c0.7-1.1,1.3-2.2,2-3.4c0.4-0.6,0.8-1.2,1.4-1.4c0.6-0.1,1.1,0.2,1.7,0.4c13,7.2,19.9,23.5,16.7,38
		C195.4,1358.5,171.1,1367.9,149.5,1363.2"/>
	<path clip-path="url(#SVGID_2_)" fill="#FFFFFF" d="M124,1365.3c5.2,1.2,10.5,2.4,15.7,3.7c1.2,0.3,1.3,0.4,1,1.6
		c-0.1,0.3-0.1,0.6-0.2,0.8c-0.3,2-0.3,2.1-2.3,2.3c-6.7,0.7-14.2,0.7-19.9,5.1c-6.8,5.1-10.6,13.8-8.3,22.2
		c2.7,10.1,11.6,15.6,20.8,18.8c8,2.7,16.8,3.4,25.1,1.5c8.7-2,14.9-8.3,16.1-17.3c0.4-2.7,0.2-5.6-0.6-8.2
		c-0.9-2.9-2.7-5.3-4.2-7.8c-1.9-3.2-4.8-5.6-7.6-8c-1.1-1-1.1-1.1-0.3-2.3c1-1.4,1.9-2.9,2.9-4.4c0.6-0.9,1.2-1.2,2.1-0.5
		c2.1,1.5,4.2,3.1,6.3,4.8c2.1,1.6,3.8,3.6,5.3,5.8c5.1,7.5,6.4,17,4.5,25.7c-0.5,2.1-1,4.2-1.8,6.2c-1.2,2.8-2.5,5.7-4.1,8.3
		c-2,3.3-4.7,6.1-7.7,8.6c-11.6,9.5-27.7,10.6-41.4,4.8c-6.4-2.7-12.3-7-16.8-12.3c-4.7-5.5-7.2-12.5-8.2-19.7
		c-0.8-5.6-0.2-11.5,1.7-16.9c1-2.8,2.3-5.4,3.9-7.9c1.6-2.5,3.8-4.4,5.6-6.8c1.1-1.5,0.3-3.8-1.4-4.5c-1.3-0.5-1.2-0.5-0.8-1.8
		c0.4-1.1,0.7-2.3,1.1-3.4c0.3-0.9,0.8-1.3,1.9-1.1c1.4,0.3,2.9,0.6,4.3,0.9C118.9,1364.1,121.5,1364.7,124,1365.3
		C124,1365.3,124,1365.3,124,1365.3"/>
	<path clip-path="url(#SVGID_2_)" fill="#FFFFFF" d="M133.7,1268.5c-1.1,4-2.1,8-3.2,12c-0.2,0.7,0.1,1.2,0.8,1.3
		c1.3,0.3,2.6,0.5,3.8,0.8c1,0.3,1.6,0,2.2-0.8c0.7-0.9,1.4-1.8,2.1-2.7c1.9-2.4,4.3-3.8,7.3-3.6c2.6,0.2,5.3,0.8,7.8,1.4
		c9.4,2.4,18.7,4.9,28.1,7.3c3.3,0.9,6.6,1.8,10,2.7c2.8,0.7,5.1,2.1,6.9,4.4c1.8,2.4,3.2,5,2.8,8.2c0,0.2,0.2,0.5,0.4,0.5
		c1.4,0.4,2.3,1,3.8,1.1c0.6,0,0.8-1.8,0.9-2.2c0.3-1.2,0.6-2.3,0.9-3.5c0.6-2.3,1.3-4.5,1.9-6.8c1.4-5,2.8-10,4-15.1
		c0.5-2.2,1.2-4.2,1.7-6.4c0.2-0.9,0.1-1.7-0.8-1.9c-0.6-0.2-1.2-0.3-1.8-0.5c-0.8-0.3-1.5-0.1-2.1,0.5c-0.5,0.5-0.8,1.2-1.2,1.7
		c-1.2,1.4-2.6,2.4-4.3,3.2c-1.8,0.9-3.6,1.1-5.5,0.7c-3.1-0.7-6.2-1.5-9.3-2.3c-4.5-1.1-8.9-2.3-13.4-3.4c-8.3-2.1-16.7-4.2-25-6.3
		c-0.4-0.1-0.8-0.3-1.1-0.5c-2.3-1.3-3.7-3.3-4.6-5.8c-0.5-1.3-0.8-2.6-1.1-4c-0.2-1-0.9-1.4-1.8-1.6c-0.7-0.1-1.4-0.2-2.1-0.3
		c-1.3-0.3-2.1-0.1-2.5,1.3c-1.7,6.4-3.5,12.7-5.2,19.1C134,1267.5,133.9,1268,133.7,1268.5"/>
	<path clip-path="url(#SVGID_2_)" fill="#FFFFFF" d="M100.7,1696.6c-0.3,1.2-0.5,1.3-1.7,1c-0.9-0.2-1.7-0.5-2.6-0.7
		c-0.6-0.1-0.8-0.4-0.7-1c0.1-0.8,0.1-1.6,0.2-2.5c0.2-2.9-0.8-5.4-2.8-7.4c-1-1-2.3-1.8-3.7-2.2c-4.6-1.4-9.3-2.7-13.9-3.9
		c-10.4-2.8-20.9-5.7-31.3-8.5c-4.7-1.2-8.9-0.2-12.4,3.1c-0.9,0.9-1.5,2.3-2,3.5c-0.4,0.9-0.8,1.1-1.7,0.9
		c-0.8-0.2-1.6-0.4-2.4-0.6c-1.1-0.3-1.5-0.6-1.2-1.7c1-3.6,1.9-7.3,2.9-10.9c0.6-2.2,1.2-4.5,1.8-6.7c1.4-5.6,3.1-11.2,4.5-16.8
		c0.1-0.4,0.3-0.9,0.4-1.3c0.4-0.8,1-1.2,1.9-0.8c0.8,0.3,1.6,0.4,2.4,0.7c0.6,0.2,1,0.6,1,1.4c0,1.5,0.1,3,0.3,4.5
		c0.5,4.4,5.3,7.1,9,8.3c5.5,1.8,11.1,3.3,16.7,4.8c8.7,2.3,17.4,4.7,26.1,7c3.5,1,8.7,0.7,10.8-2.9c0.6-0.9,1-2,1.5-3
		c0.5-1.2,1-1.6,2.4-1.5c1,0.1,2,0.2,3,0.4c0.9,0.2,1.3,1,1,1.8c-1.6,5.9-3.2,11.8-4.7,17.7C105.4,1679.3,102.2,1690.8,100.7,1696.6
		"/>
	<path clip-path="url(#SVGID_2_)" fill="#FFFFFF" d="M1236.7,435.7c-0.3,0.1-0.6,0.2-0.8,0.2c-7.5,1.1-13.3,1.8-22.5,3
		c-1.9,0.2-2.5-1.2-3.5-2.4c-1.3-1.6-2.5-3.3-3.7-5c-3-4.3-5.9-8.7-8.8-13.2c-1.7-2.6-3.5-5.2-5.8-7.3c-2.1-1.9-4.6-2.7-7.4-2.3
		c-0.9,0.1-1.8,0.2-2.8,0.4c0.2,1.5,0.4,3,0.6,4.5c0.5,4.2,1.2,8.4,1.5,12.6c0.2,2.7,1.7,4.6,3.7,6.2c2,1.6,4.3,2.4,6.9,2.2
		c1-0.1,1.6,0.3,1.8,1.3c0.2,1.3,0.5,2.9,0.5,4.2c0,0.8-0.5,1.1-1.3,1.3c-8.4,1.1-13,1.7-19.5,2.6c-3.3,0.4-6.6,0.9-9.8,1.3
		c-1.7,0.2-3.3,0.5-5,0.7c-0.5,0.1-1.1-0.1-1.3-0.6c-0.2-0.4-0.2-0.8-0.3-1.3c0,0,0-0.1,0-0.1c0-1,0-2-0.2-2.9
		c-0.1-0.6,0.1-0.8,0.6-1c2.8-1.3,5-3.4,6.2-6.2c0.6-1.4,1-3,1-4.6c0-1.1-0.2-2.1-0.3-3.2c-0.2-1-0.2-2.1-0.4-3.1
		c-0.4-2.2-0.6-4.4-0.9-6.6c-0.6-4.4-1.2-8.8-1.7-13.2c-0.6-4.4-1.2-8.8-1.8-13.2c-0.3-2.3-0.6-4.5-0.9-6.7c-0.5-3.8-2.4-7.1-5.8-9
		c-1.1-0.6-2.5-0.9-3.8-1.1c-0.6-0.1-0.8-0.3-0.9-0.8c-0.1-1-0.3-1.9-0.4-2.9c-0.1-1,0.2-1.4,1.1-1.6c11-1.4,22.1-2.9,33.1-4.3
		c7.5-0.9,15.3-1.1,21.5,3.8c2.9,2.3,5.3,5,6.8,8.5c1.3,3,1.9,6.2,1.7,9.6c-0.2,3.6-1.3,7-3.1,10.1c-0.9,1.5-2.2,2.8-3.4,4.2
		c-0.1,0.1-0.2,0.1-0.2,0.2c-1.3,1.2-1.3,1.7,0.3,2.4c3,1.3,4.9,3.7,6.5,6.4c2,3.4,4.2,6.6,6.2,10.1c2.1,3.7,5,6.6,8.4,8.9
		c1.8,1.3,3.9,2.1,5.8,3.3c0.5,0.3,1.1,0.8,1.3,1.4C1236.4,433,1236.6,434.5,1236.7,435.7 M1183.3,399
		C1183.3,399,1183.3,399,1183.3,399c1.2-0.2,2.5-0.3,3.6-0.8c1.5-0.6,3-1.2,4.2-2.2c1.5-1.3,2.7-3.1,3.4-5.1c1.3-3.8,0.9-7.5-1.1-11
		c-2-3.5-4.9-5.6-8.9-6c-2.1-0.3-4.2-0.1-6.2-0.2c-0.8,0-1.2,0.6-1,1.4c0.7,4.4,1.2,8.8,1.7,13.3c0.3,3,0.6,6.1,0.8,9.1
		c0,0.4,0.1,0.8,0.2,1.2C1180.6,399.8,1182.3,399.1,1183.3,399"/>
	<path clip-path="url(#SVGID_2_)" fill="#FFFFFF" d="M1113.4,372.5c17.6-2.7,35.7,9.8,41.7,26c5.3,14.4,1.6,31.7-9.2,42.6
		c-10.8,10.9-28.1,14.8-42.5,9.6c-14.4-5.2-25.2-19.2-26.6-34.5c-0.8-9.5,2-19.2,7.5-27c6.2-8.9,15.2-13.8,25.7-16.1
		c0.7-0.2,1.5-0.3,2.2-0.5C1112.6,372.6,1112.5,372.6,1113.4,372.5 M1095.6,416.8c0.8,5.3,2.7,10.7,5.4,15.3
		c2.9,5,7.4,9.3,13.1,10.8c5.1,1.3,10.8,0.4,15.1-2.7c3.4-2.4,5.9-6,7.5-9.9c1.6-3.9,2.3-8.1,2.5-12.3c0.8-11.5-2.7-25.2-11.9-32.8
		c-6.9-5.7-16.6-5.5-23.3,0.3C1095.9,392.7,1093.8,406.6,1095.6,416.8"/>
	<path clip-path="url(#SVGID_2_)" fill="#FFFFFF" d="M1282.3,386.8c-0.9-6.8-1.8-13.5-2.7-20.3c-0.3-2.3-1.4-4.1-2.8-5.8
		c-1.7-2-3.9-2.9-6.4-3.3c-0.8-0.1-1.3-0.4-1.3-1.4c0-0.8-0.2-1.7-0.3-2.6c-0.1-0.7,0.1-1.3,0.9-1.4c1-0.2,2-0.5,3-0.6
		c6.4-0.8,12.8-1.7,19.1-2.5c1.4-0.2,2.8-0.4,4.2-0.5c0.9-0.1,1.3,0.4,1.5,1.2c0.2,1,0.3,2,0.4,2.9c0,0.8-0.4,1.5-1.2,1.8
		c-3.7,1.3-5.9,3.9-6.9,7.6c-0.5,2-0.5,4-0.2,6c1.6,12.5,3.2,25,4.9,37.5c0.6,4.2-0.2,8.1-1.9,11.9c-5.7,12.2-19.4,14.9-31.5,16.4
		c-3.7,0.5-7.4,0.7-11.1-0.1c-6.8-1.4-12.6-6.5-15-13c-1.4-3.9-1.6-8-2-12.1c-0.4-3.9-1-7.8-1.5-11.7c-0.6-4.6-1.2-9.3-1.8-13.9
		c-0.4-3-0.7-6-1.1-8.9c-0.2-1.5-0.5-3.1-1.3-4.3c-1.1-1.6-2.3-3.4-4.3-4.2c-1.2-0.5-2.5-0.8-3.8-1.1c-0.7-0.2-1.1-0.5-1.2-1.2
		c-0.1-1-0.3-2.1-0.4-3.1c-0.1-0.9,0.4-1.5,1.3-1.7c0.5-0.1,0.9-0.1,1.4-0.2c11.1-1.5,22.2-2.9,33.3-4.4c1.4-0.2,1.7,0,2,1.4
		c0.2,0.9,0.4,1.9,0.3,2.8c0,0.5-0.5,1.1-0.9,1.5c-0.5,0.4-1.2,0.6-1.9,0.7c-2.2,0.3-3.7,1.6-5,3.2c-1.6,2-2.4,4.4-2.4,6.9
		c0,1.8,0.3,3.5,0.5,5.2c0.9,6.5,1.7,13,2.5,19.5c0.7,5.3,1.5,10.5,2,15.8c0.6,6.1,4.1,12.4,10.9,12.3c2.4,0,4.9-0.1,7.3-0.5
		c2.6-0.4,5.2-1.3,7.7-1.9c3.5-0.9,6.2-3.4,7.6-6.8c1.7-4.2,0.8-8.5,0.2-12.9C1284.1,400.1,1282.3,386.8,1282.3,386.8L1282.3,386.8z
		"/>
	<path clip-path="url(#SVGID_2_)" fill="#FFFFFF" d="M1028.6,383.6c1.5-0.1,2.2,0,2.5,1.5c0.3,1.8,0.5,3.7,0.7,5.5
		c0.4,2.6,0.9,5.2,1.2,7.9c0.3,1.9,0.6,3.8,0.7,5.7c0.2,1.9,0.2,3.8,0.3,5.7c0,0.7-0.4,1.1-1.1,1.3c-0.8,0.2-1.7,0.5-2.5,0.5
		c-0.4,0-1-0.2-1.2-0.5c-1.7-2.8-3.3-5.8-5.1-8.6c-4.2-6.2-10.3-7.9-17.4-8c-1.9,0-3.9,0.1-5.8,0.1c-0.9,0-1.7,0.1-2.6,0.3
		c-0.4,0.1-0.8,0.6-0.9,1c-0.1,0.6,0,1.3,0.1,1.9c0.5,4.3,0.9,8.5,1.4,12.8c0.3,2.8,0.7,5.5,1.1,8.3c0.1,0.9,0.5,1.3,1.4,1.2
		c0.9-0.2,1.9-0.3,2.7-0.7c1.8-0.8,3.7-1.4,4.9-3.3c1.7-2.8,2.5-5.7,2.4-8.9c0-0.4,0.7-1,1.1-1.1c0.8-0.3,1.7-0.3,2.5-0.3
		c0.8,0,1.7,0.7,1.8,1.7c0.2,1.6,0.3,3.3,0.5,4.9c0.4,3,0.9,5.9,1.3,8.9c0.6,4.4,1.2,8.8,1.8,13.2c0.2,1.1,0.4,2.2,0.6,3.4
		c0.2,0.9-0.3,1.5-1.2,1.8c-0.8,0.2-1.5,0.5-2.3,0.7c-0.6,0.1-1.1,0-1.3-0.8c-0.5-1.7-1.2-3.4-2.4-4.8c-1.4-1.7-2.9-3.1-4.9-4.2
		c-1.6-0.8-3.2-1.2-4.9-0.9c-1.6,0.3-2.1,1.1-1.9,2.7c0.9,6.2,1.6,12.4,2.8,18.5c0.7,3.5,2.9,6.1,6.3,7.7c2,1,4.1,1,6.2,0.8
		c1.3-0.1,1.6,0.1,1.9,1.3c0.2,1.1,0.5,1.9,0.5,3c0,0.2-0.3,0.7-0.6,0.8c-0.5,0.2-1.1,0.2-1.6,0.3c-5.6,0.7-11.2,1.5-16.8,2.2
		c-7.3,1-14.6,1.9-22,2.9c-1.9,0.3-1.4-0.8-1.9-2.4c-0.6-2.1,2.2-2.2,3.6-2.6c3.5-1,5.3-3.6,6.5-6.8c0.8-2.2,0.8-4.4,0.5-6.7
		c-0.7-5.3-6.1-44-6.8-47c-1-4.6-4.4-8.2-9-8.7c-1.7-0.2-1.7-0.2-2-1.8c0-0.2-0.1-0.4-0.1-0.7c-0.2-1.2,0.2-1.8,1.4-1.9
		c4.4-0.6,8.8-1.2,13.2-1.8c6.5-0.9,13.1-1.7,19.6-2.6c6.5-0.9,13.1-1.7,19.6-2.6c0,0,0.1,0,0.1,0
		C1025.2,384.1,1026.9,383.8,1028.6,383.6C1028.6,383.6,1028.6,383.6,1028.6,383.6"/>
	<path clip-path="url(#SVGID_2_)" fill="#FFFFFF" d="M1375.3,378.1c-1.1-8.2,0.7-16.5,4.5-23.8c4.4-8.6,12.1-15.4,21.2-18.7
		c7.9-2.9,16.8-3,24.8-0.4c2.1,0.7,5,1.2,5.9-0.8c0.2-0.5,0.2-1.1,0.5-1.6c0.7-1.7,3.1-1.9,5-1.7c0.6,0,1.2,0.1,1.6,0.5
		c0.4,0.4,0.6,1,0.7,1.5c1.7,8.5,3.3,17,5,25.5c0.2,1.2,0.4,2.6-0.3,3.7c-0.9,1.2-2.9,1.1-4.2,0.2c-1.3-0.9-1.9-2.4-2.6-3.8
		c-1.8-3.9-3.7-7.8-6.6-10.9c-6.9-7.3-19.4-8.2-27.3-2.1c-4.7,3.7-7.7,9.3-8.8,15.2c-1.1,5.9-0.6,11.9,0.6,17.8
		c2,9.4,6.6,19.3,15.3,23.3c6.1,2.8,13.6,2.3,19.3-1.2c5.8-3.5,9.7-9.7,10.6-16.3c0.2-1.1,0.4-2.5,1.4-3c0.5-0.2,1.1-0.1,1.7-0.1
		c1.3,0.2,2.6,0.4,3.9,0.6c0.7,0.1,1.4,0.2,1.8,0.8c0.3,0.5,0.3,1.1,0.2,1.7c-1.7,14.7-14.1,27.4-28.7,30
		C1397.2,418.7,1379.2,399.8,1375.3,378.1"/>
	<path clip-path="url(#SVGID_2_)" fill="#FFFFFF" d="M1363.6,355.3c0.9,5.3,1.8,10.6,2.6,15.9c0.2,1.3,0.1,1.3-1.2,1.5
		c-0.3,0-0.6,0.1-0.8,0.2c-2,0.5-2,0.5-3-1.2c-3.2-5.9-6.1-12.9-12.3-16.5c-7.3-4.3-16.8-4.5-23.7,0.8c-8.3,6.3-10,16.7-9.4,26.5
		c0.5,8.4,3.3,16.8,8.2,23.7c5.2,7.3,13.4,10.6,22.2,8.3c2.7-0.7,5.2-2,7.4-3.7c2.3-1.9,3.8-4.5,5.6-6.9c2.3-3,3.4-6.6,4.5-10.1
		c0.5-1.4,0.6-1.5,2-1.2c1.7,0.4,3.4,0.7,5.1,1c1,0.2,1.5,0.7,1.3,1.8c-0.6,2.6-1.3,5.1-2,7.6c-0.7,2.5-1.9,4.9-3.3,7.1
		c-5,7.6-13.2,12.4-22,14c-2.1,0.4-4.3,0.7-6.4,0.7c-3.1,0-6.2-0.1-9.2-0.6c-3.8-0.6-7.4-2-10.9-3.8c-13.3-7.1-20.4-21.6-20.3-36.4
		c0.1-7,1.7-14.1,4.9-20.3c3.3-6.5,8.8-11.5,15.1-15.1c4.9-2.8,10.5-4.5,16.2-4.9c2.9-0.2,5.9,0,8.7,0.6c2.9,0.5,5.5,1.8,8.4,2.5
		c1.8,0.5,3.6-1.2,3.6-3c0-1.4,0-1.3,1.3-1.4c1.2-0.1,2.3-0.2,3.5-0.3c1-0.1,1.6,0.3,1.7,1.3c0.2,1.4,0.6,2.9,0.8,4.3
		C1362.8,350.2,1363.2,352.8,1363.6,355.3C1363.7,355.3,1363.6,355.3,1363.6,355.3"/>
	<path clip-path="url(#SVGID_2_)" fill="#FFFFFF" d="M1456.8,327.3c-4.1,0.5-8.2,1.1-12.3,1.6c-0.8,0.1-1.1,0.5-0.9,1.2
		c0.2,1.3,0.6,2.5,0.7,3.8c0.1,1,0.6,1.5,1.5,1.7c1.1,0.3,2.2,0.6,3.3,0.9c2.9,0.8,5.2,2.5,6.2,5.4c0.8,2.5,1.3,5.2,1.7,7.8
		c1.4,9.6,2.7,19.2,4,28.7c0.5,3.4,0.9,6.8,1.4,10.2c0.4,2.8,0.1,5.5-1.4,8c-1.6,2.6-3.4,4.9-6.5,5.8c-0.2,0-0.4,0.4-0.3,0.5
		c0.1,1.5,0,2.5,0.5,3.9c0.2,0.6,1.9,0,2.3,0c1.2-0.2,2.4-0.3,3.5-0.5c2.3-0.3,4.7-0.6,7-0.9c5.2-0.6,10.3-1.3,15.5-2
		c2.2-0.3,4.3-0.5,6.5-0.9c0.9-0.1,1.6-0.5,1.5-1.5c-0.1-0.6-0.2-1.3-0.2-1.9c0-0.9-0.5-1.4-1.2-1.7c-0.7-0.3-1.4-0.3-2.1-0.5
		c-1.8-0.5-3.2-1.5-4.6-2.7c-1.5-1.3-2.4-2.9-2.7-4.8c-0.5-3.1-1-6.3-1.4-9.4c-0.7-4.6-1.3-9.1-2-13.7c-1.2-8.5-2.5-17-3.7-25.5
		c-0.1-0.4-0.1-0.8,0-1.2c0.3-2.6,1.7-4.7,3.6-6.4c1-0.9,2.2-1.7,3.3-2.5c0.8-0.6,1-1.4,0.8-2.3c-0.1-0.7-0.4-1.4-0.5-2
		c-0.2-1.3-0.7-2-2.1-1.8c-6.5,0.9-13.1,1.7-19.6,2.6C1457.8,327.1,1457.3,327.2,1456.8,327.3"/>
	<path clip-path="url(#SVGID_2_)" fill="#FFFFFF" d="M1048.6,460.5c-1.3,0.2-1.4,0.1-1.5-1.2c-0.1-0.9-0.2-1.8-0.3-2.6
		c-0.1-0.6,0.1-0.9,0.7-1.1c0.8-0.2,1.6-0.5,2.3-0.8c2.7-0.9,4.7-2.8,5.8-5.4c0.5-1.3,0.8-2.9,0.7-4.3c-0.4-4.8-1.1-9.6-1.7-14.4
		c-1.4-10.7-2.7-21.5-4.2-32.2c-0.7-4.8-3.2-8.3-7.6-10.3c-1.2-0.5-2.7-0.5-4-0.5c-0.9,0-1.4-0.3-1.5-1.2c-0.1-0.8-0.2-1.6-0.3-2.5
		c-0.1-1.1-0.1-1.6,1.1-1.8c3.7-0.5,7.4-1,11.2-1.5c2.3-0.3,4.6-0.6,6.9-0.9c5.7-0.8,11.5-1.4,17.2-2.3c0.4-0.1,0.9-0.1,1.3-0.1
		c0.9,0,1.5,0.5,1.5,1.5c0,0.8,0.2,1.6,0.3,2.5c0,0.7-0.1,1.1-0.9,1.4c-1.4,0.5-2.8,1.2-4.1,2c-3.9,2.2-4.5,7.6-4.2,11.5
		c0.5,5.8,1.2,11.5,1.9,17.2c1.2,8.9,2.3,17.9,3.5,26.8c0.5,3.6,2.7,8.3,6.8,8.9c1.1,0.2,2.2,0.2,3.3,0.2c1.3,0,1.9,0.3,2.3,1.6
		c0.3,0.9,0.6,1.9,0.8,2.9c0.2,0.9-0.4,1.5-1.3,1.7c-6.1,0.8-12.1,1.6-18.2,2.4C1066.4,458.3,1054.6,459.8,1048.6,460.5"/>
	<path clip-path="url(#SVGID_2_)" fill="#FFFFFF" d="M5207.9,3408.8c0.3,0,0.6,0,0.9,0.1c7.5,1.2,13.2,2.3,22.3,3.9
		c1.8,0.3,2.1,1.9,2.6,3.4c0.7,2,1.4,3.9,2,5.9c1.6,5,3,10.1,4.4,15.2c0.8,3,1.8,6,3.3,8.7c1.4,2.5,3.5,3.9,6.4,4.4
		c0.9,0.1,1.8,0.3,2.8,0.5c0.3-1.5,0.5-3,0.8-4.5c0.8-4.2,1.4-8.4,2.3-12.5c0.6-2.7-0.2-4.9-1.6-7c-1.4-2.1-3.3-3.6-5.9-4.2
		c-1-0.2-1.4-0.8-1.3-1.8c0.2-1.3,0.4-2.9,0.7-4.1c0.2-0.7,0.8-0.9,1.6-0.8c8.4,1.5,12.9,2.3,19.4,3.4c3.2,0.6,6.5,1.1,9.8,1.7
		c1.7,0.3,3.3,0.5,5,0.9c0.5,0.1,1,0.4,1.1,1c0.1,0.4,0,0.9-0.1,1.3c0,0,0,0.1,0,0.1c-0.3,0.9-0.5,1.9-0.7,2.8
		c-0.1,0.6-0.4,0.7-0.9,0.8c-3,0.4-5.8,1.7-7.8,4.1c-1,1.2-1.9,2.6-2.3,4c-0.3,1-0.5,2.1-0.7,3.2c-0.2,1-0.4,2.1-0.5,3.1
		c-0.3,2.2-0.8,4.4-1.2,6.6c-0.8,4.4-1.5,8.8-2.3,13.2c-0.8,4.4-1.5,8.8-2.3,13.2c-0.4,2.2-0.8,4.5-1.1,6.7
		c-0.6,3.8,0.1,7.5,2.9,10.4c0.9,0.9,2.1,1.6,3.3,2.2c0.5,0.3,0.7,0.5,0.6,1c-0.2,1-0.3,1.9-0.5,2.9c-0.2,1-0.6,1.3-1.6,1.2
		c-11-1.9-21.9-3.8-32.9-5.8c-7.4-1.4-14.9-3.6-19.4-10.1c-2.1-3.1-3.5-6.4-3.9-10.1c-0.3-3.3,0-6.5,1.2-9.6c1.3-3.4,3.3-6.3,6-8.7
		c1.3-1.2,3-2,4.5-3c0.1-0.1,0.2-0.1,0.3-0.1c1.6-0.8,1.7-1.2,0.4-2.4c-2.5-2.1-3.5-5-4.3-8c-0.9-3.8-2.1-7.6-2.9-11.4
		c-0.9-4.1-2.8-7.8-5.3-11.1c-1.4-1.7-3.1-3.2-4.5-4.9c-0.4-0.5-0.8-1.1-0.8-1.7C5207.4,3411.5,5207.7,3410,5207.9,3408.8
		 M5247.8,3459.9C5247.8,3459.9,5247.8,3459.8,5247.8,3459.9c-1.2-0.2-2.5-0.4-3.7-0.4c-1.6,0.1-3.2,0.2-4.6,0.8
		c-1.9,0.8-3.5,2.2-4.8,3.8c-2.4,3.2-3.1,6.9-2.3,10.8c0.8,3.9,3,6.8,6.7,8.5c1.9,0.9,3.9,1.4,5.9,2c0.7,0.3,1.3-0.2,1.4-1
		c0.7-4.4,1.5-8.8,2.3-13.2c0.6-3,1.2-6,2-9c0.1-0.4,0.2-0.8,0.1-1.2C5250.6,3459.9,5248.8,3460.1,5247.8,3459.9"/>
	<path clip-path="url(#SVGID_2_)" fill="#FFFFFF" d="M5306.5,3506.2c-17.6-2.7-31.1-20.1-32-37.4c-0.8-15.3,8-30.7,21.6-37.8
		c13.6-7.1,31.2-5.7,43.4,3.6c12.2,9.3,18.3,25.9,15,40.9c-2.1,9.3-7.7,17.7-15.3,23.5c-8.6,6.6-18.6,8.6-29.3,7.6
		c-0.8-0.1-1.5-0.1-2.3-0.2C5307.3,3506.3,5307.4,3506.4,5306.5,3506.2 M5336.8,3469.3c0.8-5.3,0.7-11-0.5-16.2
		c-1.3-5.6-4.3-11.1-9.3-14.3c-4.5-2.8-10.2-3.6-15.2-2c-4,1.3-7.5,3.9-10.1,7.1c-2.7,3.2-4.6,7-6.1,10.9c-4.2,10.7-5,24.8,1.5,34.9
		c4.8,7.5,14.2,10.3,22.4,6.7C5329.3,3492.2,5335.5,3479.6,5336.8,3469.3"/>
	<path clip-path="url(#SVGID_2_)" fill="#FFFFFF" d="M5149.8,3441.7c-1.2,6.7-2.4,13.4-3.6,20.1c-0.4,2.2,0.1,4.3,0.9,6.4
		c1,2.4,2.9,4,5.2,5.1c0.8,0.4,1.1,0.8,0.8,1.7c-0.3,0.8-0.3,1.7-0.5,2.5c-0.1,0.7-0.5,1.2-1.2,1.1c-1-0.1-2-0.2-3-0.3
		c-6.3-1.1-12.7-2.2-19-3.4c-1.4-0.2-2.8-0.5-4.1-0.7c-0.8-0.2-1.2-0.7-1-1.5c0.1-1,0.3-2,0.5-2.9c0.2-0.8,0.8-1.3,1.7-1.3
		c3.9-0.1,6.8-1.9,8.9-5.2c1.1-1.7,1.7-3.7,2-5.7c2.2-12.4,4.4-24.8,6.6-37.2c0.7-4.2,2.6-7.7,5.4-10.8c9.1-9.9,23-8.4,34.9-6.2
		c3.6,0.7,7.3,1.6,10.6,3.4c6.1,3.3,10.1,10,10.4,17c0.2,4.1-0.9,8.1-1.7,12.1c-0.8,3.8-1.4,7.7-2.1,11.6c-0.8,4.6-1.7,9.2-2.5,13.8
		c-0.5,2.9-1.2,5.9-1.6,8.8c-0.2,1.5-0.4,3.1,0,4.5c0.6,1.9,1.2,3.9,2.9,5.3c1,0.8,2.2,1.5,3.3,2.2c0.6,0.4,0.9,0.8,0.8,1.5
		c-0.2,1-0.4,2.1-0.5,3.1c-0.2,0.9-0.8,1.4-1.7,1.3c-0.5-0.1-0.9-0.1-1.4-0.2c-11-1.9-22.1-3.9-33.1-5.8c-1.4-0.2-1.6-0.6-1.5-1.9
		c0.1-0.9,0.2-1.9,0.6-2.8c0.2-0.5,0.8-0.9,1.3-1.1c0.6-0.2,1.3-0.2,2-0.1c2.2,0.4,4-0.5,5.7-1.6c2.1-1.4,3.6-3.5,4.4-5.9
		c0.5-1.7,0.7-3.4,1.1-5.2c1.1-6.5,2.3-12.9,3.5-19.4c0.9-5.2,1.8-10.5,2.8-15.7c1.2-6-0.2-13-6.7-15.1c-2.3-0.7-4.7-1.4-7.1-1.7
		c-2.6-0.4-5.3-0.3-8-0.5c-3.6-0.2-6.9,1.4-9.3,4.2c-2.9,3.5-3.3,7.9-4,12.2C5152,3428.5,5149.7,3441.7,5149.8,3441.7L5149.8,3441.7
		z"/>
	<path clip-path="url(#SVGID_2_)" fill="#FFFFFF" d="M5390.7,1287.4c-1.5-0.3-2.1-0.7-1.9-2.2c0.3-1.8,0.6-3.6,0.9-5.5
		c0.4-2.6,0.8-5.3,1.2-7.9c0.3-1.9,0.6-3.8,1-5.6c0.4-1.9,1-3.7,1.5-5.5c0.2-0.7,0.7-1,1.4-0.9c0.9,0.1,1.7,0.1,2.5,0.3
		c0.4,0.1,0.9,0.5,1,0.8c0.8,3.2,1.4,6.5,2.3,9.7c2.1,7.2,7.5,10.7,14.2,12.8c1.9,0.6,3.7,1.1,5.6,1.6c0.8,0.2,1.7,0.5,2.5,0.5
		c0.4,0,1-0.4,1.2-0.7c0.3-0.5,0.3-1.2,0.5-1.8c0.8-4.2,1.7-8.4,2.5-12.6c0.5-2.7,1-5.5,1.5-8.3c0.2-0.9-0.1-1.4-0.9-1.5
		c-0.9-0.1-1.9-0.3-2.8-0.2c-2,0.2-4,0.3-5.6,1.7c-2.4,2.1-4.1,4.7-5,7.8c-0.1,0.4-0.9,0.7-1.4,0.7c-0.8,0-1.7-0.3-2.5-0.5
		c-0.8-0.2-1.4-1.2-1.2-2.2c0.3-1.6,0.7-3.2,1-4.9c0.5-2.9,1-5.9,1.5-8.8c0.7-4.4,1.5-8.7,2.2-13.1c0.2-1.1,0.3-2.3,0.4-3.4
		c0.1-0.9,0.8-1.4,1.7-1.3c0.8,0,1.6,0,2.4,0.1c0.6,0.1,1,0.4,1,1.1c0,1.8,0.2,3.6,0.9,5.3c0.8,2,1.9,3.9,3.4,5.5
		c1.2,1.3,2.7,2.1,4.4,2.3c1.6,0.2,2.4-0.4,2.6-2c1-6.2,2.2-12.3,2.9-18.5c0.4-3.5-1-6.7-3.7-9.2c-1.6-1.5-3.6-2.2-5.7-2.6
		c-1.2-0.3-1.5-0.5-1.4-1.8c0.1-1.1,0.1-2,0.4-3c0.1-0.2,0.5-0.5,0.8-0.5c0.5,0,1.1,0.1,1.6,0.2c5.6,1,11.1,1.9,16.7,2.9
		c7.3,1.3,14.5,2.6,21.8,3.8c1.9,0.3,1.1,1.2,1.1,2.9c0,2.1-2.7,1.4-4.2,1.4c-3.6-0.1-6.1,1.8-8.2,4.5c-1.4,1.8-2.1,4-2.5,6.2
		c-0.9,5.3-7.4,43.8-7.7,46.8c-0.4,4.7,1.7,9.1,6,11c1.5,0.7,1.5,0.7,1.4,2.4c0,0.2,0,0.4-0.1,0.7c-0.1,1.2-0.7,1.6-1.9,1.4
		c-4.4-0.8-8.7-1.5-13.1-2.3c-6.5-1.1-13-2.3-19.5-3.4c-6.5-1.1-13-2.3-19.5-3.4c0,0-0.1,0-0.1,0
		C5394.1,1288,5392.5,1287.7,5390.7,1287.4C5390.8,1287.4,5390.7,1287.4,5390.7,1287.4"/>
	<path clip-path="url(#SVGID_2_)" fill="#FFFFFF" d="M5058.4,3422c-1.4,8.2-5.6,15.5-11.4,21.4c-6.8,6.9-16.1,11.1-25.8,11.5
		c-8.4,0.4-16.9-2.2-23.8-7c-1.8-1.3-4.4-2.6-5.9-1c-0.4,0.4-0.6,1-0.9,1.4c-1.2,1.4-3.5,0.8-5.3,0.1c-0.5-0.2-1.1-0.5-1.4-1
		c-0.3-0.5-0.2-1.1-0.2-1.7c1-8.6,1.9-17.2,2.9-25.8c0.1-1.3,0.4-2.7,1.4-3.4c1.3-0.9,3.1-0.2,4,1c0.9,1.2,1.1,2.8,1.4,4.4
		c0.6,4.2,1.2,8.5,3,12.4c4.4,9,16,13.7,25.4,10.2c5.6-2.1,10.1-6.6,12.9-11.8c2.9-5.2,4.2-11.2,4.8-17.1c0.9-9.6-0.5-20.3-7.6-26.9
		c-5-4.5-12.2-6.3-18.8-4.7c-6.5,1.6-12.1,6.3-15,12.4c-0.5,1-1.1,2.3-2.3,2.4c-0.6,0.1-1.1-0.2-1.6-0.4c-1.2-0.6-2.4-1.1-3.5-1.7
		c-0.6-0.3-1.3-0.7-1.5-1.3c-0.2-0.6,0.1-1.2,0.3-1.7c6-13.5,21.7-21.9,36.4-19.9C5049.7,3376.8,5061.2,3400.2,5058.4,3422"/>
	<path clip-path="url(#SVGID_2_)" fill="#FFFFFF" d="M5062.7,3447.3c0.8-5.3,1.5-10.7,2.3-16c0.2-1.3,0.3-1.3,1.6-1.1
		c0.3,0,0.6,0.1,0.9,0.1c2,0.1,2.1,0.1,2.5,2.1c1.3,6.6,2,14.1,6.8,19.4c5.7,6.3,14.7,9.3,22.8,6.4c9.8-3.5,14.6-12.9,16.9-22.4
		c2-8.2,1.9-17-0.7-25.1c-2.8-8.5-9.6-14.1-18.7-14.5c-2.8-0.1-5.6,0.3-8.1,1.3c-2.8,1.1-5,3.2-7.4,4.9c-3.1,2.2-5.2,5.3-7.3,8.3
		c-0.9,1.2-1,1.2-2.3,0.5c-1.5-0.9-3-1.7-4.6-2.5c-0.9-0.5-1.3-1.1-0.7-2.1c1.4-2.3,2.8-4.5,4.2-6.7c1.4-2.2,3.2-4.1,5.3-5.8
		c7-5.7,16.3-7.9,25.2-6.7c2.1,0.3,4.3,0.6,6.3,1.3c2.9,0.9,5.9,2,8.6,3.4c3.5,1.7,6.5,4.1,9.3,6.9c10.5,10.8,13,26.7,8.4,40.8
		c-2.2,6.6-5.9,12.9-10.8,17.8c-5.1,5.1-11.9,8.3-18.9,9.9c-5.5,1.2-11.4,1.1-16.9-0.3c-2.8-0.7-5.6-1.8-8.2-3.2
		c-2.6-1.4-4.8-3.4-7.3-4.9c-1.6-1-3.8,0-4.3,1.8c-0.4,1.3-0.4,1.3-1.7,1c-1.1-0.3-2.3-0.5-3.4-0.8c-0.9-0.2-1.4-0.7-1.3-1.8
		c0.2-1.4,0.3-2.9,0.5-4.3C5061.9,3452.4,5062.3,3449.9,5062.7,3447.3C5062.7,3447.3,5062.7,3447.3,5062.7,3447.3"/>
	<path clip-path="url(#SVGID_2_)" fill="#FFFFFF" d="M4965.4,3446c4.1,0.7,8.2,1.4,12.2,2.1c0.8,0.1,1.2-0.2,1.2-0.9
		c0.1-1.3,0.2-2.6,0.5-3.9c0.2-1-0.2-1.6-0.9-2.1c-1-0.6-1.9-1.2-2.9-1.8c-2.5-1.6-4.2-4-4.3-7c-0.1-2.6,0.3-5.3,0.7-7.9
		c1.6-9.5,3.2-19.1,4.9-28.6c0.6-3.4,1.2-6.8,1.8-10.2c0.5-2.8,1.6-5.3,3.8-7.2c2.3-2,4.7-3.6,8-3.5c0.2,0,0.5-0.2,0.5-0.4
		c0.3-1.4,0.8-2.4,0.7-3.8c0-0.6-1.8-0.6-2.2-0.7c-1.2-0.2-2.4-0.4-3.5-0.6c-2.3-0.4-4.6-0.9-7-1.3c-5.1-0.9-10.2-1.9-15.4-2.7
		c-2.2-0.4-4.3-0.8-6.5-1.1c-1-0.2-1.7,0-1.8,1c-0.1,0.6-0.2,1.3-0.4,1.9c-0.2,0.8,0.1,1.5,0.7,2c0.5,0.4,1.2,0.7,1.8,1.1
		c1.5,1,2.6,2.4,3.6,4c1,1.7,1.4,3.5,1.2,5.4c-0.4,3.2-1,6.3-1.5,9.4c-0.7,4.6-1.5,9.1-2.2,13.7c-1.4,8.5-2.8,17-4.1,25.5
		c-0.1,0.4-0.2,0.8-0.4,1.2c-1.1,2.4-3,4-5.3,5c-1.3,0.6-2.6,1-3.9,1.4c-1,0.3-1.4,1-1.5,1.9c-0.1,0.7-0.1,1.4-0.2,2.1
		c-0.2,1.3,0.1,2.1,1.5,2.3c6.5,1.1,13,2.3,19.5,3.5C4964.4,3445.9,4964.9,3446,4965.4,3446"/>
	<path clip-path="url(#SVGID_2_)" fill="#FFFFFF" d="M5394.8,3441.7c1.2,0.2,1.3,0.3,1.1,1.6c-0.2,0.9-0.3,1.7-0.5,2.6
		c-0.1,0.6-0.4,0.8-0.9,0.8c-0.8,0-1.6,0-2.5,0c-2.9,0.1-5.3,1.3-7.1,3.4c-0.9,1.1-1.6,2.5-1.9,3.9c-1,4.7-1.9,9.5-2.7,14.2
		c-1.9,10.6-3.9,21.3-5.7,31.9c-0.8,4.8,0.5,8.9,4.2,12.1c1,0.9,2.4,1.3,3.7,1.7c0.9,0.3,1.2,0.7,1,1.6c-0.2,0.8-0.3,1.6-0.4,2.4
		c-0.2,1.1-0.4,1.6-1.6,1.4c-3.7-0.6-7.4-1.3-11.1-1.9c-2.3-0.4-4.6-0.8-6.9-1.2c-5.7-0.9-11.4-2.1-17.1-3c-0.4-0.1-0.9-0.2-1.3-0.3
		c-0.9-0.3-1.2-0.9-1-1.9c0.2-0.8,0.3-1.6,0.5-2.4c0.2-0.7,0.5-1,1.3-1.1c1.5-0.1,3-0.4,4.5-0.7c4.3-0.9,6.6-5.9,7.5-9.7
		c1.3-5.6,2.3-11.3,3.4-17c1.6-8.9,3.1-17.7,4.7-26.6c0.7-3.6-0.1-8.7-3.8-10.5c-1-0.5-2.1-0.8-3.1-1.2c-1.3-0.4-1.7-0.9-1.7-2.3
		c0-1,0-2,0.1-3c0.1-0.9,0.9-1.3,1.7-1.2c6,1.1,12,2.1,18.1,3.2C5377.1,3438.5,5388.9,3440.6,5394.8,3441.7"/>
	<path clip-path="url(#SVGID_2_)" fill="#FFFFFF" d="M4115.4,2712.4c-0.2,0.2-0.4,0.4-0.7,0.6c-6.1,4.5-10.8,7.9-18.3,13.4
		c-1.5,1.1-2.8,0.2-4.2-0.5c-1.9-0.8-3.8-1.7-5.6-2.6c-4.7-2.4-9.4-4.9-14-7.4c-2.7-1.5-5.5-2.9-8.6-3.6c-2.7-0.7-5.3-0.2-7.6,1.5
		c-0.7,0.5-1.5,1.1-2.3,1.7c0.9,1.3,1.8,2.5,2.7,3.7c2.5,3.4,5,6.8,7.4,10.3c1.5,2.3,3.7,3.2,6.2,3.7c2.5,0.5,4.9,0.1,7.1-1.3
		c0.8-0.5,1.6-0.5,2.2,0.3c0.8,1,1.8,2.3,2.5,3.4c0.4,0.6,0.1,1.2-0.5,1.7c-6.9,5-10.6,7.7-15.9,11.6c-2.7,1.9-5.3,3.9-8,5.8
		c-1.4,1-2.7,2-4.1,3c-0.4,0.3-1,0.4-1.4,0.1c-0.4-0.2-0.6-0.6-0.8-1c0,0,0,0,0-0.1c-0.5-0.8-1-1.7-1.5-2.5c-0.3-0.5-0.3-0.8,0-1.2
		c1.8-2.4,2.8-5.4,2.5-8.4c-0.2-1.5-0.6-3.1-1.3-4.5c-0.5-0.9-1.2-1.8-1.8-2.7c-0.6-0.8-1.2-1.7-1.9-2.6c-1.4-1.7-2.6-3.6-3.9-5.4
		c-2.6-3.6-5.2-7.2-7.8-10.8s-5.2-7.2-7.9-10.8c-1.3-1.8-2.7-3.7-4-5.5c-2.3-3.1-5.4-5.1-9.4-5.2c-1.3,0-2.6,0.4-3.9,0.8
		c-0.5,0.2-0.8,0.1-1.1-0.3c-0.6-0.8-1.2-1.6-1.8-2.4c-0.6-0.9-0.5-1.4,0.3-1.9c9-6.5,18-13.1,27.1-19.6c6.1-4.4,12.9-8.2,20.7-6.9
		c3.7,0.6,7,1.9,10,4.2c2.6,2,4.7,4.5,6.1,7.6c1.6,3.3,2.2,6.8,2.1,10.3c0,1.8-0.6,3.5-1,5.3c0,0.1-0.1,0.2-0.1,0.3
		c-0.6,1.7-0.3,2.1,1.4,1.9c3.2-0.3,6,0.9,8.7,2.5c3.4,2,6.9,3.8,10.2,5.9c3.6,2.2,7.5,3.4,11.7,3.8c2.2,0.2,4.4,0,6.6,0.1
		c0.6,0,1.4,0.2,1.8,0.6C4113.8,2710.1,4114.7,2711.4,4115.4,2712.4 M4050.9,2705.6C4050.9,2705.6,4050.9,2705.6,4050.9,2705.6
		c1-0.8,2-1.5,2.8-2.4c1-1.2,2.1-2.5,2.6-3.9c0.7-1.9,0.9-4,0.5-6.1c-0.6-4-2.8-7-6.2-9.1c-3.4-2.1-7-2.5-10.7-1.1
		c-1.9,0.8-3.7,1.9-5.6,2.8c-0.7,0.4-0.7,1-0.3,1.7c2.7,3.5,5.3,7.2,7.9,10.8c1.7,2.5,3.4,5,5.1,7.6c0.2,0.3,0.4,0.7,0.8,0.9
		C4049,2707.6,4050.1,2706.2,4050.9,2705.6"/>
	<path clip-path="url(#SVGID_2_)" fill="#FFFFFF" d="M3976.8,2715.6c14.2-10.8,36-8.4,49.1,3c11.5,10.1,16.5,27.1,12.2,41.8
		c-4.3,14.7-17.6,26.4-32.8,28.7c-15.2,2.3-31.4-4.9-39.8-17.6c-5.3-8-7.4-17.8-6.3-27.3c1.2-10.8,6.7-19.4,14.9-26.4
		c0.6-0.5,1.2-1,1.7-1.5C3976.2,2716.1,3976.1,2716.2,3976.8,2715.6 M3982.4,2763c3.2,4.3,7.4,8.1,12,10.9c5,3,11,4.7,16.7,3.2
		c5.1-1.3,9.7-4.8,12-9.6c1.9-3.7,2.4-8.1,1.9-12.3c-0.5-4.2-1.9-8.2-3.6-12c-4.8-10.4-14.4-20.8-26.1-23.2
		c-8.8-1.7-17.2,3.1-20.4,11.4C3971.1,2741.8,3975.9,2755,3982.4,2763"/>
	<path clip-path="url(#SVGID_2_)" fill="#FFFFFF" d="M4132.1,2647.7c-4-5.5-8-11-12-16.5c-1.3-1.8-3.2-3-5.2-3.8
		c-2.4-0.9-4.8-0.7-7.2,0.2c-0.8,0.3-1.3,0.3-1.8-0.6c-0.4-0.8-1-1.4-1.5-2.1c-0.5-0.6-0.5-1.2,0.1-1.7c0.8-0.7,1.5-1.3,2.3-1.9
		c5.2-3.8,10.4-7.6,15.6-11.3c1.1-0.8,2.3-1.7,3.4-2.5c0.7-0.5,1.3-0.3,1.8,0.3c0.6,0.8,1.2,1.6,1.7,2.4c0.4,0.7,0.4,1.5-0.2,2.1
		c-2.7,2.9-3.3,6.2-2.5,10c0.5,2,1.5,3.8,2.7,5.4c7.4,10.2,14.8,20.4,22.2,30.6c2.5,3.4,3.7,7.2,4,11.4c0.8,13.4-10,22.4-19.8,29.5
		c-3,2.2-6.2,4.1-9.8,5.2c-6.6,2.1-14.2,0.3-19.4-4.3c-3.1-2.7-5.2-6.3-7.5-9.7c-2.2-3.2-4.6-6.3-6.9-9.5c-2.7-3.8-5.5-7.6-8.2-11.4
		c-1.7-2.4-3.4-4.9-5.3-7.3c-0.9-1.2-1.9-2.5-3.2-3.1c-1.8-0.9-3.7-1.9-5.8-1.6c-1.3,0.2-2.6,0.5-3.9,0.9c-0.7,0.2-1.2,0.1-1.6-0.5
		c-0.6-0.8-1.2-1.7-1.9-2.5c-0.5-0.7-0.4-1.5,0.3-2.1c0.4-0.3,0.8-0.6,1.1-0.9c9.1-6.6,18.1-13.2,27.2-19.8c1.1-0.8,1.5-0.8,2.4,0.3
		c0.6,0.7,1.2,1.5,1.6,2.4c0.2,0.5,0.1,1.2-0.1,1.7c-0.3,0.6-0.8,1.1-1.3,1.5c-1.8,1.3-2.4,3.2-2.8,5.2c-0.5,2.5,0,5,1.2,7.2
		c0.8,1.5,2,2.9,3,4.4c3.9,5.3,7.7,10.6,11.5,15.9c3.1,4.3,6.3,8.6,9.3,12.9c3.5,5.1,9.5,8.9,15.5,5.6c2.1-1.2,4.3-2.4,6.2-3.9
		c2.1-1.6,3.9-3.6,5.9-5.4c2.6-2.5,3.8-6,3.4-9.6c-0.5-4.5-3.4-7.9-6-11.4C4140,2658.4,4132.2,2647.6,4132.1,2647.7L4132.1,2647.7z"
		/>
	<path clip-path="url(#SVGID_2_)" fill="#FFFFFF" d="M3907.6,2765.9c1.3-0.8,2-1.1,2.9,0.1c1.1,1.5,2.2,3,3.3,4.5
		c1.6,2.1,3.2,4.2,4.9,6.3c1.1,1.5,2.3,3,3.4,4.6c1.1,1.6,2,3.2,2.9,4.9c0.4,0.6,0.2,1.2-0.3,1.6c-0.6,0.6-1.3,1.2-2,1.7
		c-0.3,0.2-1,0.3-1.3,0.1c-2.9-1.7-5.6-3.5-8.6-5.1c-6.6-3.4-12.9-2-19.1,1.3c-1.7,0.9-3.4,1.9-5.1,2.9c-0.7,0.4-1.5,0.9-2.1,1.5
		c-0.3,0.3-0.4,0.9-0.3,1.3c0.2,0.6,0.6,1.1,1,1.6c2.4,3.5,4.9,7.1,7.4,10.6c1.6,2.3,3.3,4.5,4.9,6.8c0.5,0.7,1.1,0.9,1.7,0.4
		c0.7-0.6,1.5-1.2,2.1-1.9c1.2-1.6,2.6-3.1,2.7-5.2c0.2-3.2-0.5-6.2-2.2-9c-0.2-0.3,0.1-1.2,0.4-1.5c0.6-0.6,1.3-1,2.1-1.5
		c0.7-0.4,1.8-0.1,2.4,0.6c1,1.3,1.8,2.7,2.8,4.1c1.8,2.4,3.6,4.8,5.4,7.2c2.6,3.6,5.2,7.1,7.9,10.7c0.7,0.9,1.4,1.8,2.1,2.7
		c0.6,0.8,0.5,1.5-0.2,2.1c-0.6,0.6-1.1,1.1-1.7,1.7c-0.5,0.4-0.9,0.5-1.5-0.1c-1.3-1.3-2.7-2.4-4.4-3c-2-0.8-4.1-1.4-6.3-1.4
		c-1.8,0-3.4,0.5-4.8,1.6c-1.3,1-1.3,2-0.4,3.3c3.7,5,7.3,10.1,11.3,14.9c2.3,2.8,5.5,4,9.2,3.8c2.2-0.1,4.1-1.1,5.8-2.3
		c1-0.7,1.5-0.7,2.3,0.3c0.7,0.8,1.3,1.5,1.9,2.4c0.1,0.2,0,0.7-0.2,0.9c-0.4,0.4-0.8,0.7-1.3,1c-4.6,3.3-9.1,6.6-13.7,9.9
		c-6,4.3-11.9,8.7-17.9,13c-1.6,1.1-1.6,0-2.8-1.2c-1.5-1.5,0.9-3,1.9-4c2.6-2.5,3-5.7,2.5-9.1c-0.3-2.3-1.4-4.3-2.8-6.1
		c-3.1-4.3-26.3-35.7-28.3-38.1c-3.1-3.6-7.8-5.1-12.1-3.3c-1.6,0.6-1.5,0.6-2.6-0.6c-0.1-0.2-0.3-0.3-0.4-0.5
		c-0.8-0.9-0.7-1.6,0.3-2.4c3.6-2.6,7.2-5.2,10.7-7.9c5.3-3.9,10.7-7.8,16-11.7c5.3-3.9,10.7-7.7,16-11.6c0,0,0.1,0,0.1-0.1
		C3904.8,2767.9,3906.2,2766.9,3907.6,2765.9C3907.6,2765.9,3907.6,2765.9,3907.6,2765.9"/>
	<path clip-path="url(#SVGID_2_)" fill="#FFFFFF" d="M4209.7,2595.6c-4.9-6.7-7.3-14.8-7.4-23.1c-0.2-9.7,3.2-19.3,9.7-26.5
		c5.6-6.3,13.3-10.7,21.6-12.2c2.2-0.4,5-1.4,4.8-3.5c0-0.5-0.3-1.1-0.4-1.6c-0.2-1.9,1.8-3.1,3.6-3.9c0.5-0.2,1.1-0.5,1.6-0.3
		c0.6,0.1,1,0.6,1.3,1c5.5,6.7,11,13.3,16.5,20c0.8,1,1.7,2.1,1.5,3.4c-0.2,1.5-2,2.4-3.5,2.2c-1.5-0.2-2.8-1.1-4.1-2.1
		c-3.4-2.5-7-5.1-11-6.4c-9.5-3.1-20.9,2-25,11.2c-2.4,5.5-2.3,11.8-0.5,17.5c1.8,5.7,5.2,10.8,9,15.3c6.3,7.3,15,13.8,24.6,13.2
		c6.7-0.4,13-4.4,16.4-10.2c3.4-5.8,3.9-13.1,1.5-19.4c-0.4-1.1-0.9-2.4-0.2-3.3c0.4-0.5,0.9-0.7,1.5-0.9c1.2-0.4,2.4-0.9,3.7-1.4
		c0.6-0.2,1.4-0.5,2-0.2c0.5,0.3,0.8,0.8,1,1.4c5.6,13.8,0.7,30.8-10.9,40C4248.3,2620.8,4223.5,2612.8,4209.7,2595.6"/>
	<path clip-path="url(#SVGID_2_)" fill="#FFFFFF" d="M4188.6,2581.2c3.3,4.2,6.6,8.5,9.9,12.7c0.8,1,0.7,1.1-0.3,1.9
		c-0.2,0.2-0.4,0.4-0.6,0.6c-1.5,1.4-1.5,1.4-3.2,0.3c-5.6-3.7-11.5-8.4-18.7-8.6c-8.5-0.3-16.9,4.1-20.4,12
		c-4.3,9.5-0.9,19.4,4.4,27.7c4.5,7.2,10.9,13.2,18.6,16.9c8.1,3.9,16.8,2.9,23.4-3.3c2-1.9,3.7-4.2,4.7-6.8
		c1.1-2.8,1.2-5.8,1.6-8.7c0.5-3.7-0.2-7.4-0.9-11c-0.3-1.5-0.2-1.6,1.2-2c1.7-0.5,3.3-1,5-1.6c1-0.4,1.7-0.1,2,1
		c0.7,2.5,1.3,5.1,1.9,7.7c0.6,2.6,0.7,5.2,0.5,7.8c-0.7,9-5.7,17.2-12.7,22.8c-1.7,1.3-3.4,2.7-5.3,3.7c-2.7,1.5-5.5,2.9-8.4,3.9
		c-3.7,1.3-7.5,1.8-11.4,1.9c-15,0.1-28.3-9.2-35.2-22.3c-3.3-6.2-5.2-13.2-5.3-20.1c-0.2-7.3,2.3-14.3,6-20.5
		c2.9-4.8,7.1-9,11.9-12c2.5-1.5,5.2-2.8,7.9-3.7c2.8-0.9,5.7-1.1,8.6-1.8c1.8-0.5,2.6-2.8,1.7-4.4c-0.7-1.2-0.7-1.2,0.5-1.9
		c1-0.6,2-1.3,2.9-2c0.8-0.5,1.5-0.5,2.2,0.3c0.9,1.2,1.9,2.2,2.8,3.4C4185.4,2577.1,4187,2579.1,4188.6,2581.2
		C4188.6,2581.2,4188.6,2581.2,4188.6,2581.2"/>
	<path clip-path="url(#SVGID_2_)" fill="#FFFFFF" d="M4257.1,2512c-3.3,2.4-6.7,4.9-10,7.3c-0.6,0.4-0.7,0.9-0.2,1.5
		c0.8,1,1.7,2,2.4,3c0.6,0.8,1.3,1,2.2,0.8c1.1-0.3,2.2-0.5,3.3-0.8c2.9-0.7,5.8-0.3,8,1.8c1.9,1.8,3.6,3.9,5.2,6.1
		c5.8,7.8,11.5,15.6,17.2,23.4c2,2.8,4,5.6,6.1,8.3c1.7,2.3,2.7,4.8,2.6,7.7c-0.1,3-0.7,5.9-3,8.2c-0.1,0.1-0.1,0.5,0,0.6
		c0.8,1.2,1.2,2.2,2.3,3.2c0.5,0.4,1.7-0.9,2-1.2c1-0.7,1.9-1.4,2.9-2.1c1.9-1.4,3.8-2.7,5.8-4.1c4.2-3,8.5-6.1,12.6-9.2
		c1.8-1.3,3.5-2.5,5.3-3.9c0.8-0.6,1.1-1.2,0.6-2c-0.4-0.5-0.8-1-1.1-1.6c-0.4-0.8-1.1-1-1.9-0.9c-0.7,0.1-1.4,0.4-2,0.5
		c-1.8,0.4-3.6,0.2-5.4-0.2c-2-0.4-3.5-1.4-4.7-3c-2-2.5-3.9-5.1-5.8-7.6c-2.8-3.7-5.5-7.4-8.3-11.1c-5.1-6.9-10.3-13.8-15.4-20.7
		c-0.2-0.3-0.4-0.7-0.6-1.1c-1-2.5-0.8-4.9,0.1-7.3c0.5-1.3,1.1-2.5,1.7-3.8c0.4-0.9,0.2-1.7-0.4-2.4c-0.4-0.5-1-1-1.4-1.6
		c-0.8-1.1-1.6-1.4-2.7-0.6c-5.3,3.9-10.7,7.7-16,11.6C4257.9,2511.5,4257.5,2511.8,4257.1,2512"/>
	<path clip-path="url(#SVGID_2_)" fill="#FFFFFF" d="M3961.9,2823.9c-1,0.7-1.2,0.7-1.9-0.3c-0.5-0.7-1-1.5-1.6-2.2
		c-0.4-0.5-0.4-0.8,0.1-1.2c0.6-0.6,1.1-1.2,1.7-1.8c2-2.1,2.8-4.7,2.5-7.5c-0.2-1.4-0.7-2.9-1.5-4.1c-2.7-4-5.5-7.9-8.4-11.8
		c-6.3-8.8-12.6-17.6-19-26.3c-2.9-3.9-6.8-5.8-11.6-5.4c-1.3,0.1-2.6,0.8-3.8,1.5c-0.8,0.4-1.3,0.4-1.8-0.4c-0.5-0.7-1-1.3-1.5-2
		c-0.6-0.9-0.8-1.4,0.1-2.1c3-2.2,6.1-4.4,9.1-6.7c1.9-1.4,3.8-2.7,5.6-4.1c4.6-3.4,9.5-6.8,14.1-10.2c0.4-0.3,0.7-0.5,1.1-0.7
		c0.8-0.4,1.5-0.3,2,0.6c0.4,0.7,1,1.3,1.4,2c0.4,0.6,0.4,1.1-0.1,1.7c-1,1.2-1.8,2.4-2.6,3.7c-2.4,3.7-0.4,8.8,1.8,12.1
		c3.2,4.8,6.5,9.6,9.9,14.2c5.3,7.3,10.6,14.6,15.8,21.9c2.2,3,6.3,6,10.2,4.6c1-0.4,2-0.9,3-1.4c1.2-0.6,1.8-0.6,2.8,0.3
		c0.7,0.7,1.4,1.4,2.1,2.2c0.6,0.7,0.4,1.6-0.3,2.1c-4.9,3.6-9.9,7.2-14.8,10.8C3976.5,2813.4,3966.8,2820.4,3961.9,2823.9"/>
	<path clip-path="url(#SVGID_2_)" fill="#FFFFFF" d="M3828.2,4656.2c0.3,0,0.6-0.1,0.9-0.1c7.5-0.5,13.4-0.8,22.6-1.3
		c1.9-0.1,2.4,1.3,3.3,2.7c1.1,1.7,2.2,3.5,3.3,5.3c2.7,4.6,5.2,9.2,7.7,13.8c1.5,2.7,3.1,5.4,5.2,7.7c1.9,2.1,4.3,3,7.2,2.9
		c0.9-0.1,1.8-0.1,2.9-0.2c-0.1-1.6-0.2-3-0.2-4.5c-0.2-4.2-0.5-8.5-0.6-12.7c0-2.7-1.3-4.7-3.2-6.4c-1.9-1.8-4.1-2.8-6.7-2.7
		c-1,0-1.6-0.5-1.7-1.5c-0.1-1.3-0.3-2.9-0.2-4.2c0-0.8,0.6-1.1,1.4-1.1c8.5-0.5,13.1-0.7,19.6-1c3.3-0.2,6.6-0.4,9.9-0.5
		c1.7-0.1,3.4-0.2,5.1-0.3c0.5,0,1.1,0.2,1.3,0.7c0.2,0.4,0.2,0.9,0.2,1.3c0,0,0,0.1,0,0.1c0,1-0.1,2-0.1,2.9c0,0.6-0.2,0.8-0.7,1
		c-2.9,1-5.3,3-6.7,5.7c-0.7,1.4-1.2,2.9-1.3,4.5c-0.1,1.1,0,2.2,0.1,3.2c0.1,1.1,0.1,2.1,0.2,3.2c0.2,2.2,0.2,4.5,0.3,6.7
		c0.2,4.4,0.5,8.9,0.7,13.3c0.2,4.4,0.5,8.9,0.7,13.3c0.1,2.3,0.3,4.5,0.4,6.8c0.2,3.8,1.8,7.2,5.1,9.5c1.1,0.7,2.4,1.1,3.7,1.4
		c0.5,0.2,0.8,0.4,0.8,0.9c0.1,1,0.2,2,0.2,3c0,1.1-0.3,1.4-1.3,1.5c-11.1,0.6-22.2,1.2-33.4,1.7c-7.5,0.3-15.3-0.1-21.2-5.5
		c-2.7-2.5-4.9-5.4-6.1-9c-1.1-3.1-1.4-6.3-1-9.7c0.5-3.6,1.8-6.9,3.8-9.8c1-1.5,2.4-2.6,3.7-3.9c0.1-0.1,0.2-0.1,0.2-0.2
		c1.4-1.1,1.4-1.6-0.2-2.4c-2.9-1.5-4.6-4-6-6.8c-1.8-3.5-3.7-6.9-5.4-10.5c-1.8-3.8-4.5-6.9-7.7-9.6c-1.7-1.4-3.7-2.4-5.5-3.7
		c-0.5-0.4-1.1-0.9-1.2-1.5C3828.3,4658.9,3828.3,4657.3,3828.2,4656.2 M3878.6,4697C3878.6,4696.9,3878.6,4696.9,3878.6,4697
		c-1.2,0.1-2.5,0.1-3.7,0.5c-1.5,0.5-3.1,1-4.3,1.9c-1.6,1.2-2.9,2.9-3.8,4.8c-1.6,3.7-1.4,7.4,0.2,11c1.7,3.6,4.5,5.9,8.4,6.7
		c2,0.4,4.1,0.5,6.2,0.7c0.8,0.1,1.2-0.5,1.1-1.3c-0.3-4.4-0.5-8.9-0.7-13.4c-0.1-3.1-0.1-6.1-0.1-9.2c0-0.4,0-0.8-0.2-1.2
		C3881.3,4696.4,3879.6,4696.9,3878.6,4697"/>
	<path clip-path="url(#SVGID_2_)" fill="#FFFFFF" d="M3946.2,4728.9c-17.7,1.3-34.8-12.6-39.6-29.2c-4.2-14.8,0.9-31.7,12.5-41.7
		c11.6-10,29.1-12.5,43.1-6.2c14,6.3,23.6,21.2,23.8,36.5c0.1,9.6-3.5,19-9.6,26.3c-6.9,8.4-16.2,12.6-26.9,14
		c-0.8,0.1-1.5,0.2-2.3,0.3C3947,4728.8,3947.1,4728.8,3946.2,4728.9 M3967.4,4686.1c-0.4-5.3-1.8-10.9-4.2-15.6
		c-2.5-5.2-6.7-9.9-12.3-11.8c-5-1.7-10.7-1.2-15.3,1.5c-3.6,2.1-6.4,5.5-8.3,9.2c-1.9,3.8-2.9,7.9-3.5,12
		c-1.7,11.4,0.7,25.3,9.3,33.6c6.4,6.2,16.1,6.8,23.3,1.5C3965.2,4710.1,3968.4,4696.4,3967.4,4686.1"/>
	<path clip-path="url(#SVGID_2_)" fill="#FFFFFF" d="M3778.9,4701.3c0.4,6.8,0.7,13.6,1.1,20.4c0.1,2.3,1,4.2,2.3,6
		c1.5,2.1,3.7,3.2,6.2,3.8c0.8,0.2,1.3,0.5,1.1,1.5c-0.1,0.8,0.1,1.7,0.1,2.6c0.1,0.7-0.2,1.3-1,1.4c-1,0.1-2,0.3-3,0.4
		c-6.4,0.3-12.8,0.7-19.3,1c-1.4,0.1-2.8,0.2-4.2,0.2c-0.9,0-1.3-0.5-1.4-1.3c-0.1-1-0.2-2-0.1-3c0-0.8,0.5-1.4,1.3-1.7
		c3.8-1,6.2-3.4,7.5-7c0.7-2,0.8-4,0.7-6c-0.6-12.6-1.3-25.2-2-37.8c-0.2-4.2,0.8-8.1,2.9-11.7c6.6-11.7,20.6-13.3,32.7-13.9
		c3.7-0.2,7.5-0.1,11,0.9c6.7,1.9,12.1,7.5,13.9,14.2c1.1,4,0.9,8.1,1.1,12.2c0.1,3.9,0.4,7.8,0.6,11.7c0.2,4.7,0.4,9.4,0.7,14
		c0.1,3,0.2,6,0.4,9c0.1,1.5,0.3,3.1,1,4.4c1,1.7,2.1,3.6,4,4.5c1.2,0.6,2.5,1,3.7,1.4c0.7,0.2,1,0.6,1.1,1.3c0.1,1,0.1,2.1,0.2,3.1
		c0,0.9-0.5,1.5-1.4,1.6c-0.5,0.1-1,0.1-1.4,0.1c-11.2,0.6-22.4,1.2-33.6,1.8c-1.4,0.1-1.7-0.2-1.9-1.5c-0.1-0.9-0.2-1.9-0.1-2.8
		c0.1-0.5,0.6-1.1,1-1.4c0.5-0.3,1.3-0.5,1.9-0.5c2.2-0.1,3.8-1.4,5.2-2.8c1.8-1.8,2.7-4.2,2.9-6.7c0.1-1.7,0-3.5-0.1-5.3
		c-0.3-6.5-0.6-13.1-1-19.6c-0.3-5.3-0.6-10.6-0.8-15.9c-0.2-6.1-3.1-12.6-9.9-13.2c-2.4-0.2-4.9-0.3-7.3-0.1
		c-2.6,0.2-5.2,0.9-7.9,1.3c-3.6,0.6-6.4,2.9-8.1,6.2c-2.1,4-1.4,8.5-1.2,12.8C3778.2,4688,3778.9,4701.3,3778.9,4701.3
		L3778.9,4701.3z"/>
	<path clip-path="url(#SVGID_2_)" fill="#FFFFFF" d="M4031.6,4724.4c-1.5,0-2.2-0.2-2.3-1.7c-0.1-1.8-0.2-3.7-0.3-5.5
		c-0.2-2.7-0.4-5.3-0.6-7.9c-0.1-1.9-0.3-3.8-0.3-5.7c0-1.9,0.1-3.8,0.2-5.7c0-0.7,0.5-1.1,1.2-1.2c0.8-0.1,1.7-0.3,2.5-0.3
		c0.4,0,1,0.3,1.1,0.6c1.5,3,2.8,6,4.4,8.9c3.7,6.5,9.7,8.7,16.7,9.3c1.9,0.2,3.9,0.2,5.8,0.3c0.9,0,1.7,0.1,2.6-0.1
		c0.4-0.1,0.9-0.6,1-1c0.2-0.6,0-1.3,0-1.9c-0.1-4.3-0.3-8.6-0.4-12.9c-0.1-2.8-0.3-5.6-0.4-8.4c0-0.9-0.4-1.4-1.3-1.3
		c-0.9,0.1-1.9,0.2-2.8,0.5c-1.9,0.7-3.8,1.2-5.1,2.9c-1.9,2.6-3,5.5-3.1,8.7c0,0.4-0.7,0.9-1.2,1c-0.8,0.2-1.7,0.1-2.5,0.1
		c-0.8,0-1.6-0.9-1.6-1.8c-0.1-1.6-0.1-3.3-0.2-5c-0.2-3-0.4-6-0.6-9c-0.3-4.4-0.5-8.8-0.8-13.3c-0.1-1.1-0.2-2.3-0.3-3.4
		c-0.1-1,0.4-1.5,1.3-1.7c0.8-0.2,1.5-0.4,2.3-0.5c0.6-0.1,1,0.1,1.2,0.9c0.4,1.8,1,3.5,2,5c1.3,1.8,2.7,3.4,4.5,4.6
		c1.5,1,3.1,1.4,4.8,1.3c1.6-0.2,2.2-1,2.1-2.6c-0.4-6.2-0.6-12.5-1.3-18.7c-0.4-3.6-2.5-6.3-5.7-8.1c-1.9-1.1-4-1.3-6.1-1.3
		c-1.3,0-1.6-0.2-1.8-1.4c-0.1-1.1-0.3-2-0.3-3c0-0.2,0.4-0.6,0.6-0.7c0.5-0.1,1.1-0.1,1.6-0.1c5.6-0.3,11.3-0.6,16.9-0.9
		c7.4-0.4,14.7-0.8,22.1-1.2c1.9-0.1,1.4,0.9,1.7,2.5c0.5,2.1-2.3,2-3.8,2.3c-3.6,0.7-5.6,3.1-7,6.2c-1,2.1-1.1,4.4-1,6.6
		c0.3,5.3,2.6,44.3,3.1,47.4c0.6,4.7,3.7,8.5,8.3,9.4c1.7,0.3,1.7,0.3,1.9,2c0,0.2,0.1,0.4,0.1,0.7c0.1,1.2-0.3,1.8-1.5,1.8
		c-4.4,0.2-8.8,0.5-13.3,0.7c-6.6,0.4-13.2,0.7-19.8,1.1c-6.6,0.3-13.2,0.7-19.7,1l-0.1,0C4035,4724.2,4033.3,4724.3,4031.6,4724.4
		C4031.6,4724.4,4031.6,4724.4,4031.6,4724.4"/>
	<path clip-path="url(#SVGID_2_)" fill="#FFFFFF" d="M3685.5,4702.7c0.4,8.3-2,16.4-6.3,23.4c-5.1,8.2-13.2,14.4-22.6,17
		c-8.1,2.2-17,1.7-24.8-1.5c-2-0.8-4.9-1.6-6,0.4c-0.3,0.5-0.3,1.1-0.6,1.5c-0.9,1.7-3.2,1.6-5.1,1.3c-0.6-0.1-1.2-0.2-1.6-0.6
		c-0.4-0.4-0.5-1-0.5-1.6c-1-8.6-2-17.2-3-25.8c-0.1-1.3-0.2-2.7,0.6-3.6c1-1.2,3-0.9,4.2,0.1c1.2,1,1.8,2.5,2.3,4
		c1.5,4,3.1,8.1,5.8,11.4c6.3,7.8,18.7,9.7,27,4.2c5-3.3,8.4-8.7,10-14.4c1.6-5.8,1.6-11.9,0.8-17.8c-1.3-9.6-5-19.7-13.4-24.5
		c-5.8-3.3-13.3-3.4-19.3-0.4c-6,3-10.4,8.9-11.8,15.5c-0.2,1.1-0.6,2.5-1.7,2.9c-0.5,0.2-1.1,0.1-1.7-0.1c-1.3-0.3-2.5-0.6-3.8-0.9
		c-0.7-0.2-1.4-0.4-1.8-1c-0.3-0.5-0.2-1.1-0.1-1.7c2.8-14.6,16.2-26.2,31-27.6C3666.8,4660.6,3683.3,4680.7,3685.5,4702.7"/>
	<path clip-path="url(#SVGID_2_)" fill="#FFFFFF" d="M3695.4,4726.3c-0.5-5.4-0.9-10.7-1.4-16.1c-0.1-1.3,0-1.3,1.3-1.4
		c0.3,0,0.6-0.1,0.8-0.1c2-0.4,2-0.4,2.9,1.5c2.7,6.2,5.1,13.3,11,17.4c7,4.8,16.4,5.8,23.7,1.1c8.8-5.7,11.3-15.8,11.4-25.6
		c0.1-8.5-2-17-6.4-24.3c-4.6-7.7-12.5-11.6-21.5-10c-2.7,0.5-5.4,1.5-7.6,3.1c-2.5,1.7-4.2,4.2-6.1,6.5c-2.5,2.9-3.9,6.3-5.3,9.7
		c-0.6,1.4-0.7,1.4-2.1,1c-1.7-0.5-3.3-1-5-1.4c-1-0.2-1.5-0.8-1.1-1.9c0.8-2.5,1.7-5,2.6-7.5c0.9-2.5,2.2-4.7,3.8-6.8
		c5.5-7.2,14.2-11.3,23.1-12.2c2.1-0.2,4.3-0.4,6.5-0.2c3.1,0.3,6.2,0.6,9.2,1.3c3.8,0.9,7.3,2.5,10.6,4.7
		c12.7,8.1,18.7,23.1,17.4,37.9c-0.6,6.9-2.8,13.9-6.5,19.8c-3.8,6.2-9.7,10.8-16.2,13.9c-5.1,2.4-10.9,3.7-16.6,3.6
		c-2.9-0.1-5.8-0.5-8.7-1.2c-2.9-0.8-5.4-2.2-8.2-3.2c-1.7-0.6-3.7,0.9-3.8,2.7c-0.1,1.4-0.1,1.3-1.4,1.3c-1.2,0-2.4,0-3.5,0
		c-1,0-1.5-0.4-1.6-1.4c-0.1-1.5-0.3-2.9-0.5-4.3C3695.8,4731.5,3695.6,4728.9,3695.4,4726.3
		C3695.3,4726.3,3695.3,4726.3,3695.4,4726.3"/>
	<path clip-path="url(#SVGID_2_)" fill="#FFFFFF" d="M3600.3,4747c4.1-0.2,8.3-0.5,12.4-0.7c0.8,0,1.1-0.4,1-1.2
		c-0.1-1.3-0.4-2.6-0.4-3.9c0-1-0.5-1.5-1.4-1.8c-1.1-0.4-2.2-0.8-3.2-1.2c-2.8-1-5-2.9-5.7-5.8c-0.6-2.6-0.9-5.3-1.1-7.9
		c-0.6-9.6-1.2-19.3-1.7-29c-0.2-3.4-0.4-6.9-0.6-10.3c-0.2-2.9,0.4-5.5,2.1-7.9c1.8-2.5,3.8-4.6,7-5.2c0.2,0,0.4-0.3,0.4-0.5
		c0-1.5,0.2-2.5-0.2-3.9c-0.2-0.6-1.9-0.2-2.3-0.2c-1.2,0.1-2.4,0.1-3.6,0.2c-2.3,0.1-4.7,0.2-7.1,0.3c-5.2,0.2-10.4,0.5-15.6,0.8
		c-2.2,0.1-4.3,0.2-6.6,0.3c-1,0.1-1.6,0.4-1.6,1.4c0,0.6,0.1,1.3,0.1,1.9c0,0.9,0.4,1.5,1.1,1.8c0.6,0.3,1.4,0.4,2,0.7
		c1.7,0.7,3.1,1.8,4.4,3.1c1.4,1.4,2.2,3.1,2.3,5c0.3,3.2,0.5,6.3,0.7,9.5c0.3,4.6,0.6,9.2,0.9,13.8c0.6,8.6,1.1,17.2,1.7,25.7
		c0,0.4,0,0.8-0.1,1.2c-0.5,2.6-2,4.6-4.1,6.1c-1.1,0.8-2.3,1.5-3.5,2.2c-0.9,0.5-1.1,1.3-1,2.2c0.1,0.7,0.2,1.4,0.3,2.1
		c0.1,1.3,0.6,2,1.9,2c6.6-0.3,13.2-0.6,19.8-1C3599.3,4747.1,3599.8,4747,3600.3,4747"/>
	<path clip-path="url(#SVGID_2_)" fill="#FFFFFF" d="M4017.7,4646.2c1.3-0.1,1.4,0,1.4,1.3c0,0.9,0.1,1.8,0.1,2.7
		c0.1,0.6-0.2,0.9-0.7,1c-0.8,0.2-1.6,0.4-2.4,0.6c-2.8,0.7-4.9,2.4-6.2,4.9c-0.6,1.3-1,2.8-1,4.2c0.1,4.8,0.3,9.7,0.6,14.5
		c0.5,10.8,1,21.6,1.6,32.4c0.3,4.8,2.5,8.5,6.8,10.8c1.1,0.6,2.6,0.7,3.9,0.8c0.9,0.1,1.3,0.4,1.4,1.3c0,0.8,0.1,1.7,0.1,2.5
		c0,1.1-0.1,1.6-1.2,1.7c-3.8,0.2-7.5,0.4-11.3,0.6c-2.3,0.1-4.6,0.2-7,0.4c-5.7,0.4-11.6,0.5-17.4,0.9c-0.4,0-0.9,0-1.3,0
		c-0.9-0.1-1.4-0.6-1.4-1.6c0-0.8-0.1-1.7-0.1-2.5c0-0.7,0.2-1.1,1-1.4c1.4-0.4,2.8-1,4.2-1.7c4-1.9,5.1-7.2,5.1-11.2
		c0-5.8-0.3-11.6-0.6-17.3c-0.5-9-0.9-18-1.4-27c-0.2-3.7-2-8.4-6.1-9.4c-1.1-0.3-2.2-0.4-3.3-0.5c-1.3-0.1-1.9-0.5-2.2-1.8
		c-0.2-1-0.4-2-0.5-2.9c-0.1-0.9,0.5-1.5,1.4-1.6c6.1-0.3,12.2-0.6,18.3-1C3999.7,4647,4011.7,4646.5,4017.7,4646.2"/>
	<path clip-path="url(#SVGID_2_)" fill="#FFFFFF" d="M4923.8,4813.8c0.3-0.2,0.5-0.3,0.7-0.5c6.7-3.5,11.9-6.1,20.2-10.3
		c1.7-0.9,2.8,0.2,4.1,1.1c1.7,1.1,3.5,2.3,5.1,3.5c4.3,3.1,8.5,6.3,12.7,9.5c2.5,1.9,5,3.7,7.9,4.9c2.6,1.1,5.2,1,7.7-0.3
		c0.8-0.4,1.6-0.8,2.5-1.3c-0.7-1.4-1.4-2.7-2.1-4c-1.9-3.8-3.9-7.5-5.7-11.4c-1.1-2.5-3.1-3.8-5.5-4.6c-2.4-0.8-4.8-0.9-7.2,0.2
		c-0.9,0.4-1.6,0.2-2.1-0.6c-0.6-1.1-1.4-2.5-1.9-3.8c-0.3-0.7,0.1-1.2,0.8-1.6c7.6-3.9,11.7-5.9,17.5-8.9c2.9-1.5,5.9-3,8.8-4.5
		c1.5-0.8,3-1.6,4.5-2.3c0.4-0.2,1-0.2,1.4,0.1c0.3,0.3,0.5,0.7,0.7,1.1c0,0,0,0.1,0,0.1c0.4,0.9,0.7,1.8,1.1,2.7
		c0.3,0.5,0.1,0.8-0.2,1.2c-2.2,2.1-3.6,4.9-3.8,7.9c-0.1,1.5,0.1,3.2,0.6,4.6c0.4,1,0.9,2,1.4,2.9c0.5,0.9,0.9,1.9,1.4,2.8
		c1.1,1.9,2,4,3,6c2,4,4,7.9,6.1,11.9c2,4,4.1,7.9,6.1,11.9c1,2,2.1,4,3.1,6c1.8,3.4,4.6,5.9,8.5,6.6c1.3,0.2,2.6,0,4-0.2
		c0.6-0.1,0.8,0,1.1,0.5c0.5,0.9,0.9,1.7,1.4,2.6c0.5,0.9,0.3,1.4-0.6,1.9c-9.9,5-19.8,10.1-29.8,15.1c-6.7,3.4-14,6.1-21.6,3.6
		c-3.5-1.2-6.7-3-9.2-5.7c-2.3-2.4-3.9-5.2-4.8-8.4c-1-3.5-1.1-7-0.5-10.5c0.3-1.7,1.2-3.4,1.8-5.1c0-0.1,0.1-0.2,0.2-0.2
		c0.8-1.6,0.6-2-1.1-2.1c-3.3-0.2-5.8-1.8-8.2-3.8c-3-2.5-6.2-4.8-9.2-7.4c-3.2-2.8-6.9-4.5-10.9-5.6c-2.1-0.6-4.4-0.7-6.5-1.2
		c-0.6-0.1-1.3-0.4-1.7-0.9C4925,4816.3,4924.4,4814.8,4923.8,4813.8 M4986.5,4830.5C4986.5,4830.5,4986.4,4830.5,4986.5,4830.5
		c-1.1,0.6-2.2,1.1-3.2,1.9c-1.2,1-2.4,2.1-3.2,3.5c-1,1.8-1.5,3.8-1.5,5.9c0,4.1,1.7,7.4,4.7,10c3,2.6,6.5,3.6,10.4,2.7
		c2-0.4,4-1.3,5.9-1.9c0.7-0.2,0.9-0.9,0.5-1.6c-2.1-3.9-4.1-7.9-6.1-11.9c-1.3-2.8-2.6-5.5-3.8-8.3c-0.2-0.4-0.3-0.8-0.6-1
		C4988.7,4828.9,4987.4,4830.1,4986.5,4830.5"/>
	<path clip-path="url(#SVGID_2_)" fill="#FFFFFF" d="M5061.2,4832.2c-15.7,8.4-36.9,2.7-48-10.6c-9.8-11.8-12.1-29.3-5.5-43.2
		c6.5-13.9,21.5-23.3,36.9-23.2c15.3,0.1,30.2,9.7,36.6,23.7c4,8.7,4.5,18.8,2,27.9c-2.9,10.5-9.7,18.1-18.8,23.7
		c-0.6,0.4-1.3,0.8-2,1.2C5061.9,4831.8,5062,4831.8,5061.2,4832.2 M5063.2,4784.5c-2.5-4.7-6.1-9.2-10.2-12.6
		c-4.4-3.7-10.1-6.3-16-5.8c-5.3,0.5-10.3,3.3-13.4,7.6c-2.4,3.4-3.6,7.6-3.8,11.8c-0.2,4.2,0.6,8.4,1.7,12.4
		c3.1,11.1,11,22.8,22.2,27c8.4,3.1,17.5-0.3,21.9-8.1C5070.9,4807.3,5068.3,4793.5,5063.2,4784.5"/>
	<path clip-path="url(#SVGID_2_)" fill="#FFFFFF" d="M4897.2,4875c3.1,6.1,6.2,12.1,9.3,18.2c1,2,2.7,3.4,4.6,4.5
		c2.3,1.3,4.7,1.5,7.2,0.9c0.8-0.2,1.4,0,1.6,0.9c0.3,0.8,0.7,1.5,1.2,2.3c0.4,0.7,0.3,1.2-0.3,1.7c-0.9,0.5-1.7,1.1-2.6,1.5
		c-5.7,2.9-11.5,5.8-17.2,8.7c-1.2,0.6-2.5,1.3-3.7,1.9c-0.8,0.4-1.4,0.1-1.8-0.6c-0.5-0.9-0.9-1.7-1.3-2.6
		c-0.3-0.8-0.1-1.5,0.6-2.1c3.1-2.4,4.3-5.6,4-9.5c-0.2-2.1-0.9-4-1.8-5.7c-5.7-11.3-11.4-22.5-17.1-33.7c-1.9-3.8-2.6-7.7-2.2-11.9
		c1.3-13.4,13.4-20.6,24.2-26c3.3-1.7,6.8-3.1,10.5-3.6c6.9-1,14.1,1.9,18.5,7.3c2.6,3.2,4.2,7,5.9,10.7c1.7,3.5,3.6,7,5.3,10.5
		c2.1,4.2,4.2,8.4,6.3,12.5c1.3,2.7,2.6,5.4,4.1,8c0.7,1.3,1.5,2.8,2.7,3.6c1.6,1.2,3.3,2.4,5.5,2.5c1.3,0,2.6-0.1,4-0.2
		c0.7-0.1,1.2,0.1,1.5,0.7c0.5,0.9,1,1.9,1.4,2.8c0.4,0.8,0.2,1.6-0.6,2c-0.4,0.2-0.8,0.4-1.3,0.7c-10,5.1-20,10.2-30,15.3
		c-1.2,0.6-1.7,0.5-2.3-0.6c-0.5-0.8-1-1.7-1.2-2.6c-0.1-0.5,0.1-1.2,0.4-1.7c0.4-0.5,0.9-1,1.5-1.3c2-1,2.9-2.8,3.6-4.7
		c0.9-2.4,0.8-4.9-0.1-7.3c-0.6-1.6-1.5-3.2-2.2-4.8c-3-5.8-5.9-11.7-8.9-17.5c-2.4-4.7-4.9-9.4-7.2-14.2c-2.6-5.5-8-10.3-14.4-8
		c-2.3,0.8-4.6,1.7-6.7,2.9c-2.3,1.3-4.4,2.9-6.6,4.4c-3,2-4.7,5.3-4.9,9c-0.2,4.5,2.1,8.3,4.1,12.2
		C4891.1,4863.2,4897.2,4875.1,4897.2,4875L4897.2,4875z"/>
	<path clip-path="url(#SVGID_2_)" fill="#FFFFFF" d="M5137.4,4793.4c-1.4,0.6-2.1,0.8-2.8-0.6c-0.9-1.6-1.7-3.3-2.5-4.9
		c-1.3-2.3-2.6-4.7-3.8-7c-0.9-1.7-1.8-3.4-2.6-5.1c-0.8-1.7-1.4-3.5-2.1-5.3c-0.3-0.7,0-1.2,0.6-1.5c0.7-0.5,1.4-1,2.2-1.3
		c0.4-0.2,1-0.1,1.3,0.1c2.6,2.1,5,4.4,7.7,6.4c6,4.4,12.4,4,19.1,1.7c1.8-0.6,3.7-1.4,5.5-2.1c0.8-0.3,1.6-0.6,2.3-1.1
		c0.3-0.2,0.6-0.9,0.5-1.3c-0.1-0.6-0.5-1.2-0.7-1.7c-1.9-3.9-3.7-7.7-5.6-11.6c-1.2-2.5-2.5-5-3.8-7.5c-0.4-0.8-0.9-1.1-1.7-0.6
		c-0.8,0.5-1.7,0.9-2.3,1.6c-1.4,1.4-3,2.6-3.5,4.7c-0.7,3.2-0.5,6.2,0.7,9.2c0.1,0.3-0.3,1.1-0.7,1.4c-0.7,0.5-1.5,0.8-2.3,1.1
		c-0.8,0.3-1.8-0.2-2.2-1c-0.7-1.5-1.4-3-2.2-4.5c-1.4-2.7-2.8-5.3-4.2-7.9c-2-3.9-4-7.9-6.1-11.8c-0.5-1-1.1-2-1.7-3
		c-0.5-0.8-0.2-1.5,0.5-2.1c0.6-0.5,1.3-1,1.9-1.4c0.5-0.3,1-0.3,1.5,0.3c1,1.5,2.3,2.8,3.9,3.7c1.9,1.1,3.8,2,6,2.3
		c1.8,0.3,3.4,0,4.9-0.8c1.4-0.8,1.6-1.8,0.9-3.2c-2.9-5.5-5.7-11.1-8.8-16.5c-1.8-3.1-4.8-4.8-8.5-5.1c-2.2-0.2-4.2,0.4-6.1,1.3
		c-1.1,0.5-1.6,0.5-2.2-0.6c-0.5-0.9-1.1-1.7-1.5-2.7c-0.1-0.2,0.1-0.7,0.3-0.9c0.4-0.3,0.9-0.5,1.4-0.8c5-2.6,10-5.1,15.1-7.7
		c6.6-3.4,13.2-6.7,19.7-10.1c1.7-0.9,1.6,0.3,2.6,1.6c1.3,1.7-1.3,2.8-2.5,3.7c-3,2.1-3.8,5.1-3.9,8.6c0,2.3,0.8,4.4,1.8,6.5
		c2.4,4.8,20.4,39.4,22,42c2.5,4,6.9,6.3,11.4,5.2c1.6-0.4,1.6-0.4,2.5,1.1c0.1,0.2,0.2,0.4,0.4,0.6c0.6,1.1,0.4,1.7-0.6,2.3
		c-4,2-7.9,4.1-11.8,6.1c-5.9,3-11.8,6-17.6,9c-5.9,3-11.7,6-17.6,9c0,0-0.1,0-0.1,0C5140.5,4791.8,5139,4792.6,5137.4,4793.4
		C5137.4,4793.4,5137.4,4793.4,5137.4,4793.4"/>
	<path clip-path="url(#SVGID_2_)" fill="#FFFFFF" d="M4812.4,4914.3c3.8,7.4,4.9,15.7,3.7,23.9c-1.3,9.6-6.2,18.5-13.7,24.7
		c-6.5,5.4-14.8,8.5-23.3,8.7c-2.2,0.1-5.1,0.6-5.3,2.7c0,0.5,0.1,1.1,0.1,1.6c-0.1,1.9-2.3,2.8-4.1,3.3c-0.5,0.1-1.1,0.3-1.7,0.1
		c-0.5-0.2-0.9-0.7-1.1-1.2c-4.4-7.4-8.8-14.9-13.2-22.3c-0.6-1.1-1.3-2.3-0.9-3.5c0.5-1.5,2.4-2.1,3.9-1.6c1.5,0.4,2.6,1.6,3.7,2.7
		c3,3,6.1,6.1,9.9,8c8.9,4.5,21,1.3,26.4-7.1c3.2-5,4.1-11.3,3.2-17.2c-0.9-5.9-3.4-11.5-6.5-16.6c-5-8.2-12.6-16-22.2-16.9
		c-6.7-0.6-13.5,2.4-17.8,7.5c-4.3,5.2-5.9,12.4-4.5,18.9c0.2,1.1,0.5,2.5-0.4,3.3c-0.4,0.4-1,0.5-1.6,0.6c-1.3,0.3-2.5,0.5-3.8,0.8
		c-0.7,0.1-1.4,0.3-2-0.1c-0.5-0.3-0.6-1-0.8-1.5c-3.3-14.4,4.2-30.5,17.1-37.8C4778.2,4883.4,4801.5,4895.1,4812.4,4914.3"/>
	<path clip-path="url(#SVGID_2_)" fill="#FFFFFF" d="M4831,4931.9c-2.6-4.7-5.2-9.4-7.8-14.1c-0.6-1.1-0.6-1.2,0.6-1.8
		c0.3-0.1,0.5-0.3,0.7-0.5c1.7-1.1,1.7-1.2,3.2,0.2c5,4.5,10.1,10.1,17.1,11.4c8.3,1.6,17.3-1.4,22-8.6c5.7-8.8,3.9-19,0-28.1
		c-3.3-7.8-8.7-14.7-15.7-19.6c-7.4-5.1-16.2-5.5-23.7-0.4c-2.3,1.6-4.3,3.6-5.7,6c-1.6,2.6-2.1,5.5-3,8.4c-1.1,3.6-1,7.3-0.9,11
		c0,1.5-0.1,1.6-1.5,1.8c-1.7,0.2-3.4,0.5-5.1,0.8c-1,0.2-1.7-0.1-1.8-1.3c-0.3-2.6-0.5-5.2-0.7-7.9c-0.2-2.6,0.1-5.2,0.8-7.8
		c2.2-8.8,8.3-16.1,16.1-20.6c1.9-1.1,3.8-2.1,5.8-2.8c2.9-1,5.9-2,8.9-2.5c3.8-0.7,7.7-0.6,11.6-0.1c14.9,2.3,26.5,13.5,31.3,27.5
		c2.3,6.6,3.1,13.8,2.1,20.7c-1,7.2-4.5,13.8-9.1,19.3c-3.6,4.3-8.4,7.8-13.7,10c-2.7,1.1-5.5,1.9-8.4,2.4c-2.9,0.5-5.8,0.1-8.8,0.4
		c-1.8,0.2-3,2.3-2.4,4c0.5,1.3,0.5,1.2-0.8,1.8c-1.1,0.5-2.1,1-3.2,1.5c-0.9,0.4-1.6,0.3-2.1-0.7c-0.7-1.3-1.5-2.5-2.2-3.8
		C4833.5,4936.5,4832.3,4934.2,4831,4931.9C4831,4931.9,4831,4931.9,4831,4931.9"/>
	<path clip-path="url(#SVGID_2_)" fill="#FFFFFF" d="M4752.6,4989.4c3.7-1.9,7.4-3.8,11.1-5.7c0.7-0.3,0.8-0.8,0.4-1.5
		c-0.7-1.1-1.4-2.2-2-3.4c-0.4-0.9-1.1-1.2-2-1.1c-1.1,0.1-2.3,0.2-3.4,0.3c-3,0.2-5.7-0.6-7.6-3c-1.6-2.1-3-4.4-4.2-6.8
		c-4.5-8.6-8.9-17.2-13.3-25.8c-1.6-3.1-3.1-6.1-4.7-9.2c-1.3-2.5-1.9-5.2-1.3-8c0.6-3,1.6-5.7,4.2-7.6c0.1-0.1,0.2-0.5,0.1-0.6
		c-0.6-1.3-0.8-2.4-1.7-3.5c-0.4-0.5-1.8,0.6-2.2,0.8c-1.1,0.6-2.1,1.1-3.2,1.6c-2.1,1.1-4.2,2.1-6.3,3.2c-4.7,2.3-9.3,4.7-13.9,7.1
		c-2,1-3.9,1.9-5.9,3c-0.8,0.5-1.3,1-0.9,1.9c0.3,0.6,0.6,1.1,0.9,1.7c0.3,0.8,1,1.2,1.7,1.2c0.7,0,1.4-0.2,2.1-0.2
		c1.8-0.1,3.6,0.4,5.3,1c1.9,0.7,3.2,2,4.2,3.7c1.5,2.8,3,5.6,4.5,8.4c2.2,4.1,4.3,8.2,6.4,12.3c4,7.6,8,15.2,12,22.8
		c0.2,0.4,0.3,0.8,0.4,1.2c0.6,2.6,0,5-1.2,7.2c-0.7,1.2-1.5,2.3-2.3,3.5c-0.6,0.8-0.5,1.6,0,2.4c0.4,0.6,0.8,1.2,1.1,1.8
		c0.7,1.2,1.4,1.6,2.6,1c5.9-3,11.8-6,17.7-9C4751.7,4989.9,4752.1,4989.7,4752.6,4989.4"/>
	<path clip-path="url(#SVGID_2_)" fill="#FFFFFF" d="M5092.9,4727.6c1.1-0.6,1.3-0.5,1.8,0.6c0.4,0.8,0.8,1.6,1.2,2.4
		c0.3,0.5,0.2,0.9-0.3,1.2c-0.7,0.5-1.3,1-1.9,1.5c-2.3,1.8-3.5,4.2-3.6,7c-0.1,1.4,0.2,3,0.8,4.2c2,4.4,4.2,8.7,6.4,13
		c4.9,9.6,9.7,19.3,14.7,28.9c2.2,4.3,5.8,6.8,10.6,7.2c1.3,0.1,2.7-0.4,3.9-0.9c0.9-0.3,1.4-0.2,1.8,0.6c0.4,0.7,0.8,1.5,1.1,2.2
		c0.5,1,0.6,1.5-0.4,2c-3.3,1.7-6.7,3.4-10,5.1c-2.1,1.1-4.1,2.1-6.2,3.2c-5.1,2.7-10.4,5.2-15.5,7.9c-0.4,0.2-0.8,0.4-1.2,0.5
		c-0.9,0.3-1.5,0-1.9-0.9c-0.3-0.8-0.8-1.5-1.1-2.2c-0.3-0.6-0.2-1.1,0.4-1.7c1.1-1,2.2-2.1,3.2-3.2c2.9-3.3,1.7-8.6,0.1-12.3
		c-2.4-5.3-5-10.5-7.6-15.6c-4.1-8-8.2-16-12.2-24.1c-1.7-3.3-5.3-6.9-9.4-6.1c-1.1,0.2-2.1,0.6-3.2,0.9c-1.3,0.4-1.9,0.3-2.7-0.8
		c-0.6-0.8-1.2-1.6-1.7-2.5c-0.4-0.8-0.1-1.6,0.7-2c5.4-2.8,10.9-5.6,16.3-8.3C5076.8,4735.7,5087.5,4730.3,5092.9,4727.6"/>
	<path clip-path="url(#SVGID_2_)" fill="#FFFFFF" d="M235.3,3224.9c-0.3-0.2-0.5-0.3-0.7-0.5c-5.7-5-10-8.9-16.9-15.1
		c-1.4-1.3-0.8-2.7-0.4-4.2c0.4-2,0.9-4.1,1.4-6.1c1.3-5.1,2.8-10.2,4.3-15.2c0.9-3,1.7-6,1.8-9.1c0.1-2.8-0.9-5.2-3.1-7.1
		c-0.7-0.6-1.4-1.2-2.1-1.9c-1,1.2-2,2.3-3,3.4c-2.8,3.1-5.6,6.3-8.6,9.4c-1.9,2-2.4,4.3-2.3,6.8c0.1,2.6,0.9,4.8,2.8,6.7
		c0.7,0.7,0.8,1.4,0.2,2.2c-0.8,1-1.9,2.2-2.8,3.1c-0.6,0.5-1.2,0.4-1.8-0.2c-6.3-5.7-9.7-8.8-14.6-13.2c-2.4-2.2-4.9-4.4-7.4-6.6
		c-1.3-1.1-2.5-2.2-3.8-3.4c-0.4-0.3-0.6-0.9-0.4-1.4c0.2-0.4,0.5-0.7,0.8-1c0,0,0,0,0.1-0.1c0.7-0.7,1.5-1.3,2.1-2
		c0.4-0.4,0.7-0.4,1.2-0.2c2.8,1.3,5.8,1.6,8.8,0.7c1.5-0.5,2.9-1.2,4.1-2.2c0.8-0.7,1.5-1.5,2.2-2.3c0.7-0.8,1.4-1.5,2.1-2.3
		c1.4-1.7,3-3.3,4.5-5c3-3.3,6-6.6,8.9-9.9c3-3.3,5.9-6.6,8.9-9.9c1.5-1.7,3-3.4,4.5-5.1c2.5-2.9,3.8-6.4,3.1-10.3
		c-0.2-1.3-1-2.5-1.6-3.6c-0.3-0.5-0.3-0.8,0.1-1.2c0.6-0.7,1.3-1.5,2-2.2c0.7-0.8,1.2-0.8,1.9-0.2c8.3,7.5,16.6,14.9,24.8,22.4
		c5.6,5.1,10.7,10.9,11.1,18.8c0.2,3.7-0.4,7.3-2,10.6c-1.4,3-3.5,5.5-6.1,7.5c-2.9,2.2-6.1,3.6-9.7,4.2c-1.7,0.3-3.6,0.1-5.4,0.2
		c-0.1,0-0.2-0.1-0.3-0.1c-1.8-0.2-2.1,0.1-1.6,1.8c1,3.1,0.4,6.1-0.6,9.1c-1.2,3.7-2.3,7.5-3.6,11.2c-1.4,4-1.8,8.1-1.3,12.2
		c0.2,2.2,0.9,4.3,1.3,6.5c0.1,0.6,0.1,1.4-0.2,1.9C237.2,3222.9,236.1,3224,235.3,3224.9 M228.5,3160.4
		C228.5,3160.4,228.5,3160.4,228.5,3160.4c0.9,0.8,1.9,1.7,2.9,2.3c1.4,0.7,2.9,1.5,4.4,1.7c2,0.3,4.1,0,6.1-0.7
		c3.8-1.5,6.3-4.2,7.6-8c1.4-3.7,1-7.4-1.2-10.7c-1.1-1.7-2.6-3.2-3.9-4.8c-0.5-0.6-1.2-0.5-1.7,0.1c-2.9,3.4-5.9,6.7-9,9.9
		c-2.1,2.2-4.2,4.4-6.4,6.6c-0.3,0.3-0.6,0.6-0.7,1C226.2,3158.9,227.8,3159.7,228.5,3160.4"/>
	<path clip-path="url(#SVGID_2_)" fill="#FFFFFF" d="M203.3,3090c13.5,11.6,15.7,33.5,7.3,48.6c-7.5,13.4-23.1,21.8-38.4,20.7
		c-15.3-1.1-29.5-11.7-34.9-26.1c-5.4-14.3-1.8-31.7,9-42.6c6.7-6.8,15.9-10.9,25.4-11.8c10.8-1,20.4,2.6,28.9,9.1
		c0.6,0.5,1.2,0.9,1.8,1.4C202.7,3089.5,202.6,3089.4,203.3,3090 M158.1,3105.3c-3.5,4-6.4,8.9-8.1,14c-1.9,5.5-2.3,11.7,0.3,17
		c2.3,4.7,6.7,8.4,11.8,9.8c4.1,1.1,8.4,0.6,12.4-0.7c4-1.3,7.6-3.5,11-6c9.2-6.9,17.4-18.4,17.2-30.3c-0.1-8.9-6.6-16.2-15.4-17.5
		C176.5,3089.9,164.6,3097.3,158.1,3105.3"/>
	<path clip-path="url(#SVGID_2_)" fill="#FFFFFF" d="M302,3227.8c4.6-5.1,9.1-10.1,13.7-15.2c1.5-1.7,2.2-3.7,2.6-5.9
		c0.4-2.6-0.3-4.9-1.7-7c-0.5-0.7-0.5-1.3,0.2-1.9c0.7-0.5,1.2-1.3,1.7-1.9c0.5-0.6,1-0.8,1.7-0.3c0.8,0.6,1.6,1.2,2.4,1.9
		c4.8,4.3,9.6,8.6,14.3,12.9c1,0.9,2.1,1.9,3.1,2.8c0.6,0.6,0.6,1.2,0.1,1.9c-0.6,0.7-1.3,1.5-2,2.2c-0.6,0.6-1.4,0.7-2.1,0.2
		c-3.4-2-6.8-2-10.3-0.3c-1.9,0.9-3.4,2.3-4.7,3.8c-8.5,9.3-16.9,18.7-25.3,28.1c-2.8,3.2-6.3,5.1-10.3,6.3
		c-13,3.6-24-5.1-32.9-13.3c-2.7-2.5-5.3-5.2-7.1-8.5c-3.4-6.1-3.2-13.8,0.2-19.9c2-3.6,5.1-6.4,7.9-9.4c2.7-2.8,5.2-5.8,7.9-8.7
		c3.2-3.5,6.3-6.9,9.4-10.4c2-2.2,4.1-4.4,6-6.7c1-1.1,2-2.4,2.4-3.8c0.5-1.9,1.1-4,0.4-6c-0.4-1.2-1-2.4-1.6-3.6
		c-0.3-0.6-0.3-1.1,0.1-1.6c0.7-0.8,1.4-1.6,2.1-2.3c0.6-0.7,1.4-0.7,2.1-0.2c0.4,0.3,0.7,0.6,1.1,0.9c8.3,7.5,16.7,15,25,22.5
		c1,0.9,1.1,1.4,0.2,2.4c-0.6,0.7-1.2,1.5-2,2.1c-0.4,0.3-1.2,0.4-1.7,0.2c-0.6-0.1-1.2-0.5-1.7-1c-1.6-1.5-3.6-1.7-5.7-1.7
		c-2.5,0-4.9,1-6.8,2.7c-1.3,1.1-2.5,2.5-3.7,3.8c-4.4,4.9-8.8,9.7-13.2,14.6c-3.6,3.9-7.1,8-10.7,11.8c-4.2,4.4-6.8,11.1-2.3,16.3
		c1.6,1.8,3.3,3.7,5.1,5.2c2,1.7,4.3,3.1,6.5,4.6c3,2.1,6.6,2.5,10.1,1.3c4.3-1.4,7-5,9.9-8.2C293.2,3237.8,302.1,3227.8,302,3227.8
		L302,3227.8z"/>
	<path clip-path="url(#SVGID_2_)" fill="#FFFFFF" d="M139.7,3032.8c1.1,1.1,1.5,1.7,0.5,2.8c-1.2,1.4-2.5,2.7-3.7,4.1
		c-1.7,2-3.4,4.1-5.2,6.1c-1.3,1.4-2.5,2.9-3.8,4.2c-1.3,1.4-2.8,2.6-4.2,3.9c-0.5,0.5-1.1,0.4-1.6,0c-0.7-0.5-1.4-1-2-1.6
		c-0.3-0.3-0.5-0.9-0.4-1.2c1-3.2,2.3-6.2,3.2-9.4c2-7.2-0.7-13-5.2-18.4c-1.3-1.5-2.6-2.9-3.9-4.4c-0.6-0.6-1.2-1.3-1.9-1.8
		c-0.3-0.2-1-0.2-1.4,0c-0.5,0.3-0.9,0.8-1.4,1.3c-2.9,3.1-5.9,6.2-8.8,9.4c-1.9,2-3.7,4.2-5.6,6.2c-0.6,0.6-0.7,1.2,0,1.8
		c0.7,0.6,1.5,1.2,2.3,1.6c1.8,0.8,3.5,1.9,5.7,1.6c3.2-0.5,6-1.8,8.3-4c0.3-0.3,1.2-0.1,1.6,0.1c0.7,0.4,1.3,1.1,1.9,1.7
		c0.6,0.6,0.5,1.7-0.1,2.5c-1.1,1.2-2.3,2.4-3.4,3.6c-2,2.2-3.9,4.5-5.9,6.7c-2.9,3.3-5.9,6.6-8.8,9.9c-0.8,0.9-1.4,1.8-2.2,2.7
		c-0.6,0.7-1.4,0.7-2.1,0.2c-0.7-0.4-1.3-0.8-2-1.3c-0.5-0.4-0.6-0.8-0.2-1.5c1-1.5,1.8-3.1,2.1-5c0.4-2.1,0.5-4.3,0-6.4
		c-0.4-1.7-1.2-3.2-2.5-4.3c-1.2-1-2.3-0.9-3.3,0.3c-4.1,4.7-8.4,9.3-12.3,14.1c-2.2,2.8-2.7,6.2-1.8,9.8c0.6,2.1,1.9,3.8,3.4,5.2
		c0.9,0.9,1,1.3,0.2,2.3c-0.7,0.8-1.2,1.6-1.9,2.3c-0.2,0.2-0.7,0.2-1,0c-0.5-0.3-0.8-0.7-1.2-1c-4.2-3.8-8.4-7.5-12.6-11.3
		c-5.5-4.9-11-9.9-16.5-14.8c-1.4-1.3-0.3-1.6,0.6-3c1.2-1.8,3.1,0.2,4.3,1.1c3,2,6.2,1.7,9.4,0.5c2.2-0.8,3.9-2.3,5.4-4
		c3.6-4,29.5-33.2,31.3-35.6c2.9-3.8,3.4-8.7,0.7-12.5c-1-1.4-1-1.4,0.1-2.7c0.1-0.2,0.3-0.4,0.4-0.5c0.8-0.9,1.5-1,2.4-0.2
		c3.3,3,6.6,5.9,9.9,8.9c4.9,4.4,9.8,8.8,14.7,13.2c4.9,4.4,9.8,8.8,14.7,13.2c0,0,0,0,0.1,0.1
		C137.2,3030.5,138.4,3031.6,139.7,3032.8C139.7,3032.8,139.7,3032.8,139.7,3032.8"/>
	<path clip-path="url(#SVGID_2_)" fill="#FFFFFF" d="M369.1,3292.9c5.6-6.2,13-10.2,21-12.1c9.4-2.2,19.5-0.8,28,4
		c7.3,4.2,13.2,10.8,16.5,18.6c0.8,2,2.4,4.6,4.5,4c0.5-0.2,1-0.5,1.5-0.7c1.8-0.6,3.4,1.2,4.5,2.7c0.3,0.5,0.7,1,0.7,1.5
		c0,0.6-0.4,1.1-0.7,1.5c-5.4,6.8-10.7,13.6-16.1,20.3c-0.8,1-1.7,2.1-3,2.1c-1.5,0.1-2.8-1.5-2.9-3c-0.1-1.5,0.5-3,1.2-4.4
		c1.8-3.9,3.5-7.9,4-12.1c1-9.9-6.3-20.1-16.1-22.1c-5.8-1.2-12,0.2-17.2,3.2c-5.2,2.9-9.5,7.3-13.1,12c-5.9,7.7-10.4,17.5-7.8,26.8
		c1.8,6.5,7,11.8,13.4,13.9c6.4,2.1,13.7,1.1,19.3-2.6c1-0.6,2.2-1.4,3.2-0.8c0.5,0.3,0.8,0.8,1.2,1.2c0.7,1.1,1.4,2.2,2.1,3.3
		c0.4,0.6,0.8,1.3,0.6,1.9c-0.1,0.6-0.7,0.9-1.1,1.3c-12.3,8.3-30,7-41.4-2.4C352.5,3335.9,355.1,3310,369.1,3292.9"/>
	<path clip-path="url(#SVGID_2_)" fill="#FFFFFF" d="M378.8,3269.2c-3.5,4.1-6.9,8.2-10.4,12.3c-0.8,1-0.9,1-1.9,0.1
		c-0.2-0.2-0.5-0.4-0.7-0.5c-1.7-1.2-1.7-1.2-1-3.1c2.4-6.3,5.8-13,4.5-20.1c-1.5-8.3-7.5-15.7-16-17.5c-10.2-2.2-19.2,3.2-26.2,10
		c-6.1,5.9-10.6,13.4-12.7,21.7c-2.2,8.7,0.7,17.1,8.1,22.2c2.3,1.6,4.9,2.7,7.6,3.2c3,0.5,5.9,0,8.9-0.2c3.8-0.3,7.2-1.7,10.6-3.2
		c1.4-0.6,1.5-0.5,2.2,0.8c0.8,1.5,1.7,3,2.6,4.5c0.6,0.9,0.5,1.6-0.5,2.1c-2.3,1.2-4.7,2.3-7.1,3.5c-2.4,1.1-4.9,1.7-7.5,2.1
		c-9,1.1-18-2-25-7.7c-1.7-1.4-3.3-2.8-4.7-4.5c-2-2.4-4-4.8-5.5-7.4c-2-3.3-3.3-6.9-4.2-10.8c-3.2-14.7,3.1-29.5,14.5-39.1
		c5.3-4.5,11.8-7.8,18.6-9.4c7.1-1.7,14.5-0.8,21.3,1.6c5.3,1.9,10.3,5.1,14.2,9.2c2,2.1,3.8,4.5,5.2,7c1.5,2.6,2.2,5.4,3.5,8
		c0.8,1.6,3.3,2,4.6,0.8c1-0.9,1-0.9,1.9,0.1c0.8,0.8,1.7,1.6,2.5,2.5c0.7,0.7,0.8,1.4,0.1,2.2c-0.9,1.1-1.8,2.3-2.7,3.4
		C382.2,3265.2,380.5,3267.2,378.8,3269.2C378.9,3269.2,378.8,3269.2,378.8,3269.2"/>
	<path clip-path="url(#SVGID_2_)" fill="#FFFFFF" d="M460.7,3321.8c-3.1-2.8-6.2-5.5-9.2-8.3c-0.6-0.5-1.1-0.5-1.5,0.1
		c-0.8,1-1.6,2.1-2.4,3c-0.7,0.7-0.7,1.4-0.3,2.3c0.5,1,1,2.1,1.5,3.1c1.3,2.7,1.5,5.6-0.1,8.2c-1.4,2.3-3.1,4.3-4.8,6.3
		c-6.4,7.3-12.8,14.5-19.3,21.7c-2.3,2.6-4.6,5.1-6.9,7.7c-1.9,2.1-4.2,3.6-7,4.1c-3,0.5-5.9,0.6-8.6-1.2c-0.1-0.1-0.5,0-0.6,0.1
		c-1,1.1-1.9,1.6-2.7,2.9c-0.3,0.6,1.2,1.5,1.5,1.8c0.9,0.8,1.8,1.6,2.7,2.4c1.7,1.6,3.5,3.2,5.2,4.8c3.8,3.5,7.7,7,11.6,10.5
		c1.7,1.5,3.2,2.9,4.9,4.4c0.7,0.6,1.4,0.9,2.1,0.2c0.4-0.5,0.8-1,1.3-1.4c0.6-0.6,0.8-1.3,0.5-2.1c-0.2-0.7-0.7-1.2-1-1.9
		c-0.8-1.7-1-3.5-0.9-5.3c0-2,0.7-3.7,1.9-5.2c2-2.4,4.1-4.8,6.2-7.2c3-3.5,6.1-6.9,9.1-10.4c5.7-6.5,11.3-12.9,17-19.4
		c0.3-0.3,0.6-0.6,0.9-0.8c2.2-1.5,4.7-1.8,7.2-1.4c1.4,0.2,2.7,0.5,4,0.9c1,0.3,1.7-0.1,2.2-0.8c0.4-0.5,0.8-1.1,1.2-1.7
		c0.9-1,1-1.8,0-2.8c-4.9-4.4-9.8-8.9-14.7-13.3C461.4,3322.5,461.1,3322.2,460.7,3321.8"/>
	<path clip-path="url(#SVGID_2_)" fill="#FFFFFF" d="M94.3,3098c-0.9-0.8-0.9-1-0.1-1.9c0.6-0.7,1.2-1.3,1.8-2
		c0.4-0.5,0.7-0.5,1.2-0.2c0.7,0.5,1.4,0.9,2.1,1.3c2.5,1.5,5.2,1.8,7.9,0.9c1.3-0.4,2.7-1.3,3.7-2.3c3.4-3.5,6.6-7.1,9.8-10.6
		c7.3-8,14.6-16,21.8-24.1c3.2-3.6,4.2-7.8,2.9-12.5c-0.4-1.2-1.3-2.3-2.2-3.4c-0.6-0.7-0.7-1.2,0-1.9c0.6-0.6,1.1-1.2,1.7-1.8
		c0.7-0.8,1.2-1.1,2.1-0.3c2.8,2.5,5.6,5,8.4,7.5c1.7,1.5,3.4,3.1,5.2,4.7c4.3,3.8,8.6,7.8,12.9,11.6c0.3,0.3,0.6,0.6,0.9,1
		c0.6,0.7,0.6,1.4-0.1,2.1c-0.6,0.6-1.1,1.2-1.7,1.8c-0.5,0.5-1,0.6-1.7,0.2c-1.3-0.7-2.7-1.3-4.1-1.8c-4.2-1.5-8.7,1.5-11.5,4.3
		c-4.1,4.1-8,8.4-11.9,12.7c-6,6.7-12.1,13.4-18.1,20c-2.5,2.7-4.5,7.4-2.3,11c0.6,0.9,1.3,1.8,2,2.7c0.8,1,1,1.7,0.3,2.8
		c-0.5,0.9-1.1,1.7-1.7,2.5c-0.6,0.7-1.4,0.7-2.1,0.1c-4.5-4.1-9.1-8.2-13.6-12.3C107.6,3110.1,98.7,3102,94.3,3098"/>
	<path clip-path="url(#SVGID_2_)" fill="#FFFFFF" d="M4918.7,5652.4c0.2-0.2,0.4-0.4,0.7-0.6c6.1-4.5,10.8-7.9,18.3-13.4
		c1.5-1.1,2.8-0.2,4.2,0.5c1.9,0.8,3.8,1.7,5.6,2.6c4.7,2.4,9.4,4.9,14,7.4c2.7,1.5,5.5,2.9,8.6,3.6c2.7,0.7,5.3,0.2,7.6-1.5
		c0.7-0.5,1.5-1.1,2.3-1.7c-0.9-1.3-1.8-2.5-2.7-3.7c-2.5-3.4-5-6.8-7.4-10.3c-1.5-2.3-3.7-3.2-6.2-3.7c-2.5-0.5-4.9-0.1-7.1,1.3
		c-0.8,0.5-1.6,0.5-2.2-0.3c-0.8-1-1.8-2.3-2.5-3.4c-0.4-0.6-0.1-1.2,0.5-1.7c6.9-5,10.6-7.7,15.9-11.6c2.7-1.9,5.3-3.9,8-5.8
		c1.4-1,2.7-2,4.1-3c0.4-0.3,1-0.4,1.4-0.1c0.4,0.2,0.6,0.6,0.8,1c0,0,0,0,0,0.1c0.5,0.8,1,1.7,1.5,2.5c0.3,0.5,0.3,0.8,0,1.2
		c-1.8,2.4-2.8,5.4-2.5,8.4c0.2,1.5,0.6,3.1,1.3,4.5c0.5,0.9,1.2,1.8,1.8,2.7c0.6,0.8,1.2,1.7,1.9,2.6c1.4,1.7,2.6,3.6,3.9,5.4
		c2.6,3.6,5.2,7.2,7.8,10.8c2.6,3.6,5.2,7.2,7.9,10.8c1.3,1.8,2.7,3.7,4,5.5c2.3,3.1,5.4,5.1,9.4,5.2c1.3,0,2.6-0.4,3.9-0.8
		c0.5-0.2,0.8-0.1,1.1,0.3c0.6,0.8,1.2,1.6,1.8,2.4c0.6,0.9,0.5,1.4-0.3,1.9c-9,6.5-18,13.1-27.1,19.6c-6.1,4.4-12.9,8.2-20.7,6.9
		c-3.7-0.6-7-1.9-10-4.2c-2.6-2-4.6-4.5-6.1-7.6c-1.6-3.3-2.2-6.8-2.1-10.3c0-1.8,0.6-3.5,1-5.3c0-0.1,0.1-0.2,0.1-0.3
		c0.6-1.7,0.3-2.1-1.4-1.9c-3.2,0.3-6-0.9-8.7-2.5c-3.4-2-6.9-3.8-10.2-5.9c-3.6-2.2-7.5-3.4-11.7-3.8c-2.2-0.2-4.4,0-6.6-0.1
		c-0.6,0-1.4-0.2-1.8-0.6C4920.3,5654.7,4919.4,5653.4,4918.7,5652.4 M4983.2,5659.2C4983.2,5659.1,4983.2,5659.1,4983.2,5659.2
		c-1,0.8-2,1.5-2.8,2.4c-1,1.2-2.1,2.5-2.6,3.9c-0.7,1.9-0.9,4-0.5,6.1c0.6,4,2.8,7,6.2,9.1c3.4,2.1,7,2.5,10.7,1.1
		c1.9-0.8,3.7-1.9,5.6-2.8c0.7-0.4,0.7-1,0.3-1.7c-2.7-3.5-5.3-7.2-7.9-10.8c-1.7-2.5-3.4-5-5.1-7.6c-0.2-0.3-0.4-0.7-0.8-0.9
		C4985.1,5657.2,4984,5658.6,4983.2,5659.2"/>
	<path clip-path="url(#SVGID_2_)" fill="#FFFFFF" d="M5057.3,5649.1c-14.2,10.8-36,8.4-49.1-3c-11.5-10.1-16.5-27.1-12.2-41.8
		c4.3-14.7,17.6-26.4,32.8-28.7c15.2-2.3,31.4,4.9,39.8,17.6c5.3,8,7.4,17.8,6.3,27.3c-1.2,10.8-6.7,19.4-14.9,26.4
		c-0.6,0.5-1.2,1-1.7,1.5C5057.9,5648.7,5058,5648.6,5057.3,5649.1 M5051.7,5601.7c-3.2-4.3-7.4-8.1-12-10.9c-5-3-11-4.7-16.7-3.2
		c-5.1,1.3-9.7,4.8-12,9.5c-1.9,3.8-2.4,8.1-1.9,12.3c0.5,4.2,1.9,8.2,3.6,12c4.8,10.4,14.4,20.8,26.1,23.2
		c8.8,1.7,17.2-3.1,20.4-11.4C5063,5623,5058.2,5609.8,5051.7,5601.7"/>
	<path clip-path="url(#SVGID_2_)" fill="#FFFFFF" d="M4902,5717.1c4,5.5,8,11,12,16.5c1.3,1.8,3.2,3,5.2,3.8
		c2.4,0.9,4.8,0.7,7.2-0.2c0.8-0.3,1.3-0.3,1.8,0.6c0.4,0.8,1,1.4,1.5,2.1c0.5,0.6,0.5,1.2-0.1,1.7c-0.8,0.7-1.5,1.3-2.3,1.9
		c-5.2,3.8-10.4,7.6-15.6,11.3c-1.1,0.8-2.3,1.7-3.4,2.5c-0.7,0.5-1.3,0.3-1.8-0.3c-0.6-0.8-1.2-1.6-1.7-2.4
		c-0.4-0.7-0.3-1.5,0.2-2.1c2.7-2.9,3.3-6.2,2.5-10c-0.5-2-1.5-3.8-2.7-5.4c-7.4-10.2-14.8-20.4-22.2-30.6c-2.5-3.4-3.7-7.2-4-11.4
		c-0.8-13.4,10-22.4,19.8-29.5c3-2.2,6.2-4.1,9.8-5.2c6.6-2.1,14.2-0.3,19.4,4.3c3.1,2.7,5.2,6.3,7.5,9.7c2.2,3.2,4.6,6.3,6.9,9.5
		c2.7,3.8,5.5,7.6,8.2,11.4c1.7,2.4,3.4,4.9,5.3,7.3c0.9,1.2,1.9,2.5,3.2,3.1c1.8,0.9,3.7,1.9,5.8,1.6c1.3-0.2,2.6-0.5,3.9-0.9
		c0.7-0.2,1.2-0.1,1.6,0.5c0.6,0.8,1.2,1.7,1.9,2.5c0.5,0.7,0.4,1.5-0.3,2.1c-0.4,0.3-0.8,0.6-1.1,0.9c-9.1,6.6-18.1,13.2-27.2,19.8
		c-1.1,0.8-1.5,0.8-2.4-0.3c-0.6-0.7-1.2-1.5-1.6-2.4c-0.2-0.5-0.1-1.2,0.1-1.7c0.3-0.6,0.8-1.1,1.3-1.5c1.8-1.3,2.4-3.2,2.8-5.2
		c0.5-2.5,0-5-1.2-7.2c-0.8-1.5-2-2.9-3-4.4c-3.9-5.3-7.7-10.6-11.5-15.9c-3.1-4.3-6.3-8.6-9.3-12.9c-3.5-5.1-9.5-8.9-15.5-5.6
		c-2.1,1.2-4.3,2.4-6.2,3.9c-2.1,1.6-3.9,3.6-5.9,5.4c-2.6,2.5-3.8,6-3.4,9.6c0.5,4.5,3.4,7.9,6,11.4
		C4894.1,5706.3,4901.9,5717.1,4902,5717.1L4902,5717.1z"/>
	<path clip-path="url(#SVGID_2_)" fill="#FFFFFF" d="M5126.4,5598.9c-1.3,0.8-2,1.1-2.9-0.1c-1.1-1.5-2.2-3-3.3-4.5
		c-1.6-2.1-3.2-4.2-4.9-6.3c-1.1-1.5-2.3-3-3.4-4.6c-1.1-1.6-2-3.2-2.9-4.9c-0.4-0.6-0.2-1.2,0.3-1.6c0.6-0.6,1.3-1.2,2-1.7
		c0.3-0.2,1-0.3,1.3-0.1c2.9,1.7,5.6,3.5,8.6,5.1c6.6,3.4,12.9,2,19.1-1.3c1.7-0.9,3.4-1.9,5.1-2.9c0.7-0.4,1.5-0.9,2.1-1.5
		c0.3-0.3,0.4-0.9,0.3-1.3c-0.2-0.6-0.6-1.1-1-1.6c-2.4-3.5-4.9-7.1-7.4-10.6c-1.6-2.3-3.3-4.5-4.9-6.8c-0.5-0.7-1.1-0.9-1.7-0.4
		c-0.7,0.6-1.5,1.2-2.1,1.9c-1.2,1.6-2.6,3.1-2.7,5.2c-0.2,3.2,0.5,6.2,2.2,9c0.2,0.3-0.1,1.2-0.5,1.5c-0.6,0.6-1.3,1-2.1,1.5
		c-0.7,0.4-1.8,0.1-2.4-0.6c-1-1.3-1.8-2.7-2.8-4.1c-1.8-2.4-3.6-4.8-5.4-7.2c-2.6-3.6-5.2-7.1-7.9-10.7c-0.7-0.9-1.4-1.8-2.1-2.7
		c-0.6-0.8-0.4-1.5,0.2-2.1c0.6-0.6,1.1-1.1,1.7-1.7c0.5-0.4,0.9-0.5,1.5,0.1c1.3,1.3,2.7,2.4,4.4,3c2,0.8,4.1,1.4,6.3,1.4
		c1.8,0,3.4-0.5,4.8-1.6c1.3-1,1.3-2,0.4-3.3c-3.7-5-7.3-10.1-11.3-14.9c-2.3-2.8-5.5-4-9.2-3.8c-2.2,0.1-4.1,1.1-5.8,2.3
		c-1,0.7-1.5,0.7-2.3-0.3c-0.7-0.8-1.3-1.5-1.9-2.4c-0.1-0.2,0-0.7,0.2-0.9c0.4-0.4,0.8-0.7,1.3-1c4.6-3.3,9.1-6.6,13.7-9.9
		c6-4.3,11.9-8.7,17.9-13c1.6-1.1,1.6,0,2.8,1.2c1.5,1.5-0.9,3-1.9,4c-2.6,2.5-3,5.7-2.5,9.1c0.3,2.3,1.4,4.3,2.8,6.1
		c3.1,4.3,26.3,35.7,28.3,38.1c3.1,3.6,7.8,5.1,12.1,3.3c1.6-0.6,1.5-0.6,2.6,0.6c0.1,0.2,0.3,0.3,0.4,0.5c0.8,0.9,0.7,1.6-0.3,2.4
		c-3.6,2.6-7.2,5.2-10.7,7.9c-5.3,3.9-10.7,7.8-16,11.7c-5.3,3.9-10.7,7.7-16,11.6c0,0-0.1,0-0.1,0.1
		C5129.3,5596.8,5127.9,5597.8,5126.4,5598.9C5126.5,5598.8,5126.5,5598.9,5126.4,5598.9"/>
	<path clip-path="url(#SVGID_2_)" fill="#FFFFFF" d="M4824.3,5769.2c4.9,6.7,7.3,14.8,7.4,23.1c0.2,9.7-3.2,19.3-9.7,26.5
		c-5.6,6.3-13.3,10.7-21.6,12.2c-2.2,0.4-5,1.4-4.8,3.5c0,0.5,0.3,1.1,0.4,1.6c0.2,1.9-1.8,3.1-3.6,3.9c-0.5,0.2-1.1,0.5-1.6,0.3
		c-0.6-0.1-1-0.6-1.3-1c-5.5-6.7-11-13.3-16.5-20c-0.8-1-1.7-2.1-1.5-3.4c0.2-1.5,2-2.4,3.5-2.2c1.5,0.2,2.8,1.1,4.1,2.1
		c3.4,2.5,7,5.1,11,6.4c9.5,3.1,20.9-2,25-11.2c2.4-5.5,2.3-11.8,0.5-17.5c-1.8-5.7-5.2-10.8-9-15.3c-6.3-7.3-15-13.8-24.6-13.2
		c-6.7,0.4-13,4.4-16.4,10.2c-3.4,5.8-3.9,13.1-1.5,19.4c0.4,1.1,0.9,2.4,0.2,3.3c-0.4,0.5-0.9,0.7-1.5,0.9
		c-1.2,0.5-2.4,0.9-3.7,1.4c-0.6,0.2-1.4,0.5-2,0.2c-0.5-0.3-0.8-0.8-1-1.4c-5.6-13.8-0.7-30.8,10.9-40
		C4785.8,5744,4810.6,5751.9,4824.3,5769.2"/>
	<path clip-path="url(#SVGID_2_)" fill="#FFFFFF" d="M4845.5,5783.6c-3.3-4.2-6.6-8.5-9.9-12.7c-0.8-1-0.7-1.1,0.3-1.9
		c0.2-0.2,0.4-0.4,0.6-0.6c1.5-1.4,1.5-1.4,3.2-0.3c5.6,3.7,11.5,8.4,18.7,8.6c8.5,0.3,16.9-4.1,20.4-12c4.3-9.5,0.9-19.4-4.4-27.7
		c-4.5-7.2-10.9-13.2-18.6-16.9c-8.1-3.9-16.8-2.9-23.4,3.3c-2,1.9-3.7,4.2-4.7,6.8c-1.1,2.8-1.2,5.8-1.6,8.7
		c-0.5,3.7,0.2,7.4,0.9,11c0.3,1.5,0.2,1.6-1.2,2c-1.7,0.5-3.3,1-5,1.6c-1,0.4-1.7,0.1-2-1c-0.7-2.5-1.3-5.1-1.9-7.7
		c-0.6-2.6-0.7-5.2-0.5-7.8c0.7-9,5.7-17.2,12.7-22.8c1.7-1.3,3.4-2.7,5.3-3.7c2.7-1.5,5.5-2.9,8.4-3.9c3.7-1.3,7.5-1.8,11.4-1.9
		c15-0.1,28.3,9.2,35.2,22.3c3.3,6.2,5.2,13.2,5.3,20.1c0.2,7.3-2.3,14.3-6,20.5c-2.9,4.8-7.1,9-11.9,12c-2.5,1.5-5.2,2.8-7.9,3.7
		c-2.8,0.9-5.7,1.1-8.6,1.8c-1.8,0.5-2.6,2.8-1.7,4.4c0.7,1.2,0.7,1.2-0.5,1.9c-1,0.6-2,1.3-2.9,2c-0.8,0.5-1.5,0.5-2.2-0.3
		c-0.9-1.2-1.9-2.2-2.8-3.4C4848.7,5787.7,4847.1,5785.7,4845.5,5783.6C4845.5,5783.6,4845.5,5783.6,4845.5,5783.6"/>
	<path clip-path="url(#SVGID_2_)" fill="#FFFFFF" d="M4777,5852.7c3.3-2.4,6.7-4.9,10-7.3c0.6-0.4,0.7-0.9,0.2-1.5
		c-0.8-1-1.7-2-2.4-3c-0.6-0.8-1.3-1-2.2-0.8c-1.1,0.3-2.2,0.5-3.3,0.8c-2.9,0.7-5.8,0.3-8-1.8c-1.9-1.8-3.6-3.9-5.2-6.1
		c-5.8-7.8-11.5-15.6-17.2-23.4c-2-2.8-4-5.6-6.1-8.3c-1.7-2.3-2.7-4.8-2.6-7.7c0.1-3,0.7-5.9,3-8.2c0.1-0.1,0.1-0.5,0-0.6
		c-0.8-1.2-1.2-2.2-2.3-3.2c-0.5-0.4-1.7,0.9-2,1.2c-1,0.7-1.9,1.4-2.9,2.1c-1.9,1.4-3.8,2.7-5.8,4.1c-4.2,3-8.5,6.1-12.6,9.2
		c-1.8,1.3-3.5,2.5-5.3,3.9c-0.8,0.6-1.1,1.2-0.6,2c0.4,0.5,0.8,1,1.1,1.6c0.4,0.8,1.1,1,1.9,0.9c0.7-0.1,1.4-0.4,2-0.5
		c1.8-0.4,3.6-0.2,5.4,0.2c2,0.4,3.5,1.4,4.7,3c2,2.5,3.9,5.1,5.8,7.6c2.8,3.7,5.5,7.4,8.3,11.1c5.1,6.9,10.3,13.8,15.4,20.7
		c0.2,0.3,0.4,0.7,0.6,1.1c1,2.5,0.8,4.9-0.1,7.3c-0.5,1.3-1.1,2.5-1.7,3.8c-0.5,0.9-0.2,1.7,0.4,2.4c0.4,0.5,1,1,1.4,1.6
		c0.8,1.1,1.6,1.4,2.7,0.6c5.3-3.9,10.7-7.7,16-11.6C4776.2,5853.3,4776.6,5853,4777,5852.7"/>
	<path clip-path="url(#SVGID_2_)" fill="#FFFFFF" d="M5072.2,5540.8c1-0.7,1.2-0.7,1.9,0.3c0.5,0.7,1,1.5,1.6,2.2
		c0.4,0.5,0.3,0.8-0.1,1.2c-0.6,0.6-1.1,1.2-1.7,1.8c-2,2.1-2.8,4.7-2.5,7.5c0.2,1.4,0.7,2.9,1.5,4.1c2.7,4,5.5,7.9,8.4,11.8
		c6.3,8.8,12.6,17.6,19,26.3c2.9,3.9,6.8,5.8,11.6,5.4c1.3-0.1,2.6-0.8,3.8-1.5c0.8-0.4,1.3-0.4,1.8,0.4c0.5,0.7,1,1.3,1.5,2
		c0.6,0.9,0.8,1.4-0.1,2.1c-3,2.2-6.1,4.4-9.1,6.7c-1.9,1.4-3.8,2.7-5.6,4.1c-4.6,3.4-9.5,6.8-14.1,10.2c-0.4,0.3-0.7,0.5-1.1,0.7
		c-0.8,0.4-1.5,0.3-2-0.6c-0.4-0.7-1-1.3-1.4-2c-0.4-0.6-0.4-1.1,0.1-1.7c1-1.2,1.8-2.4,2.6-3.7c2.4-3.7,0.4-8.8-1.8-12.1
		c-3.2-4.8-6.5-9.6-9.9-14.2c-5.3-7.3-10.6-14.6-15.8-21.9c-2.2-3-6.3-6-10.2-4.6c-1,0.4-2,0.9-3,1.4c-1.2,0.6-1.8,0.6-2.8-0.3
		c-0.7-0.7-1.4-1.4-2.1-2.2c-0.6-0.7-0.4-1.6,0.3-2.1c4.9-3.6,9.9-7.2,14.8-10.8C5057.6,5551.3,5067.3,5544.3,5072.2,5540.8"/>
</g>
<g>
	<defs>
		<rect id="SVGID_7_" x="-146.8" y="-133.6" width="5901.7" height="3719.1"/>
	</defs>
	<clipPath id="SVGID_4_">
		<use xlink:href="#SVGID_7_"  overflow="visible"/>
	</clipPath>
	<path clip-path="url(#SVGID_4_)" fill="none" stroke="#FFFFFF" stroke-width="1.25" stroke-miterlimit="10" d="M5666.6,3522.3v63.1
		 M5666.6-70.5v-63.1 M-58.4,3522.3v63.1 M-58.4-70.5v-63.1 M5691.8,3497.1h63.1 M-83.7,3497.1h-63.1 M5691.8-45.3h63.1 M-83.7-45.3
		h-63.1"/>
	<path clip-path="url(#SVGID_4_)" fill="none" stroke="#000000" stroke-width="0.25" stroke-miterlimit="10" d="M5666.6,3522.3v63.1
		 M5666.6-70.5v-63.1 M-58.4,3522.3v63.1 M-58.4-70.5v-63.1 M5691.8,3497.1h63.1 M-83.7,3497.1h-63.1 M5691.8-45.3h63.1 M-83.7-45.3
		h-63.1"/>
</g>
</svg>
