<?xml version="1.0" encoding="utf-8"?>
<!-- Generator: Adobe Illustrator 21.1.0, SVG Export Plug-In . SVG Version: 6.00 Build 0)  -->
<!DOCTYPE svg PUBLIC "-//W3C//DTD SVG 1.1//EN" "http://www.w3.org/Graphics/SVG/1.1/DTD/svg11.dtd">
<svg version="1.1" id="Layer_1" xmlns="http://www.w3.org/2000/svg" xmlns:xlink="http://www.w3.org/1999/xlink" x="0px" y="0px"
	 viewBox="0 0 5442.5 3061.4" enable-background="new 0 0 5442.5 3061.4" xml:space="preserve">
<g>
	<defs>
		<path id="SVGID_1_" d="M338.2,2760.8h-33.5l26.9,20.1l-9.6,33.8l28-19.4l27,19.4l-9.9-33.6l28.6-20.6h-34.2l-11.5-30L338.2,2760.8
			z M1203.8,2760.8h-33.5l26.9,20.1l-9.6,33.8l28-19.4l27,19.4l-9.9-33.6l28.6-20.6h-34.2l-11.5-30L1203.8,2760.8z M4194.5,2760.8
			h-33.5l26.9,20.1l-9.6,33.8l28-19.4l27,19.4l-9.9-33.6l28.6-20.6h-34.2l-11.5-30L4194.5,2760.8z M5060.1,2760.8h-33.5l26.9,20.1
			l-9.6,33.8l28-19.4l27,19.4l-9.9-33.6l28.6-20.6h-34.2l-11.5-30L5060.1,2760.8z M1093.8,2782.6c6.5,3.4,12.8,6.6,19.3,10
			c17.2-33.6,34.3-66.9,51.5-100.6c-6.5-3.3-12.9-6.5-19.4-9.8C1128.1,2715.7,1111,2749.2,1093.8,2782.6 M4950.1,2782.6
			c6.5,3.4,12.8,6.6,19.3,10c17.2-33.6,34.3-66.9,51.5-100.6c-6.5-3.3-12.9-6.5-19.4-9.8C4984.3,2715.7,4967.3,2749.2,4950.1,2782.6
			 M408.4,2695.2c15.4,34.4,30.6,68.7,45.8,103.1c6.9-3,13.4-5.9,20.2-8.9l-0.9-2.2c-5.7-12.8-11.3-25.6-17-38.4l1.6-3.8
			c6.3-2.8,12.7-5.7,19.1-8.5c4.1-1.8,8.3-3.8,12.6-5.7c-3-6.9-6-13.6-9-20.4l-3,1.3c-9.6,4.2-19.2,8.5-28.7,12.8l-3.9-1.3
			c-2.1-4.9-4.3-9.7-6.5-14.6l1.6-4.1c8.5-3.7,17-7.5,25.4-11.2c5.4-2.3,10.9-4.8,16.5-7.3c-2.9-6.6-5.7-13-8.7-19.6
			C451.7,2676,430.1,2685.6,408.4,2695.2 M4264.6,2695.2c15.4,34.4,30.6,68.7,45.8,103.1c6.9-3,13.4-5.9,20.2-8.9l-0.9-2.2
			c-5.7-12.8-11.3-25.6-17-38.4l1.6-3.8c6.3-2.8,12.7-5.7,19.1-8.5c4.1-1.8,8.3-3.8,12.6-5.7c-3-6.9-6-13.6-9-20.4l-3,1.3
			c-9.6,4.2-19.2,8.5-28.7,12.8l-3.9-1.3c-2.1-4.9-4.3-9.7-6.5-14.6l1.6-4.1c8.5-3.7,17-7.5,25.4-11.2c5.4-2.3,10.9-4.8,16.5-7.3
			c-2.9-6.6-5.7-13-8.7-19.6C4307.9,2676,4286.4,2685.6,4264.6,2695.2 M1014.4,2688.5c-9.1,19.3-7.9,38.3,3.5,56.5
			c9.8,15.4,23.4,25.7,41.7,29.2c4.3,0.7,8.8,0.9,13.3-0.2c-0.4-7.3-0.8-14.5-1.3-21.6c-4.1-1.1-8.1-1.9-12.1-3
			c-24.4-7.1-29.5-28.4-26.3-43.5c4.3-19.8,28.1-35.1,48.7-24.8c6.4,3.1,12.1,7.2,17.6,11.6l2.4,0.6c5.7-4,11.5-7.6,17.4-11.5
			l-1-1.6c-10.6-14.8-25.3-22.4-43-24.8c-2.7-0.4-5.4-0.5-8-0.5C1043,2654.8,1023.2,2670,1014.4,2688.5 M4870.7,2688.5
			c-9.1,19.3-7.9,38.3,3.5,56.5c9.8,15.4,23.4,25.7,41.7,29.2c4.3,0.7,8.8,0.9,13.3-0.2c-0.4-7.3-0.8-14.5-1.3-21.6
			c-4.1-1.1-8.1-1.9-12.1-3c-24.4-7.1-29.5-28.4-26.3-43.5c4.3-19.8,28.1-35.1,48.7-24.8c6.4,3.1,12.1,7.2,17.6,11.6l2.4,0.6
			c5.7-4,11.5-7.6,17.4-11.5l-1-1.6c-10.6-14.8-25.3-22.4-43-24.8c-2.7-0.4-5.4-0.5-8-0.5C4899.2,2654.8,4879.5,2670,4870.7,2688.5
			 M498.9,2655.2c12.2,35.7,24.4,71.3,36.5,106.8c7-2.5,13.8-4.8,20.7-7.2c-12.2-35.7-24.4-71.2-36.6-106.8
			C512.6,2650.4,505.8,2652.8,498.9,2655.2 M4355.2,2655.2c12.2,35.7,24.4,71.3,36.5,106.8c7-2.5,13.8-4.8,20.7-7.2
			c-12.2-35.7-24.4-71.2-36.6-106.8C4368.8,2650.4,4362.1,2652.8,4355.2,2655.2 M930.1,2639.1c-24.2,18.5-30.3,53.6-13.2,79.2
			c17.1,25.7,49.7,33.2,68.1,24.9c-2-6.9-4.1-13.9-6.1-20.6c-5.3-0.2-10.4-0.2-15.5-0.8c-27.6-2.8-35.9-28.7-31.4-45.3
			c4.3-16.1,22.3-30.9,42-26.1c7,1.8,13.5,4.8,19.9,8.4c5.1-5.3,10.1-10.7,15.1-16c-9.5-10.5-24.9-16.2-40.9-16.2
			C954.9,2626.7,941.2,2630.6,930.1,2639.1 M4786.4,2639.1c-24.2,18.5-30.3,53.6-13.2,79.2c17.1,25.7,49.7,33.2,68.1,24.9
			c-2-6.9-4.1-13.9-6.1-20.6c-5.3-0.2-10.4-0.2-15.5-0.8c-27.6-2.8-35.9-28.7-31.4-45.3c4.3-16.1,22.3-30.9,42-26.1
			c7,1.8,13.5,4.8,19.9,8.4c5.1-5.3,10.1-10.7,15.1-16c-9.5-10.5-24.9-16.2-40.9-16.2C4811.2,2626.7,4797.5,2630.6,4786.4,2639.1
			 M582.5,2687.2c-4.3-19,8.7-38.6,28.5-42.9c2.8-0.7,5.6-0.8,8.5-1.3c20,0.3,36.5,15.6,37.4,35.5c0.8,17.3-10.9,32.5-28.5,36.9
			c-3.1,0.8-6.2,1.1-9.2,1.1c0,0,0,0,0,0C601.8,2716.6,586.4,2704.8,582.5,2687.2 M619.7,2620.4c-8.1,0.1-15.9,1.3-23.3,4.3
			c-21.2,8.7-34.3,24-37.6,46.7c-3.2,22.5,4.3,41.6,22.5,55.3c21.3,16.1,44.6,17.5,68.3,5.3c23.4-12.2,35.4-39.2,29.5-64.8
			c-6.2-27.7-30.4-46.9-59.2-46.9C619.8,2620.4,619.7,2620.4,619.7,2620.4 M4438.7,2687.2c-4.3-19,8.7-38.6,28.5-42.9
			c2.8-0.7,5.6-0.8,8.5-1.3c20,0.3,36.5,15.6,37.4,35.5c0.8,17.3-11,32.5-28.5,36.9c-3.1,0.8-6.2,1.1-9.2,1.1c0,0,0,0,0,0
			C4458.1,2716.6,4442.6,2704.8,4438.7,2687.2 M4475.9,2620.4c-8.1,0.1-15.9,1.3-23.3,4.3c-21.2,8.7-34.3,24-37.6,46.7
			c-3.2,22.5,4.3,41.6,22.5,55.3c21.3,16.1,44.6,17.5,68.3,5.3c23.4-12.2,35.4-39.2,29.5-64.8c-6.2-27.7-30.4-46.9-59.2-46.9
			C4476.1,2620.4,4476,2620.4,4475.9,2620.4 M809.1,2634.4c-1.3,14.2-2.6,28.3-3.8,42.4c-0.5,7.1-1.2,14.3-1,21.4
			c0.2,8.2,4,15.1,10.1,20.5c13.3,11.5,28.5,13.6,45.1,9.2c13.1-3.6,21.2-12.1,23.9-25.1c1.5-7,2-14.3,2.7-21.4
			c1.3-14.6,2.6-29.1,3.9-43.7c0.6-6.7,1.1-13.4,1.7-20.3c-7.5-0.7-14.8-1.3-22.4-2l-0.5,2.8c-1,12.1-2.1,24.1-3.2,36.3
			c-1.2,12.5-2.3,25.1-3.6,37.6c-1,8.7-5.5,13.5-13.5,14.8l-5.5,0.1c-9.3-0.8-14.3-5.1-15.5-13.9l-0.2-5.7c0.2-4,0.6-8.1,1-12
			c1.3-15.9,2.9-31.7,4.3-47.7c0.5-5.2,0.9-10.3,1.4-15.6c-7.6-0.7-15-1.4-22.6-2.1C810.6,2618.3,809.8,2626.4,809.1,2634.4
			 M4665.3,2634.4c-1.3,14.2-2.6,28.3-3.8,42.4c-0.5,7.1-1.2,14.3-1,21.4c0.2,8.2,4,15.1,10.1,20.5c13.3,11.5,28.5,13.6,45.1,9.2
			c13.1-3.6,21.2-12.1,23.9-25.1c1.5-7,2-14.3,2.7-21.4c1.3-14.6,2.6-29.1,3.9-43.7c0.6-6.7,1.1-13.4,1.7-20.3
			c-7.5-0.7-14.8-1.3-22.4-2l-0.5,2.8c-1,12.1-2.1,24.1-3.2,36.3c-1.2,12.5-2.2,25.1-3.6,37.6c-1,8.7-5.5,13.5-13.5,14.8l-5.5,0.1
			c-9.3-0.8-14.3-5.1-15.5-13.9l-0.2-5.7c0.2-4,0.6-8.1,1-12c1.3-15.9,2.9-31.7,4.3-47.7c0.5-5.2,0.9-10.3,1.4-15.6
			c-7.6-0.7-15-1.4-22.6-2.1C4666.8,2618.3,4666.1,2626.4,4665.3,2634.4 M722.9,2658.4c-0.3-7.8-0.7-15.6-1.1-23.3l2.5-2.9
			c3.6-0.1,7.2-0.4,10.7-0.7v-0.3c3.2,0.2,6.5,0.1,9.7,0.7c6.3,1.3,11.1,8.1,10.8,14.5c-0.4,6.9-4.9,12.1-11.7,13.2
			c-3,0.4-5.9,0.6-8.9,0.8c-3.2,0.1-6.3,0.1-9.6,0.3L722.9,2658.4z M743.4,2610c-12.1,0.5-24.2,1-36.3,1.5c-2.8,0.1-5.6,0.4-8.6,0.7
			c1.8,37.5,3.7,74.9,5.5,112.5c7.4-0.4,14.7-0.8,21.9-1.1c-0.3-6.7-0.7-13.2-1-19.7c-0.2-5.4-0.5-10.9-0.7-16.2l2.7-1.9l4.6,3.2
			c2.6,2.9,4.9,6,7.3,9c5.8,7.2,11.6,14.3,17.3,21.5l5.3,2.4c4.8-0.3,9.5-0.3,14.3-0.5c3.7-0.2,7.4-0.5,11.7-0.6l-2.5-3
			c-9.7-11.1-19.4-22.3-29.1-33.4c-2.7-3-2.6-3.3,0.8-5.2c18.6-9.9,25.7-31.2,16.6-49.8c-5.9-12-15-19.3-28.8-19.3
			C744.1,2609.9,743.8,2609.9,743.4,2610 M4579.2,2658.4c-0.3-7.8-0.8-15.6-1.1-23.3l2.5-2.9c3.6-0.1,7.2-0.4,10.7-0.7v-0.3
			c3.2,0.2,6.5,0.1,9.7,0.7c6.3,1.3,11.1,8.1,10.8,14.5c-0.4,6.9-4.9,12.1-11.7,13.2c-3,0.4-5.9,0.6-8.9,0.8
			c-3.1,0.1-6.3,0.1-9.5,0.3L4579.2,2658.4z M4599.7,2610c-12.1,0.5-24.2,1-36.3,1.5c-2.8,0.1-5.6,0.4-8.6,0.7
			c1.8,37.5,3.7,74.9,5.5,112.5c7.4-0.4,14.7-0.8,21.9-1.1c-0.3-6.7-0.7-13.2-1-19.7c-0.2-5.4-0.5-10.9-0.8-16.2l2.7-1.9l4.6,3.2
			c2.6,2.9,4.9,6,7.3,9c5.7,7.2,11.6,14.3,17.3,21.5l5.3,2.4c4.8-0.3,9.5-0.3,14.3-0.5c3.7-0.2,7.4-0.5,11.7-0.6l-2.5-3
			c-9.7-11.1-19.4-22.3-29.1-33.4c-2.7-3-2.6-3.3,0.8-5.2c18.6-9.9,25.7-31.2,16.6-49.8c-5.9-12-15-19.3-28.8-19.3
			C4600.4,2609.9,4600,2609.9,4599.7,2610 M538.9,2123.4h-33.5l26.9,20.1l-9.6,33.8l28-19.4l27,19.4l-9.9-33.6l28.6-20.6h-34.2
			l-11.5-30L538.9,2123.4z M4892.5,2123.4H4859l26.9,20.1l-9.6,33.8l28-19.4l27,19.4l-9.9-33.6l28.6-20.6h-34.2l-11.5-30
			L4892.5,2123.4z M428.9,2145.2c6.5,3.4,12.8,6.6,19.3,10c17.2-33.6,34.3-66.9,51.5-100.6c-6.5-3.3-12.9-6.5-19.4-9.8
			C463.1,2078.3,446.1,2111.8,428.9,2145.2 M4962.6,2057.8c15.4,34.4,30.6,68.7,45.8,103.1c6.9-3,13.4-5.9,20.2-8.9l-0.9-2.2
			c-5.8-12.8-11.3-25.6-17-38.4l1.6-3.8c6.3-2.8,12.7-5.7,19.1-8.5c4.1-1.8,8.3-3.8,12.6-5.7c-3-6.9-6-13.6-9-20.4l-3,1.3
			c-9.6,4.2-19.2,8.5-28.7,12.8l-3.9-1.3c-2.1-4.9-4.3-9.7-6.5-14.6l1.6-4.1c8.5-3.7,17-7.5,25.4-11.3c5.4-2.3,10.9-4.8,16.5-7.3
			c-2.9-6.6-5.8-13-8.7-19.6C5005.9,2038.6,4984.3,2048.2,4962.6,2057.8 M349.5,2051.1c-9.1,19.3-7.9,38.3,3.5,56.5
			c9.8,15.4,23.4,25.7,41.7,29.2c4.3,0.8,8.8,0.9,13.3-0.2c-0.4-7.3-0.8-14.5-1.3-21.6c-4.1-1.1-8.1-1.9-12.1-3
			c-24.4-7.1-29.5-28.4-26.3-43.5c4.3-19.8,28.1-35.1,48.7-24.8c6.4,3.1,12.1,7.2,17.6,11.6l2.4,0.6c5.7-4,11.5-7.6,17.4-11.5
			l-1-1.6c-10.6-14.8-25.3-22.4-43-24.8c-2.7-0.4-5.4-0.5-8-0.5C378,2017.4,358.3,2032.6,349.5,2051.1 M5053.2,2017.8
			c12.2,35.7,24.4,71.3,36.5,106.8c7-2.5,13.8-4.8,20.7-7.2c-12.2-35.7-24.4-71.2-36.6-106.8
			C5066.8,2013,5060.1,2015.4,5053.2,2017.8 M-2.3,2085.2c14.5-14,21.1-35.1,16.4-55.4c-2.6-11.7-8.4-21.8-16.4-29.7V2085.2z
			 M265.2,2001.7c-24.2,18.5-30.3,53.6-13.2,79.2c17.1,25.7,49.7,33.2,68.1,24.9c-2-6.9-4.1-13.9-6.1-20.6
			c-5.3-0.2-10.4-0.2-15.5-0.8c-27.6-2.8-35.9-28.7-31.4-45.3c4.3-16.1,22.3-30.9,42-26.1c7,1.8,13.5,4.8,19.9,8.4
			c5.1-5.3,10.1-10.7,15.1-16c-9.5-10.5-24.9-16.2-40.9-16.2C290,1989.3,276.3,1993.2,265.2,2001.7 M5136.7,2049.8
			c-4.3-19,8.7-38.6,28.5-42.9c2.8-0.7,5.6-0.8,8.5-1.3c20,0.3,36.5,15.6,37.4,35.5c0.8,17.3-10.9,32.5-28.5,36.9
			c-3.1,0.8-6.2,1.1-9.2,1.1C5156.1,2079.2,5140.6,2067.4,5136.7,2049.8 M5173.9,1983c-8.1,0.1-15.9,1.3-23.3,4.3
			c-21.2,8.6-34.3,24-37.6,46.7c-3.2,22.5,4.3,41.6,22.5,55.3c21.3,16.1,44.6,17.5,68.3,5.3c23.4-12.2,35.4-39.2,29.5-64.8
			c-6.2-27.7-30.4-46.9-59.2-46.9C5174,1983,5174,1983,5173.9,1983 M144.1,1997c-1.3,14.2-2.6,28.3-3.8,42.4
			c-0.5,7.2-1.2,14.3-1,21.4c0.2,8.2,4,15.1,10.1,20.5c13.3,11.5,28.5,13.6,45.1,9.2c13.1-3.6,21.2-12.1,23.9-25.1
			c1.5-7,2-14.3,2.7-21.4c1.3-14.6,2.6-29.1,3.9-43.7c0.6-6.7,1.1-13.4,1.7-20.3c-7.5-0.7-14.8-1.3-22.4-2l-0.5,2.8
			c-1,12.1-2.1,24.1-3.2,36.3c-1.2,12.5-2.3,25.1-3.6,37.6c-1,8.7-5.5,13.5-13.5,14.8l-5.5,0.1c-9.3-0.8-14.3-5.1-15.5-13.9
			l-0.2-5.7c0.2-4,0.6-8.1,1-12c1.3-15.9,2.9-31.7,4.3-47.7c0.5-5.2,0.9-10.3,1.4-15.6c-7.6-0.7-15.1-1.4-22.6-2.1
			C145.7,1980.9,144.9,1989,144.1,1997 M5363.3,1997c-1.3,14.2-2.6,28.3-3.8,42.4c-0.5,7.2-1.2,14.3-1,21.4
			c0.2,8.2,4,15.1,10.1,20.5c13.3,11.5,28.5,13.6,45.1,9.2c13.1-3.6,21.2-12.1,23.9-25.1c1.5-7,2-14.3,2.7-21.4
			c1.3-14.6,2.6-29.1,3.9-43.7c0.6-6.7,1.1-13.4,1.7-20.3c-7.5-0.7-14.8-1.3-22.4-2l-0.5,2.8c-1,12.1-2.1,24.1-3.2,36.3
			c-1.2,12.5-2.3,25.1-3.6,37.6c-1,8.7-5.5,13.5-13.5,14.8l-5.5,0.1c-9.3-0.8-14.3-5.1-15.5-13.9l-0.2-5.7c0.2-4,0.6-8.1,1-12
			c1.3-15.9,2.9-31.7,4.3-47.7c0.5-5.2,0.9-10.3,1.4-15.6c-7.6-0.7-15.1-1.4-22.6-2.1C5364.8,1980.9,5364.1,1989,5363.3,1997
			 M58,2021c-0.3-7.8-0.8-15.6-1.1-23.3l2.5-2.9c3.6-0.1,7.2-0.4,10.7-0.7v-0.3c3.2,0.2,6.5,0.1,9.7,0.7c6.3,1.3,11.1,8.1,10.8,14.5
			c-0.4,6.9-4.9,12.1-11.7,13.2c-3,0.4-5.9,0.6-8.9,0.8c-3.1,0.1-6.3,0.1-9.5,0.3L58,2021z M78.5,1972.6c-12.1,0.5-24.2,1-36.3,1.5
			c-2.8,0.1-5.6,0.4-8.6,0.7c1.8,37.5,3.7,74.9,5.5,112.5c7.4-0.4,14.7-0.8,21.9-1.1c-0.3-6.7-0.7-13.2-1-19.7
			c-0.2-5.4-0.5-10.9-0.8-16.2l2.7-1.9l4.6,3.2c2.6,2.9,4.9,6,7.3,9c5.7,7.1,11.6,14.3,17.3,21.5l5.3,2.4c4.8-0.3,9.5-0.3,14.3-0.5
			c3.7-0.2,7.4-0.5,11.7-0.6l-2.5-3c-9.7-11.1-19.4-22.3-29.1-33.4c-2.7-3-2.6-3.3,0.8-5.2c18.6-9.9,25.7-31.2,16.6-49.8
			c-5.9-12-15-19.4-28.8-19.4C79.2,1972.5,78.8,1972.5,78.5,1972.6 M5277.2,2021c-0.3-7.8-0.8-15.6-1.1-23.3l2.5-2.9
			c3.6-0.1,7.2-0.4,10.7-0.7v-0.3c3.2,0.2,6.5,0.1,9.7,0.7c6.3,1.3,11.1,8.1,10.8,14.5c-0.4,6.9-4.9,12.1-11.7,13.2
			c-3,0.4-5.9,0.6-8.9,0.8c-3.1,0.1-6.3,0.1-9.5,0.3L5277.2,2021z M5297.7,1972.6c-12.1,0.5-24.2,1-36.3,1.5
			c-2.8,0.1-5.6,0.4-8.6,0.7c1.8,37.5,3.7,74.9,5.5,112.5c7.4-0.4,14.7-0.8,21.9-1.1c-0.3-6.7-0.6-13.2-1-19.7
			c-0.2-5.4-0.5-10.9-0.8-16.2l2.7-1.9l4.6,3.2c2.6,2.9,4.9,6,7.3,9c5.7,7.1,11.6,14.3,17.3,21.5l5.3,2.4c4.8-0.3,9.5-0.3,14.3-0.5
			c3.7-0.2,7.4-0.5,11.7-0.6l-2.5-3c-9.7-11.1-19.4-22.3-29.1-33.4c-2.7-3-2.6-3.3,0.8-5.2c18.6-9.9,25.7-31.2,16.6-49.8
			c-5.9-12-15-19.4-28.8-19.4C5298.3,1972.5,5298,1972.5,5297.7,1972.6 M1623.7,1509.2h-33.5l26.9,20.1l-9.6,33.8l28-19.4l27,19.4
			l-9.9-33.6l28.6-20.6H1647l-11.5-30L1623.7,1509.2z M2489.2,1509.2h-33.5l26.9,20.1l-9.6,33.8l28-19.4l27,19.4l-9.9-33.6
			l28.6-20.6h-34.2l-11.5-30L2489.2,1509.2z M2379.3,1531c6.5,3.4,12.8,6.6,19.3,10c17.2-33.6,34.3-66.9,51.5-100.6
			c-6.5-3.3-12.9-6.5-19.4-9.8C2413.5,1464.2,2396.4,1497.6,2379.3,1531 M1693.8,1443.6c15.4,34.4,30.6,68.6,45.8,103.1
			c6.9-3,13.4-5.9,20.2-8.9l-0.9-2.2c-5.7-12.8-11.3-25.6-17-38.4l1.6-3.8c6.3-2.8,12.8-5.7,19.2-8.5c4.1-1.8,8.3-3.8,12.6-5.7
			c-3-6.9-6-13.6-9-20.4l-3,1.3c-9.6,4.2-19.2,8.5-28.7,12.8l-3.9-1.3c-2.1-4.9-4.3-9.7-6.5-14.6l1.6-4.1c8.5-3.7,17-7.5,25.4-11.2
			c5.4-2.3,10.9-4.8,16.5-7.3c-2.9-6.6-5.7-13-8.7-19.6C1737.1,1424.4,1715.5,1434,1693.8,1443.6 M2299.8,1437
			c-9.1,19.3-7.9,38.3,3.5,56.5c9.8,15.4,23.4,25.7,41.7,29.2c4.3,0.8,8.8,0.9,13.3-0.2c-0.4-7.3-0.8-14.5-1.3-21.6
			c-4.1-1-8.1-1.9-12.1-3c-24.4-7.1-29.5-28.4-26.3-43.5c4.3-19.8,28.1-35.1,48.7-24.8c6.4,3.1,12.1,7.2,17.6,11.6l2.4,0.6
			c5.7-4,11.5-7.6,17.4-11.6l-1-1.6c-10.6-14.8-25.3-22.4-43-24.8c-2.7-0.4-5.4-0.5-8-0.5C2328.4,1403.3,2308.6,1418.4,2299.8,1437
			 M1784.3,1403.6c12.2,35.7,24.4,71.3,36.5,106.8c7-2.5,13.8-4.8,20.7-7.2c-12.2-35.7-24.4-71.2-36.6-106.8
			C1798,1398.9,1791.2,1401.3,1784.3,1403.6 M2215.5,1387.5c-24.2,18.5-30.3,53.6-13.2,79.2c17.1,25.7,49.7,33.2,68.1,24.9
			c-2-6.9-4.1-13.9-6.1-20.6c-5.3-0.2-10.4-0.2-15.5-0.8c-27.6-2.8-35.9-28.7-31.4-45.3c4.3-16.1,22.3-30.9,42-26.1
			c7,1.8,13.5,4.8,19.9,8.4c5.1-5.3,10.1-10.7,15.1-16c-9.5-10.5-24.9-16.2-40.9-16.2C2240.3,1375.1,2226.6,1379,2215.5,1387.5
			 M1867.9,1435.7c-4.3-19,8.7-38.6,28.5-42.9c2.8-0.7,5.6-0.8,8.5-1.3c20,0.3,36.5,15.6,37.4,35.5c0.8,17.3-11,32.5-28.5,36.9
			c-3.1,0.8-6.2,1.1-9.2,1.1C1887.2,1465,1871.8,1453.2,1867.9,1435.7 M1905.1,1368.8c-8.1,0.1-15.9,1.3-23.3,4.3
			c-21.2,8.6-34.3,24-37.6,46.7c-3.2,22.5,4.3,41.6,22.5,55.3c21.3,16.1,44.6,17.5,68.3,5.3c23.4-12.2,35.4-39.2,29.5-64.8
			c-6.2-27.7-30.4-46.9-59.2-46.9C1905.2,1368.8,1905.1,1368.8,1905.1,1368.8 M2094.5,1382.8c-1.3,14.2-2.6,28.3-3.8,42.4
			c-0.5,7.1-1.2,14.3-1,21.4c0.2,8.2,4,15.1,10.1,20.5c13.3,11.5,28.5,13.6,45.1,9.2c13.1-3.6,21.2-12.1,23.9-25.1
			c1.5-7,2-14.3,2.7-21.4c1.3-14.6,2.6-29.1,3.9-43.7c0.6-6.7,1.1-13.4,1.7-20.3c-7.5-0.7-14.8-1.3-22.4-2l-0.5,2.8
			c-1,12.1-2.1,24.1-3.2,36.3c-1.2,12.5-2.3,25.1-3.6,37.6c-1,8.7-5.5,13.5-13.5,14.8l-5.5,0.1c-9.3-0.8-14.3-5.1-15.5-13.9
			l-0.2-5.7c0.2-4,0.6-8.1,1-12c1.3-15.9,2.9-31.7,4.3-47.7c0.5-5.2,0.9-10.3,1.4-15.6c-7.6-0.7-15.1-1.4-22.6-2.1
			C2096,1366.8,2095.3,1374.8,2094.5,1382.8 M2008.4,1406.8c-0.3-7.8-0.8-15.6-1.1-23.3l2.5-2.9c3.6-0.1,7.2-0.4,10.7-0.7v-0.3
			c3.2,0.2,6.5,0.1,9.7,0.7c6.3,1.3,11.1,8.1,10.8,14.5c-0.4,6.9-4.9,12.1-11.7,13.2c-3,0.4-5.9,0.6-8.9,0.8
			c-3.1,0.1-6.3,0.1-9.5,0.3L2008.4,1406.8z M2028.9,1358.4c-12.1,0.5-24.2,1-36.3,1.5c-2.8,0.1-5.6,0.4-8.6,0.7
			c1.8,37.5,3.7,74.9,5.5,112.5c7.4-0.4,14.7-0.8,21.9-1.1c-0.3-6.7-0.7-13.2-1-19.7c-0.2-5.4-0.5-10.9-0.8-16.2l2.7-1.9l4.6,3.2
			c2.6,2.9,4.9,6,7.3,9c5.7,7.1,11.6,14.3,17.3,21.5l5.3,2.4c4.8-0.3,9.5-0.3,14.3-0.5c3.7-0.2,7.4-0.5,11.7-0.6l-2.5-3
			c-9.7-11.1-19.4-22.3-29.1-33.4c-2.7-3-2.6-3.3,0.8-5.2c18.6-9.9,25.7-31.2,16.6-49.8c-5.9-12-15-19.3-28.8-19.3
			C2029.5,1358.4,2029.2,1358.4,2028.9,1358.4 M3587.7,895h-33.5l26.9,20.1l-9.6,33.8l28-19.4l27,19.4l-9.9-33.6l28.6-20.6H3611
			l-11.5-30L3587.7,895z M4453.2,895h-33.5l26.9,20.1l-9.6,33.8l28-19.4l27,19.4l-9.9-33.6l28.6-20.6h-34.2l-11.5-30L4453.2,895z
			 M4343.3,916.8c6.5,3.4,12.8,6.6,19.3,10c17.2-33.6,34.3-66.9,51.5-100.6c-6.5-3.3-12.9-6.5-19.4-9.8
			C4377.5,850,4360.5,883.5,4343.3,916.8 M3657.8,829.5c15.4,34.4,30.6,68.7,45.8,103.1c6.9-3,13.4-5.9,20.2-8.9l-0.9-2.2
			c-5.7-12.8-11.3-25.6-17-38.4l1.6-3.8c6.3-2.8,12.7-5.6,19.2-8.5c4.1-1.8,8.3-3.8,12.6-5.7c-3-6.9-6-13.6-9-20.4l-3,1.3
			c-9.6,4.2-19.2,8.5-28.7,12.8l-3.9-1.3c-2.1-4.9-4.3-9.7-6.5-14.6l1.6-4.1c8.5-3.7,17-7.5,25.4-11.2c5.4-2.3,10.9-4.8,16.5-7.3
			c-2.9-6.6-5.8-13-8.7-19.6C3701.1,810.2,3679.5,819.8,3657.8,829.5 M4263.9,822.8c-9.1,19.3-7.9,38.3,3.5,56.5
			c9.8,15.4,23.4,25.7,41.7,29.2c4.3,0.7,8.8,0.9,13.3-0.2c-0.4-7.3-0.8-14.5-1.3-21.6c-4.1-1.1-8.1-1.9-12.1-3
			c-24.4-7.1-29.5-28.4-26.3-43.5c4.3-19.8,28.1-35.1,48.7-24.8c6.3,3.1,12.1,7.2,17.6,11.6l2.4,0.6c5.7-4,11.5-7.6,17.4-11.5
			l-1-1.6c-10.6-14.8-25.3-22.4-43-24.8c-2.7-0.4-5.4-0.5-8-0.5C4292.4,789.1,4272.7,804.2,4263.9,822.8 M3748.4,789.4
			c12.2,35.7,24.4,71.3,36.5,106.8c7-2.5,13.8-4.8,20.7-7.2c-12.2-35.7-24.4-71.2-36.6-106.8C3762,784.7,3755.3,787.1,3748.4,789.4
			 M4179.6,773.3c-24.2,18.5-30.3,53.6-13.2,79.2c17.1,25.7,49.7,33.2,68.1,24.9c-2-6.9-4.1-13.9-6.1-20.6
			c-5.3-0.2-10.4-0.2-15.5-0.8c-27.6-2.8-35.9-28.7-31.4-45.3c4.3-16.1,22.3-30.9,42-26.1c7,1.8,13.5,4.8,19.9,8.4
			c5.1-5.3,10.2-10.7,15.1-16c-9.4-10.5-24.9-16.2-40.9-16.2C4204.4,760.9,4190.6,764.9,4179.6,773.3 M3831.9,821.5
			c-4.3-19,8.7-38.6,28.5-42.9c2.8-0.7,5.6-0.8,8.5-1.3c20,0.3,36.5,15.6,37.4,35.5c0.8,17.3-10.9,32.5-28.5,36.9
			c-3.1,0.8-6.2,1.1-9.2,1.1C3851.3,850.8,3835.8,839.1,3831.9,821.5 M3869.1,754.6c-8.1,0.1-15.9,1.3-23.3,4.3
			c-21.2,8.7-34.3,24-37.6,46.7c-3.2,22.5,4.3,41.6,22.5,55.3c21.3,16.1,44.6,17.5,68.3,5.3c23.4-12.2,35.4-39.2,29.5-64.8
			c-6.2-27.7-30.4-46.9-59.2-46.9C3869.3,754.6,3869.2,754.6,3869.1,754.6 M4058.5,768.6c-1.3,14.2-2.6,28.3-3.8,42.4
			c-0.5,7.1-1.2,14.3-1,21.4c0.2,8.2,4,15.1,10.1,20.5c13.3,11.5,28.5,13.6,45.1,9.2c13.1-3.6,21.2-12.1,23.9-25.1
			c1.5-7,2-14.3,2.7-21.4c1.3-14.6,2.6-29.1,3.9-43.7c0.6-6.7,1.1-13.4,1.7-20.3c-7.5-0.7-14.8-1.3-22.4-2l-0.5,2.8
			c-1,12.1-2.1,24.1-3.2,36.3c-1.2,12.5-2.3,25.1-3.6,37.6c-1,8.7-5.5,13.5-13.5,14.8l-5.5,0.1c-9.3-0.8-14.3-5.1-15.5-13.9
			l-0.2-5.7c0.2-4,0.6-8.1,1-12c1.3-15.9,2.9-31.7,4.3-47.7c0.5-5.2,0.9-10.3,1.4-15.6c-7.6-0.7-15.1-1.4-22.6-2.1
			C4060,752.6,4059.3,760.7,4058.5,768.6 M3972.4,792.6c-0.3-7.8-0.7-15.6-1.1-23.3l2.5-2.9c3.6-0.1,7.2-0.4,10.7-0.7v-0.3
			c3.2,0.2,6.5,0.1,9.7,0.7c6.3,1.3,11.1,8.1,10.8,14.5c-0.4,6.9-4.9,12.1-11.7,13.2c-3,0.4-5.9,0.6-8.9,0.8
			c-3.2,0.1-6.3,0.1-9.6,0.3L3972.4,792.6z M3992.9,744.2c-12.1,0.5-24.2,1-36.3,1.5c-2.8,0.1-5.6,0.4-8.6,0.7
			c1.8,37.5,3.7,74.9,5.5,112.5c7.4-0.4,14.7-0.8,21.9-1.1c-0.3-6.7-0.7-13.2-1-19.7c-0.2-5.4-0.5-10.9-0.7-16.2l2.7-1.9l4.6,3.2
			c2.6,2.9,4.9,6,7.3,9c5.7,7.2,11.6,14.3,17.3,21.5l5.3,2.4c4.8-0.3,9.5-0.3,14.3-0.5c3.7-0.2,7.4-0.5,11.7-0.6l-2.5-3
			c-9.7-11.1-19.4-22.3-29.1-33.4c-2.7-3-2.6-3.3,0.8-5.2c18.6-9.9,25.7-31.2,16.6-49.8c-5.9-12-15-19.3-28.8-19.3
			C3993.6,744.2,3993.2,744.2,3992.9,744.2 M338.2,280.8h-33.5l26.9,20.1l-9.6,33.8l28-19.4l27,19.4l-9.9-33.6l28.6-20.6h-34.2
			l-11.5-30L338.2,280.8z M1203.8,280.8h-33.5l26.9,20.1l-9.6,33.8l28-19.4l27,19.4l-9.9-33.6l28.6-20.6h-34.2l-11.5-30
			L1203.8,280.8z M1093.8,302.7c6.5,3.4,12.8,6.6,19.3,10c17.2-33.6,34.3-66.9,51.5-100.6c-6.5-3.3-12.9-6.5-19.4-9.8
			C1128.1,235.8,1111,269.3,1093.8,302.7 M408.4,215.3c15.4,34.4,30.6,68.7,45.8,103.1c6.9-3,13.4-5.9,20.2-8.9l-0.9-2.2
			c-5.7-12.8-11.3-25.6-17-38.4l1.6-3.8c6.3-2.8,12.7-5.6,19.1-8.5c4.1-1.8,8.3-3.8,12.6-5.7c-3-6.9-6-13.6-9-20.4l-3,1.3
			c-9.6,4.2-19.2,8.5-28.7,12.8l-3.9-1.3c-2.1-4.9-4.3-9.7-6.5-14.6l1.6-4.1c8.5-3.7,17-7.5,25.4-11.2c5.4-2.3,10.9-4.8,16.5-7.3
			c-2.9-6.6-5.7-13-8.7-19.6C451.7,196,430.1,205.6,408.4,215.3 M1014.4,208.6c-9.1,19.3-7.9,38.3,3.5,56.5
			c9.8,15.4,23.4,25.7,41.7,29.2c4.3,0.7,8.8,0.9,13.3-0.2c-0.4-7.3-0.8-14.5-1.3-21.6c-4.1-1.1-8.1-1.9-12.1-3
			c-24.4-7.1-29.5-28.4-26.3-43.5c4.3-19.8,28.1-35.1,48.7-24.8c6.4,3.1,12.1,7.2,17.6,11.6l2.4,0.6c5.7-4,11.5-7.6,17.4-11.6
			l-1-1.6c-10.6-14.8-25.3-22.4-43-24.8c-2.7-0.4-5.4-0.5-8-0.5C1043,174.9,1023.2,190.1,1014.4,208.6 M498.9,175.3
			c12.2,35.7,24.4,71.3,36.5,106.8c7-2.5,13.8-4.8,20.7-7.2c-12.2-35.7-24.4-71.2-36.6-106.8C512.6,170.5,505.8,172.9,498.9,175.3
			 M930.1,159.2c-24.2,18.5-30.3,53.6-13.2,79.2c17.1,25.7,49.7,33.2,68.1,24.9c-2-6.9-4.1-13.9-6.1-20.6
			c-5.3-0.2-10.4-0.2-15.5-0.8c-27.6-2.8-35.9-28.7-31.4-45.3c4.3-16.1,22.3-30.9,42-26.1c7,1.8,13.5,4.8,19.9,8.4
			c5.1-5.3,10.1-10.7,15.1-16c-9.5-10.5-24.9-16.2-40.9-16.2C954.9,146.7,941.2,150.7,930.1,159.2 M582.5,207.3
			c-4.3-19,8.7-38.6,28.5-42.9c2.8-0.7,5.6-0.8,8.5-1.3c20,0.3,36.5,15.6,37.4,35.5c0.8,17.3-10.9,32.5-28.5,36.9
			c-3.1,0.8-6.2,1.1-9.2,1.1C601.8,236.6,586.4,224.9,582.5,207.3 M619.7,140.5c-8.1,0.1-15.9,1.3-23.3,4.3
			c-21.2,8.7-34.3,24-37.6,46.7c-3.2,22.5,4.3,41.6,22.5,55.3c21.3,16.1,44.6,17.5,68.3,5.3c23.4-12.2,35.4-39.2,29.5-64.8
			c-6.2-27.7-30.4-46.9-59.2-46.9C619.8,140.5,619.7,140.5,619.7,140.5 M809.1,154.5c-1.3,14.2-2.6,28.3-3.8,42.4
			c-0.5,7.2-1.2,14.3-1,21.4c0.2,8.2,4,15.1,10.1,20.5c13.3,11.5,28.5,13.6,45.1,9.2c13.1-3.6,21.2-12.1,23.9-25.1
			c1.5-7,2-14.3,2.7-21.4c1.3-14.6,2.6-29.1,3.9-43.7c0.6-6.7,1.1-13.4,1.7-20.3c-7.5-0.7-14.8-1.3-22.4-2l-0.5,2.8
			c-1,12.1-2.1,24.1-3.2,36.3c-1.2,12.5-2.3,25.1-3.6,37.6c-1,8.7-5.5,13.5-13.5,14.8l-5.5,0.1c-9.3-0.8-14.3-5.1-15.5-13.9
			l-0.2-5.7c0.2-4,0.6-8.1,1-12c1.3-15.9,2.9-31.7,4.3-47.7c0.5-5.2,0.9-10.3,1.4-15.6c-7.6-0.7-15-1.4-22.6-2.1
			C810.6,138.4,809.8,146.5,809.1,154.5 M722.9,178.5c-0.3-7.8-0.7-15.6-1.1-23.3l2.5-2.9c3.6-0.1,7.2-0.4,10.7-0.7v-0.3
			c3.2,0.2,6.5,0.1,9.7,0.7c6.3,1.3,11.1,8.1,10.8,14.5c-0.4,6.9-4.9,12.1-11.7,13.2c-3,0.4-5.9,0.6-8.9,0.8
			c-3.2,0.1-6.3,0.1-9.6,0.3L722.9,178.5z M743.4,130c-12.1,0.5-24.2,1-36.3,1.5c-2.8,0.1-5.6,0.4-8.6,0.7
			c1.8,37.5,3.7,74.9,5.5,112.5c7.4-0.4,14.7-0.8,21.9-1.1c-0.3-6.7-0.7-13.2-1-19.7c-0.2-5.4-0.5-10.9-0.7-16.2l2.7-1.9l4.6,3.2
			c2.6,2.9,4.9,6,7.3,9c5.8,7.2,11.6,14.3,17.3,21.5l5.3,2.4c4.8-0.3,9.5-0.3,14.3-0.5c3.7-0.2,7.4-0.5,11.7-0.6l-2.5-3
			c-9.7-11.1-19.4-22.3-29.1-33.4c-2.7-3-2.6-3.3,0.8-5.2c18.6-9.9,25.7-31.2,16.6-49.8c-5.9-12-15-19.3-28.8-19.3
			C744.1,130,743.8,130,743.4,130"/>
	</defs>
	<clipPath id="SVGID_2_">
		<use xlink:href="#SVGID_1_"  overflow="visible"/>
	</clipPath>
	<g clip-path="url(#SVGID_2_)">
		<defs>
			<rect id="SVGID_3_" x="-7.2" y="125.9" width="5469.9" height="2692.8"/>
		</defs>
		<clipPath id="SVGID_4_">
			<use xlink:href="#SVGID_3_"  overflow="visible"/>
		</clipPath>
		<g clip-path="url(#SVGID_4_)">

				<image overflow="visible" width="1854" height="3766" xlink:href="/assets/images/xmas/fg/1EACDBD2669876F3.jpg"  transform="matrix(0 1.4524 -1.4524 0 5462.6987 125.9212)">
			</image>
		</g>
	</g>
</g>
</svg>
