<svg id="Layer_1" data-name="Layer 1" xmlns="http://www.w3.org/2000/svg" viewBox="0 0 5442.52 5200.74"><defs><style>.cls-1{fill:#ac9b8f;}.cls-2{fill:#3d2524;}.cls-3{fill:#87644e;}.cls-4{fill:#fff;}.cls-5{fill:#983033;}.cls-6{fill:#4884c4;}.cls-7{fill:#352c76;}.cls-8{fill:#1e4a6f;}.cls-9{fill:#c84938;}.cls-10{fill:#769165;}.cls-11{fill:#083a2b;}</style></defs><title>fg-scene-5</title><polygon class="cls-1" points="356.89 716.79 357.84 150.54 498.94 291.39 498.94 858.6 356.89 716.79"/><polygon class="cls-2" points="498.94 291.39 357.84 150.54 641 150.54 783.05 293.29 498.94 291.39"/><polygon class="cls-3" points="498.94 574.05 498.94 433.19 641 433.19 783.05 575.94 498.94 574.05"/><polygon class="cls-4" points="505.61 856.7 492.28 856.7 492.28 286.62 783.04 286.62 783.04 299.95 505.61 299.95 505.61 856.7"/><rect class="cls-4" x="498.95" y="568.33" width="284.1" height="13.33"/><polygon class="cls-5" points="861.08 1219.27 862.03 653.02 1003.13 793.87 1003.13 1361.08 861.08 1219.27"/><rect class="cls-4" x="996.71" y="793.87" width="13.33" height="567.2"/><polygon class="cls-6" points="1653.72 570.28 1510.72 428.48 1512.14 288.57 1653.72 286.68 1653.72 570.28"/><polygon class="cls-7" points="1226.62 712.08 1227.57 145.82 1368.67 286.68 1368.67 853.88 1226.62 712.08"/><polygon class="cls-8" points="1368.67 569.33 1368.67 428.48 1510.72 428.48 1652.77 571.23 1368.67 569.33"/><polygon class="cls-8" points="1367.72 286.68 1226.62 145.82 1509.77 145.82 1651.82 288.57 1367.72 286.68"/><polygon class="cls-4" points="1660.38 576.94 1369.62 576.94 1369.62 563.61 1647.06 563.61 1647.06 293.34 1369.62 293.34 1369.62 280.01 1660.38 280.01 1660.38 576.94"/><rect class="cls-4" x="1362.96" y="286.67" width="13.33" height="567.2"/><rect class="cls-4" x="1505" y="511.36" width="13.33" height="401.43" transform="translate(-60.26 1278.85) rotate(-45.05)"/><polygon class="cls-5" points="294.97 2705.01 295.92 2138.76 437.02 2279.61 437.02 2846.81 294.97 2705.01"/><polygon class="cls-9" points="436.55 2281.5 295.44 2140.65 578.6 2140.65 720.65 2283.4 436.55 2281.5"/><polygon class="cls-9" points="436.07 2845.87 436.07 2705.01 578.12 2705.01 720.18 2847.76 436.07 2845.87"/><rect class="cls-4" x="436.55" y="2836.36" width="284.1" height="13.33"/><rect class="cls-4" x="436.55" y="2272.95" width="284.1" height="13.33"/><rect class="cls-4" x="429.88" y="2279.61" width="13.33" height="567.2"/><polygon class="cls-7" points="808.78 2372.81 809.73 1806.56 950.84 1947.41 950.84 2514.61 808.78 2372.81"/><polygon class="cls-8" points="951.31 1949.3 810.21 1808.45 1093.36 1808.45 1235.41 1951.2 951.31 1949.3"/><polygon class="cls-8" points="951.31 2513.67 951.31 2372.81 1093.36 2372.81 1235.41 2515.56 951.31 2513.67"/><rect class="cls-4" x="951.31" y="2504.16" width="284.1" height="13.33"/><rect class="cls-4" x="951.31" y="1940.75" width="284.1" height="13.33"/><rect class="cls-4" x="944.65" y="1947.41" width="13.33" height="567.2"/><polygon class="cls-10" points="196.97 1692.72 197.91 1126.46 339.02 1267.32 339.02 1834.52 196.97 1692.72"/><polygon class="cls-10" points="481.54 1692.72 482.49 1126.46 623.6 1267.32 623.6 1834.52 481.54 1692.72"/><polygon class="cls-11" points="339.02 1833.58 339.02 1692.72 481.07 1692.72 623.12 1835.47 339.02 1833.58"/><rect class="cls-4" x="339.02" y="1824.07" width="284.1" height="13.33"/><rect class="cls-4" x="332.35" y="1267.32" width="13.33" height="567.2"/><rect class="cls-4" x="616.45" y="1267.32" width="13.33" height="567.2"/><polygon class="cls-3" points="1414.41 2848.88 1415.36 2282.62 1556.47 2423.48 1556.47 2990.68 1414.41 2848.88"/><rect class="cls-4" x="1548.85" y="2423.48" width="13.33" height="567.2"/><polygon class="cls-10" points="1305.56 1692.72 1306.51 1126.46 1447.62 1267.32 1447.62 1834.52 1305.56 1692.72"/><polygon class="cls-10" points="1589.67 1692.72 1590.62 1126.46 1731.72 1267.32 1731.72 1834.52 1589.67 1692.72"/><polygon class="cls-11" points="1447.62 1828.84 1447.62 1687.99 1589.67 1687.99 1731.72 1830.74 1447.62 1828.84"/><polygon class="cls-11" points="1447.14 1267.32 1306.04 1126.46 1589.19 1126.46 1731.24 1269.21 1447.14 1267.32"/><rect class="cls-4" x="1448.09" y="1824.07" width="284.1" height="13.33"/><rect class="cls-4" x="1448.09" y="1260.65" width="284.1" height="13.33"/><rect class="cls-4" x="1441.43" y="1267.32" width="13.33" height="567.2"/><rect class="cls-4" x="1725.53" y="1267.32" width="13.33" height="567.2"/><polygon class="cls-1" points="3814.28 2801.99 3815.22 2235.73 3956.33 2376.59 3956.33 2943.79 3814.28 2801.99"/><polygon class="cls-2" points="3956.33 2376.59 3815.22 2235.73 4098.38 2235.73 4240.43 2378.48 3956.33 2376.59"/><polygon class="cls-3" points="3956.33 2659.24 3956.33 2518.39 4098.38 2518.39 4240.43 2661.14 3956.33 2659.24"/><polygon class="cls-4" points="3962.99 2941.9 3949.66 2941.9 3949.66 2371.81 4240.43 2371.81 4240.43 2385.14 3962.99 2385.14 3962.99 2941.9"/><rect class="cls-4" x="3956.33" y="2653.52" width="284.1" height="13.33"/><polygon class="cls-5" points="4318.47 3304.47 4319.41 2738.21 4460.52 2879.07 4460.52 3446.27 4318.47 3304.47"/><rect class="cls-4" x="4454.09" y="2879.07" width="13.33" height="567.2"/><polygon class="cls-6" points="5111.1 2655.47 4968.1 2513.67 4969.53 2373.76 5111.1 2371.87 5111.1 2655.47"/><polygon class="cls-7" points="4684 2797.27 4684.95 2231.01 4826.05 2371.87 4826.05 2939.07 4684 2797.27"/><polygon class="cls-8" points="4826.05 2654.53 4826.05 2513.67 4968.1 2513.67 5110.15 2656.42 4826.05 2654.53"/><polygon class="cls-8" points="4825.1 2371.87 4684 2231.01 4967.15 2231.01 5109.21 2373.76 4825.1 2371.87"/><polygon class="cls-4" points="5117.77 2662.14 4827 2662.14 4827 2648.81 5104.44 2648.81 5104.44 2378.53 4827 2378.53 4827 2365.2 5117.77 2365.2 5117.77 2662.14"/><rect class="cls-4" x="4820.34" y="2371.87" width="13.33" height="567.2"/><rect class="cls-4" x="4962.39" y="2596.56" width="13.33" height="401.43" transform="translate(-521.22 4337.77) rotate(-45.05)"/><polygon class="cls-5" points="3752.35 4790.21 3753.3 4223.95 3894.4 4364.81 3894.4 4932.01 3752.35 4790.21"/><polygon class="cls-9" points="3893.93 4366.7 3752.83 4225.84 4035.98 4225.84 4178.03 4368.59 3893.93 4366.7"/><polygon class="cls-9" points="3893.45 4931.06 3893.45 4790.21 4035.51 4790.21 4177.56 4932.95 3893.45 4931.06"/><rect class="cls-4" x="3893.93" y="4921.56" width="284.1" height="13.33"/><rect class="cls-4" x="3893.93" y="4358.14" width="284.1" height="13.33"/><rect class="cls-4" x="3887.26" y="4364.81" width="13.33" height="567.2"/><polygon class="cls-7" points="4266.17 4458.01 4267.11 3891.75 4408.22 4032.61 4408.22 4599.81 4266.17 4458.01"/><polygon class="cls-8" points="4408.69 4034.5 4267.59 3893.64 4550.74 3893.64 4692.8 4036.39 4408.69 4034.5"/><polygon class="cls-8" points="4408.69 4598.86 4408.69 4458.01 4550.74 4458.01 4692.8 4600.76 4408.69 4598.86"/><rect class="cls-4" x="4408.69" y="4589.36" width="284.1" height="13.33"/><rect class="cls-4" x="4408.69" y="4025.94" width="284.1" height="13.33"/><rect class="cls-4" x="4402.03" y="4032.61" width="13.33" height="567.2"/><polygon class="cls-10" points="3654.35 3777.92 3655.3 3211.66 3796.4 3352.52 3796.4 3919.72 3654.35 3777.92"/><polygon class="cls-10" points="3938.93 3777.92 3939.87 3211.66 4080.98 3352.52 4080.98 3919.72 3938.93 3777.92"/><polygon class="cls-11" points="3796.4 3918.77 3796.4 3777.92 3938.45 3777.92 4080.5 3920.67 3796.4 3918.77"/><rect class="cls-4" x="3796.4" y="3909.27" width="284.1" height="13.33"/><rect class="cls-4" x="3789.74" y="3352.52" width="13.33" height="567.2"/><rect class="cls-4" x="4073.84" y="3352.52" width="13.33" height="567.2"/><polygon class="cls-3" points="4871.8 4934.07 4872.75 4367.81 5013.85 4508.67 5013.85 5075.87 4871.8 4934.07"/><rect class="cls-4" x="5006.24" y="4508.67" width="13.33" height="567.2"/><polygon class="cls-10" points="4762.95 3777.92 4763.9 3211.66 4905 3352.51 4905 3919.72 4762.95 3777.92"/><polygon class="cls-10" points="5047.05 3777.92 5048 3211.66 5189.1 3352.51 5189.1 3919.72 5047.05 3777.92"/><polygon class="cls-11" points="4905 3914.04 4905 3773.18 5047.05 3773.18 5189.1 3915.93 4905 3914.04"/><polygon class="cls-11" points="4904.52 3352.51 4763.42 3211.66 5046.58 3211.66 5188.63 3354.41 4904.52 3352.51"/><rect class="cls-4" x="4905.47" y="3909.27" width="284.1" height="13.33"/><rect class="cls-4" x="4905.47" y="3345.85" width="284.1" height="13.33"/><rect class="cls-4" x="4898.81" y="3352.51" width="13.33" height="567.2"/><rect class="cls-4" x="5182.91" y="3352.51" width="13.33" height="567.2"/></svg>