<?xml version="1.0" encoding="UTF-8"?>
<svg width="211px" height="59px" viewBox="0 0 211 59" version="1.1" xmlns="http://www.w3.org/2000/svg" xmlns:xlink="http://www.w3.org/1999/xlink">
    <!-- Generator: Sketch 44.1 (41455) - http://www.bohemiancoding.com/sketch -->
    <title>Group 4</title>
    <desc>Created with Sketch.</desc>
    <defs></defs>
    <g id="Page-1" stroke="none" stroke-width="1" fill="none" fill-rule="evenodd">
        <g id="1-copy-23" transform="translate(-799.000000, -661.000000)" fill="#000000">
            <g id="Group-4" transform="translate(799.000000, 661.000000)">
                <path d="M32.6886574,0.623842593 L60.6469907,28.5821759 C60.8823314,28.9116529 61,29.2175912 61,29.5 C61,29.7824088 60.8823314,30.0883471 60.6469907,30.4178241 L32.6886574,58.3761574 C32.3121123,58.7527025 31.841438,58.8468374 31.2766204,58.6585648 C30.7588709,58.4232241 30.5,58.023151 30.5,57.4583333 L30.5,40.9375 L1.27083333,40.9375 C0.894288241,40.9375 0.588349942,40.8198314 0.353009259,40.5844907 C0.117668576,40.3491501 0,40.0432118 0,39.6666667 L0,19.3333333 C0,18.9567882 0.117668576,18.6508499 0.353009259,18.4155093 C0.588349942,18.1801686 0.894288241,18.0625 1.27083333,18.0625 L30.5,18.0625 L30.5,1.54166667 C30.5,0.976849028 30.7588709,0.576775868 31.2766204,0.341435185 C31.841438,0.153162639 32.3121123,0.2472975 32.6886574,0.623842593 Z" id="right"></path>
                <path d="M106.688657,0.623842593 L134.646991,28.5821759 C134.882331,28.9116529 135,29.2175912 135,29.5 C135,29.7824088 134.882331,30.0883471 134.646991,30.4178241 L106.688657,58.3761574 C106.312112,58.7527025 105.841438,58.8468374 105.27662,58.6585648 C104.758871,58.4232241 104.5,58.023151 104.5,57.4583333 L104.5,40.9375 L75.2708333,40.9375 C74.8942882,40.9375 74.5883499,40.8198314 74.3530093,40.5844907 C74.1176686,40.3491501 74,40.0432118 74,39.6666667 L74,19.3333333 C74,18.9567882 74.1176686,18.6508499 74.3530093,18.4155093 C74.5883499,18.1801686 74.8942882,18.0625 75.2708333,18.0625 L104.5,18.0625 L104.5,1.54166667 C104.5,0.976849028 104.758871,0.576775868 105.27662,0.341435185 C105.841438,0.153162639 106.312112,0.2472975 106.688657,0.623842593 Z" id="right-copy"></path>
                <path d="M182.688657,0.623842593 L210.646991,28.5821759 C210.882331,28.9116529 211,29.2175912 211,29.5 C211,29.7824088 210.882331,30.0883471 210.646991,30.4178241 L182.688657,58.3761574 C182.312112,58.7527025 181.841438,58.8468374 181.27662,58.6585648 C180.758871,58.4232241 180.5,58.023151 180.5,57.4583333 L180.5,40.9375 L151.270833,40.9375 C150.894288,40.9375 150.58835,40.8198314 150.353009,40.5844907 C150.117669,40.3491501 150,40.0432118 150,39.6666667 L150,19.3333333 C150,18.9567882 150.117669,18.6508499 150.353009,18.4155093 C150.58835,18.1801686 150.894288,18.0625 151.270833,18.0625 L180.5,18.0625 L180.5,1.54166667 C180.5,0.976849028 180.758871,0.576775868 181.27662,0.341435185 C181.841438,0.153162639 182.312112,0.2472975 182.688657,0.623842593 Z" id="right-copy-2"></path>
            </g>
        </g>
    </g>
</svg>