<?xml version="1.0" encoding="UTF-8"?>
<svg width="225px" height="28px" viewBox="0 0 225 28" version="1.1" xmlns="http://www.w3.org/2000/svg" xmlns:xlink="http://www.w3.org/1999/xlink">
    <!-- Generator: Sketch 44.1 (41455) - http://www.bohemiancoding.com/sketch -->
    <title>Group 3</title>
    <desc>Created with Sketch.</desc>
    <defs></defs>
    <g id="Symbols" stroke="none" stroke-width="1" fill="none" fill-rule="evenodd">
        <g id="Header-Back-Desktop-Blue" transform="translate(-20.000000, -7.000000)" fill="#005399">
            <g id="Group-3" transform="translate(20.000000, 5.000000)">
                <path d="M109.07,26 L109.07,4.58 L128.48,4.58 C130.50001,4.58 132.034995,5.02499555 133.085,5.915 C134.135005,6.80500445 134.66,8.1299912 134.66,9.89 C134.66,10.8700049 134.445002,11.7299963 134.015,12.47 C133.584998,13.2100037 132.950004,13.7499983 132.11,14.09 L132.11,14.15 C133.190005,14.4300014 134.069997,15.0249954 134.75,15.935 C135.430003,16.8450045 135.77,17.8899941 135.77,19.07 C135.77,21.4300118 135.080007,23.1749943 133.7,24.305 C132.319993,25.4350056 130.280013,26 127.58,26 L109.07,26 Z M117.35,9.8 L117.35,12.56 L123.86,12.56 C124.520003,12.56 125.014998,12.455001 125.345,12.245 C125.675002,12.0349989 125.84,11.6700026 125.84,11.15 C125.84,10.6299974 125.660002,10.2750009 125.3,10.085 C124.939998,9.89499905 124.440003,9.8 123.8,9.8 L117.35,9.8 Z M117.35,17.42 L117.35,20.78 L124.67,20.78 C125.310003,20.78 125.819998,20.6450013 126.2,20.375 C126.580002,20.1049986 126.77,19.6800029 126.77,19.1 C126.77,18.5199971 126.580002,18.0950013 126.2,17.825 C125.819998,17.5549986 125.310003,17.42 124.67,17.42 L117.35,17.42 Z M155.63,26 L154.73,23.54 L145.91,23.54 L145.01,26 L136.01,26 L145.13,4.58 L155.51,4.58 L164.63,26 L155.63,26 Z M150.35,11.06 L150.29,11.06 L147.77,18.32 L152.87,18.32 L150.35,11.06 Z M183.74,12.98 C183.539999,11.779994 183.050004,10.8550032 182.27,10.205 C181.489996,9.55499675 180.470006,9.23 179.21,9.23 C177.329991,9.23 175.920005,9.729995 174.98,10.73 C174.039995,11.730005 173.57,13.2499898 173.57,15.29 C173.57,17.3100101 174.014996,18.8249949 174.905,19.835 C175.795004,20.845005 177.089991,21.35 178.79,21.35 C180.150007,21.35 181.229996,21.0650028 182.03,20.495 C182.830004,19.9249971 183.399998,18.9800066 183.74,17.66 L193.28,17.66 C192.919998,19.9200113 192.165006,21.7149933 191.015,23.045 C189.864994,24.3750066 188.365009,25.3249971 186.515,25.895 C184.664991,26.4650028 182.230015,26.75 179.21,26.75 C176.509986,26.75 174.420007,26.5700018 172.94,26.21 C171.459993,25.8499982 170.250005,25.3950027 169.31,24.845 C168.369995,24.2949972 167.550003,23.5950042 166.85,22.745 C166.149996,21.8949957 165.595002,20.8600061 165.185,19.64 C164.774998,18.4199939 164.57,16.9700084 164.57,15.29 C164.57,13.6299917 164.784998,12.1700063 165.215,10.91 C165.645002,9.6499937 166.214996,8.60500415 166.925,7.775 C167.635004,6.94499585 168.454995,6.2600027 169.385,5.72 C170.315005,5.1799973 171.494993,4.7300018 172.925,4.37 C174.355007,4.0099982 176.419986,3.83 179.12,3.83 C181.16001,3.83 183.019992,3.98499845 184.7,4.295 C186.380008,4.60500155 187.839994,5.1499961 189.08,5.93 C190.320006,6.7100039 191.279997,7.6799942 191.96,8.84 C192.640003,10.0000058 193.079999,11.379992 193.28,12.98 L183.74,12.98 Z M213.38,26 L207.53,17.78 L204.74,20.24 L204.74,26 L196.28,26 L196.28,4.58 L204.74,4.58 L204.74,12.14 L212.6,4.58 L223.82,4.58 L214.25,12.86 L224.63,26 L213.38,26 Z" id="BACK"></path>
                <path d="M12.9953704,29.2546296 L0.162037037,16.4212963 C0.0540118056,16.270061 0,16.1296303 0,16 C0,15.8703697 0.0540118056,15.729939 0.162037037,15.5787037 L12.9953704,2.74537037 C13.1682107,2.57253 13.384258,2.52932056 13.6435185,2.61574074 C13.881174,2.72376597 14,2.90740611 14,3.16666667 L14,10.75 L27.4166667,10.75 C27.589507,10.75 27.7299377,10.8040118 27.837963,10.912037 C27.9459882,11.0200623 28,11.160493 28,11.3333333 L28,20.6666667 C28,20.839507 27.9459882,20.9799377 27.837963,21.087963 C27.7299377,21.1959882 27.589507,21.25 27.4166667,21.25 L14,21.25 L14,28.8333333 C14,29.0925939 13.881174,29.276234 13.6435185,29.3842593 C13.384258,29.4706794 13.1682107,29.42747 12.9953704,29.2546296 Z M47.9953704,29.2546296 L35.162037,16.4212963 C35.0540118,16.270061 35,16.1296303 35,16 C35,15.8703697 35.0540118,15.729939 35.162037,15.5787037 L47.9953704,2.74537037 C48.1682107,2.57253 48.384258,2.52932056 48.6435185,2.61574074 C48.881174,2.72376597 49,2.90740611 49,3.16666667 L49,10.75 L62.4166667,10.75 C62.589507,10.75 62.7299377,10.8040118 62.837963,10.912037 C62.9459882,11.0200623 63,11.160493 63,11.3333333 L63,20.6666667 C63,20.839507 62.9459882,20.9799377 62.837963,21.087963 C62.7299377,21.1959882 62.589507,21.25 62.4166667,21.25 L49,21.25 L49,28.8333333 C49,29.0925939 48.881174,29.276234 48.6435185,29.3842593 C48.384258,29.4706794 48.1682107,29.42747 47.9953704,29.2546296 Z M82.9953704,29.2546296 L70.162037,16.4212963 C70.0540118,16.270061 70,16.1296303 70,16 C70,15.8703697 70.0540118,15.729939 70.162037,15.5787037 L82.9953704,2.74537037 C83.1682107,2.57253 83.384258,2.52932056 83.6435185,2.61574074 C83.881174,2.72376597 84,2.90740611 84,3.16666667 L84,10.75 L97.4166667,10.75 C97.589507,10.75 97.7299377,10.8040118 97.837963,10.912037 C97.9459882,11.0200623 98,11.160493 98,11.3333333 L98,20.6666667 C98,20.839507 97.9459882,20.9799377 97.837963,21.087963 C97.7299377,21.1959882 97.589507,21.25 97.4166667,21.25 L84,21.25 L84,28.8333333 C84,29.0925939 83.881174,29.276234 83.6435185,29.3842593 C83.384258,29.4706794 83.1682107,29.42747 82.9953704,29.2546296 Z" id="BACK-BACK-back"></path>
            </g>
        </g>
    </g>
</svg>