<?xml version="1.0" encoding="UTF-8"?>
<svg width="141px" height="140px" viewBox="0 0 141 140" version="1.1" xmlns="http://www.w3.org/2000/svg" xmlns:xlink="http://www.w3.org/1999/xlink">
    <!-- Generator: Sketch 44.1 (41455) - http://www.bohemiancoding.com/sketch -->
    <title>CAT</title>
    <desc>Created with Sketch.</desc>
    <defs>
        <polygon id="path-1" points="0 0.0248255684 0 138.588143 139.590011 138.588143 139.590011 0.0248255684 0 0.0248255684"></polygon>
    </defs>
    <g id="Page-1" stroke="none" stroke-width="1" fill="none" fill-rule="evenodd">
        <g id="1-copy-21" transform="translate(-261.000000, -446.000000)">
            <g id="CAT" transform="translate(261.490994, 446.490994)">
                <g id="Group-3" transform="translate(0.000000, 0.309982)">
                    <mask id="mask-2" fill="white">
                        <use xlink:href="#path-1"></use>
                    </mask>
                    <g id="Clip-2"></g>
                </g>
                <path d="M131.720041,73.9385485 C130.591051,94.7016634 116.039388,116.599259 97.4018053,124.208217 C96.9637044,123.317102 97.0859027,122.352676 97.1758728,121.457209 C97.8241278,115.009178 94.9820115,110.582057 89.3132214,107.752382 C88.8412138,107.51705 88.3765919,107.267658 87.7280012,106.9319 C88.0375254,106.306579 88.2601008,105.742854 88.5773462,105.238045 C89.4293768,103.88363 90.4257625,102.608887 91.1690233,101.199907 C91.8766989,99.8578787 92.8636847,99.1297889 94.319321,98.762229 C97.3527917,97.9966467 100.130452,96.6472534 102.721122,94.881761 C107.928647,91.3323647 112.469118,87.1984879 114.835534,81.1796116 C115.27632,80.0581858 116.052816,79.4824089 117.046181,79.0311606 C120.588251,77.422333 123.699942,75.1861765 126.573951,72.5914985 C127.449481,71.8004749 128.281369,70.9940526 128.859797,69.7524501 C128.407596,69.3145919 128.005752,68.8482796 127.525352,68.4847368 C127.105715,68.1677248 126.51923,68.0512304 126.14055,67.7014125 C120.416368,62.4149779 114.535409,57.2939116 110.353141,50.5650221 C105.266135,42.3809571 103.871262,33.5273841 105.072095,24.1305055 C105.219807,22.9766086 105.457825,21.8340933 105.701886,20.4060328 C110.315206,22.3211603 117.767956,30.0415911 122.64615,37.8915716 C129.509395,48.9361093 132.425031,60.9762053 131.720041,73.9385485 M68.8648219,111.712186 C64.8900218,111.785832 61.5846264,110.100346 58.752917,107.528431 C56.7044178,105.667869 54.7589814,103.650306 53.0435061,101.485453 C51.8715443,100.00651 51.1504404,98.1656974 50.2765886,96.461465 C49.8465448,95.6235758 49.5276208,94.7291132 49.2526747,94.0820338 C48.3254452,93.4804809 48.1495334,94.3595448 47.5032927,94.4643228 C41.4313155,92.5475216 36.3886236,88.8966948 32.4326232,83.8164686 C30.7359476,81.637555 29.4357448,79.1499982 28.6777128,76.4418386 C28.0955926,74.3616775 28.1677701,72.3809383 29.8748528,70.8290189 C31.5899925,69.2700696 33.6431916,68.8579875 35.8501456,69.5787128 C37.5746852,70.141769 39.3327956,70.6787143 40.9499082,71.4797806 C45.0291139,73.501025 49.4124724,74.3707158 53.8273877,75.1838332 C54.5327133,75.313383 55.2125249,75.5815209 55.7765168,75.7478937 C55.8933437,76.049507 55.9769354,76.1549545 55.9641784,76.2473466 C55.7886024,77.5076953 55.4149577,78.7894682 56.15184,79.9875527 C57.0673198,81.4751993 58.3430157,82.6183841 59.8889578,83.4047212 C60.8349871,83.8857626 61.8528582,84.2754163 62.8818078,84.5365244 C67.5320553,85.7165321 72.1621603,85.8397216 76.7687656,84.2218556 C79.7596013,83.1713977 81.6378958,81.2569397 82.0595469,78.0493272 C82.1132604,77.6419316 82.2676867,77.2475914 82.3858565,76.8077247 C82.865921,76.7069638 83.2728009,76.5700494 83.6867307,76.5415953 C88.6992087,76.1998115 93.6509234,75.5031885 98.5257606,74.2515434 C99.85987,73.9087554 101.261121,73.7594551 102.640552,73.6754318 C104.773314,73.5455473 106.255135,74.5534915 107.318663,76.4147236 C108.793435,78.9960114 108.418783,81.5542013 107.42844,84.1067003 C106.286356,87.0505267 104.404033,89.5179982 101.970811,91.5050977 C99.2425003,93.7332201 96.350699,95.7471 92.9620476,97.4680702 C92.5702746,96.9555618 92.3218496,96.630181 92.0180326,96.2334975 C90.9269768,96.3289024 90.5597106,97.2645397 90.0380181,98.0257703 C88.593796,100.13539 87.3600637,102.436489 85.6546596,104.310107 C81.1944236,109.208227 75.4981053,111.589332 68.8648219,111.712186 M79.4541057,129.992766 C78.3556643,130.211025 77.4344775,130.473807 76.496841,130.566199 C71.1694674,131.092433 65.8474652,131.12256 60.5318415,130.356643 C59.4095647,130.195292 58.4292931,129.956947 58.0519556,128.749824 C57.6014335,127.308708 57.7917808,125.926844 58.9996635,124.982838 C59.7140532,124.424468 60.6919749,123.982928 61.5856335,123.910621 C65.3042873,123.611016 69.038048,123.535696 72.7667731,123.773707 C74.5027267,123.884175 76.0949967,124.509496 77.5697684,125.406302 C79.3564142,126.492243 79.5977893,127.073711 79.4541057,129.992766 M49.4198581,107.430014 C47.2051827,108.522316 45.7478679,110.283456 44.7618892,112.51024 C43.5771705,115.185259 42.9446938,117.960034 43.0007573,120.889801 C43.0229141,122.050058 43.0044501,123.210985 43.0044501,124.303622 C42.0903132,124.87103 41.4635436,124.337767 40.82301,124.025776 C33.4071878,120.418802 27.0810786,115.403184 21.7798904,109.126547 C13.6396072,99.4883104 8.7167635,88.4186661 7.40246093,75.8583625 C6.40976803,66.3731088 7.58005124,57.1121402 11.0771368,48.2157188 C15.0912149,38.0043837 21.1819918,29.2311517 29.6942411,22.2026574 C30.2696471,21.7276415 30.8705671,21.2800755 31.4865939,20.858955 C31.823982,20.6283095 32.2177692,20.4800135 32.75759,20.2081932 C33.0231362,20.7531727 33.2796182,21.1943784 33.4609013,21.6647078 C35.3600098,26.5959685 35.3445672,31.6828898 34.5318145,36.7909006 C34.1141919,39.4143674 33.5488572,42.0291307 32.8317818,44.586651 C30.7826112,51.8960039 26.2045412,57.4314955 20.0519937,61.6517388 C17.972945,63.0781255 15.4433741,63.8534157 13.112879,64.9112382 C12.2655483,65.2958705 11.3987464,65.6373196 10.5725654,65.9851289 C10.5984151,67.2474861 11.1550214,68.0257891 11.8808252,68.6487663 C14.4691452,70.8708631 17.0430297,73.1157232 19.7283698,75.2166391 C20.8704534,76.1104322 21.7261768,77.1083338 22.2686833,78.4202346 C24.5417722,83.9185685 28.2412905,88.1294387 33.3430673,91.2731132 C37.8318386,94.0388505 42.431394,96.4313371 47.5593562,97.558119 C49.1442406,100.386455 50.689847,103.145163 52.2784242,105.980194 C51.2810313,106.486677 50.3554803,106.968388 49.4198581,107.430014 M75.0156908,75.1450018 C74.9122923,75.8523369 74.5262264,76.0026414 72.8869571,75.9443942 C72.0329122,75.9139316 71.1798744,75.8613753 70.3265009,75.8185268 C70.3254938,75.8349297 70.3244867,75.8513326 70.3231438,75.8677356 C68.9416994,75.7696527 67.5572335,75.6980153 66.1814961,75.5450328 C65.9693277,75.5216 65.6460395,75.121569 65.6497323,74.9002966 C65.6540965,74.6569305 65.937771,74.2659378 66.167732,74.2076907 C66.8824575,74.0272583 67.6284039,73.9000518 68.3646148,73.8869964 C69.9639347,73.8585423 71.5669474,73.8662416 73.1642531,73.9475868 C74.585647,74.0202284 75.1207679,74.424946 75.0156908,75.1450018 M73.5013054,71.0676984 C68.2602092,70.0446903 63.252431,70.6087507 58.7260602,73.603125 C57.4456643,74.4500525 56.1820539,74.6415318 54.771067,74.3820975 C52.8820298,74.0349576 51.0037353,73.6299053 49.1153696,73.2810917 C48.0659418,73.0872691 47.4630076,72.4592707 46.9987214,71.5326717 C43.9316797,65.4126996 41.2208257,59.1678644 39.7020761,52.4526998 C38.9145016,48.9702542 38.673798,45.4898172 39.2542396,41.9718878 C39.6379555,39.6453477 40.2969532,37.3663427 41.5847348,35.3805821 C43.5123785,32.4083016 46.5206711,31.0133818 49.8878371,30.4469781 C54.2463531,29.7135322 58.0828409,30.9588169 61.5520625,33.6947611 C66.1684035,37.33588 68.6388894,42.1118149 69.5651119,47.8036366 C69.6473607,48.3074414 69.876986,48.7894871 70.0599476,49.2732066 C70.08949,49.3518737 70.2338451,49.3876924 70.3295223,49.4459396 C71.2490306,49.1265843 71.1546962,48.2990725 71.2060597,47.5920721 C71.3957356,44.9943813 72.1873385,42.5724364 73.3435219,40.2659815 C73.7215308,39.5121156 74.1723886,38.7411772 74.7672658,38.1580358 C77.0010766,35.9677406 79.5024478,34.1148774 82.575868,33.3020947 C85.8137859,32.4457941 89.1070957,32.1920506 92.3805988,33.2006643 C96.7139366,34.5356631 99.3986052,37.6378281 100.910976,41.6973895 C102.230986,45.2417645 102.566695,48.9260667 101.581724,52.7034305 C100.768636,55.8209942 99.7605,58.8448268 98.2296649,61.6728283 C96.5021039,64.8637031 94.7147867,68.0234458 92.8844987,71.156743 C92.3527349,72.066939 91.6547949,72.9101843 90.9031414,73.6526686 C90.3965558,74.1531258 89.7023086,74.6231203 89.0218255,74.761039 C86.6265385,75.246767 84.2362871,75.9169444 81.4542627,75.5734868 C79.5047978,72.6946027 76.6056108,71.6736031 73.5013054,71.0676984 M66.7518665,8.16006316 C79.7277089,7.62110927 94.7372792,11.7559903 103.472104,18.5745939 C100.139516,22.6639484 96.1606874,25.1374454 90.9763261,24.9198553 C86.709123,24.7410967 82.4422557,24.2597205 78.2072807,23.6822699 C72.5468834,22.910662 66.8999144,23.0569495 61.2438813,23.5081979 C56.661447,23.8737492 52.0843841,24.3129464 47.508664,24.7544869 C44.3446023,25.0597825 41.5887633,24.1770363 39.2250329,22.0714338 C37.9590725,20.9436477 36.4799366,20.0230743 35.6154847,18.4999437 C40.3751735,13.6192309 55.2299818,8.63876134 66.7518665,8.16006316 M137.617785,53.6969803 C133.841725,38.7180792 125.987802,26.3104233 114.12618,16.4291557 C107.235071,10.6887946 99.4795112,6.38720615 90.9427551,3.66130458 C82.2065876,0.871465006 73.2441519,-0.289796511 64.0282556,0.662243776 C54.2248677,1.67487453 44.9673434,4.224026 36.2912679,9.00531693 C28.1130495,13.5124444 21.0963859,19.3585877 15.3628039,26.6334609 C5.18174279,39.5519513 -0.204044215,54.2088191 0.00577420286,70.7761277 C0.073923225,76.135204 0.711435506,81.4263252 2.01197399,86.6026258 C3.07650871,90.8399416 4.59391551,94.9477075 6.51685935,98.9031604 C12.7600483,111.744657 21.957145,121.860253 34.3068892,129.103324 C40.6303127,132.812064 47.4626718,135.262463 54.5155921,137.126708 C59.0812409,138.333161 63.7667379,139.0415 68.4784203,138.873789 C73.7081024,138.687331 78.9444987,138.281944 84.0909249,137.173573 C92.745515,135.309328 100.920041,132.220888 108.344927,127.386706 C115.862469,122.492603 122.145607,116.298316 127.251413,108.908287 C135.247005,97.3351728 139.388317,84.5542663 139.590079,70.5093288 C139.592093,64.8191809 139.011651,59.2247725 137.617785,53.6969803" id="Fill-1" fill="#000000"></path>
                <path d="M59.1399229,56.0851151 C58.9901964,56.0094607 58.923726,55.7694421 58.7656068,55.5213894 C59.3621625,54.9583332 59.9724824,54.3818869 60.6016019,53.7876986 C60.8946763,51.4263441 60.1295944,49.6893057 59.0429028,48.0634057 C58.4376187,47.1572267 57.6245303,46.4924053 56.5425387,46.1713763 C54.9277762,45.6923434 53.7534644,46.0448393 53.0588816,47.539181 C52.5757956,48.5782573 52.2756714,49.7438706 52.1168808,50.8833731 C51.5310678,55.0811879 52.9084837,58.8930314 54.748843,62.5431886 C55.1993651,63.4369817 56.0970522,64.1905129 56.9480757,64.7793451 C58.2439143,65.6754815 59.2846137,65.4106911 60.2803279,64.1684191 C61.9602181,62.0725245 62.0172887,59.7135133 61.5060032,57.1854514 C60.6623653,56.7988105 59.8902335,56.463387 59.1399229,56.0851151" id="Fill-4" fill="#000000"></path>
                <path d="M83.8597889,64.4774975 C85.2385477,62.6899113 86.2027053,60.682057 86.7280906,58.381293 C86.2211693,57.6702755 85.7132409,56.9579191 85.1022496,56.1009489 C86.2178122,55.9995185 87.0450003,55.9245336 87.9997581,55.8378323 C88.1716413,54.8084639 88.5113793,53.8641229 88.4345018,52.9552659 C88.3381532,51.8177719 88.0323219,50.6514891 87.5737427,49.6033744 C87.0272077,48.3550768 85.8606173,47.9573891 84.6332635,48.4303965 C83.2162338,48.9763802 81.9375165,49.7506661 81.1301352,51.0987204 C79.3441608,54.0800392 78.216177,57.2772744 78.2457194,60.7801399 C78.2544479,61.8178772 78.4545307,62.9182135 78.8466394,63.8762794 C79.8527607,66.3337082 82.2191767,66.6045242 83.8597889,64.4774975" id="Fill-6" fill="#000000"></path>
                <path d="M73.0269479,104.655506 C70.9045926,105.872002 67.0345339,105.457911 65.1982031,103.802553 C64.0772692,102.79193 63.7190672,100.408147 64.4878419,99.072479 C65.1629536,97.8995011 67.275909,97.7568959 68.0352838,98.8799954 C68.4455208,99.4855654 68.7053599,100.191896 69.3848359,101.561709 C69.6933529,100.321111 69.79608,99.7376351 69.9867629,99.1836173 C70.2294809,98.4779559 70.8149582,98.1843767 71.4904057,98.3514189 C73.3525861,98.8113709 74.5950468,100.457021 74.4694915,102.328966 C74.4010068,103.348961 73.9377277,104.133624 73.0269479,104.655506 M99.085724,84.837736 C99.7312933,84.3118375 100.506446,84.5893485 101.248029,84.6452524 C101.917098,84.6954655 102.617388,85.4463187 103.275714,84.6191416 C102.062124,82.1894973 100.162009,80.936848 97.2188436,80.7336523 C97.6582873,81.4992346 98.0453604,82.1734291 98.4616401,82.8978367 C97.5501889,84.3021296 96.3134352,85.1443706 94.9427334,85.7164651 C89.8171213,87.8548735 84.5740108,89.651498 79.0727397,90.5623636 C76.9711984,90.9105077 74.8441433,91.3055174 72.7264879,91.3175685 C66.300673,91.355061 59.9513998,90.7846402 53.7189535,88.9749603 C48.3046312,87.4022861 43.4435581,84.8347232 38.8765665,81.6408356 C37.7683895,80.8658801 36.6904264,79.9647225 36.012629,78.5667899 C36.7129189,77.9418042 37.3655382,77.3589976 38.2078332,76.6068054 C36.611199,76.1575656 35.5976921,76.7169395 34.6338702,77.3847736 C33.8785239,77.9083288 32.912352,78.2909526 32.8955666,79.4502056 C35.2042406,80.0494152 35.199205,80.0554408 37.4968006,81.927385 C37.9909649,82.3304288 38.5213859,82.6943063 39.0591924,83.0384334 C42.7472966,85.3994531 46.5226853,87.5894136 50.6985754,89.0111137 C51.0789342,89.1406635 51.3881227,89.4770912 51.6435976,89.6561846 C53.2513102,96.250503 56.6933394,101.419774 62.0596553,105.417071 C64.61944,107.32383 67.4101928,108.062966 70.4463492,107.910653 C77.2498373,107.569539 82.3905564,104.361257 85.9155058,98.5603054 C87.2573366,96.3519335 88.146631,93.9514128 88.7364725,91.4605085 C89.092996,89.9531114 89.8765419,89.1045101 91.3304996,88.5608696 C94.018861,87.5556034 96.7981997,86.7013113 99.085724,84.837736" id="Fill-8" fill="#000000"></path>
            </g>
        </g>
    </g>
</svg>