<?xml version="1.0" encoding="UTF-8"?>
<svg width="63px" height="63px" viewBox="0 0 63 63" version="1.1" xmlns="http://www.w3.org/2000/svg" xmlns:xlink="http://www.w3.org/1999/xlink">
    <!-- Generator: Sketch 44.1 (41455) - http://www.bohemiancoding.com/sketch -->
    <title>Page 1</title>
    <desc>Created with Sketch.</desc>
    <defs>
        <polygon id="path-1" points="0 0.0111661733 0 62.3348958 62.9706202 62.3348958 62.9706202 0.0111661733 0 0.0111661733"></polygon>
    </defs>
    <g id="Page-1" stroke="none" stroke-width="1" fill="none" fill-rule="evenodd">
        <g id="2" transform="translate(-144.000000, -74.000000)">
            <g id="Page-1" transform="translate(144.000000, 74.000000)">
                <g id="Group-3" transform="translate(0.000000, 0.139425)">
                    <mask id="mask-2" fill="white">
                        <use xlink:href="#path-1"></use>
                    </mask>
                    <g id="Clip-2"></g>
                </g>
                <path d="M59.4203885,33.2564649 C58.911088,42.5954067 52.3466697,52.4446214 43.9390471,55.867018 C43.7414149,55.4662076 43.7965399,55.032423 43.8371264,54.6296552 C44.1295615,51.7294263 42.847451,49.7381727 40.2901962,48.4654266 C40.0772683,48.3595778 39.8676721,48.2474051 39.5750856,48.096386 C39.7147154,47.8151261 39.8151216,47.5615706 39.9582346,47.334515 C40.3425952,46.7253194 40.792076,46.1519588 41.1273692,45.5182207 C41.4466096,44.9145961 41.89185,44.587112 42.5485038,44.421789 C43.9169365,44.0774414 45.1699702,43.4705043 46.3386505,42.676412 C48.6878236,41.079946 50.7360808,39.2205894 51.8035976,36.5133879 C52.0024413,36.0089872 52.3527274,35.7500113 52.8008452,35.5470465 C54.398713,34.8234196 55.8024317,33.8176295 57.0989293,32.6505818 C57.4938909,32.294791 57.8691649,31.9320742 58.1301,31.3736198 C57.9261072,31.1766777 57.7448308,30.9669373 57.5281168,30.8034211 C57.3388139,30.6608338 57.0742442,30.6084364 56.9034173,30.4510935 C54.3211745,28.0733334 51.6682082,25.7699536 49.7815399,22.7433987 C47.4867346,19.0623273 46.8574918,15.0801212 47.399201,10.8535443 C47.4658356,10.3345385 47.5732082,9.82065203 47.6833067,9.17833159 C49.7644269,10.0397276 53.1264462,13.5122631 55.3270543,17.0430682 C58.4231409,22.0107378 59.7384173,27.4261948 59.4203885,33.2564649 M31.0656937,50.2464882 C29.2726168,50.279613 27.7815159,49.5215062 26.5041,48.3646971 C25.579999,47.5278435 24.7023909,46.6203739 23.9285207,45.6466547 C23.3998356,44.981448 23.0745375,44.153478 22.6803332,43.3869394 C22.4863356,43.0100693 22.3424654,42.6077532 22.2184341,42.3167065 C21.8001505,42.0461369 21.7207947,42.4415268 21.4292683,42.4886544 C18.6901312,41.6265056 16.4153163,39.9844178 14.6307202,37.6994072 C13.8653308,36.7193641 13.2787947,35.6004979 12.936838,34.3824078 C12.674237,33.4467821 12.7067971,32.5558749 13.4768812,31.8578445 C14.2506,31.1566522 15.1768212,30.9713038 16.1724029,31.2954753 C16.950362,31.5487297 17.7434654,31.7902397 18.472963,32.1505475 C20.3131385,33.0596733 22.2905207,33.4508474 24.2821385,33.8165756 C24.6003187,33.8748451 24.9069894,33.9954496 25.1614125,34.0702816 C25.2141144,34.2059428 25.2518236,34.2533715 25.2460687,34.2949281 C25.1668644,34.8618143 24.9983091,35.4383368 25.330725,35.9772175 C25.7437082,36.6463389 26.3191889,37.1605265 27.0165808,37.5142093 C27.4433452,37.7305746 27.9025183,37.9058351 28.3666889,38.0232776 C30.4644678,38.5540276 32.5531601,38.6094364 34.6312514,37.8817443 C35.980451,37.4092638 36.8277707,36.548169 37.0179822,35.1054323 C37.042213,34.9221918 37.1118764,34.7448235 37.1651841,34.5469779 C37.3817466,34.5016571 37.5652947,34.4400751 37.7520231,34.4272769 C40.0132082,34.2735476 42.2469822,33.9602168 44.446076,33.3972454 C45.0479077,33.2430644 45.6800279,33.1759114 46.3023043,33.1381189 C47.2644173,33.0796988 47.9328837,33.5330572 48.4126529,34.3702118 C49.0779389,35.5312369 48.9089293,36.6818728 48.4621745,37.8299491 C47.9469678,39.1540387 47.0978308,40.2638708 46.0001769,41.1576388 C44.7694053,42.1598153 43.4648812,43.0656286 41.9362226,43.8396955 C41.7594894,43.6091769 41.6474221,43.4628254 41.5103668,43.284403 C41.0181793,43.3273148 40.8525014,43.7481506 40.6171601,44.0905408 C39.9656553,45.0394164 39.4091048,46.0744166 38.6397779,46.9171423 C36.6277154,49.1202442 34.0580423,50.19123 31.0656937,50.2464882 M35.8426385,58.4688223 C35.3471192,58.5669922 34.9315615,58.6851876 34.5085832,58.7267442 C32.1053452,58.9634361 29.7045303,58.9769872 27.3065928,58.632489 C26.8003212,58.5599156 26.3581096,58.4527116 26.1878885,57.9097656 C25.9846529,57.261573 26.0705207,56.6400309 26.6154101,56.2154309 C26.9376793,55.9642845 27.3788308,55.7656861 27.7819702,55.7331635 C29.4594966,55.5984057 31.143838,55.5645281 32.8259077,55.6715815 C33.6090159,55.7212687 34.3273067,56.0025286 34.9925928,56.4058986 C35.7985687,56.8943392 35.9074558,57.1558747 35.8426385,58.4688223 M22.2938524,48.3204302 C21.2947875,48.8117316 20.6373764,49.6038666 20.1925904,50.6054408 C19.6581505,51.8086248 19.3728332,53.0566778 19.398124,54.3744435 C19.4081192,54.89631 19.3997899,55.4184777 19.3997899,55.9099297 C18.9874125,56.1651414 18.7046697,55.9252875 18.4157178,55.7849587 C15.0703572,54.1625952 12.2165784,51.9066441 9.82515288,49.0835057 C6.15297981,44.7483697 3.93222981,39.7694075 3.33933317,34.1199688 C2.89151827,29.8536421 3.41944615,25.6881955 4.99702067,21.6867168 C6.80781635,17.0938094 9.55543413,13.1477395 13.3954053,9.98642672 C13.6549774,9.77277161 13.9260591,9.57146302 14.2039558,9.38204925 C14.3561553,9.27830833 14.5337971,9.21160698 14.7773163,9.08934626 C14.8971072,9.33446996 15.0128091,9.53291777 15.094588,9.74446494 C15.9512971,11.962473 15.9443308,14.250495 15.5776889,16.5480026 C15.3892947,17.7279992 15.1342659,18.904081 14.8107851,20.0544158 C13.8863812,23.3420546 11.8211625,25.8318368 9.04567933,27.7300397 C8.10779712,28.3716074 6.96667933,28.7203214 5.91536683,29.1961143 C5.53312644,29.3691163 5.1421024,29.522695 4.76940288,29.6791345 C4.78106394,30.2469241 5.03215529,30.5969932 5.35957356,30.8771991 C6.52719375,31.8766654 7.68830192,32.8863703 8.89968894,33.8313312 C9.41489567,34.2333461 9.80092212,34.6821874 10.0456529,35.272261 C11.0710687,37.7453302 12.739963,39.6393173 15.0414317,41.0532956 C17.0663668,42.2972833 19.1412779,43.3733884 21.4545591,43.8801982 C22.1695183,45.152342 22.8667587,46.3931678 23.5833837,47.6683229 C23.1334486,47.8961314 22.7159221,48.1127978 22.2938524,48.3204302 M33.8404197,33.7991097 C33.7937755,34.1172586 33.6196168,34.1848634 32.880124,34.1586646 C32.4948548,34.144963 32.1100399,34.1213239 31.7250736,34.1020513 C31.7246192,34.1094291 31.7241649,34.1168069 31.7235591,34.1241847 C31.100374,34.0800685 30.475826,34.0478471 29.8552154,33.9790378 C29.7595038,33.968498 29.6136649,33.78857 29.6153308,33.689045 C29.6172995,33.5795825 29.7452683,33.4037198 29.8490062,33.3775211 C30.1714269,33.2963653 30.5079317,33.2391497 30.8400447,33.2332775 C31.5615159,33.2204793 32.2846529,33.2239423 33.0052154,33.2605302 C33.6464221,33.2932033 33.8878212,33.4752393 33.8404197,33.7991097 M33.1572635,31.965199 C30.7929462,31.5050651 28.5338812,31.7587712 26.4919846,33.1055964 C25.9143837,33.4865319 25.3443548,33.5726564 24.7078428,33.4559667 C23.8556769,33.2998283 23.0083572,33.1176418 22.1564942,32.9607506 C21.6830856,32.8735721 21.4110952,32.5911076 21.2016505,32.1743371 C19.8180736,29.4216643 18.5951769,26.6128298 17.9100519,23.5924481 C17.5547683,22.0260956 17.4461841,20.4606466 17.7080279,18.878334 C17.8811264,17.8318907 18.1784077,16.8068279 18.7593404,15.9136622 C19.6289221,14.5767745 20.9859966,13.9493602 22.504963,13.6946002 C24.4711385,13.3647071 26.2018212,13.9248177 27.766826,15.1554049 C29.8493091,16.7931263 30.9637731,18.9412711 31.3816024,21.5013683 C31.4187058,21.7279722 31.5222923,21.9447893 31.6048284,22.1623591 C31.6181553,22.1977425 31.6832755,22.2138532 31.7264365,22.2400519 C32.141237,22.0964106 32.0986817,21.724208 32.1218524,21.4062097 C32.2074173,20.2378069 32.5645183,19.1484519 33.0860856,18.1110426 C33.2566096,17.7719649 33.4599966,17.4252082 33.7283524,17.1629198 C34.7360495,16.1777574 35.8644462,15.344367 37.2509005,14.9787894 C38.7115615,14.593638 40.1972106,14.4795079 41.6739245,14.9331675 C43.6287418,15.5336302 44.839826,16.9289381 45.5220736,18.7548687 C46.1175447,20.3490762 46.268987,22.0062208 45.8246553,23.7052231 C45.457862,25.1074571 45.0030808,26.4675323 44.3125038,27.7395255 C43.5331817,29.1747338 42.7269029,30.5959393 41.9012394,32.00525 C41.6613548,32.4146427 41.3465062,32.7939219 41.0074269,33.1278804 C40.7789005,33.3529786 40.4657178,33.5643752 40.1587442,33.626409 C39.0782034,33.8448822 37.9999341,34.1463181 36.7449317,33.991836 C35.8655062,32.6969565 34.5576505,32.237726 33.1572635,31.965199 M30.1125159,3.67027565 C35.9660639,3.42786217 42.7370495,5.28767046 46.6774269,8.35457744 C45.1740591,10.1939086 43.3791649,11.306451 41.0404413,11.2085822 C39.1154582,11.1281792 37.1906264,10.9116633 35.2801817,10.6519345 C32.726713,10.3048767 30.1793019,10.3706747 27.6278019,10.5736395 C25.5606144,10.7380591 23.49585,10.9356035 21.4316913,11.1342019 C20.0043476,11.2715193 18.7611577,10.8744731 17.6948524,9.92740431 C17.1237635,9.4201428 16.4565087,9.0060825 16.0665447,8.32100092 C18.2136937,6.1257285 24.9148644,3.88558701 30.1125159,3.67027565 M62.0809269,24.1521071 C60.3775038,17.414819 56.8345111,11.8340391 51.4836,7.3895911 C48.3749437,4.80766165 44.8763236,2.8728708 41.0252971,1.64680062 C37.0843139,0.391972063 33.0412587,-0.130346182 28.8838644,0.29786745 C24.4614462,0.753333778 20.2852731,1.89990438 16.3713981,4.05045829 C12.682112,6.07769751 9.51681635,8.70720625 6.93033317,11.9793366 C2.33754231,17.7898824 -0.0920466346,24.3823246 0.00260480769,31.8340549 C0.0333475962,34.2444881 0.320936538,36.6243561 0.907624038,38.9525795 C1.3878476,40.8584614 2.07236683,42.7060737 2.93982837,44.4851779 C5.75620096,50.2610932 9.90511442,54.8109383 15.4762226,58.0687648 C18.3287899,59.7369008 21.4109437,60.839054 24.5925952,61.6775638 C26.6522106,62.2202086 28.7658909,62.5388092 30.8913837,62.4633749 C33.2505519,62.3795089 35.612749,62.1971718 37.9343596,61.6986432 C41.8385423,60.8601334 45.5261625,59.4709988 48.875612,57.2966552 C52.2668596,55.0953601 55.1012538,52.3092613 57.4045399,48.9853358 C61.0114413,43.7799203 62.8796337,38.0312577 62.9706505,31.7140526 C62.9715591,29.1547083 62.7097154,26.6384262 62.0809269,24.1521071" id="Fill-1" fill="#0070CD"></path>
                <path d="M26.6786827,25.2262548 C26.6111394,25.1922265 26.5811538,25.0842697 26.5098245,24.9726993 C26.7789375,24.719445 27.0542596,24.4601679 27.3380625,24.1929108 C27.4702716,23.1308085 27.1251346,22.3495144 26.6349159,21.6182086 C26.3618654,21.2106227 25.9950721,20.9115959 25.5069736,20.7672018 C24.7785361,20.5517399 24.2487909,20.7102873 23.9354567,21.3824201 C23.7175312,21.8497812 23.5821418,22.3740569 23.5105096,22.8865882 C23.2462428,24.7747032 23.8676106,26.489214 24.6978173,28.1310007 C24.9010529,28.5330156 25.3060096,28.8719428 25.6899159,29.1367908 C26.2744832,29.5398597 26.7439543,29.4207609 27.1931322,28.8620053 C27.9509495,27.9193029 27.9766947,26.8582546 27.7460481,25.7211697 C27.3654736,25.5472644 27.0171562,25.3963959 26.6786827,25.2262548" id="Fill-4" fill="#0070CD"></path>
                <path d="M37.8300916,29.0010242 C38.4520651,28.1969944 38.8870075,27.2938912 39.1240147,26.2590416 C38.8953368,25.9392365 38.6662046,25.6188291 38.3905796,25.2333766 C38.8938224,25.1877547 39.2669762,25.1540276 39.6976781,25.1150306 C39.7752166,24.6520359 39.9284762,24.2272854 39.8937959,23.8184949 C39.850332,23.306867 39.712368,22.7822902 39.5054978,22.3108637 C39.2589498,21.749398 38.7326877,21.5705239 38.1790147,21.7832756 C37.5397767,22.028851 36.9629329,22.3771134 36.5987142,22.9834482 C35.7930411,24.3244013 35.284195,25.7624704 35.2975219,27.3380075 C35.3014594,27.8047663 35.391719,28.2996813 35.5686036,28.7306052 C36.0224762,29.8359203 37.089993,29.9577293 37.8300916,29.0010242" id="Fill-6" fill="#0070CD"></path>
                <path d="M32.9432755,47.0724977 C31.9858572,47.6196595 30.2400303,47.4334077 29.4116409,46.688852 C28.905975,46.2342891 28.7443861,45.1620987 29.0911889,44.5613349 C29.3957394,44.0337468 30.3489173,43.9696051 30.6914798,44.4747586 C30.8765423,44.747135 30.9937587,45.0648322 31.3002779,45.6809539 C31.4394534,45.1229512 31.4857947,44.8605123 31.5718139,44.6113233 C31.6813067,44.2939272 31.9454221,44.1618796 32.250124,44.2370128 C33.0901745,44.4438923 33.6506625,45.1840816 33.5940231,46.0260544 C33.5631288,46.4848332 33.3541385,46.8377631 32.9432755,47.0724977 M44.6986817,38.1587581 C44.9899053,37.9222168 45.3395856,38.0470372 45.6741216,38.0721819 C45.9759462,38.094767 46.2918548,38.4324896 46.5888332,38.0604376 C46.0413692,36.9676196 45.1842058,36.4041965 43.8565111,36.3128021 C44.054749,36.6571497 44.229362,36.9603924 44.4171505,37.2862202 C44.0059846,37.9178503 43.4480712,38.2966779 42.8297322,38.5539975 C40.5175111,39.515822 38.1522851,40.3239171 35.6706,40.7336109 C34.7225712,40.890201 33.7630327,41.0678705 32.8077346,41.0732909 C29.9089774,41.0901545 27.044749,40.8335877 24.2332226,40.0196204 C21.7907611,39.3122549 19.5978764,38.157403 17.5376553,36.7208397 C17.0377442,36.3722762 16.551463,35.9669488 16.245701,35.3381794 C16.5616096,35.0570701 16.8560135,34.7949323 17.2359822,34.4566074 C16.5157226,34.254546 16.0585183,34.506144 15.6237274,34.806526 C15.2829822,35.0420134 14.8471312,35.2141119 14.8395591,35.7355267 C15.8810279,36.0050423 15.8787562,36.0077525 16.9152274,36.8497253 C17.1381505,37.0310085 17.3774293,37.1946752 17.6200399,37.3494585 C19.2837851,38.4114102 20.9869053,39.396422 22.8706962,40.0358817 C23.0422803,40.0941513 23.1817587,40.2454715 23.2970062,40.326025 C24.0222635,43.2920519 25.5750014,45.6171134 27.9958067,47.4150385 C29.1505543,48.2726703 30.4094942,48.605123 31.7791385,48.5366149 C34.8482683,48.3831867 37.1673043,46.9401489 38.7574486,44.3309668 C39.3627635,43.3376738 39.7639341,42.2579551 40.0300183,41.1375832 C40.19085,40.4595783 40.5443163,40.07789 41.200213,39.8333686 C42.412963,39.3812147 43.6667538,38.9969668 44.6986817,38.1587581" id="Fill-8" fill="#0070CD"></path>
            </g>
        </g>
    </g>
</svg>