<?xml version="1.0" encoding="UTF-8"?>
<svg width="59px" height="564px" viewBox="0 0 59 564" version="1.1" xmlns="http://www.w3.org/2000/svg" xmlns:xlink="http://www.w3.org/1999/xlink">
    <!-- Generator: Sketch 44.1 (41455) - http://www.bohemiancoding.com/sketch -->
    <title>Group 22</title>
    <desc>Created with Sketch.</desc>
    <defs></defs>
    <g id="Page-1" stroke="none" stroke-width="1" fill="none" fill-rule="evenodd">
        <g id="1-copy-10" transform="translate(-375.000000, -137.000000)" fill="#FF0000">
            <g id="Page-1-Copy-9" transform="translate(33.000000, -140.000000)">
                <g id="Group-22" transform="translate(371.605190, 559.461073) rotate(-360.000000) translate(-371.605190, -559.461073) translate(341.605190, 277.461073)">
                    <path d="M3.83896976,20.2920381 C4.95405115,20.0942928 5.69220362,19.8560996 6.43259971,19.8493583 C11.9047999,19.7999219 17.3770001,19.802169 22.8492003,19.7684625 C25.0748758,19.7549798 25.1287228,19.7032964 25.8511699,17.5505692 C27.6191461,12.2788594 29.3759041,7.0004082 31.1461238,1.72869837 C31.3076648,1.24557066 31.5230527,0.780419789 31.7160044,0.306280499 C31.8349165,0.301786288 31.9560723,0.299539182 32.077228,0.295044971 C32.4631314,1.40286805 32.8669838,2.50619692 33.2349382,3.61851421 C34.825668,8.43630871 36.4276159,13.2518561 37.9734732,18.0831332 C38.3324531,19.2044389 38.9875915,19.6291419 40.1251091,19.6224006 C45.4626919,19.5931882 50.8025182,19.5931882 56.1423446,19.6134122 C56.9994092,19.6156593 57.8564737,19.7774509 58.7135383,19.865088 C58.744949,19.9886788 58.7786034,20.1122696 58.8100141,20.2358604 C57.9843603,20.8785326 57.1699246,21.5391817 56.3285654,22.1638771 C52.2967722,25.1637631 48.2560044,28.1524136 44.2197239,31.1455583 C42.671623,32.2960764 42.5729035,33.3836755 43.3693902,35.6105572 C45.0005052,40.1676875 46.5104645,44.7675127 48.0473473,49.3583495 C48.3794037,50.3493231 48.6082534,51.3762504 48.9941569,52.791927 C47.905999,52.0773474 47.1611156,51.6279262 46.4588612,51.1200804 C42.1668074,48.0190746 37.8814846,44.9068333 33.5961618,41.7945919 C31.5970923,40.3429617 31.5567071,40.3452088 29.5621249,41.8440283 C25.0771195,45.2124396 20.5921141,48.5763568 16.1026214,51.9357797 C15.6538965,52.2728456 15.1737608,52.5739577 14.3974668,53.1042746 C14.6330473,52.0885829 14.7317668,51.4054628 14.951642,50.7627906 C16.2237771,47.0146184 17.5385411,43.284423 18.8039453,39.5362508 C19.4007494,37.7722728 19.905565,35.9790825 20.4866637,34.2106104 C20.8770544,33.0151502 20.3340972,32.3207946 19.4007494,31.6534042 C14.8394608,28.395101 10.3073393,25.0918557 5.77073047,21.7975988 C5.23674784,21.4110967 4.7296887,20.9886408 3.83896976,20.2920381" id="Fill-4"></path>
                    <path d="M54.21193,77.2440317 L49.6685904,77.5384025 C48.8878091,70.1499192 45.8095562,66.4556775 40.4360755,66.4556775 L23.5101721,66.4556775 L23.5101721,85.9043768 L32.4487722,85.9043768 C35.4283056,85.9043768 37.1379474,82.7719116 37.5799415,76.5114753 L42.0492415,76.5114753 L40.9498655,100.874595 L36.6264011,100.874595 C36.0879312,94.4658493 34.5241249,91.2614767 31.9372258,91.2614767 L23.5101721,91.2614767 L23.5101721,107.687819 C23.5101721,109.94616 26.390986,111.076454 32.157101,111.076454 L32.157101,115.258318 L5.77880752,115.258318 L5.77880752,111.076454 C10.1247082,111.076454 12.2987804,109.948407 12.2987804,107.69456 L12.2987804,68.444366 C12.2987804,66.1882719 10.1247082,65.062472 5.77880752,65.062472 L5.77880752,60.7322994 L54.21193,60.7322994 L54.21193,77.2440317 Z" id="Fill-6"></path>
                    <path d="M42.158506,131.01682 C37.8103617,131.01682 35.6385332,132.144867 35.6385332,134.398714 L35.6385332,173.648908 C35.6385332,175.905003 37.8103617,177.030802 42.158506,177.030802 L42.158506,181.214913 L17.8308854,181.214913 L17.8308854,177.030802 C22.2283894,177.030802 24.4248978,175.905003 24.4248978,173.648908 L24.4248978,134.398714 C24.4248978,132.144867 22.2283894,131.01682 17.8308854,131.01682 L17.8308854,126.686648 L42.158506,126.686648 L42.158506,131.01682 Z" id="Fill-8"></path>
                    <path d="M30.5078126,186.450669 C34.4162065,186.450669 38.0419038,186.940538 41.3893916,187.918029 C44.7346357,188.893273 47.6176932,190.495459 50.0363205,192.717847 C52.4527041,194.940234 54.3463232,197.859225 55.7149341,201.474818 C57.0813014,205.092658 57.7656069,209.537433 57.7656069,214.815884 C57.7656069,219.164033 57.1800209,223.085233 56.0066053,226.579482 C54.8354333,230.071484 53.0764317,233.053393 50.7318441,235.520715 C48.3872564,237.988037 45.4301593,239.893583 41.8650399,241.237352 C38.2999206,242.581121 34.1469716,243.253006 29.4084366,243.253006 C25.5494024,243.253006 21.9573596,242.787855 18.6367953,241.862047 C15.3139874,240.931746 12.4466352,239.392478 10.028008,237.241998 C7.60938077,235.091518 5.70454355,232.284883 4.31125272,228.813105 C2.92020552,225.345821 2.22468192,221.069579 2.22468192,215.988873 C2.22468192,211.442978 2.76090818,207.350999 3.83560433,203.710688 C4.91030047,200.072624 6.59526249,196.969371 8.89273399,194.403176 C11.1879619,191.836982 14.1181355,189.870764 17.6854985,188.504524 C21.2506179,187.136037 25.5247226,186.450669 30.5078126,186.450669 M30.8735234,192.468418 C27.8446303,192.468418 25.2330514,192.920086 23.0342993,193.82567 C20.8355473,194.731254 19.0406477,196.041316 17.6473569,197.751364 C16.2563097,199.465905 15.2287296,201.569196 14.5713477,204.063483 C13.911722,206.557771 13.5819092,209.398112 13.5819092,212.577767 C13.5819092,217.519152 13.94762,221.566189 14.6790416,224.721125 C15.4127069,227.878309 16.4627231,230.372596 17.8313341,232.208481 C19.1977014,234.04212 20.8602272,235.316229 22.8144241,236.024067 C24.7663775,236.734152 26.9651295,237.089195 29.4084366,237.089195 C32.632525,237.089195 35.3428235,236.610561 37.5415755,235.657789 C39.7403275,234.702769 41.4993292,233.309563 42.8163367,231.473678 C44.1378316,229.64004 45.0891284,227.363722 45.6747144,224.649218 C46.262544,221.934714 46.5542152,218.813485 46.5542152,215.29227 C46.5542152,210.741881 46.1750427,206.998203 45.4189412,204.063483 C44.6605961,201.128763 43.5993617,198.805256 42.2307507,197.090715 C40.8621398,195.380667 39.2153194,194.180713 37.2858023,193.495346 C35.3540416,192.812225 33.218111,192.468418 30.8735234,192.468418" id="Fill-10"></path>
                    <path d="M58.4985991,296.616596 C58.4985991,299.063694 57.7896137,301.106313 56.3738866,302.744453 C54.9559159,304.384841 52.5372887,305.202787 49.1202486,305.202787 C45.3083305,305.202787 42.5980321,304.310686 40.984866,302.524237 C39.3739436,300.740035 38.5684824,298.524389 38.5684824,295.88404 L38.5684824,290.378631 C38.5684824,286.268675 37.9828964,283.273283 36.8094808,281.387961 C35.6360652,279.504887 33.4866729,278.56335 30.3613039,278.56335 L19.2239518,278.56335 L19.2239518,297.057029 C19.2239518,299.308629 21.9342502,300.432182 27.3570907,300.432182 L27.3570907,304.690447 L1.49034361,304.690447 L1.49034361,300.432182 C5.83848793,300.432182 8.01256009,299.308629 8.01256009,297.057029 L8.01256009,257.867507 C8.01256009,255.618154 5.83848793,254.492354 1.49034361,254.492354 L1.49034361,250.162181 L32.8517272,250.162181 C35.2456745,250.162181 37.5902621,250.321726 39.8877337,250.638568 C42.1829615,250.957657 44.2201726,251.604823 46.0060977,252.584561 C47.7875356,253.562052 49.2167244,254.944022 50.2914206,256.730471 C51.3661167,258.51692 51.9045866,260.876381 51.9045866,263.813348 C51.9045866,265.721141 51.6084282,267.397482 51.0228422,268.840124 C50.4350125,270.282765 49.6654493,271.518673 48.7096653,272.545601 C47.7538812,273.572528 46.6657233,274.406204 45.442948,275.042135 C44.2201726,275.675819 42.9457939,276.14097 41.6265427,276.435341 C42.8874596,276.875773 44.0272209,277.451032 45.0458264,278.158871 C46.0666756,278.868956 46.9259838,279.77454 47.6304819,280.875621 C48.33498,281.976703 48.8689626,283.309237 49.2324298,284.875469 C49.595897,286.441702 49.7798742,288.300058 49.7798742,290.452786 L49.7798742,297.203091 C49.7798742,298.279455 50.001993,299.07493 50.4484743,299.589517 C50.8949556,300.101857 51.4648362,300.360274 52.1603598,300.360274 C52.9029995,300.360274 53.4998036,300.101857 53.9462849,299.589517 C54.3927662,299.07493 54.614885,298.279455 54.614885,297.203091 L54.614885,293.681876 L58.4985991,293.681876 L58.4985991,296.616596 Z M19.2239518,256.325992 L19.2239518,273.646682 L31.2408048,273.646682 C34.1709784,273.646682 36.4190901,272.974798 37.9828964,271.628782 C39.5444591,270.282765 40.3252404,267.995212 40.3252404,264.766121 C40.3252404,259.141616 37.2963473,256.325992 31.2408048,256.325992 L19.2239518,256.325992 Z" id="Fill-12"></path>
                    <path d="M59.2677135,318.056905 C54.8702095,318.056905 52.6737011,319.182705 52.6737011,321.432058 L52.6737011,345.943486 C52.6737011,349.61301 52.2698487,352.90502 51.4643875,355.815021 C50.6589263,358.72727 49.375573,361.185604 47.6165714,363.190022 C45.8575698,365.196688 43.5623419,366.724719 40.7286441,367.776365 C37.8949464,368.82801 34.4509827,369.35608 30.3989968,369.35608 C26.2954076,369.35608 22.7774043,368.82801 19.8472307,367.776365 C16.9148135,366.724719 14.509648,365.196688 12.6294906,363.190022 C10.7470897,361.185604 9.38072233,358.72727 8.52590139,355.815021 C7.66883682,352.90502 7.24254816,349.61301 7.24254816,345.943486 L7.24254816,321.432058 C7.24254816,319.182705 5.068476,318.056905 0.722575303,318.056905 L0.722575303,313.726733 L26.3672036,313.726733 L26.3672036,318.056905 C23.5828655,318.056905 21.5680907,318.340041 20.3228791,318.89957 C19.0776675,319.463594 18.4539399,320.308505 18.4539399,321.432058 L18.4539399,345.943486 C18.4539399,348.880453 18.6738151,351.424177 19.1135655,353.576904 C19.5533159,355.729631 20.2981992,357.502598 21.3482155,358.89805 C22.3982318,360.291256 23.8139589,361.331666 25.5976404,362.017033 C27.3813219,362.7024 29.6406517,363.04396 32.37563,363.04396 C35.0634922,363.04396 37.3228221,362.7024 39.1536197,362.017033 C40.9866609,361.331666 42.4629659,360.291256 43.5870218,358.89805 C44.7110777,357.502598 45.5030771,355.729631 45.9675074,353.576904 C46.4319377,351.424177 46.6652746,348.880453 46.6652746,345.943486 L46.6652746,321.432058 C46.6652746,320.308505 46.0303289,319.463594 44.7604374,318.89957 C43.4883023,318.340041 41.4623093,318.056905 38.6779713,318.056905 L38.6779713,313.726733 L59.2677135,313.726733 L59.2677135,318.056905 Z" id="Fill-14"></path>
                    <path d="M55.2745106,397.106486 L49.9257098,397.546919 C48.9474895,393.436963 47.0785502,390.135965 44.3188921,387.63943 C41.5592339,385.142896 37.9806528,383.895752 33.5853924,383.895752 C30.3613039,383.895752 27.6016458,384.459776 25.3041743,385.585576 C23.0089464,386.711376 21.1400072,388.275361 19.6996002,390.282027 C18.2591933,392.288692 17.1957153,394.684107 16.5114098,397.472765 C15.8271043,400.261423 15.4860734,403.319734 15.4860734,406.647697 C15.4860734,410.317221 15.912362,413.508111 16.767183,416.224861 C17.6220039,418.939365 18.8200994,421.190965 20.3592258,422.975167 C21.8983523,424.761616 23.7291499,426.094149 25.8538623,426.975015 C27.9808183,427.85588 30.3366241,428.296313 32.9257668,428.296313 C38.0053327,428.296313 42.0124461,427.109841 44.9426197,424.736897 C47.8727933,422.363954 49.9997494,419.024755 51.316757,414.7193 L56.2258074,416.406877 C55.5415019,418.757349 54.6014233,421.03142 53.4055714,423.233584 C52.2097195,425.4335 50.6571314,427.390729 48.7522941,429.103024 C46.8474569,430.817565 44.5275492,432.197288 41.7925709,433.251181 C39.055349,434.300579 35.8065807,434.828649 32.046266,434.828649 C28.0907559,434.828649 24.3999936,434.264625 20.9807098,433.136578 C17.5614261,432.010778 14.5706746,430.296237 12.0062117,427.992954 C9.44174891,425.691917 7.4269741,422.788657 5.95964366,419.287666 C4.49455685,415.784429 3.76313525,411.656495 3.76313525,406.906114 C3.76313525,401.957988 4.48333872,397.657027 5.92374567,394.007728 C7.36415261,390.358428 9.34302944,387.34506 11.8581325,384.969869 C14.3754792,382.594678 17.3191146,380.819465 20.6890386,379.641981 C24.0589627,378.466745 27.6734418,377.878003 31.5347196,377.878003 C35.4902296,377.878003 38.8736154,378.473486 41.6826333,379.662205 C44.4916512,380.850924 46.6029018,382.21267 48.0208725,383.747443 L49.8516702,379.125147 L55.2745106,379.125147 L55.2745106,397.106486 Z" id="Fill-16"></path>
                    <path d="M55.274735,462.57928 L49.9259341,463.019713 C48.9477138,458.909756 47.0787746,455.608758 44.3191164,453.112224 C41.5594583,450.61569 37.9808772,449.368546 33.5856167,449.368546 C30.3615283,449.368546 27.6018701,449.932569 25.3043986,451.058369 C23.0091708,452.184169 21.1402315,453.748155 19.6998246,455.75482 C18.2594176,457.761485 17.1959396,460.1569 16.5116341,462.945558 C15.8273287,465.734216 15.4862977,468.792527 15.4862977,472.120491 C15.4862977,475.790014 15.9125864,478.980904 16.7674073,481.697655 C17.6222283,484.412158 18.8203238,486.663758 20.3594502,488.44796 C21.8985766,490.234409 23.7293742,491.566943 25.8540866,492.447808 C27.9810427,493.328674 30.3368484,493.769106 32.9259911,493.769106 C38.005557,493.769106 42.0126704,492.582634 44.9428441,490.209691 C47.8730177,487.836747 49.9999737,484.499795 51.3169813,480.192094 L56.2260318,481.87967 C55.5417263,484.230143 54.6016476,486.504214 53.4057958,488.706377 C52.2099439,490.906294 50.6573557,492.863523 48.7525185,494.575817 C46.8476813,496.290359 44.5277735,497.670082 41.7927952,498.723974 C39.0555733,499.773373 35.806805,500.301442 32.0464903,500.301442 C28.0909803,500.301442 24.400218,499.737419 20.9809342,498.609372 C17.5616504,497.483572 14.5708989,495.76903 12.0064361,493.465747 C9.44197328,491.164711 7.42719846,488.26145 5.95986802,484.76046 C4.49478121,481.257222 3.76335962,477.129289 3.76335962,472.378908 C3.76335962,467.430781 4.48356309,463.129821 5.92397003,459.480521 C7.36437697,455.831222 9.3432538,452.817853 11.8583569,450.442662 C14.3757036,448.067472 17.319339,446.292258 20.689263,445.114775 C24.059187,443.939539 27.6736661,443.350797 31.5349439,443.350797 C35.490454,443.350797 38.8738397,443.94628 41.6828576,445.134999 C44.4918755,446.323718 46.6031262,447.685464 48.0210969,449.220237 L49.8518945,444.597941 L55.274735,444.597941 L55.274735,462.57928 Z" id="Fill-18"></path>
                    <path d="M42.158506,513.154662 C37.8103617,513.154662 35.6385332,514.280462 35.6385332,516.536556 L35.6385332,555.78675 C35.6385332,558.040597 37.8103617,559.168644 42.158506,559.168644 L42.158506,563.352755 L17.8308854,563.352755 L17.8308854,559.168644 C22.2283894,559.168644 24.4248978,558.040597 24.4248978,555.78675 L24.4248978,516.536556 C24.4248978,514.280462 22.2283894,513.154662 17.8308854,513.154662 L17.8308854,508.824489 L42.158506,508.824489 L42.158506,513.154662 Z" id="Fill-20"></path>
                </g>
            </g>
        </g>
    </g>
</svg>