<?xml version="1.0" encoding="UTF-8"?>
<svg width="40px" height="40px" viewBox="0 0 40 40" version="1.1" xmlns="http://www.w3.org/2000/svg" xmlns:xlink="http://www.w3.org/1999/xlink">
    <!-- Generator: Sketch 44.1 (41455) - http://www.bohemiancoding.com/sketch -->
    <title>Page 1 Copy 14</title>
    <desc>Created with Sketch.</desc>
    <defs></defs>
    <g id="Page-1" stroke="none" stroke-width="1" fill="none" fill-rule="evenodd">
        <g id="1-copy-18" transform="translate(-439.000000, -410.000000)" fill="#FFC000">
            <g id="Page-1-Copy-14" transform="translate(439.000000, 410.000000)">
                <g id="Group-3" transform="translate(0.000000, 0.065730)">
                    <path d="M19.9001527,0.0124347991 C14.4956352,0.0124347991 13.8178686,0.0351003662 11.6953847,0.130921005 C9.57716648,0.226507173 8.13063237,0.559378381 6.86475703,1.04614098 C5.55622505,1.54923841 4.44636243,2.22248391 3.34005453,3.31707449 C2.23366764,4.41174322 1.55329421,5.50977272 1.04473225,6.80444554 C0.552758981,8.05691352 0.216403462,9.48812685 0.119715075,11.5839102 C0.0228686995,13.6839923 3.94968904e-05,14.3544241 3.94968904e-05,19.7017785 C3.94968904e-05,25.0491329 0.0228686995,25.7196429 0.119715075,27.8197249 C0.216403462,29.9154302 0.552758981,31.3467216 1.04473225,32.5991115 C1.55329421,33.8937843 2.23366764,34.9918919 3.34005453,36.0864825 C4.44636243,37.1811513 5.55622505,37.8543186 6.86475703,38.3575724 C8.13063237,38.8442568 9.57716648,39.177128 11.6953847,39.2727923 C13.8178686,39.3685348 14.4956352,39.3912004 19.9001527,39.3912004 C25.3047492,39.3912004 25.9823579,39.3685348 28.1049208,39.2727923 C30.223139,39.177128 31.6696731,38.8442568 32.9355485,38.3575724 C34.2441594,37.8543186 35.3539431,37.1811513 36.460251,36.0864825 C37.5666378,34.9918919 38.2470113,33.8938625 38.7555732,32.5991115 C39.2475465,31.3467216 39.583981,29.9154302 39.6805904,27.8197249 C39.7774368,25.7196429 39.800345,25.0491329 39.800345,19.7017785 C39.800345,14.3545023 39.7774368,13.6839923 39.6805904,11.5839102 C39.583981,9.48812685 39.2475465,8.05691352 38.7555732,6.80444554 C38.2470113,5.50977272 37.5666378,4.41174322 36.460251,3.31707449 C35.3539431,2.22248391 34.2441594,1.54923841 32.9355485,1.04614098 C31.6696731,0.559378381 30.223139,0.226507173 28.1049208,0.130921005 C25.9823579,0.0351003662 25.3047492,0.0124347991 19.9001527,0.0124347991 M19.9001527,3.560065 C25.2137484,3.560065 25.8430918,3.58007322 27.9414826,3.67479966 C29.8817279,3.7624138 30.9354259,4.08317066 31.6366537,4.35281275 C32.5655416,4.70999083 33.2285364,5.13665059 33.9248666,5.82560567 C34.6211967,6.51463891 35.0524238,7.17053353 35.4135044,8.0895832 C35.6859539,8.78338403 36.0101444,9.82592196 36.0986964,11.7456173 C36.1943579,13.8217833 36.2146593,14.4445393 36.2146593,19.7017785 C36.2146593,24.9590959 36.1943579,25.5818519 36.0986964,27.6579397 C36.0101444,29.5777132 35.6859539,30.6202511 35.4135044,31.314052 C35.0524238,32.2330235 34.6211967,32.8889963 33.9248666,33.5779513 C33.2285364,34.2669846 32.5655416,34.6936443 31.6366537,35.0508224 C30.9354259,35.3203864 29.8817279,35.6412214 27.9414826,35.7287574 C25.8434078,35.8234838 25.2141434,35.8435702 19.9001527,35.8435702 C14.5861621,35.8435702 13.9568977,35.8234838 11.8588228,35.7287574 C9.9185776,35.6412214 8.86480057,35.3203864 8.16357277,35.0508224 C7.2347639,34.6936443 6.5717691,34.2669846 5.87543892,33.5779513 C5.17910874,32.8889963 4.7478027,32.2330235 4.38680112,31.314052 C4.11435157,30.6202511 3.7901611,29.5777132 3.70160907,27.6580178 C3.60586861,25.5818519 3.5856462,24.9590959 3.5856462,19.7017785 C3.5856462,14.4445393 3.60586861,13.8217833 3.70160907,11.7456173 C3.7901611,9.82592196 4.11435157,8.78338403 4.38680112,8.0895832 C4.7478027,7.17053353 5.17910874,6.51463891 5.87543892,5.82568383 C6.5717691,5.13665059 7.2347639,4.70999083 8.16357277,4.35281275 C8.86480057,4.08317066 9.9185776,3.7624138 11.8587439,3.67479966 C13.9572136,3.58007322 14.5865571,3.560065 19.9001527,3.560065" id="Fill-1"></path>
                </g>
                <path d="M19.9001527,26.3306753 C16.2366582,26.3306753 13.266729,23.3922018 13.266729,19.7675087 C13.266729,16.1428155 16.2366582,13.2044201 19.9001527,13.2044201 C23.5636473,13.2044201 26.5335765,16.1428155 26.5335765,19.7675087 C26.5335765,23.3922018 23.5636473,26.3306753 19.9001527,26.3306753 M19.9001527,9.65678993 C14.2563631,9.65678993 9.6811223,14.1834945 9.6811223,19.7675087 C9.6811223,25.351601 14.2563631,29.8783055 19.9001527,29.8783055 C25.5439424,29.8783055 30.1191042,25.351601 30.1191042,19.7675087 C30.1191042,14.1834945 25.5439424,9.65678993 19.9001527,9.65678993" id="Fill-4"></path>
                <path d="M32.9109103,9.25731322 C32.9109103,10.5622246 31.8418085,11.6200032 30.5229283,11.6200032 C29.2040481,11.6200032 28.1348673,10.5622246 28.1348673,9.25731322 C28.1348673,7.95240181 29.2040481,6.89462324 30.5229283,6.89462324 C31.8418085,6.89462324 32.9109103,7.95240181 32.9109103,9.25731322" id="Fill-6"></path>
            </g>
        </g>
    </g>
</svg>