<?xml version="1.0" encoding="UTF-8"?>
<svg width="48px" height="24px" viewBox="0 0 48 24" version="1.1" xmlns="http://www.w3.org/2000/svg" xmlns:xlink="http://www.w3.org/1999/xlink">
    <!-- Generator: Sketch 44.1 (41455) - http://www.bohemiancoding.com/sketch -->
    <title>Insta Copy 24</title>
    <desc>Created with Sketch.</desc>
    <defs>
        <rect id="path-1" x="0" y="23" width="48" height="24"></rect>
    </defs>
    <g id="Page-1" stroke="none" stroke-width="1" fill="none" fill-rule="evenodd">
        <g id="1-copy-21" transform="translate(-779.000000, -286.000000)">
            <g id="Insta-Copy-24" transform="translate(779.000000, 263.000000)">
                <mask id="mask-2" fill="white">
                    <use xlink:href="#path-1"></use>
                </mask>
                <g id="Rectangle-2"></g>
                <path d="M23.8801833,0.0934166402 C17.3947623,0.0934166402 16.5814423,0.120504757 14.0344617,0.235022106 C11.4925998,0.349259233 9.75675884,0.747080922 8.23770844,1.32882158 C6.66747006,1.93008437 5.33563492,2.73469485 4.00806544,4.04286407 C2.68040117,5.35112671 1.86395305,6.66340586 1.2536787,8.21069777 C0.663310777,9.70754975 0.259684155,11.4180242 0.14365809,13.9227409 C0.0274424394,16.4325951 4.73962682e-05,17.2338429 4.73962682e-05,23.6245835 C4.73962682e-05,30.0153241 0.0274424394,30.8166653 0.14365809,33.3265195 C0.259684155,35.8311428 0.663310777,37.5417107 1.2536787,39.0384692 C1.86395305,40.5857612 2.68040117,41.8981337 4.00806544,43.2063029 C5.33563492,44.5145656 6.66747006,45.3190827 8.23770844,45.9205323 C9.75675884,46.5021795 11.4925998,46.9000012 14.0344617,47.0143317 C16.5814423,47.1287557 17.3947623,47.1558438 23.8801833,47.1558438 C30.3656991,47.1558438 31.1788295,47.1287557 33.7259049,47.0143317 C36.2677668,46.9000012 38.0036077,46.5021795 39.5226581,45.9205323 C41.0929913,45.3190827 42.4247317,44.5145656 43.7523011,43.2063029 C45.0799654,41.8981337 45.8964135,40.5858546 46.5066879,39.0384692 C47.0970558,37.5417107 47.5007772,35.8311428 47.6167085,33.3265195 C47.7329241,30.8166653 47.760414,30.0153241 47.760414,23.6245835 C47.760414,17.2339363 47.7329241,16.4325951 47.6167085,13.9227409 C47.5007772,11.4180242 47.0970558,9.70754975 46.5066879,8.21069777 C45.8964135,6.66340586 45.0799654,5.35112671 43.7523011,4.04286407 C42.4247317,2.73469485 41.0929913,1.93008437 39.5226581,1.32882158 C38.0036077,0.747080922 36.2677668,0.349259233 33.7259049,0.235022106 C31.1788295,0.120504757 30.3656991,0.0934166402 23.8801833,0.0934166402 M23.8801833,4.33326737 C30.2564981,4.33326737 31.0117102,4.35717964 33.5297792,4.47038928 C35.8580735,4.57509887 37.1225111,4.95844242 37.9639845,5.28069761 C39.0786499,5.70756896 39.8742437,6.21747941 40.7098399,7.04086476 C41.5454361,7.86434351 42.0629085,8.64821757 42.4962052,9.746594 C42.8231447,10.5757706 43.2121733,11.8217306 43.3184357,14.1160007 C43.4332295,16.5972722 43.4575911,17.3415415 43.4575911,23.6245835 C43.4575911,29.9077189 43.4332295,30.6519883 43.3184357,33.1331664 C43.2121733,35.4275299 42.8231447,36.6734898 42.4962052,37.5026664 C42.0629085,38.6009495 41.5454361,39.3849169 40.7098399,40.2083023 C39.8742437,41.031781 39.0786499,41.5416915 37.9639845,41.9685628 C37.1225111,42.2907246 35.8580735,42.6741616 33.5297792,42.7787777 C31.0120894,42.8919874 30.256972,42.9159931 23.8801833,42.9159931 C17.5033945,42.9159931 16.7482772,42.8919874 14.2305874,42.7787777 C11.9022931,42.6741616 10.6377607,42.2907246 9.79628733,41.9685628 C8.68171668,41.5416915 7.88612292,41.031781 7.05052671,40.2083023 C6.21493049,39.3849169 5.69736324,38.6009495 5.26416135,37.5026664 C4.93722189,36.6734898 4.54819332,35.4275299 4.44193088,33.1332598 C4.32704233,30.6519883 4.30277544,29.9077189 4.30277544,23.6245835 C4.30277544,17.3415415 4.32704233,16.5972722 4.44193088,14.1160007 C4.54819332,11.8217306 4.93722189,10.5757706 5.26416135,9.746594 C5.69736324,8.64821757 6.21493049,7.86434351 7.05052671,7.04095816 C7.88612292,6.21747941 8.68171668,5.70756896 9.79628733,5.28069761 C10.6377607,4.95844242 11.9022931,4.57509887 14.2304926,4.47038928 C16.7486564,4.35717964 17.5038685,4.33326737 23.8801833,4.33326737" id="Fill-1" fill="#FF4337" mask="url(#mask-2)"></path>
                <path d="M23.8801833,31.4683681 C19.4839898,31.4683681 15.9200748,27.9565338 15.9200748,23.6245835 C15.9200748,19.2926332 19.4839898,15.7808924 23.8801833,15.7808924 C28.2763768,15.7808924 31.8402918,19.2926332 31.8402918,23.6245835 C31.8402918,27.9565338 28.2763768,31.4683681 23.8801833,31.4683681 M23.8801833,11.5410416 C17.1076357,11.5410416 11.6173468,16.9510056 11.6173468,23.6245835 C11.6173468,30.2982548 17.1076357,35.7082188 23.8801833,35.7082188 C30.6527309,35.7082188 36.142925,30.2982548 36.142925,23.6245835 C36.142925,16.9510056 30.6527309,11.5410416 23.8801833,11.5410416" id="Fill-4" fill="#FF4337" mask="url(#mask-2)"></path>
            </g>
        </g>
    </g>
</svg>