<?xml version="1.0" encoding="UTF-8"?>
<svg width="127px" height="24px" viewBox="0 0 127 24" version="1.1" xmlns="http://www.w3.org/2000/svg" xmlns:xlink="http://www.w3.org/1999/xlink">
    <!-- Generator: Sketch 44.1 (41455) - http://www.bohemiancoding.com/sketch -->
    <title>Group 17 Copy</title>
    <desc>Created with Sketch.</desc>
    <defs></defs>
    <g id="Docs" stroke="none" stroke-width="1" fill="none" fill-rule="evenodd">
        <g id="Home-—-Scene-2-Copy-8" transform="translate(-577.000000, -37.000000)" fill="#FA9ABA">
            <g id="Group-17-Copy" transform="translate(577.000000, 37.000000)">
                <polygon id="Fill-1" points="0 0.50919822 0 23.1980412 4.66496315 23.205908 4.66496315 13.8276315 12.1413702 13.8315648 12.1413702 9.03699006 4.79770687 9.03699006 4.79770687 5.31906949 14.2425075 5.31906949 14.2425075 0.50919822"></polygon>
                <polygon id="Fill-2" points="16.7184757 23.1689342 21.5127789 23.1689342 21.5127789 0.508935995 16.7184757 0.508935995"></polygon>
                <path d="M35.1453673,18.9155492 C38.9889787,18.9155492 42.1035633,15.7788951 42.1035633,11.9095393 C42.1035633,8.03952795 38.9889787,4.90418504 35.1453673,4.90418504 C31.3026069,4.90418504 28.1875968,8.03952795 28.1875968,11.9095393 C28.1875968,15.7788951 31.3026069,18.9155492 35.1453673,18.9155492 Z M35.1636621,0.035968598 C41.6863992,0.035968598 46.9727476,5.35936481 46.9727476,11.9274581 C46.9727476,18.4964254 41.6863992,23.818729 35.1636621,23.818729 C28.6400742,23.818729 23.3545767,18.4964254 23.3545767,11.9274581 C23.3545767,5.35958333 28.6400742,0.035968598 35.1636621,0.035968598 Z" id="Fill-3"></path>
                <path d="M66.2592611,0.509831932 L71.0722846,0.509831932 C71.0722846,0.509831932 71.064839,15.5003898 71.064839,16.1568276 C71.064839,19.9110227 77.2461439,19.9872866 77.2461439,16.2728624 L77.2461439,0.509831932 L82.0406598,0.509831932 L82.0406598,16.5307175 C82.0406598,25.9153311 66.2707486,26.5654319 66.2707486,16.5429547 C66.2705358,15.8281717 66.2592611,0.509831932 66.2592611,0.509831932" id="Fill-5"></path>
                <path d="M56.1325534,10.7144903 L53.3998198,10.7260719 L53.3998198,5.31417461 L56.5363156,5.31417461 C59.7668382,5.31417461 60.0401966,10.7144903 56.1325534,10.7144903 M58.8523106,15.030285 C66.0602519,12.6940743 65.2442184,0.509766375 55.9708784,0.509766375 C51.8081715,0.515666449 48.605942,0.509766375 48.605942,0.509766375 L48.605942,23.2040724 L53.3998198,23.2040724 L53.3998198,15.5322283 L53.7306154,15.5322283 L59.247138,23.2038539 L65.1525317,23.2038539 C65.1527444,23.2040724 59.6866389,16.1379692 58.8523106,15.030285" id="Fill-7"></path>
                <path d="M99.7829853,17.9023317 C98.740394,18.5292691 97.5188965,18.8920144 96.218476,18.8920144 C92.3759283,18.8920144 89.261131,15.7553604 89.261131,11.8875342 C89.261131,8.01730434 92.3759283,4.87933917 96.218476,4.87933917 C97.5346385,4.87933917 98.7669853,5.24907713 99.8174476,5.89087405 L102.201516,1.64129127 C100.448618,0.606811663 98.4102365,0.0100301254 96.2359199,0.0100301254 C89.7131829,0.0100301254 84.4261963,5.33473746 84.4261963,11.9028307 C84.4261963,18.4711425 89.7131829,23.797598 96.2359199,23.797598 C98.3981109,23.797598 100.423942,23.2080277 102.168969,22.1849112 L99.7829853,17.9023317 Z" id="Fill-9"></path>
                <polygon id="Fill-15" points="122.020834 23.1728676 126.815137 23.1728676 126.815137 0.516584238 122.020834 0.516584238"></polygon>
                <path d="M117.20111,17.9023317 C116.158093,18.5292691 114.939148,18.8920144 113.634473,18.8920144 C109.791925,18.8920144 106.675214,15.7553604 106.675214,11.8875342 C106.675214,8.01730434 109.791713,4.87933917 113.634473,4.87933917 C114.952976,4.87933917 116.182982,5.24907713 117.233445,5.89087405 L119.619215,1.64129127 C117.867168,0.606811663 115.829637,0.0100301254 113.651917,0.0100301254 C107.12918,0.0100301254 101.843044,5.33473746 101.843044,11.9028307 C101.843044,18.4711425 107.12918,23.797598 113.651917,23.797598 C115.816661,23.797598 117.842279,23.2080277 119.587306,22.1849112 L117.20111,17.9023317 Z" id="Fill-12"></path>
            </g>
        </g>
    </g>
</svg>